<?xml version="1.0" encoding="UTF-8" standalone="no"?>
<!DOCTYPE svg PUBLIC "-//W3C//DTD SVG 1.1//EN"
 "http://www.w3.org/Graphics/SVG/1.1/DTD/svg11.dtd">
<!-- Generated by graphviz version 2.43.0 (0)
 -->
<!-- Title: deprecated.h Pages: 1 -->
<svg width="1794pt" height="532pt"
 viewBox="0.00 0.00 1794.00 532.00" xmlns="http://www.w3.org/2000/svg" xmlns:xlink="http://www.w3.org/1999/xlink">
<g id="graph0" class="graph" transform="scale(1 1) rotate(0) translate(4 528)">
<title>deprecated.h</title>
<polygon fill="white" stroke="transparent" points="-4,4 -4,-528 1790,-528 1790,4 -4,4"/>
<!-- Node1 -->
<g id="node1" class="node">
<title>Node1</title>
<g id="a_node1"><a xlink:title=" ">
<polygon fill="#bfbfbf" stroke="black" points="1526,-504.5 1526,-523.5 1606,-523.5 1606,-504.5 1526,-504.5"/>
<text text-anchor="middle" x="1566" y="-511.5" font-family="Helvetica,sans-Serif" font-size="10.00">deprecated.h</text>
</a>
</g>
</g>
<!-- Node2 -->
<g id="node2" class="node">
<title>Node2</title>
<g id="a_node2"><a xlink:href="api_2abi-default_2event__types_8h_source.html" target="_top" xlink:title=" ">
<polygon fill="white" stroke="black" points="312,-280.5 312,-299.5 398,-299.5 398,-280.5 312,-280.5"/>
<text text-anchor="middle" x="355" y="-287.5" font-family="Helvetica,sans-Serif" font-size="10.00">event_types.h</text>
</a>
</g>
</g>
<!-- Node1&#45;&gt;Node2 -->
<g id="edge1" class="edge">
<title>Node1&#45;&gt;Node2</title>
<path fill="none" stroke="midnightblue" d="M1515.72,-504.01C1465.23,-494.97 1385.21,-480.6 1316,-468 961.33,-403.42 533.31,-324.09 398.09,-299"/>
<polygon fill="midnightblue" stroke="midnightblue" points="1515.26,-507.48 1525.72,-505.8 1516.5,-500.59 1515.26,-507.48"/>
</g>
<!-- Node12 -->
<g id="node12" class="node">
<title>Node12</title>
<g id="a_node12"><a xlink:href="odp__api_8h.html" target="_top" xlink:title=" ">
<polygon fill="white" stroke="black" points="1282,-0.5 1282,-19.5 1346,-19.5 1346,-0.5 1282,-0.5"/>
<text text-anchor="middle" x="1314" y="-7.5" font-family="Helvetica,sans-Serif" font-size="10.00">odp_api.h</text>
</a>
</g>
</g>
<!-- Node1&#45;&gt;Node12 -->
<g id="edge72" class="edge">
<title>Node1&#45;&gt;Node12</title>
<path fill="none" stroke="midnightblue" d="M1616.15,-509.61C1681.08,-502.18 1786,-478.49 1786,-403 1786,-403 1786,-403 1786,-121 1786,-77.56 1752.67,-73.71 1713,-56 1647.44,-26.73 1429.03,-15.43 1346.21,-12.13"/>
<polygon fill="midnightblue" stroke="midnightblue" points="1615.67,-506.14 1606.1,-510.66 1616.41,-513.1 1615.67,-506.14"/>
</g>
<!-- Node47 -->
<g id="node28" class="node">
<title>Node47</title>
<g id="a_node28"><a xlink:href="api_2abi-default_2schedule__types_8h.html" target="_top" xlink:title=" ">
<polygon fill="white" stroke="black" points="981.5,-280.5 981.5,-299.5 1082.5,-299.5 1082.5,-280.5 981.5,-280.5"/>
<text text-anchor="middle" x="1032" y="-287.5" font-family="Helvetica,sans-Serif" font-size="10.00">schedule_types.h</text>
</a>
</g>
</g>
<!-- Node1&#45;&gt;Node47 -->
<g id="edge33" class="edge">
<title>Node1&#45;&gt;Node47</title>
<path fill="none" stroke="midnightblue" d="M1515.73,-505.32C1475.07,-498.22 1416.77,-486.03 1368,-468 1235.35,-418.95 1089.1,-327.83 1045.17,-299.58"/>
<polygon fill="midnightblue" stroke="midnightblue" points="1515.22,-508.78 1525.67,-507.01 1516.4,-501.88 1515.22,-508.78"/>
</g>
<!-- Node21 -->
<g id="node37" class="node">
<title>Node21</title>
<g id="a_node37"><a xlink:href="api_2spec_2classification_8h.html" target="_top" xlink:title=" ">
<polygon fill="white" stroke="black" points="1554.5,-224.5 1554.5,-243.5 1643.5,-243.5 1643.5,-224.5 1554.5,-224.5"/>
<text text-anchor="middle" x="1599" y="-231.5" font-family="Helvetica,sans-Serif" font-size="10.00">classification.h</text>
</a>
</g>
</g>
<!-- Node1&#45;&gt;Node21 -->
<g id="edge44" class="edge">
<title>Node1&#45;&gt;Node21</title>
<path fill="none" stroke="midnightblue" d="M1571.49,-494.41C1577.41,-472.68 1586,-435.56 1586,-403 1586,-403 1586,-403 1586,-345 1586,-306.92 1593.78,-261.94 1597.3,-243.52"/>
<polygon fill="midnightblue" stroke="midnightblue" points="1568.06,-493.68 1568.7,-504.26 1574.79,-495.59 1568.06,-493.68"/>
</g>
<!-- Node25 -->
<g id="node41" class="node">
<title>Node25</title>
<g id="a_node41"><a xlink:href="api_2spec_2packet__io_8h.html" target="_top" xlink:title=" ">
<polygon fill="white" stroke="black" points="1636,-112.5 1636,-131.5 1708,-131.5 1708,-112.5 1636,-112.5"/>
<text text-anchor="middle" x="1672" y="-119.5" font-family="Helvetica,sans-Serif" font-size="10.00">packet_io.h</text>
</a>
</g>
</g>
<!-- Node1&#45;&gt;Node25 -->
<g id="edge57" class="edge">
<title>Node1&#45;&gt;Node25</title>
<path fill="none" stroke="midnightblue" d="M1616.63,-510.54C1651.18,-506.29 1695.79,-495.39 1725,-468 1747.35,-447.04 1748,-433.64 1748,-403 1748,-403 1748,-403 1748,-233 1748,-188.2 1704.8,-148.43 1683.54,-131.57"/>
<polygon fill="midnightblue" stroke="midnightblue" points="1615.83,-507.1 1606.26,-511.65 1616.58,-514.06 1615.83,-507.1"/>
</g>
<!-- Node27 -->
<g id="node43" class="node">
<title>Node27</title>
<g id="a_node43"><a xlink:href="api_2spec_2crypto_8h.html" target="_top" xlink:title=" ">
<polygon fill="white" stroke="black" points="1377,-448.5 1377,-467.5 1433,-467.5 1433,-448.5 1377,-448.5"/>
<text text-anchor="middle" x="1405" y="-455.5" font-family="Helvetica,sans-Serif" font-size="10.00">crypto.h</text>
</a>
</g>
</g>
<!-- Node1&#45;&gt;Node27 -->
<g id="edge53" class="edge">
<title>Node1&#45;&gt;Node27</title>
<path fill="none" stroke="midnightblue" d="M1530.74,-501.17C1500.42,-491 1457.43,-476.59 1430.39,-467.52"/>
<polygon fill="midnightblue" stroke="midnightblue" points="1529.9,-504.58 1540.49,-504.44 1532.12,-497.95 1529.9,-504.58"/>
</g>
<!-- Node57 -->
<g id="node45" class="node">
<title>Node57</title>
<g id="a_node45"><a xlink:href="spec_2packet__io__stats_8h.html" target="_top" xlink:title=" ">
<polygon fill="white" stroke="black" points="1614.5,-448.5 1614.5,-467.5 1715.5,-467.5 1715.5,-448.5 1614.5,-448.5"/>
<text text-anchor="middle" x="1665" y="-455.5" font-family="Helvetica,sans-Serif" font-size="10.00">packet_io_stats.h</text>
</a>
</g>
</g>
<!-- Node1&#45;&gt;Node57 -->
<g id="edge58" class="edge">
<title>Node1&#45;&gt;Node57</title>
<path fill="none" stroke="midnightblue" d="M1590.84,-499.45C1609.11,-489.48 1633.42,-476.23 1649.13,-467.65"/>
<polygon fill="midnightblue" stroke="midnightblue" points="1589.01,-496.46 1581.91,-504.32 1592.36,-502.61 1589.01,-496.46"/>
</g>
<!-- Node31 -->
<g id="node47" class="node">
<title>Node31</title>
<g id="a_node47"><a xlink:href="api_2spec_2packet__io__types_8h.html" target="_top" xlink:title=" ">
<polygon fill="white" stroke="black" points="1454,-336.5 1454,-355.5 1558,-355.5 1558,-336.5 1454,-336.5"/>
<text text-anchor="middle" x="1506" y="-343.5" font-family="Helvetica,sans-Serif" font-size="10.00">packet_io_types.h</text>
</a>
</g>
</g>
<!-- Node1&#45;&gt;Node31 -->
<g id="edge71" class="edge">
<title>Node1&#45;&gt;Node31</title>
<path fill="none" stroke="midnightblue" d="M1559.28,-494.39C1546.33,-458.59 1518.41,-381.34 1509.1,-355.57"/>
<polygon fill="midnightblue" stroke="midnightblue" points="1556.08,-495.86 1562.77,-504.08 1562.67,-493.48 1556.08,-495.86"/>
</g>
<!-- Node3 -->
<g id="node3" class="node">
<title>Node3</title>
<g id="a_node3"><a xlink:href="arch_2arm32-linux_2odp_2api_2abi_2event__types_8h_source.html" target="_top" xlink:title=" ">
<polygon fill="white" stroke="black" points="520,-224.5 520,-243.5 606,-243.5 606,-224.5 520,-224.5"/>
<text text-anchor="middle" x="563" y="-231.5" font-family="Helvetica,sans-Serif" font-size="10.00">event_types.h</text>
</a>
</g>
</g>
<!-- Node2&#45;&gt;Node3 -->
<g id="edge2" class="edge">
<title>Node2&#45;&gt;Node3</title>
<path fill="none" stroke="midnightblue" d="M397.78,-277.89C437.06,-267.7 494.43,-252.8 530.2,-243.52"/>
<polygon fill="midnightblue" stroke="midnightblue" points="396.76,-274.54 387.96,-280.44 398.52,-281.32 396.76,-274.54"/>
</g>
<!-- Node4 -->
<g id="node4" class="node">
<title>Node4</title>
<g id="a_node4"><a xlink:href="arch_2arm64-linux_2odp_2api_2abi_2event__types_8h_source.html" target="_top" xlink:title=" ">
<polygon fill="white" stroke="black" points="104,-224.5 104,-243.5 190,-243.5 190,-224.5 104,-224.5"/>
<text text-anchor="middle" x="147" y="-231.5" font-family="Helvetica,sans-Serif" font-size="10.00">event_types.h</text>
</a>
</g>
</g>
<!-- Node2&#45;&gt;Node4 -->
<g id="edge3" class="edge">
<title>Node2&#45;&gt;Node4</title>
<path fill="none" stroke="midnightblue" d="M312.22,-277.89C272.94,-267.7 215.57,-252.8 179.8,-243.52"/>
<polygon fill="midnightblue" stroke="midnightblue" points="311.48,-281.32 322.04,-280.44 313.24,-274.54 311.48,-281.32"/>
</g>
<!-- Node5 -->
<g id="node5" class="node">
<title>Node5</title>
<g id="a_node5"><a xlink:href="arch_2default-linux_2odp_2api_2abi_2event__types_8h_source.html" target="_top" xlink:title=" ">
<polygon fill="white" stroke="black" points="208,-224.5 208,-243.5 294,-243.5 294,-224.5 208,-224.5"/>
<text text-anchor="middle" x="251" y="-231.5" font-family="Helvetica,sans-Serif" font-size="10.00">event_types.h</text>
</a>
</g>
</g>
<!-- Node2&#45;&gt;Node5 -->
<g id="edge4" class="edge">
<title>Node2&#45;&gt;Node5</title>
<path fill="none" stroke="midnightblue" d="M329.17,-275.59C309.94,-265.61 284.26,-252.27 267.67,-243.65"/>
<polygon fill="midnightblue" stroke="midnightblue" points="327.8,-278.82 338.29,-280.32 331.03,-272.61 327.8,-278.82"/>
</g>
<!-- Node6 -->
<g id="node6" class="node">
<title>Node6</title>
<g id="a_node6"><a xlink:href="arch_2power64-linux_2odp_2api_2abi_2event__types_8h_source.html" target="_top" xlink:title=" ">
<polygon fill="white" stroke="black" points="312,-224.5 312,-243.5 398,-243.5 398,-224.5 312,-224.5"/>
<text text-anchor="middle" x="355" y="-231.5" font-family="Helvetica,sans-Serif" font-size="10.00">event_types.h</text>
</a>
</g>
</g>
<!-- Node2&#45;&gt;Node6 -->
<g id="edge5" class="edge">
<title>Node2&#45;&gt;Node6</title>
<path fill="none" stroke="midnightblue" d="M355,-269.8C355,-260.91 355,-250.78 355,-243.75"/>
<polygon fill="midnightblue" stroke="midnightblue" points="351.5,-270.08 355,-280.08 358.5,-270.08 351.5,-270.08"/>
</g>
<!-- Node7 -->
<g id="node7" class="node">
<title>Node7</title>
<g id="a_node7"><a xlink:href="arch_2x86__32-linux_2odp_2api_2abi_2event__types_8h_source.html" target="_top" xlink:title=" ">
<polygon fill="white" stroke="black" points="416,-224.5 416,-243.5 502,-243.5 502,-224.5 416,-224.5"/>
<text text-anchor="middle" x="459" y="-231.5" font-family="Helvetica,sans-Serif" font-size="10.00">event_types.h</text>
</a>
</g>
</g>
<!-- Node2&#45;&gt;Node7 -->
<g id="edge6" class="edge">
<title>Node2&#45;&gt;Node7</title>
<path fill="none" stroke="midnightblue" d="M380.83,-275.59C400.06,-265.61 425.74,-252.27 442.33,-243.65"/>
<polygon fill="midnightblue" stroke="midnightblue" points="378.97,-272.61 371.71,-280.32 382.2,-278.82 378.97,-272.61"/>
</g>
<!-- Node8 -->
<g id="node8" class="node">
<title>Node8</title>
<g id="a_node8"><a xlink:href="arch_2x86__64-linux_2odp_2api_2abi_2event__types_8h_source.html" target="_top" xlink:title=" ">
<polygon fill="white" stroke="black" points="0,-224.5 0,-243.5 86,-243.5 86,-224.5 0,-224.5"/>
<text text-anchor="middle" x="43" y="-231.5" font-family="Helvetica,sans-Serif" font-size="10.00">event_types.h</text>
</a>
</g>
</g>
<!-- Node2&#45;&gt;Node8 -->
<g id="edge7" class="edge">
<title>Node2&#45;&gt;Node8</title>
<path fill="none" stroke="midnightblue" d="M301.77,-279.79C240.9,-269.25 142.4,-252.2 86.11,-242.46"/>
<polygon fill="midnightblue" stroke="midnightblue" points="301.49,-283.29 311.95,-281.55 302.69,-276.39 301.49,-283.29"/>
</g>
<!-- Node9 -->
<g id="node9" class="node">
<title>Node9</title>
<g id="a_node9"><a xlink:href="api_2event__types_8h.html" target="_top" xlink:title=" ">
<polygon fill="white" stroke="black" points="769,-168.5 769,-187.5 855,-187.5 855,-168.5 769,-168.5"/>
<text text-anchor="middle" x="812" y="-175.5" font-family="Helvetica,sans-Serif" font-size="10.00">event_types.h</text>
</a>
</g>
</g>
<!-- Node8&#45;&gt;Node9 -->
<g id="edge8" class="edge">
<title>Node8&#45;&gt;Node9</title>
<path fill="none" stroke="midnightblue" d="M96.12,-224C357.02,-193.83 658.12,-183.18 768.61,-180.08"/>
<polygon fill="midnightblue" stroke="midnightblue" points="95.6,-220.54 86.08,-225.17 96.42,-227.49 95.6,-220.54"/>
</g>
<!-- Node10 -->
<g id="node10" class="node">
<title>Node10</title>
<g id="a_node10"><a xlink:href="api_2spec_2buffer_8h.html" target="_top" xlink:title=" ">
<polygon fill="white" stroke="black" points="567.5,-112.5 567.5,-131.5 620.5,-131.5 620.5,-112.5 567.5,-112.5"/>
<text text-anchor="middle" x="594" y="-119.5" font-family="Helvetica,sans-Serif" font-size="10.00">buffer.h</text>
</a>
</g>
</g>
<!-- Node9&#45;&gt;Node10 -->
<g id="edge9" class="edge">
<title>Node9&#45;&gt;Node10</title>
<path fill="none" stroke="midnightblue" d="M767.51,-166.03C730.66,-156.94 676.92,-143.67 630,-132 627,-131.25 623.86,-130.47 620.73,-129.69"/>
<polygon fill="midnightblue" stroke="midnightblue" points="766.89,-169.49 777.44,-168.48 768.57,-162.69 766.89,-169.49"/>
</g>
<!-- Node13 -->
<g id="node13" class="node">
<title>Node13</title>
<g id="a_node13"><a xlink:href="api_2spec_2comp_8h.html" target="_top" xlink:title=" ">
<polygon fill="white" stroke="black" points="913.5,-112.5 913.5,-131.5 966.5,-131.5 966.5,-112.5 913.5,-112.5"/>
<text text-anchor="middle" x="940" y="-119.5" font-family="Helvetica,sans-Serif" font-size="10.00">comp.h</text>
</a>
</g>
</g>
<!-- Node9&#45;&gt;Node13 -->
<g id="edge12" class="edge">
<title>Node9&#45;&gt;Node13</title>
<path fill="none" stroke="midnightblue" d="M841.62,-164.5C865.62,-154.38 898.78,-140.39 919.81,-131.52"/>
<polygon fill="midnightblue" stroke="midnightblue" points="840.14,-161.33 832.28,-168.44 842.86,-167.78 840.14,-161.33"/>
</g>
<!-- Node15 -->
<g id="node15" class="node">
<title>Node15</title>
<g id="a_node15"><a xlink:href="api_2spec_2dma__types_8h.html" target="_top" xlink:title=" ">
<polygon fill="white" stroke="black" points="815,-112.5 815,-131.5 895,-131.5 895,-112.5 815,-112.5"/>
<text text-anchor="middle" x="855" y="-119.5" font-family="Helvetica,sans-Serif" font-size="10.00">dma_types.h</text>
</a>
</g>
</g>
<!-- Node9&#45;&gt;Node15 -->
<g id="edge15" class="edge">
<title>Node9&#45;&gt;Node15</title>
<path fill="none" stroke="midnightblue" d="M825.42,-160.14C832.91,-150.74 841.94,-139.4 848.03,-131.75"/>
<polygon fill="midnightblue" stroke="midnightblue" points="822.59,-158.08 819.1,-168.08 828.07,-162.44 822.59,-158.08"/>
</g>
<!-- Node39 -->
<g id="node17" class="node">
<title>Node39</title>
<g id="a_node17"><a xlink:href="api_2spec_2event_8h.html" target="_top" xlink:title=" ">
<polygon fill="white" stroke="black" points="496.5,-112.5 496.5,-131.5 549.5,-131.5 549.5,-112.5 496.5,-112.5"/>
<text text-anchor="middle" x="523" y="-119.5" font-family="Helvetica,sans-Serif" font-size="10.00">event.h</text>
</a>
</g>
</g>
<!-- Node9&#45;&gt;Node39 -->
<g id="edge17" class="edge">
<title>Node9&#45;&gt;Node39</title>
<path fill="none" stroke="midnightblue" d="M758.74,-168.78C707.19,-160.53 626.93,-146.95 558,-132 555.3,-131.42 552.5,-130.77 549.7,-130.09"/>
<polygon fill="midnightblue" stroke="midnightblue" points="758.23,-172.24 768.66,-170.36 759.33,-165.33 758.23,-172.24"/>
</g>
<!-- Node29 -->
<g id="node19" class="node">
<title>Node29</title>
<g id="a_node19"><a xlink:href="api_2spec_2packet_8h.html" target="_top" xlink:title=" ">
<polygon fill="white" stroke="black" points="1285,-112.5 1285,-131.5 1343,-131.5 1343,-112.5 1285,-112.5"/>
<text text-anchor="middle" x="1314" y="-119.5" font-family="Helvetica,sans-Serif" font-size="10.00">packet.h</text>
</a>
</g>
</g>
<!-- Node9&#45;&gt;Node29 -->
<g id="edge20" class="edge">
<title>Node9&#45;&gt;Node29</title>
<path fill="none" stroke="midnightblue" d="M865.66,-171.55C946.46,-163.3 1104.14,-147 1238,-132 1253.45,-130.27 1270.65,-128.24 1284.78,-126.55"/>
<polygon fill="midnightblue" stroke="midnightblue" points="864.85,-168.12 855.26,-172.61 865.56,-175.08 864.85,-168.12"/>
</g>
<!-- Node41 -->
<g id="node21" class="node">
<title>Node41</title>
<g id="a_node21"><a xlink:href="api_2spec_2queue_8h.html" target="_top" xlink:title=" ">
<polygon fill="white" stroke="black" points="741,-112.5 741,-131.5 797,-131.5 797,-112.5 741,-112.5"/>
<text text-anchor="middle" x="769" y="-119.5" font-family="Helvetica,sans-Serif" font-size="10.00">queue.h</text>
</a>
</g>
</g>
<!-- Node9&#45;&gt;Node41 -->
<g id="edge23" class="edge">
<title>Node9&#45;&gt;Node41</title>
<path fill="none" stroke="midnightblue" d="M798.58,-160.14C791.09,-150.74 782.06,-139.4 775.97,-131.75"/>
<polygon fill="midnightblue" stroke="midnightblue" points="795.93,-162.44 804.9,-168.08 801.41,-158.08 795.93,-162.44"/>
</g>
<!-- Node43 -->
<g id="node23" class="node">
<title>Node43</title>
<g id="a_node23"><a xlink:href="api_2spec_2schedule_8h.html" target="_top" xlink:title=" ">
<polygon fill="white" stroke="black" points="1053.5,-112.5 1053.5,-131.5 1122.5,-131.5 1122.5,-112.5 1053.5,-112.5"/>
<text text-anchor="middle" x="1088" y="-119.5" font-family="Helvetica,sans-Serif" font-size="10.00">schedule.h</text>
</a>
</g>
</g>
<!-- Node9&#45;&gt;Node43 -->
<g id="edge26" class="edge">
<title>Node9&#45;&gt;Node43</title>
<path fill="none" stroke="midnightblue" d="M865.42,-166.93C912.68,-157.96 983.48,-144.38 1045,-132 1047.69,-131.46 1050.48,-130.89 1053.28,-130.32"/>
<polygon fill="midnightblue" stroke="midnightblue" points="864.59,-163.52 855.41,-168.82 865.89,-170.4 864.59,-163.52"/>
</g>
<!-- Node37 -->
<g id="node25" class="node">
<title>Node37</title>
<g id="a_node25"><a xlink:href="api_2spec_2timer_8h.html" target="_top" xlink:title=" ">
<polygon fill="white" stroke="black" points="984.5,-112.5 984.5,-131.5 1035.5,-131.5 1035.5,-112.5 984.5,-112.5"/>
<text text-anchor="middle" x="1010" y="-119.5" font-family="Helvetica,sans-Serif" font-size="10.00">timer.h</text>
</a>
</g>
</g>
<!-- Node9&#45;&gt;Node37 -->
<g id="edge29" class="edge">
<title>Node9&#45;&gt;Node37</title>
<path fill="none" stroke="midnightblue" d="M853.24,-165.75C892.78,-154.97 951.21,-139.03 984.44,-129.97"/>
<polygon fill="midnightblue" stroke="midnightblue" points="852.1,-162.44 843.37,-168.44 853.94,-169.19 852.1,-162.44"/>
</g>
<!-- Node45 -->
<g id="node27" class="node">
<title>Node45</title>
<g id="a_node27"><a xlink:href="api_2spec_2timer__types_8h.html" target="_top" xlink:title=" ">
<polygon fill="white" stroke="red" points="639,-112.5 639,-131.5 723,-131.5 723,-112.5 639,-112.5"/>
<text text-anchor="middle" x="681" y="-119.5" font-family="Helvetica,sans-Serif" font-size="10.00">timer_types.h</text>
</a>
</g>
</g>
<!-- Node9&#45;&gt;Node45 -->
<g id="edge32" class="edge">
<title>Node9&#45;&gt;Node45</title>
<path fill="none" stroke="midnightblue" d="M781.68,-164.5C757.12,-154.38 723.18,-140.39 701.66,-131.52"/>
<polygon fill="midnightblue" stroke="midnightblue" points="780.66,-167.87 791.24,-168.44 783.33,-161.4 780.66,-167.87"/>
</g>
<!-- Node11 -->
<g id="node11" class="node">
<title>Node11</title>
<g id="a_node11"><a xlink:href="api_2buffer_8h.html" target="_top" xlink:title=" ">
<polygon fill="white" stroke="black" points="644.5,-56.5 644.5,-75.5 697.5,-75.5 697.5,-56.5 644.5,-56.5"/>
<text text-anchor="middle" x="671" y="-63.5" font-family="Helvetica,sans-Serif" font-size="10.00">buffer.h</text>
</a>
</g>
</g>
<!-- Node10&#45;&gt;Node11 -->
<g id="edge10" class="edge">
<title>Node10&#45;&gt;Node11</title>
<path fill="none" stroke="midnightblue" d="M614.9,-106.34C628.91,-96.52 646.88,-83.91 658.66,-75.65"/>
<polygon fill="midnightblue" stroke="midnightblue" points="612.55,-103.72 606.37,-112.32 616.57,-109.45 612.55,-103.72"/>
</g>
<!-- Node11&#45;&gt;Node12 -->
<g id="edge11" class="edge">
<title>Node11&#45;&gt;Node12</title>
<path fill="none" stroke="midnightblue" d="M707.82,-59.15C715.78,-58 724.16,-56.88 732,-56 940.97,-32.53 1193.55,-17.54 1281.75,-12.71"/>
<polygon fill="midnightblue" stroke="midnightblue" points="707.05,-55.72 697.67,-60.66 708.08,-62.65 707.05,-55.72"/>
</g>
<!-- Node14 -->
<g id="node14" class="node">
<title>Node14</title>
<g id="a_node14"><a xlink:href="api_2comp_8h.html" target="_top" xlink:title=" ">
<polygon fill="white" stroke="black" points="949.5,-56.5 949.5,-75.5 1002.5,-75.5 1002.5,-56.5 949.5,-56.5"/>
<text text-anchor="middle" x="976" y="-63.5" font-family="Helvetica,sans-Serif" font-size="10.00">comp.h</text>
</a>
</g>
</g>
<!-- Node13&#45;&gt;Node14 -->
<g id="edge13" class="edge">
<title>Node13&#45;&gt;Node14</title>
<path fill="none" stroke="midnightblue" d="M951.62,-103.57C957.82,-94.27 965.17,-83.25 970.17,-75.75"/>
<polygon fill="midnightblue" stroke="midnightblue" points="948.58,-101.82 945.94,-112.08 954.4,-105.7 948.58,-101.82"/>
</g>
<!-- Node14&#45;&gt;Node12 -->
<g id="edge14" class="edge">
<title>Node14&#45;&gt;Node12</title>
<path fill="none" stroke="midnightblue" d="M1012.54,-59.16C1079,-48.54 1218.61,-26.24 1281.76,-16.15"/>
<polygon fill="midnightblue" stroke="midnightblue" points="1011.84,-55.73 1002.52,-60.76 1012.95,-62.64 1011.84,-55.73"/>
</g>
<!-- Node16 -->
<g id="node16" class="node">
<title>Node16</title>
<g id="a_node16"><a xlink:href="api_2dma__types_8h.html" target="_top" xlink:title=" ">
<polygon fill="white" stroke="red" points="815,-56.5 815,-75.5 895,-75.5 895,-56.5 815,-56.5"/>
<text text-anchor="middle" x="855" y="-63.5" font-family="Helvetica,sans-Serif" font-size="10.00">dma_types.h</text>
</a>
</g>
</g>
<!-- Node15&#45;&gt;Node16 -->
<g id="edge16" class="edge">
<title>Node15&#45;&gt;Node16</title>
<path fill="none" stroke="midnightblue" d="M855,-101.8C855,-92.91 855,-82.78 855,-75.75"/>
<polygon fill="midnightblue" stroke="midnightblue" points="851.5,-102.08 855,-112.08 858.5,-102.08 851.5,-102.08"/>
</g>
<!-- Node40 -->
<g id="node18" class="node">
<title>Node40</title>
<g id="a_node18"><a xlink:href="api_2event_8h.html" target="_top" xlink:title=" ">
<polygon fill="white" stroke="black" points="522.5,-56.5 522.5,-75.5 575.5,-75.5 575.5,-56.5 522.5,-56.5"/>
<text text-anchor="middle" x="549" y="-63.5" font-family="Helvetica,sans-Serif" font-size="10.00">event.h</text>
</a>
</g>
</g>
<!-- Node39&#45;&gt;Node40 -->
<g id="edge18" class="edge">
<title>Node39&#45;&gt;Node40</title>
<path fill="none" stroke="midnightblue" d="M531.67,-102.98C536.09,-93.82 541.25,-83.09 544.79,-75.75"/>
<polygon fill="midnightblue" stroke="midnightblue" points="528.48,-101.55 527.29,-112.08 534.79,-104.59 528.48,-101.55"/>
</g>
<!-- Node40&#45;&gt;Node12 -->
<g id="edge19" class="edge">
<title>Node40&#45;&gt;Node12</title>
<path fill="none" stroke="midnightblue" d="M585.77,-60.84C600.99,-59.2 618.84,-57.38 635,-56 883.67,-34.76 1184.3,-17.93 1281.8,-12.7"/>
<polygon fill="midnightblue" stroke="midnightblue" points="585.27,-57.38 575.7,-61.94 586.03,-64.33 585.27,-57.38"/>
</g>
<!-- Node30 -->
<g id="node20" class="node">
<title>Node30</title>
<g id="a_node20"><a xlink:href="api_2packet_8h.html" target="_top" xlink:title=" ">
<polygon fill="white" stroke="black" points="1285,-56.5 1285,-75.5 1343,-75.5 1343,-56.5 1285,-56.5"/>
<text text-anchor="middle" x="1314" y="-63.5" font-family="Helvetica,sans-Serif" font-size="10.00">packet.h</text>
</a>
</g>
</g>
<!-- Node29&#45;&gt;Node30 -->
<g id="edge21" class="edge">
<title>Node29&#45;&gt;Node30</title>
<path fill="none" stroke="midnightblue" d="M1314,-101.8C1314,-92.91 1314,-82.78 1314,-75.75"/>
<polygon fill="midnightblue" stroke="midnightblue" points="1310.5,-102.08 1314,-112.08 1317.5,-102.08 1310.5,-102.08"/>
</g>
<!-- Node30&#45;&gt;Node12 -->
<g id="edge22" class="edge">
<title>Node30&#45;&gt;Node12</title>
<path fill="none" stroke="midnightblue" d="M1314,-45.8C1314,-36.91 1314,-26.78 1314,-19.75"/>
<polygon fill="midnightblue" stroke="midnightblue" points="1310.5,-46.08 1314,-56.08 1317.5,-46.08 1310.5,-46.08"/>
</g>
<!-- Node42 -->
<g id="node22" class="node">
<title>Node42</title>
<g id="a_node22"><a xlink:href="api_2queue_8h.html" target="_top" xlink:title=" ">
<polygon fill="white" stroke="black" points="741,-56.5 741,-75.5 797,-75.5 797,-56.5 741,-56.5"/>
<text text-anchor="middle" x="769" y="-63.5" font-family="Helvetica,sans-Serif" font-size="10.00">queue.h</text>
</a>
</g>
</g>
<!-- Node41&#45;&gt;Node42 -->
<g id="edge24" class="edge">
<title>Node41&#45;&gt;Node42</title>
<path fill="none" stroke="midnightblue" d="M769,-101.8C769,-92.91 769,-82.78 769,-75.75"/>
<polygon fill="midnightblue" stroke="midnightblue" points="765.5,-102.08 769,-112.08 772.5,-102.08 765.5,-102.08"/>
</g>
<!-- Node42&#45;&gt;Node12 -->
<g id="edge25" class="edge">
<title>Node42&#45;&gt;Node12</title>
<path fill="none" stroke="midnightblue" d="M807.09,-56.06C992.02,-26.18 1202.93,-15.4 1281.99,-12.16"/>
<polygon fill="midnightblue" stroke="midnightblue" points="806.49,-52.61 797.19,-57.68 807.63,-59.52 806.49,-52.61"/>
</g>
<!-- Node44 -->
<g id="node24" class="node">
<title>Node44</title>
<g id="a_node24"><a xlink:href="api_2schedule_8h.html" target="_top" xlink:title=" ">
<polygon fill="white" stroke="black" points="1197.5,-56.5 1197.5,-75.5 1266.5,-75.5 1266.5,-56.5 1197.5,-56.5"/>
<text text-anchor="middle" x="1232" y="-63.5" font-family="Helvetica,sans-Serif" font-size="10.00">schedule.h</text>
</a>
</g>
</g>
<!-- Node43&#45;&gt;Node44 -->
<g id="edge27" class="edge">
<title>Node43&#45;&gt;Node44</title>
<path fill="none" stroke="midnightblue" d="M1120.25,-108.91C1147.32,-98.75 1185.32,-84.51 1209.29,-75.52"/>
<polygon fill="midnightblue" stroke="midnightblue" points="1118.95,-105.66 1110.82,-112.44 1121.41,-112.21 1118.95,-105.66"/>
</g>
<!-- Node44&#45;&gt;Node12 -->
<g id="edge28" class="edge">
<title>Node44&#45;&gt;Node12</title>
<path fill="none" stroke="midnightblue" d="M1253.83,-50.62C1268.81,-40.76 1288.2,-27.99 1300.86,-19.65"/>
<polygon fill="midnightblue" stroke="midnightblue" points="1251.6,-47.9 1245.17,-56.32 1255.45,-53.75 1251.6,-47.9"/>
</g>
<!-- Node38 -->
<g id="node26" class="node">
<title>Node38</title>
<g id="a_node26"><a xlink:href="api_2timer_8h.html" target="_top" xlink:title=" ">
<polygon fill="white" stroke="black" points="1092.5,-56.5 1092.5,-75.5 1143.5,-75.5 1143.5,-56.5 1092.5,-56.5"/>
<text text-anchor="middle" x="1118" y="-63.5" font-family="Helvetica,sans-Serif" font-size="10.00">timer.h</text>
</a>
</g>
</g>
<!-- Node37&#45;&gt;Node38 -->
<g id="edge30" class="edge">
<title>Node37&#45;&gt;Node38</title>
<path fill="none" stroke="midnightblue" d="M1036.55,-107.73C1056.55,-97.73 1083.39,-84.31 1100.69,-75.65"/>
<polygon fill="midnightblue" stroke="midnightblue" points="1034.73,-104.72 1027.35,-112.32 1037.86,-110.98 1034.73,-104.72"/>
</g>
<!-- Node38&#45;&gt;Node12 -->
<g id="edge31" class="edge">
<title>Node38&#45;&gt;Node12</title>
<path fill="none" stroke="midnightblue" d="M1153.46,-55.23C1190.38,-45.06 1247.65,-29.28 1282.87,-19.58"/>
<polygon fill="midnightblue" stroke="midnightblue" points="1152.33,-51.91 1143.62,-57.94 1154.19,-58.66 1152.33,-51.91"/>
</g>
<!-- Node48 -->
<g id="node29" class="node">
<title>Node48</title>
<g id="a_node29"><a xlink:href="arch_2arm32-linux_2odp_2api_2abi_2schedule__types_8h_source.html" target="_top" xlink:title=" ">
<polygon fill="white" stroke="black" points="743.5,-224.5 743.5,-243.5 844.5,-243.5 844.5,-224.5 743.5,-224.5"/>
<text text-anchor="middle" x="794" y="-231.5" font-family="Helvetica,sans-Serif" font-size="10.00">schedule_types.h</text>
</a>
</g>
</g>
<!-- Node47&#45;&gt;Node48 -->
<g id="edge34" class="edge">
<title>Node47&#45;&gt;Node48</title>
<path fill="none" stroke="midnightblue" d="M984.48,-278.22C939.5,-268.01 872.9,-252.9 831.54,-243.52"/>
<polygon fill="midnightblue" stroke="midnightblue" points="983.76,-281.64 994.29,-280.44 985.31,-274.82 983.76,-281.64"/>
</g>
<!-- Node49 -->
<g id="node30" class="node">
<title>Node49</title>
<g id="a_node30"><a xlink:href="arch_2arm64-linux_2odp_2api_2abi_2schedule__types_8h_source.html" target="_top" xlink:title=" ">
<polygon fill="white" stroke="black" points="862.5,-224.5 862.5,-243.5 963.5,-243.5 963.5,-224.5 862.5,-224.5"/>
<text text-anchor="middle" x="913" y="-231.5" font-family="Helvetica,sans-Serif" font-size="10.00">schedule_types.h</text>
</a>
</g>
</g>
<!-- Node47&#45;&gt;Node49 -->
<g id="edge35" class="edge">
<title>Node47&#45;&gt;Node49</title>
<path fill="none" stroke="midnightblue" d="M1003.86,-276.23C981.6,-266.13 951.14,-252.31 931.77,-243.52"/>
<polygon fill="midnightblue" stroke="midnightblue" points="1002.59,-279.5 1013.14,-280.44 1005.48,-273.12 1002.59,-279.5"/>
</g>
<!-- Node50 -->
<g id="node31" class="node">
<title>Node50</title>
<g id="a_node31"><a xlink:href="arch_2default-linux_2odp_2api_2abi_2schedule__types_8h_source.html" target="_top" xlink:title=" ">
<polygon fill="white" stroke="black" points="981.5,-224.5 981.5,-243.5 1082.5,-243.5 1082.5,-224.5 981.5,-224.5"/>
<text text-anchor="middle" x="1032" y="-231.5" font-family="Helvetica,sans-Serif" font-size="10.00">schedule_types.h</text>
</a>
</g>
</g>
<!-- Node47&#45;&gt;Node50 -->
<g id="edge36" class="edge">
<title>Node47&#45;&gt;Node50</title>
<path fill="none" stroke="midnightblue" d="M1032,-269.8C1032,-260.91 1032,-250.78 1032,-243.75"/>
<polygon fill="midnightblue" stroke="midnightblue" points="1028.5,-270.08 1032,-280.08 1035.5,-270.08 1028.5,-270.08"/>
</g>
<!-- Node51 -->
<g id="node32" class="node">
<title>Node51</title>
<g id="a_node32"><a xlink:href="arch_2power64-linux_2odp_2api_2abi_2schedule__types_8h_source.html" target="_top" xlink:title=" ">
<polygon fill="white" stroke="black" points="1100.5,-224.5 1100.5,-243.5 1201.5,-243.5 1201.5,-224.5 1100.5,-224.5"/>
<text text-anchor="middle" x="1151" y="-231.5" font-family="Helvetica,sans-Serif" font-size="10.00">schedule_types.h</text>
</a>
</g>
</g>
<!-- Node47&#45;&gt;Node51 -->
<g id="edge37" class="edge">
<title>Node47&#45;&gt;Node51</title>
<path fill="none" stroke="midnightblue" d="M1060.14,-276.23C1082.4,-266.13 1112.86,-252.31 1132.23,-243.52"/>
<polygon fill="midnightblue" stroke="midnightblue" points="1058.52,-273.12 1050.86,-280.44 1061.41,-279.5 1058.52,-273.12"/>
</g>
<!-- Node52 -->
<g id="node33" class="node">
<title>Node52</title>
<g id="a_node33"><a xlink:href="arch_2x86__32-linux_2odp_2api_2abi_2schedule__types_8h_source.html" target="_top" xlink:title=" ">
<polygon fill="white" stroke="black" points="1219.5,-224.5 1219.5,-243.5 1320.5,-243.5 1320.5,-224.5 1219.5,-224.5"/>
<text text-anchor="middle" x="1270" y="-231.5" font-family="Helvetica,sans-Serif" font-size="10.00">schedule_types.h</text>
</a>
</g>
</g>
<!-- Node47&#45;&gt;Node52 -->
<g id="edge38" class="edge">
<title>Node47&#45;&gt;Node52</title>
<path fill="none" stroke="midnightblue" d="M1079.52,-278.22C1124.5,-268.01 1191.1,-252.9 1232.46,-243.52"/>
<polygon fill="midnightblue" stroke="midnightblue" points="1078.69,-274.82 1069.71,-280.44 1080.24,-281.64 1078.69,-274.82"/>
</g>
<!-- Node53 -->
<g id="node34" class="node">
<title>Node53</title>
<g id="a_node34"><a xlink:href="arch_2x86__64-linux_2odp_2api_2abi_2schedule__types_8h_source.html" target="_top" xlink:title=" ">
<polygon fill="white" stroke="black" points="624.5,-224.5 624.5,-243.5 725.5,-243.5 725.5,-224.5 624.5,-224.5"/>
<text text-anchor="middle" x="675" y="-231.5" font-family="Helvetica,sans-Serif" font-size="10.00">schedule_types.h</text>
</a>
</g>
</g>
<!-- Node47&#45;&gt;Node53 -->
<g id="edge39" class="edge">
<title>Node47&#45;&gt;Node53</title>
<path fill="none" stroke="midnightblue" d="M971.28,-279.86C911.06,-270.79 816.15,-256.47 734,-244 731.23,-243.58 728.4,-243.15 725.53,-242.71"/>
<polygon fill="midnightblue" stroke="midnightblue" points="970.97,-283.35 981.38,-281.38 972.01,-276.43 970.97,-283.35"/>
</g>
<!-- Node53&#45;&gt;Node44 -->
<g id="edge40" class="edge">
<title>Node53&#45;&gt;Node44</title>
<path fill="none" stroke="midnightblue" d="M735.5,-223.92C919.37,-203.59 975.86,-245.36 1148,-188 1192.69,-173.11 1215.12,-173.18 1238,-132 1248.02,-113.97 1240.76,-88.72 1235.73,-75.63"/>
<polygon fill="midnightblue" stroke="midnightblue" points="735.03,-220.45 725.5,-225.08 735.84,-227.41 735.03,-220.45"/>
</g>
<!-- Node54 -->
<g id="node35" class="node">
<title>Node54</title>
<g id="a_node35"><a xlink:href="api_2schedule__types_8h.html" target="_top" xlink:title=" ">
<polygon fill="white" stroke="black" points="1037.5,-168.5 1037.5,-187.5 1138.5,-187.5 1138.5,-168.5 1037.5,-168.5"/>
<text text-anchor="middle" x="1088" y="-175.5" font-family="Helvetica,sans-Serif" font-size="10.00">schedule_types.h</text>
</a>
</g>
</g>
<!-- Node53&#45;&gt;Node54 -->
<g id="edge41" class="edge">
<title>Node53&#45;&gt;Node54</title>
<path fill="none" stroke="midnightblue" d="M735.42,-223.83C848.96,-208.05 970.4,-193.1 1037.24,-185.05"/>
<polygon fill="midnightblue" stroke="midnightblue" points="734.94,-220.36 725.52,-225.21 735.91,-227.29 734.94,-220.36"/>
</g>
<!-- Node54&#45;&gt;Node43 -->
<g id="edge43" class="edge">
<title>Node54&#45;&gt;Node43</title>
<path fill="none" stroke="midnightblue" d="M1088,-157.8C1088,-148.91 1088,-138.78 1088,-131.75"/>
<polygon fill="midnightblue" stroke="midnightblue" points="1084.5,-158.08 1088,-168.08 1091.5,-158.08 1084.5,-158.08"/>
</g>
<!-- Node55 -->
<g id="node36" class="node">
<title>Node55</title>
<g id="a_node36"><a xlink:href="api_2spec_2queue__types_8h.html" target="_top" xlink:title=" ">
<polygon fill="white" stroke="red" points="1141,-112.5 1141,-131.5 1229,-131.5 1229,-112.5 1141,-112.5"/>
<text text-anchor="middle" x="1185" y="-119.5" font-family="Helvetica,sans-Serif" font-size="10.00">queue_types.h</text>
</a>
</g>
</g>
<!-- Node54&#45;&gt;Node55 -->
<g id="edge42" class="edge">
<title>Node54&#45;&gt;Node55</title>
<path fill="none" stroke="midnightblue" d="M1112.34,-163.45C1130.24,-153.48 1154.05,-140.23 1169.45,-131.65"/>
<polygon fill="midnightblue" stroke="midnightblue" points="1110.62,-160.4 1103.58,-168.32 1114.02,-166.52 1110.62,-160.4"/>
</g>
<!-- Node22 -->
<g id="node38" class="node">
<title>Node22</title>
<g id="a_node38"><a xlink:href="api_2classification_8h.html" target="_top" xlink:title=" ">
<polygon fill="white" stroke="black" points="1554.5,-168.5 1554.5,-187.5 1643.5,-187.5 1643.5,-168.5 1554.5,-168.5"/>
<text text-anchor="middle" x="1599" y="-175.5" font-family="Helvetica,sans-Serif" font-size="10.00">classification.h</text>
</a>
</g>
</g>
<!-- Node21&#45;&gt;Node22 -->
<g id="edge45" class="edge">
<title>Node21&#45;&gt;Node22</title>
<path fill="none" stroke="midnightblue" d="M1599,-213.8C1599,-204.91 1599,-194.78 1599,-187.75"/>
<polygon fill="midnightblue" stroke="midnightblue" points="1595.5,-214.08 1599,-224.08 1602.5,-214.08 1595.5,-214.08"/>
</g>
<!-- Node22&#45;&gt;Node12 -->
<g id="edge52" class="edge">
<title>Node22&#45;&gt;Node12</title>
<path fill="none" stroke="midnightblue" d="M1587.38,-160.27C1568.27,-134.03 1527.64,-83.36 1481,-56 1438.27,-30.93 1381.24,-19.48 1346.1,-14.51"/>
<polygon fill="midnightblue" stroke="midnightblue" points="1584.57,-162.35 1593.22,-168.46 1590.27,-158.28 1584.57,-162.35"/>
</g>
<!-- Node23 -->
<g id="node39" class="node">
<title>Node23</title>
<g id="a_node39"><a xlink:href="api_2spec_2ipsec_8h.html" target="_top" xlink:title=" ">
<polygon fill="white" stroke="black" points="1399.5,-112.5 1399.5,-131.5 1450.5,-131.5 1450.5,-112.5 1399.5,-112.5"/>
<text text-anchor="middle" x="1425" y="-119.5" font-family="Helvetica,sans-Serif" font-size="10.00">ipsec.h</text>
</a>
</g>
</g>
<!-- Node22&#45;&gt;Node23 -->
<g id="edge46" class="edge">
<title>Node22&#45;&gt;Node23</title>
<path fill="none" stroke="midnightblue" d="M1561.56,-165.38C1528.12,-155 1480.03,-140.08 1450.74,-130.99"/>
<polygon fill="midnightblue" stroke="midnightblue" points="1560.84,-168.82 1571.43,-168.44 1562.92,-162.14 1560.84,-168.82"/>
</g>
<!-- Node22&#45;&gt;Node25 -->
<g id="edge49" class="edge">
<title>Node22&#45;&gt;Node25</title>
<path fill="none" stroke="midnightblue" d="M1619.14,-162.1C1632.28,-152.38 1648.98,-140.03 1660.06,-131.83"/>
<polygon fill="midnightblue" stroke="midnightblue" points="1616.69,-159.56 1610.73,-168.32 1620.85,-165.19 1616.69,-159.56"/>
</g>
<!-- Node24 -->
<g id="node40" class="node">
<title>Node24</title>
<g id="a_node40"><a xlink:href="api_2ipsec_8h.html" target="_top" xlink:title=" ">
<polygon fill="white" stroke="black" points="1399.5,-56.5 1399.5,-75.5 1450.5,-75.5 1450.5,-56.5 1399.5,-56.5"/>
<text text-anchor="middle" x="1425" y="-63.5" font-family="Helvetica,sans-Serif" font-size="10.00">ipsec.h</text>
</a>
</g>
</g>
<!-- Node23&#45;&gt;Node24 -->
<g id="edge47" class="edge">
<title>Node23&#45;&gt;Node24</title>
<path fill="none" stroke="midnightblue" d="M1425,-101.8C1425,-92.91 1425,-82.78 1425,-75.75"/>
<polygon fill="midnightblue" stroke="midnightblue" points="1421.5,-102.08 1425,-112.08 1428.5,-102.08 1421.5,-102.08"/>
</g>
<!-- Node24&#45;&gt;Node12 -->
<g id="edge48" class="edge">
<title>Node24&#45;&gt;Node12</title>
<path fill="none" stroke="midnightblue" d="M1397.99,-51.86C1377.41,-41.85 1349.66,-28.35 1331.79,-19.65"/>
<polygon fill="midnightblue" stroke="midnightblue" points="1396.64,-55.1 1407.17,-56.32 1399.7,-48.8 1396.64,-55.1"/>
</g>
<!-- Node26 -->
<g id="node42" class="node">
<title>Node26</title>
<g id="a_node42"><a xlink:href="api_2packet__io_8h.html" target="_top" xlink:title=" ">
<polygon fill="white" stroke="black" points="1632,-56.5 1632,-75.5 1704,-75.5 1704,-56.5 1632,-56.5"/>
<text text-anchor="middle" x="1668" y="-63.5" font-family="Helvetica,sans-Serif" font-size="10.00">packet_io.h</text>
</a>
</g>
</g>
<!-- Node25&#45;&gt;Node26 -->
<g id="edge50" class="edge">
<title>Node25&#45;&gt;Node26</title>
<path fill="none" stroke="midnightblue" d="M1670.6,-102.1C1669.94,-93.14 1669.17,-82.86 1668.65,-75.75"/>
<polygon fill="midnightblue" stroke="midnightblue" points="1667.11,-102.37 1671.34,-112.08 1674.09,-101.85 1667.11,-102.37"/>
</g>
<!-- Node26&#45;&gt;Node12 -->
<g id="edge51" class="edge">
<title>Node26&#45;&gt;Node12</title>
<path fill="none" stroke="midnightblue" d="M1621.51,-57.91C1548.52,-46.77 1408.89,-25.47 1346.04,-15.89"/>
<polygon fill="midnightblue" stroke="midnightblue" points="1621.37,-61.43 1631.78,-59.47 1622.42,-54.51 1621.37,-61.43"/>
</g>
<!-- Node28 -->
<g id="node44" class="node">
<title>Node28</title>
<g id="a_node44"><a xlink:href="api_2crypto_8h.html" target="_top" xlink:title=" ">
<polygon fill="white" stroke="black" points="1341,-168.5 1341,-187.5 1397,-187.5 1397,-168.5 1341,-168.5"/>
<text text-anchor="middle" x="1369" y="-175.5" font-family="Helvetica,sans-Serif" font-size="10.00">crypto.h</text>
</a>
</g>
</g>
<!-- Node27&#45;&gt;Node28 -->
<g id="edge54" class="edge">
<title>Node27&#45;&gt;Node28</title>
<path fill="none" stroke="midnightblue" d="M1400.06,-438.37C1394.73,-416.62 1387,-379.46 1387,-347 1387,-347 1387,-347 1387,-289 1387,-250.88 1376.34,-206.29 1371.43,-187.76"/>
<polygon fill="midnightblue" stroke="midnightblue" points="1396.71,-439.41 1402.57,-448.24 1403.49,-437.68 1396.71,-439.41"/>
</g>
<!-- Node28&#45;&gt;Node12 -->
<g id="edge56" class="edge">
<title>Node28&#45;&gt;Node12</title>
<path fill="none" stroke="midnightblue" d="M1369.52,-158.24C1369.52,-133.68 1367.1,-89.77 1352,-56 1345.49,-41.44 1332.8,-27.91 1323.88,-19.57"/>
<polygon fill="midnightblue" stroke="midnightblue" points="1366.02,-158.29 1369.38,-168.34 1373.02,-158.39 1366.02,-158.29"/>
</g>
<!-- Node28&#45;&gt;Node23 -->
<g id="edge55" class="edge">
<title>Node28&#45;&gt;Node23</title>
<path fill="none" stroke="midnightblue" d="M1385.33,-161.25C1395.26,-151.67 1407.59,-139.79 1415.84,-131.83"/>
<polygon fill="midnightblue" stroke="midnightblue" points="1382.77,-158.86 1378,-168.32 1387.63,-163.9 1382.77,-158.86"/>
</g>
<!-- Node58 -->
<g id="node46" class="node">
<title>Node58</title>
<g id="a_node46"><a xlink:href="packet__io__stats_8h.html" target="_top" xlink:title=" ">
<polygon fill="white" stroke="black" points="1614.5,-392.5 1614.5,-411.5 1715.5,-411.5 1715.5,-392.5 1614.5,-392.5"/>
<text text-anchor="middle" x="1665" y="-399.5" font-family="Helvetica,sans-Serif" font-size="10.00">packet_io_stats.h</text>
</a>
</g>
</g>
<!-- Node57&#45;&gt;Node58 -->
<g id="edge59" class="edge">
<title>Node57&#45;&gt;Node58</title>
<path fill="none" stroke="midnightblue" d="M1665,-437.8C1665,-428.91 1665,-418.78 1665,-411.75"/>
<polygon fill="midnightblue" stroke="midnightblue" points="1661.5,-438.08 1665,-448.08 1668.5,-438.08 1661.5,-438.08"/>
</g>
<!-- Node58&#45;&gt;Node25 -->
<g id="edge60" class="edge">
<title>Node58&#45;&gt;Node25</title>
<path fill="none" stroke="midnightblue" d="M1676.83,-383.96C1690.16,-363.06 1710,-326.07 1710,-291 1710,-291 1710,-291 1710,-233 1710,-193.4 1687.73,-149.96 1677.28,-131.77"/>
<polygon fill="midnightblue" stroke="midnightblue" points="1673.87,-382.1 1671.26,-392.37 1679.7,-385.97 1673.87,-382.1"/>
</g>
<!-- Node58&#45;&gt;Node31 -->
<g id="edge61" class="edge">
<title>Node58&#45;&gt;Node31</title>
<path fill="none" stroke="midnightblue" d="M1630.17,-389.17C1600.23,-379 1557.78,-364.59 1531.08,-355.52"/>
<polygon fill="midnightblue" stroke="midnightblue" points="1629.21,-392.54 1639.81,-392.44 1631.46,-385.91 1629.21,-392.54"/>
</g>
<!-- Node32 -->
<g id="node48" class="node">
<title>Node32</title>
<g id="a_node48"><a xlink:href="api_2packet__io__types_8h.html" target="_top" xlink:title=" ">
<polygon fill="white" stroke="black" points="1450,-280.5 1450,-299.5 1554,-299.5 1554,-280.5 1450,-280.5"/>
<text text-anchor="middle" x="1502" y="-287.5" font-family="Helvetica,sans-Serif" font-size="10.00">packet_io_types.h</text>
</a>
</g>
</g>
<!-- Node31&#45;&gt;Node32 -->
<g id="edge62" class="edge">
<title>Node31&#45;&gt;Node32</title>
<path fill="none" stroke="midnightblue" d="M1504.6,-326.1C1503.94,-317.14 1503.17,-306.86 1502.65,-299.75"/>
<polygon fill="midnightblue" stroke="midnightblue" points="1501.11,-326.37 1505.34,-336.08 1508.09,-325.85 1501.11,-326.37"/>
</g>
<!-- Node32&#45;&gt;Node29 -->
<g id="edge65" class="edge">
<title>Node32&#45;&gt;Node29</title>
<path fill="none" stroke="midnightblue" d="M1465.71,-276.79C1426.91,-261.88 1366.34,-232.95 1332,-188 1319.06,-171.07 1315.42,-145.36 1314.4,-131.91"/>
<polygon fill="midnightblue" stroke="midnightblue" points="1464.96,-280.24 1475.55,-280.45 1467.4,-273.68 1464.96,-280.24"/>
</g>
<!-- Node32&#45;&gt;Node21 -->
<g id="edge63" class="edge">
<title>Node32&#45;&gt;Node21</title>
<path fill="none" stroke="midnightblue" d="M1526.34,-275.45C1544.24,-265.48 1568.05,-252.23 1583.45,-243.65"/>
<polygon fill="midnightblue" stroke="midnightblue" points="1524.62,-272.4 1517.58,-280.32 1528.02,-278.52 1524.62,-272.4"/>
</g>
<!-- Node32&#45;&gt;Node23 -->
<g id="edge64" class="edge">
<title>Node32&#45;&gt;Node23</title>
<path fill="none" stroke="midnightblue" d="M1476.26,-275.15C1464.55,-267.51 1451.64,-256.94 1444,-244 1422.05,-206.83 1422.97,-152.52 1424.28,-131.63"/>
<polygon fill="midnightblue" stroke="midnightblue" points="1474.5,-278.18 1484.86,-280.4 1478.15,-272.2 1474.5,-278.18"/>
</g>
<!-- Node32&#45;&gt;Node25 -->
<g id="edge66" class="edge">
<title>Node32&#45;&gt;Node25</title>
<path fill="none" stroke="midnightblue" d="M1564.2,-285.66C1595.29,-280.66 1630.9,-269.27 1653,-244 1681.69,-211.18 1676.62,-153.33 1673.45,-131.59"/>
<polygon fill="midnightblue" stroke="midnightblue" points="1563.7,-282.19 1554.29,-287.07 1564.68,-289.13 1563.7,-282.19"/>
</g>
<!-- Node33 -->
<g id="node49" class="node">
<title>Node33</title>
<g id="a_node49"><a xlink:href="api_2spec_2traffic__mngr_8h.html" target="_top" xlink:title=" ">
<polygon fill="white" stroke="black" points="1453,-224.5 1453,-243.5 1537,-243.5 1537,-224.5 1453,-224.5"/>
<text text-anchor="middle" x="1495" y="-231.5" font-family="Helvetica,sans-Serif" font-size="10.00">traffic_mngr.h</text>
</a>
</g>
</g>
<!-- Node32&#45;&gt;Node33 -->
<g id="edge67" class="edge">
<title>Node32&#45;&gt;Node33</title>
<path fill="none" stroke="midnightblue" d="M1499.55,-270.1C1498.39,-261.14 1497.06,-250.86 1496.13,-243.75"/>
<polygon fill="midnightblue" stroke="midnightblue" points="1496.09,-270.62 1500.84,-280.08 1503.03,-269.72 1496.09,-270.62"/>
</g>
<!-- Node34 -->
<g id="node50" class="node">
<title>Node34</title>
<g id="a_node50"><a xlink:href="api_2traffic__mngr_8h.html" target="_top" xlink:title=" ">
<polygon fill="white" stroke="black" points="1453,-168.5 1453,-187.5 1537,-187.5 1537,-168.5 1453,-168.5"/>
<text text-anchor="middle" x="1495" y="-175.5" font-family="Helvetica,sans-Serif" font-size="10.00">traffic_mngr.h</text>
</a>
</g>
</g>
<!-- Node33&#45;&gt;Node34 -->
<g id="edge68" class="edge">
<title>Node33&#45;&gt;Node34</title>
<path fill="none" stroke="midnightblue" d="M1495,-213.8C1495,-204.91 1495,-194.78 1495,-187.75"/>
<polygon fill="midnightblue" stroke="midnightblue" points="1491.5,-214.08 1495,-224.08 1498.5,-214.08 1491.5,-214.08"/>
</g>
<!-- Node34&#45;&gt;Node12 -->
<g id="edge70" class="edge">
<title>Node34&#45;&gt;Node12</title>
<path fill="none" stroke="midnightblue" d="M1494.84,-158.13C1493.59,-131.72 1487.37,-83.85 1460,-56 1429.79,-25.26 1379.1,-15.41 1346.11,-12.32"/>
<polygon fill="midnightblue" stroke="midnightblue" points="1491.35,-158.42 1495.13,-168.31 1498.35,-158.22 1491.35,-158.42"/>
</g>
<!-- Node34&#45;&gt;Node23 -->
<g id="edge69" class="edge">
<title>Node34&#45;&gt;Node23</title>
<path fill="none" stroke="midnightblue" d="M1475.69,-162.1C1463.09,-152.38 1447.07,-140.03 1436.45,-131.83"/>
<polygon fill="midnightblue" stroke="midnightblue" points="1473.7,-164.99 1483.75,-168.32 1477.97,-159.44 1473.7,-164.99"/>
</g>
</g>
</svg>
