<?xml version="1.0" encoding="UTF-8" standalone="no"?>
<!DOCTYPE svg PUBLIC "-//W3C//DTD SVG 1.1//EN"
 "http://www.w3.org/Graphics/SVG/1.1/DTD/svg11.dtd">
<!-- Generated by graphviz version 2.43.0 (0)
 -->
<!-- Title: deprecated.h Pages: 1 -->
<svg width="1794pt" height="588pt"
 viewBox="0.00 0.00 1794.00 588.00" xmlns="http://www.w3.org/2000/svg" xmlns:xlink="http://www.w3.org/1999/xlink">
<g id="graph0" class="graph" transform="scale(1 1) rotate(0) translate(4 584)">
<title>deprecated.h</title>
<polygon fill="white" stroke="transparent" points="-4,4 -4,-584 1790,-584 1790,4 -4,4"/>
<!-- Node1 -->
<g id="node1" class="node">
<title>Node1</title>
<g id="a_node1"><a xlink:title=" ">
<polygon fill="#bfbfbf" stroke="black" points="1526,-560.5 1526,-579.5 1606,-579.5 1606,-560.5 1526,-560.5"/>
<text text-anchor="middle" x="1566" y="-567.5" font-family="Helvetica,sans-Serif" font-size="10.00">deprecated.h</text>
</a>
</g>
</g>
<!-- Node2 -->
<g id="node2" class="node">
<title>Node2</title>
<g id="a_node2"><a xlink:href="deprecated_8h.html" target="_top" xlink:title=" ">
<polygon fill="white" stroke="black" points="1526,-504.5 1526,-523.5 1606,-523.5 1606,-504.5 1526,-504.5"/>
<text text-anchor="middle" x="1566" y="-511.5" font-family="Helvetica,sans-Serif" font-size="10.00">deprecated.h</text>
</a>
</g>
</g>
<!-- Node1&#45;&gt;Node2 -->
<g id="edge1" class="edge">
<title>Node1&#45;&gt;Node2</title>
<path fill="none" stroke="midnightblue" d="M1566,-549.8C1566,-540.91 1566,-530.78 1566,-523.75"/>
<polygon fill="midnightblue" stroke="midnightblue" points="1562.5,-550.08 1566,-560.08 1569.5,-550.08 1562.5,-550.08"/>
</g>
<!-- Node3 -->
<g id="node3" class="node">
<title>Node3</title>
<g id="a_node3"><a xlink:href="api_2abi-default_2event__types_8h_source.html" target="_top" xlink:title=" ">
<polygon fill="white" stroke="black" points="312,-280.5 312,-299.5 398,-299.5 398,-280.5 312,-280.5"/>
<text text-anchor="middle" x="355" y="-287.5" font-family="Helvetica,sans-Serif" font-size="10.00">event_types.h</text>
</a>
</g>
</g>
<!-- Node2&#45;&gt;Node3 -->
<g id="edge2" class="edge">
<title>Node2&#45;&gt;Node3</title>
<path fill="none" stroke="midnightblue" d="M1515.72,-504.01C1465.23,-494.97 1385.21,-480.6 1316,-468 961.33,-403.42 533.31,-324.09 398.09,-299"/>
<polygon fill="midnightblue" stroke="midnightblue" points="1515.26,-507.48 1525.72,-505.8 1516.5,-500.59 1515.26,-507.48"/>
</g>
<!-- Node13 -->
<g id="node13" class="node">
<title>Node13</title>
<g id="a_node13"><a xlink:href="odp__api_8h.html" target="_top" xlink:title=" ">
<polygon fill="white" stroke="black" points="1310,-0.5 1310,-19.5 1374,-19.5 1374,-0.5 1310,-0.5"/>
<text text-anchor="middle" x="1342" y="-7.5" font-family="Helvetica,sans-Serif" font-size="10.00">odp_api.h</text>
</a>
</g>
</g>
<!-- Node2&#45;&gt;Node13 -->
<g id="edge71" class="edge">
<title>Node2&#45;&gt;Node13</title>
<path fill="none" stroke="midnightblue" d="M1616.15,-509.61C1681.08,-502.18 1786,-478.49 1786,-403 1786,-403 1786,-403 1786,-121 1786,-36.13 1476.46,-16.3 1374.29,-12.06"/>
<polygon fill="midnightblue" stroke="midnightblue" points="1615.67,-506.14 1606.1,-510.66 1616.41,-513.1 1615.67,-506.14"/>
</g>
<!-- Node48 -->
<g id="node28" class="node">
<title>Node48</title>
<g id="a_node28"><a xlink:href="api_2abi-default_2schedule__types_8h.html" target="_top" xlink:title=" ">
<polygon fill="white" stroke="black" points="981.5,-280.5 981.5,-299.5 1082.5,-299.5 1082.5,-280.5 981.5,-280.5"/>
<text text-anchor="middle" x="1032" y="-287.5" font-family="Helvetica,sans-Serif" font-size="10.00">schedule_types.h</text>
</a>
</g>
</g>
<!-- Node2&#45;&gt;Node48 -->
<g id="edge32" class="edge">
<title>Node2&#45;&gt;Node48</title>
<path fill="none" stroke="midnightblue" d="M1515.73,-505.32C1475.07,-498.22 1416.77,-486.03 1368,-468 1235.35,-418.95 1089.1,-327.83 1045.17,-299.58"/>
<polygon fill="midnightblue" stroke="midnightblue" points="1515.22,-508.78 1525.67,-507.01 1516.4,-501.88 1515.22,-508.78"/>
</g>
<!-- Node22 -->
<g id="node37" class="node">
<title>Node22</title>
<g id="a_node37"><a xlink:href="api_2spec_2classification_8h.html" target="_top" xlink:title=" ">
<polygon fill="white" stroke="black" points="1554.5,-224.5 1554.5,-243.5 1643.5,-243.5 1643.5,-224.5 1554.5,-224.5"/>
<text text-anchor="middle" x="1599" y="-231.5" font-family="Helvetica,sans-Serif" font-size="10.00">classification.h</text>
</a>
</g>
</g>
<!-- Node2&#45;&gt;Node22 -->
<g id="edge43" class="edge">
<title>Node2&#45;&gt;Node22</title>
<path fill="none" stroke="midnightblue" d="M1571.49,-494.41C1577.41,-472.68 1586,-435.56 1586,-403 1586,-403 1586,-403 1586,-345 1586,-306.92 1593.78,-261.94 1597.3,-243.52"/>
<polygon fill="midnightblue" stroke="midnightblue" points="1568.06,-493.68 1568.7,-504.26 1574.79,-495.59 1568.06,-493.68"/>
</g>
<!-- Node26 -->
<g id="node41" class="node">
<title>Node26</title>
<g id="a_node41"><a xlink:href="api_2spec_2packet__io_8h.html" target="_top" xlink:title=" ">
<polygon fill="white" stroke="black" points="1636,-112.5 1636,-131.5 1708,-131.5 1708,-112.5 1636,-112.5"/>
<text text-anchor="middle" x="1672" y="-119.5" font-family="Helvetica,sans-Serif" font-size="10.00">packet_io.h</text>
</a>
</g>
</g>
<!-- Node2&#45;&gt;Node26 -->
<g id="edge56" class="edge">
<title>Node2&#45;&gt;Node26</title>
<path fill="none" stroke="midnightblue" d="M1616.63,-510.54C1651.18,-506.29 1695.79,-495.39 1725,-468 1747.35,-447.04 1748,-433.64 1748,-403 1748,-403 1748,-403 1748,-233 1748,-188.2 1704.8,-148.43 1683.54,-131.57"/>
<polygon fill="midnightblue" stroke="midnightblue" points="1615.83,-507.1 1606.26,-511.65 1616.58,-514.06 1615.83,-507.1"/>
</g>
<!-- Node28 -->
<g id="node43" class="node">
<title>Node28</title>
<g id="a_node43"><a xlink:href="api_2spec_2crypto_8h.html" target="_top" xlink:title=" ">
<polygon fill="white" stroke="black" points="1377,-448.5 1377,-467.5 1433,-467.5 1433,-448.5 1377,-448.5"/>
<text text-anchor="middle" x="1405" y="-455.5" font-family="Helvetica,sans-Serif" font-size="10.00">crypto.h</text>
</a>
</g>
</g>
<!-- Node2&#45;&gt;Node28 -->
<g id="edge52" class="edge">
<title>Node2&#45;&gt;Node28</title>
<path fill="none" stroke="midnightblue" d="M1530.74,-501.17C1500.42,-491 1457.43,-476.59 1430.39,-467.52"/>
<polygon fill="midnightblue" stroke="midnightblue" points="1529.9,-504.58 1540.49,-504.44 1532.12,-497.95 1529.9,-504.58"/>
</g>
<!-- Node58 -->
<g id="node45" class="node">
<title>Node58</title>
<g id="a_node45"><a xlink:href="spec_2packet__io__stats_8h.html" target="_top" xlink:title=" ">
<polygon fill="white" stroke="black" points="1614.5,-448.5 1614.5,-467.5 1715.5,-467.5 1715.5,-448.5 1614.5,-448.5"/>
<text text-anchor="middle" x="1665" y="-455.5" font-family="Helvetica,sans-Serif" font-size="10.00">packet_io_stats.h</text>
</a>
</g>
</g>
<!-- Node2&#45;&gt;Node58 -->
<g id="edge57" class="edge">
<title>Node2&#45;&gt;Node58</title>
<path fill="none" stroke="midnightblue" d="M1590.84,-499.45C1609.11,-489.48 1633.42,-476.23 1649.13,-467.65"/>
<polygon fill="midnightblue" stroke="midnightblue" points="1589.01,-496.46 1581.91,-504.32 1592.36,-502.61 1589.01,-496.46"/>
</g>
<!-- Node32 -->
<g id="node47" class="node">
<title>Node32</title>
<g id="a_node47"><a xlink:href="api_2spec_2packet__io__types_8h.html" target="_top" xlink:title=" ">
<polygon fill="white" stroke="black" points="1454,-336.5 1454,-355.5 1558,-355.5 1558,-336.5 1454,-336.5"/>
<text text-anchor="middle" x="1506" y="-343.5" font-family="Helvetica,sans-Serif" font-size="10.00">packet_io_types.h</text>
</a>
</g>
</g>
<!-- Node2&#45;&gt;Node32 -->
<g id="edge70" class="edge">
<title>Node2&#45;&gt;Node32</title>
<path fill="none" stroke="midnightblue" d="M1559.28,-494.39C1546.33,-458.59 1518.41,-381.34 1509.1,-355.57"/>
<polygon fill="midnightblue" stroke="midnightblue" points="1556.08,-495.86 1562.77,-504.08 1562.67,-493.48 1556.08,-495.86"/>
</g>
<!-- Node4 -->
<g id="node4" class="node">
<title>Node4</title>
<g id="a_node4"><a xlink:href="arch_2arm32-linux_2odp_2api_2abi_2event__types_8h_source.html" target="_top" xlink:title=" ">
<polygon fill="white" stroke="black" points="520,-224.5 520,-243.5 606,-243.5 606,-224.5 520,-224.5"/>
<text text-anchor="middle" x="563" y="-231.5" font-family="Helvetica,sans-Serif" font-size="10.00">event_types.h</text>
</a>
</g>
</g>
<!-- Node3&#45;&gt;Node4 -->
<g id="edge3" class="edge">
<title>Node3&#45;&gt;Node4</title>
<path fill="none" stroke="midnightblue" d="M397.78,-277.89C437.06,-267.7 494.43,-252.8 530.2,-243.52"/>
<polygon fill="midnightblue" stroke="midnightblue" points="396.76,-274.54 387.96,-280.44 398.52,-281.32 396.76,-274.54"/>
</g>
<!-- Node5 -->
<g id="node5" class="node">
<title>Node5</title>
<g id="a_node5"><a xlink:href="arch_2arm64-linux_2odp_2api_2abi_2event__types_8h_source.html" target="_top" xlink:title=" ">
<polygon fill="white" stroke="black" points="104,-224.5 104,-243.5 190,-243.5 190,-224.5 104,-224.5"/>
<text text-anchor="middle" x="147" y="-231.5" font-family="Helvetica,sans-Serif" font-size="10.00">event_types.h</text>
</a>
</g>
</g>
<!-- Node3&#45;&gt;Node5 -->
<g id="edge4" class="edge">
<title>Node3&#45;&gt;Node5</title>
<path fill="none" stroke="midnightblue" d="M312.22,-277.89C272.94,-267.7 215.57,-252.8 179.8,-243.52"/>
<polygon fill="midnightblue" stroke="midnightblue" points="311.48,-281.32 322.04,-280.44 313.24,-274.54 311.48,-281.32"/>
</g>
<!-- Node6 -->
<g id="node6" class="node">
<title>Node6</title>
<g id="a_node6"><a xlink:href="arch_2default-linux_2odp_2api_2abi_2event__types_8h_source.html" target="_top" xlink:title=" ">
<polygon fill="white" stroke="black" points="208,-224.5 208,-243.5 294,-243.5 294,-224.5 208,-224.5"/>
<text text-anchor="middle" x="251" y="-231.5" font-family="Helvetica,sans-Serif" font-size="10.00">event_types.h</text>
</a>
</g>
</g>
<!-- Node3&#45;&gt;Node6 -->
<g id="edge5" class="edge">
<title>Node3&#45;&gt;Node6</title>
<path fill="none" stroke="midnightblue" d="M329.17,-275.59C309.94,-265.61 284.26,-252.27 267.67,-243.65"/>
<polygon fill="midnightblue" stroke="midnightblue" points="327.8,-278.82 338.29,-280.32 331.03,-272.61 327.8,-278.82"/>
</g>
<!-- Node7 -->
<g id="node7" class="node">
<title>Node7</title>
<g id="a_node7"><a xlink:href="arch_2power64-linux_2odp_2api_2abi_2event__types_8h_source.html" target="_top" xlink:title=" ">
<polygon fill="white" stroke="black" points="312,-224.5 312,-243.5 398,-243.5 398,-224.5 312,-224.5"/>
<text text-anchor="middle" x="355" y="-231.5" font-family="Helvetica,sans-Serif" font-size="10.00">event_types.h</text>
</a>
</g>
</g>
<!-- Node3&#45;&gt;Node7 -->
<g id="edge6" class="edge">
<title>Node3&#45;&gt;Node7</title>
<path fill="none" stroke="midnightblue" d="M355,-269.8C355,-260.91 355,-250.78 355,-243.75"/>
<polygon fill="midnightblue" stroke="midnightblue" points="351.5,-270.08 355,-280.08 358.5,-270.08 351.5,-270.08"/>
</g>
<!-- Node8 -->
<g id="node8" class="node">
<title>Node8</title>
<g id="a_node8"><a xlink:href="arch_2x86__32-linux_2odp_2api_2abi_2event__types_8h_source.html" target="_top" xlink:title=" ">
<polygon fill="white" stroke="black" points="416,-224.5 416,-243.5 502,-243.5 502,-224.5 416,-224.5"/>
<text text-anchor="middle" x="459" y="-231.5" font-family="Helvetica,sans-Serif" font-size="10.00">event_types.h</text>
</a>
</g>
</g>
<!-- Node3&#45;&gt;Node8 -->
<g id="edge7" class="edge">
<title>Node3&#45;&gt;Node8</title>
<path fill="none" stroke="midnightblue" d="M380.83,-275.59C400.06,-265.61 425.74,-252.27 442.33,-243.65"/>
<polygon fill="midnightblue" stroke="midnightblue" points="378.97,-272.61 371.71,-280.32 382.2,-278.82 378.97,-272.61"/>
</g>
<!-- Node9 -->
<g id="node9" class="node">
<title>Node9</title>
<g id="a_node9"><a xlink:href="arch_2x86__64-linux_2odp_2api_2abi_2event__types_8h_source.html" target="_top" xlink:title=" ">
<polygon fill="white" stroke="black" points="0,-224.5 0,-243.5 86,-243.5 86,-224.5 0,-224.5"/>
<text text-anchor="middle" x="43" y="-231.5" font-family="Helvetica,sans-Serif" font-size="10.00">event_types.h</text>
</a>
</g>
</g>
<!-- Node3&#45;&gt;Node9 -->
<g id="edge8" class="edge">
<title>Node3&#45;&gt;Node9</title>
<path fill="none" stroke="midnightblue" d="M301.77,-279.79C240.9,-269.25 142.4,-252.2 86.11,-242.46"/>
<polygon fill="midnightblue" stroke="midnightblue" points="301.49,-283.29 311.95,-281.55 302.69,-276.39 301.49,-283.29"/>
</g>
<!-- Node10 -->
<g id="node10" class="node">
<title>Node10</title>
<g id="a_node10"><a xlink:href="api_2event__types_8h.html" target="_top" xlink:title=" ">
<polygon fill="white" stroke="black" points="767,-168.5 767,-187.5 853,-187.5 853,-168.5 767,-168.5"/>
<text text-anchor="middle" x="810" y="-175.5" font-family="Helvetica,sans-Serif" font-size="10.00">event_types.h</text>
</a>
</g>
</g>
<!-- Node9&#45;&gt;Node10 -->
<g id="edge9" class="edge">
<title>Node9&#45;&gt;Node10</title>
<path fill="none" stroke="midnightblue" d="M96.09,-224C356.29,-193.89 656.55,-183.21 766.73,-180.09"/>
<polygon fill="midnightblue" stroke="midnightblue" points="95.6,-220.54 86.08,-225.17 96.42,-227.49 95.6,-220.54"/>
</g>
<!-- Node11 -->
<g id="node11" class="node">
<title>Node11</title>
<g id="a_node11"><a xlink:href="api_2spec_2buffer_8h.html" target="_top" xlink:title=" ">
<polygon fill="white" stroke="black" points="982.5,-112.5 982.5,-131.5 1035.5,-131.5 1035.5,-112.5 982.5,-112.5"/>
<text text-anchor="middle" x="1009" y="-119.5" font-family="Helvetica,sans-Serif" font-size="10.00">buffer.h</text>
</a>
</g>
</g>
<!-- Node10&#45;&gt;Node11 -->
<g id="edge10" class="edge">
<title>Node10&#45;&gt;Node11</title>
<path fill="none" stroke="midnightblue" d="M851.36,-165.78C890.74,-155.09 948.82,-139.33 982.39,-130.22"/>
<polygon fill="midnightblue" stroke="midnightblue" points="850.27,-162.45 841.53,-168.44 852.1,-169.2 850.27,-162.45"/>
</g>
<!-- Node14 -->
<g id="node14" class="node">
<title>Node14</title>
<g id="a_node14"><a xlink:href="api_2spec_2comp_8h.html" target="_top" xlink:title=" ">
<polygon fill="white" stroke="black" points="741.5,-112.5 741.5,-131.5 794.5,-131.5 794.5,-112.5 741.5,-112.5"/>
<text text-anchor="middle" x="768" y="-119.5" font-family="Helvetica,sans-Serif" font-size="10.00">comp.h</text>
</a>
</g>
</g>
<!-- Node10&#45;&gt;Node14 -->
<g id="edge13" class="edge">
<title>Node10&#45;&gt;Node14</title>
<path fill="none" stroke="midnightblue" d="M796.89,-160.14C789.57,-150.74 780.76,-139.4 774.81,-131.75"/>
<polygon fill="midnightblue" stroke="midnightblue" points="794.16,-162.34 803.06,-168.08 799.69,-158.04 794.16,-162.34"/>
</g>
<!-- Node16 -->
<g id="node16" class="node">
<title>Node16</title>
<g id="a_node16"><a xlink:href="api_2spec_2dma__types_8h.html" target="_top" xlink:title=" ">
<polygon fill="white" stroke="black" points="813,-112.5 813,-131.5 893,-131.5 893,-112.5 813,-112.5"/>
<text text-anchor="middle" x="853" y="-119.5" font-family="Helvetica,sans-Serif" font-size="10.00">dma_types.h</text>
</a>
</g>
</g>
<!-- Node10&#45;&gt;Node16 -->
<g id="edge16" class="edge">
<title>Node10&#45;&gt;Node16</title>
<path fill="none" stroke="midnightblue" d="M823.42,-160.14C830.91,-150.74 839.94,-139.4 846.03,-131.75"/>
<polygon fill="midnightblue" stroke="midnightblue" points="820.59,-158.08 817.1,-168.08 826.07,-162.44 820.59,-158.08"/>
</g>
<!-- Node40 -->
<g id="node18" class="node">
<title>Node40</title>
<g id="a_node18"><a xlink:href="api_2spec_2event_8h.html" target="_top" xlink:title=" ">
<polygon fill="white" stroke="black" points="911.5,-112.5 911.5,-131.5 964.5,-131.5 964.5,-112.5 911.5,-112.5"/>
<text text-anchor="middle" x="938" y="-119.5" font-family="Helvetica,sans-Serif" font-size="10.00">event.h</text>
</a>
</g>
</g>
<!-- Node10&#45;&gt;Node40 -->
<g id="edge18" class="edge">
<title>Node10&#45;&gt;Node40</title>
<path fill="none" stroke="midnightblue" d="M839.62,-164.5C863.62,-154.38 896.78,-140.39 917.81,-131.52"/>
<polygon fill="midnightblue" stroke="midnightblue" points="838.14,-161.33 830.28,-168.44 840.86,-167.78 838.14,-161.33"/>
</g>
<!-- Node30 -->
<g id="node20" class="node">
<title>Node30</title>
<g id="a_node20"><a xlink:href="api_2spec_2packet_8h.html" target="_top" xlink:title=" ">
<polygon fill="white" stroke="black" points="1285,-112.5 1285,-131.5 1343,-131.5 1343,-112.5 1285,-112.5"/>
<text text-anchor="middle" x="1314" y="-119.5" font-family="Helvetica,sans-Serif" font-size="10.00">packet.h</text>
</a>
</g>
</g>
<!-- Node10&#45;&gt;Node30 -->
<g id="edge21" class="edge">
<title>Node10&#45;&gt;Node30</title>
<path fill="none" stroke="midnightblue" d="M863.6,-171.59C944.67,-163.36 1103.34,-147.05 1238,-132 1253.45,-130.27 1270.65,-128.24 1284.78,-126.55"/>
<polygon fill="midnightblue" stroke="midnightblue" points="862.75,-168.16 853.15,-172.65 863.46,-175.12 862.75,-168.16"/>
</g>
<!-- Node42 -->
<g id="node22" class="node">
<title>Node42</title>
<g id="a_node22"><a xlink:href="api_2spec_2queue_8h.html" target="_top" xlink:title=" ">
<polygon fill="white" stroke="black" points="496,-112.5 496,-131.5 552,-131.5 552,-112.5 496,-112.5"/>
<text text-anchor="middle" x="524" y="-119.5" font-family="Helvetica,sans-Serif" font-size="10.00">queue.h</text>
</a>
</g>
</g>
<!-- Node10&#45;&gt;Node42 -->
<g id="edge24" class="edge">
<title>Node10&#45;&gt;Node42</title>
<path fill="none" stroke="midnightblue" d="M756.62,-168.3C706.08,-159.84 628.14,-146.22 561,-132 558.15,-131.4 555.19,-130.74 552.24,-130.05"/>
<polygon fill="midnightblue" stroke="midnightblue" points="756.22,-171.79 766.66,-169.98 757.37,-164.88 756.22,-171.79"/>
</g>
<!-- Node44 -->
<g id="node24" class="node">
<title>Node44</title>
<g id="a_node24"><a xlink:href="api_2spec_2schedule_8h.html" target="_top" xlink:title=" ">
<polygon fill="white" stroke="black" points="1053.5,-112.5 1053.5,-131.5 1122.5,-131.5 1122.5,-112.5 1053.5,-112.5"/>
<text text-anchor="middle" x="1088" y="-119.5" font-family="Helvetica,sans-Serif" font-size="10.00">schedule.h</text>
</a>
</g>
</g>
<!-- Node10&#45;&gt;Node44 -->
<g id="edge27" class="edge">
<title>Node10&#45;&gt;Node44</title>
<path fill="none" stroke="midnightblue" d="M863.45,-167.04C911.11,-158.08 982.77,-144.47 1045,-132 1047.69,-131.46 1050.48,-130.89 1053.28,-130.32"/>
<polygon fill="midnightblue" stroke="midnightblue" points="862.54,-163.64 853.36,-168.93 863.83,-170.52 862.54,-163.64"/>
</g>
<!-- Node38 -->
<g id="node26" class="node">
<title>Node38</title>
<g id="a_node26"><a xlink:href="api_2spec_2timer_8h.html" target="_top" xlink:title=" ">
<polygon fill="white" stroke="red" points="570.5,-112.5 570.5,-131.5 621.5,-131.5 621.5,-112.5 570.5,-112.5"/>
<text text-anchor="middle" x="596" y="-119.5" font-family="Helvetica,sans-Serif" font-size="10.00">timer.h</text>
</a>
</g>
</g>
<!-- Node10&#45;&gt;Node38 -->
<g id="edge30" class="edge">
<title>Node10&#45;&gt;Node38</title>
<path fill="none" stroke="midnightblue" d="M765.9,-165.98C729.66,-156.91 676.99,-143.69 631,-132 627.96,-131.23 624.77,-130.41 621.61,-129.6"/>
<polygon fill="midnightblue" stroke="midnightblue" points="765.12,-169.4 775.67,-168.43 766.82,-162.61 765.12,-169.4"/>
</g>
<!-- Node46 -->
<g id="node27" class="node">
<title>Node46</title>
<g id="a_node27"><a xlink:href="api_2spec_2timer__types_8h.html" target="_top" xlink:title=" ">
<polygon fill="white" stroke="red" points="640,-112.5 640,-131.5 724,-131.5 724,-112.5 640,-112.5"/>
<text text-anchor="middle" x="682" y="-119.5" font-family="Helvetica,sans-Serif" font-size="10.00">timer_types.h</text>
</a>
</g>
</g>
<!-- Node10&#45;&gt;Node46 -->
<g id="edge31" class="edge">
<title>Node10&#45;&gt;Node46</title>
<path fill="none" stroke="midnightblue" d="M780.38,-164.5C756.38,-154.38 723.22,-140.39 702.19,-131.52"/>
<polygon fill="midnightblue" stroke="midnightblue" points="779.14,-167.78 789.72,-168.44 781.86,-161.33 779.14,-167.78"/>
</g>
<!-- Node12 -->
<g id="node12" class="node">
<title>Node12</title>
<g id="a_node12"><a xlink:href="api_2buffer_8h.html" target="_top" xlink:title=" ">
<polygon fill="white" stroke="black" points="1090.5,-56.5 1090.5,-75.5 1143.5,-75.5 1143.5,-56.5 1090.5,-56.5"/>
<text text-anchor="middle" x="1117" y="-63.5" font-family="Helvetica,sans-Serif" font-size="10.00">buffer.h</text>
</a>
</g>
</g>
<!-- Node11&#45;&gt;Node12 -->
<g id="edge11" class="edge">
<title>Node11&#45;&gt;Node12</title>
<path fill="none" stroke="midnightblue" d="M1035.55,-107.73C1055.55,-97.73 1082.39,-84.31 1099.69,-75.65"/>
<polygon fill="midnightblue" stroke="midnightblue" points="1033.73,-104.72 1026.35,-112.32 1036.86,-110.98 1033.73,-104.72"/>
</g>
<!-- Node12&#45;&gt;Node13 -->
<g id="edge12" class="edge">
<title>Node12&#45;&gt;Node13</title>
<path fill="none" stroke="midnightblue" d="M1153.55,-56.23C1196.93,-45.82 1268.58,-28.62 1309.91,-18.7"/>
<polygon fill="midnightblue" stroke="midnightblue" points="1152.6,-52.86 1143.69,-58.59 1154.23,-59.66 1152.6,-52.86"/>
</g>
<!-- Node15 -->
<g id="node15" class="node">
<title>Node15</title>
<g id="a_node15"><a xlink:href="api_2comp_8h.html" target="_top" xlink:title=" ">
<polygon fill="white" stroke="black" points="741.5,-56.5 741.5,-75.5 794.5,-75.5 794.5,-56.5 741.5,-56.5"/>
<text text-anchor="middle" x="768" y="-63.5" font-family="Helvetica,sans-Serif" font-size="10.00">comp.h</text>
</a>
</g>
</g>
<!-- Node14&#45;&gt;Node15 -->
<g id="edge14" class="edge">
<title>Node14&#45;&gt;Node15</title>
<path fill="none" stroke="midnightblue" d="M768,-101.8C768,-92.91 768,-82.78 768,-75.75"/>
<polygon fill="midnightblue" stroke="midnightblue" points="764.5,-102.08 768,-112.08 771.5,-102.08 764.5,-102.08"/>
</g>
<!-- Node15&#45;&gt;Node13 -->
<g id="edge15" class="edge">
<title>Node15&#45;&gt;Node13</title>
<path fill="none" stroke="midnightblue" d="M804.6,-56.19C1001.91,-24.15 1227.6,-14.51 1309.94,-11.88"/>
<polygon fill="midnightblue" stroke="midnightblue" points="803.93,-52.75 794.64,-57.83 805.07,-59.66 803.93,-52.75"/>
</g>
<!-- Node17 -->
<g id="node17" class="node">
<title>Node17</title>
<g id="a_node17"><a xlink:href="api_2dma__types_8h.html" target="_top" xlink:title=" ">
<polygon fill="white" stroke="red" points="813,-56.5 813,-75.5 893,-75.5 893,-56.5 813,-56.5"/>
<text text-anchor="middle" x="853" y="-63.5" font-family="Helvetica,sans-Serif" font-size="10.00">dma_types.h</text>
</a>
</g>
</g>
<!-- Node16&#45;&gt;Node17 -->
<g id="edge17" class="edge">
<title>Node16&#45;&gt;Node17</title>
<path fill="none" stroke="midnightblue" d="M853,-101.8C853,-92.91 853,-82.78 853,-75.75"/>
<polygon fill="midnightblue" stroke="midnightblue" points="849.5,-102.08 853,-112.08 856.5,-102.08 849.5,-102.08"/>
</g>
<!-- Node41 -->
<g id="node19" class="node">
<title>Node41</title>
<g id="a_node19"><a xlink:href="api_2event_8h.html" target="_top" xlink:title=" ">
<polygon fill="white" stroke="black" points="947.5,-56.5 947.5,-75.5 1000.5,-75.5 1000.5,-56.5 947.5,-56.5"/>
<text text-anchor="middle" x="974" y="-63.5" font-family="Helvetica,sans-Serif" font-size="10.00">event.h</text>
</a>
</g>
</g>
<!-- Node40&#45;&gt;Node41 -->
<g id="edge19" class="edge">
<title>Node40&#45;&gt;Node41</title>
<path fill="none" stroke="midnightblue" d="M949.62,-103.57C955.82,-94.27 963.17,-83.25 968.17,-75.75"/>
<polygon fill="midnightblue" stroke="midnightblue" points="946.58,-101.82 943.94,-112.08 952.4,-105.7 946.58,-101.82"/>
</g>
<!-- Node41&#45;&gt;Node13 -->
<g id="edge20" class="edge">
<title>Node41&#45;&gt;Node13</title>
<path fill="none" stroke="midnightblue" d="M1010.75,-59.61C1082.85,-49.03 1241.76,-25.71 1309.92,-15.71"/>
<polygon fill="midnightblue" stroke="midnightblue" points="1010.15,-56.16 1000.76,-61.07 1011.16,-63.08 1010.15,-56.16"/>
</g>
<!-- Node31 -->
<g id="node21" class="node">
<title>Node31</title>
<g id="a_node21"><a xlink:href="api_2packet_8h.html" target="_top" xlink:title=" ">
<polygon fill="white" stroke="black" points="1285,-56.5 1285,-75.5 1343,-75.5 1343,-56.5 1285,-56.5"/>
<text text-anchor="middle" x="1314" y="-63.5" font-family="Helvetica,sans-Serif" font-size="10.00">packet.h</text>
</a>
</g>
</g>
<!-- Node30&#45;&gt;Node31 -->
<g id="edge22" class="edge">
<title>Node30&#45;&gt;Node31</title>
<path fill="none" stroke="midnightblue" d="M1314,-101.8C1314,-92.91 1314,-82.78 1314,-75.75"/>
<polygon fill="midnightblue" stroke="midnightblue" points="1310.5,-102.08 1314,-112.08 1317.5,-102.08 1310.5,-102.08"/>
</g>
<!-- Node31&#45;&gt;Node13 -->
<g id="edge23" class="edge">
<title>Node31&#45;&gt;Node13</title>
<path fill="none" stroke="midnightblue" d="M1323.34,-46.98C1328.09,-37.82 1333.66,-27.09 1337.46,-19.75"/>
<polygon fill="midnightblue" stroke="midnightblue" points="1320.12,-45.59 1318.62,-56.08 1326.33,-48.82 1320.12,-45.59"/>
</g>
<!-- Node43 -->
<g id="node23" class="node">
<title>Node43</title>
<g id="a_node23"><a xlink:href="api_2queue_8h.html" target="_top" xlink:title=" ">
<polygon fill="white" stroke="black" points="582,-56.5 582,-75.5 638,-75.5 638,-56.5 582,-56.5"/>
<text text-anchor="middle" x="610" y="-63.5" font-family="Helvetica,sans-Serif" font-size="10.00">queue.h</text>
</a>
</g>
</g>
<!-- Node42&#45;&gt;Node43 -->
<g id="edge25" class="edge">
<title>Node42&#45;&gt;Node43</title>
<path fill="none" stroke="midnightblue" d="M546.45,-106.9C562.22,-97 582.81,-84.07 596.22,-75.65"/>
<polygon fill="midnightblue" stroke="midnightblue" points="544.43,-104.04 537.82,-112.32 548.15,-109.97 544.43,-104.04"/>
</g>
<!-- Node43&#45;&gt;Node13 -->
<g id="edge26" class="edge">
<title>Node43&#45;&gt;Node13</title>
<path fill="none" stroke="midnightblue" d="M648.4,-62.17C776.96,-52.68 1190.87,-22.15 1309.78,-13.38"/>
<polygon fill="midnightblue" stroke="midnightblue" points="647.96,-58.69 638.25,-62.92 648.48,-65.67 647.96,-58.69"/>
</g>
<!-- Node45 -->
<g id="node25" class="node">
<title>Node45</title>
<g id="a_node25"><a xlink:href="api_2schedule_8h.html" target="_top" xlink:title=" ">
<polygon fill="white" stroke="black" points="1197.5,-56.5 1197.5,-75.5 1266.5,-75.5 1266.5,-56.5 1197.5,-56.5"/>
<text text-anchor="middle" x="1232" y="-63.5" font-family="Helvetica,sans-Serif" font-size="10.00">schedule.h</text>
</a>
</g>
</g>
<!-- Node44&#45;&gt;Node45 -->
<g id="edge28" class="edge">
<title>Node44&#45;&gt;Node45</title>
<path fill="none" stroke="midnightblue" d="M1120.25,-108.91C1147.32,-98.75 1185.32,-84.51 1209.29,-75.52"/>
<polygon fill="midnightblue" stroke="midnightblue" points="1118.95,-105.66 1110.82,-112.44 1121.41,-112.21 1118.95,-105.66"/>
</g>
<!-- Node45&#45;&gt;Node13 -->
<g id="edge29" class="edge">
<title>Node45&#45;&gt;Node13</title>
<path fill="none" stroke="midnightblue" d="M1258.76,-51.86C1279.16,-41.85 1306.67,-28.35 1324.37,-19.65"/>
<polygon fill="midnightblue" stroke="midnightblue" points="1257.11,-48.78 1249.67,-56.32 1260.19,-55.06 1257.11,-48.78"/>
</g>
<!-- Node49 -->
<g id="node29" class="node">
<title>Node49</title>
<g id="a_node29"><a xlink:href="arch_2arm32-linux_2odp_2api_2abi_2schedule__types_8h_source.html" target="_top" xlink:title=" ">
<polygon fill="white" stroke="black" points="743.5,-224.5 743.5,-243.5 844.5,-243.5 844.5,-224.5 743.5,-224.5"/>
<text text-anchor="middle" x="794" y="-231.5" font-family="Helvetica,sans-Serif" font-size="10.00">schedule_types.h</text>
</a>
</g>
</g>
<!-- Node48&#45;&gt;Node49 -->
<g id="edge33" class="edge">
<title>Node48&#45;&gt;Node49</title>
<path fill="none" stroke="midnightblue" d="M984.48,-278.22C939.5,-268.01 872.9,-252.9 831.54,-243.52"/>
<polygon fill="midnightblue" stroke="midnightblue" points="983.76,-281.64 994.29,-280.44 985.31,-274.82 983.76,-281.64"/>
</g>
<!-- Node50 -->
<g id="node30" class="node">
<title>Node50</title>
<g id="a_node30"><a xlink:href="arch_2arm64-linux_2odp_2api_2abi_2schedule__types_8h_source.html" target="_top" xlink:title=" ">
<polygon fill="white" stroke="black" points="862.5,-224.5 862.5,-243.5 963.5,-243.5 963.5,-224.5 862.5,-224.5"/>
<text text-anchor="middle" x="913" y="-231.5" font-family="Helvetica,sans-Serif" font-size="10.00">schedule_types.h</text>
</a>
</g>
</g>
<!-- Node48&#45;&gt;Node50 -->
<g id="edge34" class="edge">
<title>Node48&#45;&gt;Node50</title>
<path fill="none" stroke="midnightblue" d="M1003.86,-276.23C981.6,-266.13 951.14,-252.31 931.77,-243.52"/>
<polygon fill="midnightblue" stroke="midnightblue" points="1002.59,-279.5 1013.14,-280.44 1005.48,-273.12 1002.59,-279.5"/>
</g>
<!-- Node51 -->
<g id="node31" class="node">
<title>Node51</title>
<g id="a_node31"><a xlink:href="arch_2default-linux_2odp_2api_2abi_2schedule__types_8h_source.html" target="_top" xlink:title=" ">
<polygon fill="white" stroke="black" points="981.5,-224.5 981.5,-243.5 1082.5,-243.5 1082.5,-224.5 981.5,-224.5"/>
<text text-anchor="middle" x="1032" y="-231.5" font-family="Helvetica,sans-Serif" font-size="10.00">schedule_types.h</text>
</a>
</g>
</g>
<!-- Node48&#45;&gt;Node51 -->
<g id="edge35" class="edge">
<title>Node48&#45;&gt;Node51</title>
<path fill="none" stroke="midnightblue" d="M1032,-269.8C1032,-260.91 1032,-250.78 1032,-243.75"/>
<polygon fill="midnightblue" stroke="midnightblue" points="1028.5,-270.08 1032,-280.08 1035.5,-270.08 1028.5,-270.08"/>
</g>
<!-- Node52 -->
<g id="node32" class="node">
<title>Node52</title>
<g id="a_node32"><a xlink:href="arch_2power64-linux_2odp_2api_2abi_2schedule__types_8h_source.html" target="_top" xlink:title=" ">
<polygon fill="white" stroke="black" points="1100.5,-224.5 1100.5,-243.5 1201.5,-243.5 1201.5,-224.5 1100.5,-224.5"/>
<text text-anchor="middle" x="1151" y="-231.5" font-family="Helvetica,sans-Serif" font-size="10.00">schedule_types.h</text>
</a>
</g>
</g>
<!-- Node48&#45;&gt;Node52 -->
<g id="edge36" class="edge">
<title>Node48&#45;&gt;Node52</title>
<path fill="none" stroke="midnightblue" d="M1060.14,-276.23C1082.4,-266.13 1112.86,-252.31 1132.23,-243.52"/>
<polygon fill="midnightblue" stroke="midnightblue" points="1058.52,-273.12 1050.86,-280.44 1061.41,-279.5 1058.52,-273.12"/>
</g>
<!-- Node53 -->
<g id="node33" class="node">
<title>Node53</title>
<g id="a_node33"><a xlink:href="arch_2x86__32-linux_2odp_2api_2abi_2schedule__types_8h_source.html" target="_top" xlink:title=" ">
<polygon fill="white" stroke="black" points="1219.5,-224.5 1219.5,-243.5 1320.5,-243.5 1320.5,-224.5 1219.5,-224.5"/>
<text text-anchor="middle" x="1270" y="-231.5" font-family="Helvetica,sans-Serif" font-size="10.00">schedule_types.h</text>
</a>
</g>
</g>
<!-- Node48&#45;&gt;Node53 -->
<g id="edge37" class="edge">
<title>Node48&#45;&gt;Node53</title>
<path fill="none" stroke="midnightblue" d="M1079.52,-278.22C1124.5,-268.01 1191.1,-252.9 1232.46,-243.52"/>
<polygon fill="midnightblue" stroke="midnightblue" points="1078.69,-274.82 1069.71,-280.44 1080.24,-281.64 1078.69,-274.82"/>
</g>
<!-- Node54 -->
<g id="node34" class="node">
<title>Node54</title>
<g id="a_node34"><a xlink:href="arch_2x86__64-linux_2odp_2api_2abi_2schedule__types_8h_source.html" target="_top" xlink:title=" ">
<polygon fill="white" stroke="black" points="624.5,-224.5 624.5,-243.5 725.5,-243.5 725.5,-224.5 624.5,-224.5"/>
<text text-anchor="middle" x="675" y="-231.5" font-family="Helvetica,sans-Serif" font-size="10.00">schedule_types.h</text>
</a>
</g>
</g>
<!-- Node48&#45;&gt;Node54 -->
<g id="edge38" class="edge">
<title>Node48&#45;&gt;Node54</title>
<path fill="none" stroke="midnightblue" d="M970.92,-279.76C901.7,-269.29 790.15,-252.42 725.6,-242.65"/>
<polygon fill="midnightblue" stroke="midnightblue" points="970.82,-283.29 981.23,-281.32 971.87,-276.36 970.82,-283.29"/>
</g>
<!-- Node54&#45;&gt;Node45 -->
<g id="edge39" class="edge">
<title>Node54&#45;&gt;Node45</title>
<path fill="none" stroke="midnightblue" d="M735.72,-224.02C919.95,-203.84 976.28,-245.25 1148,-188 1192.69,-173.1 1215.12,-173.18 1238,-132 1248.02,-113.97 1240.76,-88.72 1235.73,-75.63"/>
<polygon fill="midnightblue" stroke="midnightblue" points="735.25,-220.56 725.71,-225.17 736.04,-227.51 735.25,-220.56"/>
</g>
<!-- Node55 -->
<g id="node35" class="node">
<title>Node55</title>
<g id="a_node35"><a xlink:href="api_2schedule__types_8h.html" target="_top" xlink:title=" ">
<polygon fill="white" stroke="black" points="1037.5,-168.5 1037.5,-187.5 1138.5,-187.5 1138.5,-168.5 1037.5,-168.5"/>
<text text-anchor="middle" x="1088" y="-175.5" font-family="Helvetica,sans-Serif" font-size="10.00">schedule_types.h</text>
</a>
</g>
</g>
<!-- Node54&#45;&gt;Node55 -->
<g id="edge40" class="edge">
<title>Node54&#45;&gt;Node55</title>
<path fill="none" stroke="midnightblue" d="M735.67,-223.93C849.65,-208.2 970.74,-193.2 1037.39,-185.1"/>
<polygon fill="midnightblue" stroke="midnightblue" points="735.15,-220.47 725.73,-225.31 736.11,-227.41 735.15,-220.47"/>
</g>
<!-- Node55&#45;&gt;Node44 -->
<g id="edge42" class="edge">
<title>Node55&#45;&gt;Node44</title>
<path fill="none" stroke="midnightblue" d="M1088,-157.8C1088,-148.91 1088,-138.78 1088,-131.75"/>
<polygon fill="midnightblue" stroke="midnightblue" points="1084.5,-158.08 1088,-168.08 1091.5,-158.08 1084.5,-158.08"/>
</g>
<!-- Node56 -->
<g id="node36" class="node">
<title>Node56</title>
<g id="a_node36"><a xlink:href="api_2spec_2queue__types_8h.html" target="_top" xlink:title=" ">
<polygon fill="white" stroke="red" points="1141,-112.5 1141,-131.5 1229,-131.5 1229,-112.5 1141,-112.5"/>
<text text-anchor="middle" x="1185" y="-119.5" font-family="Helvetica,sans-Serif" font-size="10.00">queue_types.h</text>
</a>
</g>
</g>
<!-- Node55&#45;&gt;Node56 -->
<g id="edge41" class="edge">
<title>Node55&#45;&gt;Node56</title>
<path fill="none" stroke="midnightblue" d="M1112.34,-163.45C1130.24,-153.48 1154.05,-140.23 1169.45,-131.65"/>
<polygon fill="midnightblue" stroke="midnightblue" points="1110.62,-160.4 1103.58,-168.32 1114.02,-166.52 1110.62,-160.4"/>
</g>
<!-- Node23 -->
<g id="node38" class="node">
<title>Node23</title>
<g id="a_node38"><a xlink:href="api_2classification_8h.html" target="_top" xlink:title=" ">
<polygon fill="white" stroke="black" points="1554.5,-168.5 1554.5,-187.5 1643.5,-187.5 1643.5,-168.5 1554.5,-168.5"/>
<text text-anchor="middle" x="1599" y="-175.5" font-family="Helvetica,sans-Serif" font-size="10.00">classification.h</text>
</a>
</g>
</g>
<!-- Node22&#45;&gt;Node23 -->
<g id="edge44" class="edge">
<title>Node22&#45;&gt;Node23</title>
<path fill="none" stroke="midnightblue" d="M1599,-213.8C1599,-204.91 1599,-194.78 1599,-187.75"/>
<polygon fill="midnightblue" stroke="midnightblue" points="1595.5,-214.08 1599,-224.08 1602.5,-214.08 1595.5,-214.08"/>
</g>
<!-- Node23&#45;&gt;Node13 -->
<g id="edge51" class="edge">
<title>Node23&#45;&gt;Node13</title>
<path fill="none" stroke="midnightblue" d="M1586.79,-160.18C1567.12,-134.23 1525.94,-84.45 1480,-56 1446.9,-35.5 1403.49,-23.35 1374.27,-16.95"/>
<polygon fill="midnightblue" stroke="midnightblue" points="1584.05,-162.36 1592.83,-168.29 1589.67,-158.18 1584.05,-162.36"/>
</g>
<!-- Node24 -->
<g id="node39" class="node">
<title>Node24</title>
<g id="a_node39"><a xlink:href="api_2spec_2ipsec_8h.html" target="_top" xlink:title=" ">
<polygon fill="white" stroke="black" points="1399.5,-112.5 1399.5,-131.5 1450.5,-131.5 1450.5,-112.5 1399.5,-112.5"/>
<text text-anchor="middle" x="1425" y="-119.5" font-family="Helvetica,sans-Serif" font-size="10.00">ipsec.h</text>
</a>
</g>
</g>
<!-- Node23&#45;&gt;Node24 -->
<g id="edge45" class="edge">
<title>Node23&#45;&gt;Node24</title>
<path fill="none" stroke="midnightblue" d="M1561.56,-165.38C1528.12,-155 1480.03,-140.08 1450.74,-130.99"/>
<polygon fill="midnightblue" stroke="midnightblue" points="1560.84,-168.82 1571.43,-168.44 1562.92,-162.14 1560.84,-168.82"/>
</g>
<!-- Node23&#45;&gt;Node26 -->
<g id="edge48" class="edge">
<title>Node23&#45;&gt;Node26</title>
<path fill="none" stroke="midnightblue" d="M1619.14,-162.1C1632.28,-152.38 1648.98,-140.03 1660.06,-131.83"/>
<polygon fill="midnightblue" stroke="midnightblue" points="1616.69,-159.56 1610.73,-168.32 1620.85,-165.19 1616.69,-159.56"/>
</g>
<!-- Node25 -->
<g id="node40" class="node">
<title>Node25</title>
<g id="a_node40"><a xlink:href="api_2ipsec_8h.html" target="_top" xlink:title=" ">
<polygon fill="white" stroke="black" points="1399.5,-56.5 1399.5,-75.5 1450.5,-75.5 1450.5,-56.5 1399.5,-56.5"/>
<text text-anchor="middle" x="1425" y="-63.5" font-family="Helvetica,sans-Serif" font-size="10.00">ipsec.h</text>
</a>
</g>
</g>
<!-- Node24&#45;&gt;Node25 -->
<g id="edge46" class="edge">
<title>Node24&#45;&gt;Node25</title>
<path fill="none" stroke="midnightblue" d="M1425,-101.8C1425,-92.91 1425,-82.78 1425,-75.75"/>
<polygon fill="midnightblue" stroke="midnightblue" points="1421.5,-102.08 1425,-112.08 1428.5,-102.08 1421.5,-102.08"/>
</g>
<!-- Node25&#45;&gt;Node13 -->
<g id="edge47" class="edge">
<title>Node25&#45;&gt;Node13</title>
<path fill="none" stroke="midnightblue" d="M1402.9,-50.62C1387.74,-40.76 1368.12,-27.99 1355.3,-19.65"/>
<polygon fill="midnightblue" stroke="midnightblue" points="1401.37,-53.8 1411.66,-56.32 1405.19,-47.94 1401.37,-53.8"/>
</g>
<!-- Node27 -->
<g id="node42" class="node">
<title>Node27</title>
<g id="a_node42"><a xlink:href="api_2packet__io_8h.html" target="_top" xlink:title=" ">
<polygon fill="white" stroke="black" points="1611,-56.5 1611,-75.5 1683,-75.5 1683,-56.5 1611,-56.5"/>
<text text-anchor="middle" x="1647" y="-63.5" font-family="Helvetica,sans-Serif" font-size="10.00">packet_io.h</text>
</a>
</g>
</g>
<!-- Node26&#45;&gt;Node27 -->
<g id="edge49" class="edge">
<title>Node26&#45;&gt;Node27</title>
<path fill="none" stroke="midnightblue" d="M1663.66,-102.98C1659.42,-93.82 1654.45,-83.09 1651.05,-75.75"/>
<polygon fill="midnightblue" stroke="midnightblue" points="1660.49,-104.48 1667.87,-112.08 1666.85,-101.54 1660.49,-104.48"/>
</g>
<!-- Node27&#45;&gt;Node13 -->
<g id="edge50" class="edge">
<title>Node27&#45;&gt;Node13</title>
<path fill="none" stroke="midnightblue" d="M1600.85,-56.83C1538.47,-45.78 1428.8,-26.37 1374.43,-16.74"/>
<polygon fill="midnightblue" stroke="midnightblue" points="1600.36,-60.3 1610.81,-58.59 1601.58,-53.4 1600.36,-60.3"/>
</g>
<!-- Node29 -->
<g id="node44" class="node">
<title>Node29</title>
<g id="a_node44"><a xlink:href="api_2crypto_8h.html" target="_top" xlink:title=" ">
<polygon fill="white" stroke="black" points="1341,-168.5 1341,-187.5 1397,-187.5 1397,-168.5 1341,-168.5"/>
<text text-anchor="middle" x="1369" y="-175.5" font-family="Helvetica,sans-Serif" font-size="10.00">crypto.h</text>
</a>
</g>
</g>
<!-- Node28&#45;&gt;Node29 -->
<g id="edge53" class="edge">
<title>Node28&#45;&gt;Node29</title>
<path fill="none" stroke="midnightblue" d="M1400.06,-438.37C1394.73,-416.62 1387,-379.46 1387,-347 1387,-347 1387,-347 1387,-289 1387,-250.88 1376.34,-206.29 1371.43,-187.76"/>
<polygon fill="midnightblue" stroke="midnightblue" points="1396.71,-439.41 1402.57,-448.24 1403.49,-437.68 1396.71,-439.41"/>
</g>
<!-- Node29&#45;&gt;Node13 -->
<g id="edge55" class="edge">
<title>Node29&#45;&gt;Node13</title>
<path fill="none" stroke="midnightblue" d="M1366.85,-158.37C1363.99,-134.54 1358.53,-92.06 1352,-56 1349.69,-43.24 1346.3,-28.61 1344.12,-19.59"/>
<polygon fill="midnightblue" stroke="midnightblue" points="1363.39,-158.93 1368.04,-168.45 1370.34,-158.11 1363.39,-158.93"/>
</g>
<!-- Node29&#45;&gt;Node24 -->
<g id="edge54" class="edge">
<title>Node29&#45;&gt;Node24</title>
<path fill="none" stroke="midnightblue" d="M1385.33,-161.25C1395.26,-151.67 1407.59,-139.79 1415.84,-131.83"/>
<polygon fill="midnightblue" stroke="midnightblue" points="1382.77,-158.86 1378,-168.32 1387.63,-163.9 1382.77,-158.86"/>
</g>
<!-- Node59 -->
<g id="node46" class="node">
<title>Node59</title>
<g id="a_node46"><a xlink:href="packet__io__stats_8h.html" target="_top" xlink:title=" ">
<polygon fill="white" stroke="black" points="1614.5,-392.5 1614.5,-411.5 1715.5,-411.5 1715.5,-392.5 1614.5,-392.5"/>
<text text-anchor="middle" x="1665" y="-399.5" font-family="Helvetica,sans-Serif" font-size="10.00">packet_io_stats.h</text>
</a>
</g>
</g>
<!-- Node58&#45;&gt;Node59 -->
<g id="edge58" class="edge">
<title>Node58&#45;&gt;Node59</title>
<path fill="none" stroke="midnightblue" d="M1665,-437.8C1665,-428.91 1665,-418.78 1665,-411.75"/>
<polygon fill="midnightblue" stroke="midnightblue" points="1661.5,-438.08 1665,-448.08 1668.5,-438.08 1661.5,-438.08"/>
</g>
<!-- Node59&#45;&gt;Node26 -->
<g id="edge59" class="edge">
<title>Node59&#45;&gt;Node26</title>
<path fill="none" stroke="midnightblue" d="M1676.83,-383.96C1690.16,-363.06 1710,-326.07 1710,-291 1710,-291 1710,-291 1710,-233 1710,-193.4 1687.73,-149.96 1677.28,-131.77"/>
<polygon fill="midnightblue" stroke="midnightblue" points="1673.87,-382.1 1671.26,-392.37 1679.7,-385.97 1673.87,-382.1"/>
</g>
<!-- Node59&#45;&gt;Node32 -->
<g id="edge60" class="edge">
<title>Node59&#45;&gt;Node32</title>
<path fill="none" stroke="midnightblue" d="M1630.17,-389.17C1600.23,-379 1557.78,-364.59 1531.08,-355.52"/>
<polygon fill="midnightblue" stroke="midnightblue" points="1629.21,-392.54 1639.81,-392.44 1631.46,-385.91 1629.21,-392.54"/>
</g>
<!-- Node33 -->
<g id="node48" class="node">
<title>Node33</title>
<g id="a_node48"><a xlink:href="api_2packet__io__types_8h.html" target="_top" xlink:title=" ">
<polygon fill="white" stroke="black" points="1447,-280.5 1447,-299.5 1551,-299.5 1551,-280.5 1447,-280.5"/>
<text text-anchor="middle" x="1499" y="-287.5" font-family="Helvetica,sans-Serif" font-size="10.00">packet_io_types.h</text>
</a>
</g>
</g>
<!-- Node32&#45;&gt;Node33 -->
<g id="edge61" class="edge">
<title>Node32&#45;&gt;Node33</title>
<path fill="none" stroke="midnightblue" d="M1503.55,-326.1C1502.39,-317.14 1501.06,-306.86 1500.13,-299.75"/>
<polygon fill="midnightblue" stroke="midnightblue" points="1500.09,-326.62 1504.84,-336.08 1507.03,-325.72 1500.09,-326.62"/>
</g>
<!-- Node33&#45;&gt;Node30 -->
<g id="edge64" class="edge">
<title>Node33&#45;&gt;Node30</title>
<path fill="none" stroke="midnightblue" d="M1463.66,-276.74C1425.55,-261.72 1365.82,-232.62 1332,-188 1319.13,-171.02 1315.46,-145.33 1314.42,-131.9"/>
<polygon fill="midnightblue" stroke="midnightblue" points="1462.73,-280.13 1473.32,-280.43 1465.23,-273.59 1462.73,-280.13"/>
</g>
<!-- Node33&#45;&gt;Node22 -->
<g id="edge62" class="edge">
<title>Node33&#45;&gt;Node22</title>
<path fill="none" stroke="midnightblue" d="M1524.09,-275.45C1542.55,-265.48 1567.1,-252.23 1582.97,-243.65"/>
<polygon fill="midnightblue" stroke="midnightblue" points="1522.2,-272.49 1515.07,-280.32 1525.53,-278.65 1522.2,-272.49"/>
</g>
<!-- Node33&#45;&gt;Node24 -->
<g id="edge63" class="edge">
<title>Node33&#45;&gt;Node24</title>
<path fill="none" stroke="midnightblue" d="M1474.47,-274.8C1463.4,-267.1 1451.21,-256.58 1444,-244 1422.54,-206.55 1423.17,-152.41 1424.35,-131.6"/>
<polygon fill="midnightblue" stroke="midnightblue" points="1472.71,-277.82 1483,-280.35 1476.53,-271.96 1472.71,-277.82"/>
</g>
<!-- Node33&#45;&gt;Node26 -->
<g id="edge65" class="edge">
<title>Node33&#45;&gt;Node26</title>
<path fill="none" stroke="midnightblue" d="M1561.36,-286.14C1593.31,-281.32 1630.18,-269.96 1653,-244 1681.78,-211.26 1676.65,-153.36 1673.46,-131.6"/>
<polygon fill="midnightblue" stroke="midnightblue" points="1560.64,-282.71 1551.19,-287.49 1561.56,-289.65 1560.64,-282.71"/>
</g>
<!-- Node34 -->
<g id="node49" class="node">
<title>Node34</title>
<g id="a_node49"><a xlink:href="api_2spec_2traffic__mngr_8h.html" target="_top" xlink:title=" ">
<polygon fill="white" stroke="black" points="1453,-224.5 1453,-243.5 1537,-243.5 1537,-224.5 1453,-224.5"/>
<text text-anchor="middle" x="1495" y="-231.5" font-family="Helvetica,sans-Serif" font-size="10.00">traffic_mngr.h</text>
</a>
</g>
</g>
<!-- Node33&#45;&gt;Node34 -->
<g id="edge66" class="edge">
<title>Node33&#45;&gt;Node34</title>
<path fill="none" stroke="midnightblue" d="M1497.6,-270.1C1496.94,-261.14 1496.17,-250.86 1495.65,-243.75"/>
<polygon fill="midnightblue" stroke="midnightblue" points="1494.11,-270.37 1498.34,-280.08 1501.09,-269.85 1494.11,-270.37"/>
</g>
<!-- Node35 -->
<g id="node50" class="node">
<title>Node35</title>
<g id="a_node50"><a xlink:href="api_2traffic__mngr_8h.html" target="_top" xlink:title=" ">
<polygon fill="white" stroke="black" points="1453,-168.5 1453,-187.5 1537,-187.5 1537,-168.5 1453,-168.5"/>
<text text-anchor="middle" x="1495" y="-175.5" font-family="Helvetica,sans-Serif" font-size="10.00">traffic_mngr.h</text>
</a>
</g>
</g>
<!-- Node34&#45;&gt;Node35 -->
<g id="edge67" class="edge">
<title>Node34&#45;&gt;Node35</title>
<path fill="none" stroke="midnightblue" d="M1495,-213.8C1495,-204.91 1495,-194.78 1495,-187.75"/>
<polygon fill="midnightblue" stroke="midnightblue" points="1491.5,-214.08 1495,-224.08 1498.5,-214.08 1491.5,-214.08"/>
</g>
<!-- Node35&#45;&gt;Node13 -->
<g id="edge69" class="edge">
<title>Node35&#45;&gt;Node13</title>
<path fill="none" stroke="midnightblue" d="M1494.59,-158.37C1493.03,-132.26 1486.45,-84.73 1460,-56 1437.65,-31.72 1400.8,-20.44 1374.22,-15.26"/>
<polygon fill="midnightblue" stroke="midnightblue" points="1491.1,-158.59 1495,-168.43 1498.09,-158.3 1491.1,-158.59"/>
</g>
<!-- Node35&#45;&gt;Node24 -->
<g id="edge68" class="edge">
<title>Node35&#45;&gt;Node24</title>
<path fill="none" stroke="midnightblue" d="M1475.69,-162.1C1463.09,-152.38 1447.07,-140.03 1436.45,-131.83"/>
<polygon fill="midnightblue" stroke="midnightblue" points="1473.7,-164.99 1483.75,-168.32 1477.97,-159.44 1473.7,-164.99"/>
</g>
</g>
</svg>
