<?xml version="1.0" encoding="UTF-8" standalone="no"?>
<!DOCTYPE svg PUBLIC "-//W3C//DTD SVG 1.1//EN"
 "http://www.w3.org/Graphics/SVG/1.1/DTD/svg11.dtd">
<!-- Generated by graphviz version 2.43.0 (0)
 -->
<!-- Title: odp_crypto_session_param_t Pages: 1 -->
<svg width="440pt" height="117pt"
 viewBox="0.00 0.00 440.00 117.00" xmlns="http://www.w3.org/2000/svg" xmlns:xlink="http://www.w3.org/1999/xlink">
<g id="graph0" class="graph" transform="scale(1 1) rotate(0) translate(4 113)">
<title>odp_crypto_session_param_t</title>
<polygon fill="white" stroke="transparent" points="-4,4 -4,-113 436,-113 436,4 -4,4"/>
<!-- Node1 -->
<g id="node1" class="node">
<title>Node1</title>
<g id="a_node1"><a xlink:title="Crypto API session creation parameters.">
<polygon fill="#bfbfbf" stroke="black" points="165,-0.5 165,-30.5 278,-30.5 278,-0.5 165,-0.5"/>
<text text-anchor="start" x="173" y="-18.5" font-family="Helvetica,sans-Serif" font-size="10.00">odp_crypto_session</text>
<text text-anchor="middle" x="221.5" y="-7.5" font-family="Helvetica,sans-Serif" font-size="10.00">_param_t</text>
</a>
</g>
</g>
<!-- Node2 -->
<g id="node2" class="node">
<title>Node2</title>
<g id="a_node2"><a xlink:href="struct__odp__abi__pool__t.html" target="_top" xlink:title=" ">
<polygon fill="white" stroke="black" points="0,-89.5 0,-108.5 95,-108.5 95,-89.5 0,-89.5"/>
<text text-anchor="middle" x="47.5" y="-96.5" font-family="Helvetica,sans-Serif" font-size="10.00">_odp_abi_pool_t</text>
</a>
</g>
</g>
<!-- Node2&#45;&gt;Node1 -->
<g id="edge1" class="edge">
<title>Node2&#45;&gt;Node1</title>
<path fill="none" stroke="#9a32cd" stroke-dasharray="5,2" d="M63.7,-82.3C75.54,-71.58 92.45,-57.78 109.5,-49 126.69,-40.15 146.64,-33.38 164.9,-28.37"/>
<polygon fill="#9a32cd" stroke="#9a32cd" points="61.3,-79.75 56.37,-89.13 66.07,-84.87 61.3,-79.75"/>
<text text-anchor="middle" x="140" y="-57.5" font-family="Helvetica,sans-Serif" font-size="10.00"> output_pool</text>
</g>
<!-- Node3 -->
<g id="node3" class="node">
<title>Node3</title>
<g id="a_node3"><a xlink:href="struct__odp__abi__queue__t.html" target="_top" xlink:title=" ">
<polygon fill="white" stroke="black" points="113.5,-89.5 113.5,-108.5 217.5,-108.5 217.5,-89.5 113.5,-89.5"/>
<text text-anchor="middle" x="165.5" y="-96.5" font-family="Helvetica,sans-Serif" font-size="10.00">_odp_abi_queue_t</text>
</a>
</g>
</g>
<!-- Node3&#45;&gt;Node1 -->
<g id="edge2" class="edge">
<title>Node3&#45;&gt;Node1</title>
<path fill="none" stroke="#9a32cd" stroke-dasharray="5,2" d="M171.75,-79.74C175.51,-70.12 180.86,-58.4 187.5,-49 192.21,-42.33 198.43,-35.91 204.26,-30.57"/>
<polygon fill="#9a32cd" stroke="#9a32cd" points="168.46,-78.55 168.31,-89.15 175.03,-80.96 168.46,-78.55"/>
<text text-anchor="middle" x="222" y="-57.5" font-family="Helvetica,sans-Serif" font-size="10.00"> compl_queue</text>
</g>
<!-- Node4 -->
<g id="node4" class="node">
<title>Node4</title>
<g id="a_node4"><a xlink:href="structodp__crypto__iv.html" target="_top" xlink:title="Crypto API IV structure.">
<polygon fill="white" stroke="black" points="236,-89.5 236,-108.5 321,-108.5 321,-89.5 236,-89.5"/>
<text text-anchor="middle" x="278.5" y="-96.5" font-family="Helvetica,sans-Serif" font-size="10.00">odp_crypto_iv</text>
</a>
</g>
</g>
<!-- Node4&#45;&gt;Node1 -->
<g id="edge3" class="edge">
<title>Node4&#45;&gt;Node1</title>
<path fill="none" stroke="#9a32cd" stroke-dasharray="5,2" d="M272.44,-80.04C268.68,-70.35 263.29,-58.46 256.5,-49 251.76,-42.4 245.52,-36.09 239.63,-30.81"/>
<polygon fill="#9a32cd" stroke="#9a32cd" points="269.16,-81.27 275.85,-89.49 275.74,-78.89 269.16,-81.27"/>
<text text-anchor="middle" x="292.5" y="-63" font-family="Helvetica,sans-Serif" font-size="10.00"> cipher_iv</text>
<text text-anchor="middle" x="292.5" y="-52" font-family="Helvetica,sans-Serif" font-size="10.00">auth_iv</text>
</g>
<!-- Node5 -->
<g id="node5" class="node">
<title>Node5</title>
<g id="a_node5"><a xlink:href="structodp__crypto__key.html" target="_top" xlink:title="Crypto API key structure.">
<polygon fill="white" stroke="black" points="339,-89.5 339,-108.5 432,-108.5 432,-89.5 339,-89.5"/>
<text text-anchor="middle" x="385.5" y="-96.5" font-family="Helvetica,sans-Serif" font-size="10.00">odp_crypto_key</text>
</a>
</g>
</g>
<!-- Node5&#45;&gt;Node1 -->
<g id="edge4" class="edge">
<title>Node5&#45;&gt;Node1</title>
<path fill="none" stroke="#9a32cd" stroke-dasharray="5,2" d="M368.29,-82.52C355.77,-71.91 338,-58.15 320.5,-49 306.31,-41.58 290.1,-35.41 274.96,-30.51"/>
<polygon fill="#9a32cd" stroke="#9a32cd" points="366.21,-85.35 376.06,-89.27 370.8,-80.07 366.21,-85.35"/>
<text text-anchor="middle" x="380" y="-63" font-family="Helvetica,sans-Serif" font-size="10.00"> auth_key</text>
<text text-anchor="middle" x="380" y="-52" font-family="Helvetica,sans-Serif" font-size="10.00">cipher_key</text>
</g>
</g>
</svg>
