<?xml version="1.0" encoding="UTF-8" standalone="no"?>
<!DOCTYPE svg PUBLIC "-//W3C//DTD SVG 1.1//EN"
 "http://www.w3.org/Graphics/SVG/1.1/DTD/svg11.dtd">
<!-- Generated by graphviz version 2.43.0 (0)
 -->
<!-- Title: dma_types.h Pages: 1 -->
<svg width="568pt" height="476pt"
 viewBox="0.00 0.00 568.00 476.00" xmlns="http://www.w3.org/2000/svg" xmlns:xlink="http://www.w3.org/1999/xlink">
<g id="graph0" class="graph" transform="scale(1 1) rotate(0) translate(4 472)">
<title>dma_types.h</title>
<polygon fill="white" stroke="transparent" points="-4,4 -4,-472 564,-472 564,4 -4,4"/>
<!-- Node1 -->
<g id="node1" class="node">
<title>Node1</title>
<g id="a_node1"><a xlink:title=" ">
<polygon fill="#bfbfbf" stroke="black" points="91.5,-448.5 91.5,-467.5 171.5,-467.5 171.5,-448.5 91.5,-448.5"/>
<text text-anchor="middle" x="131.5" y="-455.5" font-family="Helvetica,sans-Serif" font-size="10.00">dma_types.h</text>
</a>
</g>
</g>
<!-- Node2 -->
<g id="node2" class="node">
<title>Node2</title>
<g id="a_node2"><a xlink:href="spec_2dma_8h.html" target="_top" xlink:title=" ">
<polygon fill="white" stroke="black" points="5,-280.5 5,-299.5 52,-299.5 52,-280.5 5,-280.5"/>
<text text-anchor="middle" x="28.5" y="-287.5" font-family="Helvetica,sans-Serif" font-size="10.00">dma.h</text>
</a>
</g>
</g>
<!-- Node1&#45;&gt;Node2 -->
<g id="edge1" class="edge">
<title>Node1&#45;&gt;Node2</title>
<path fill="none" stroke="midnightblue" d="M120.52,-439.31C98.57,-403.92 49.95,-325.56 33.82,-299.57"/>
<polygon fill="midnightblue" stroke="midnightblue" points="117.72,-441.42 125.96,-448.08 123.66,-437.73 117.72,-441.42"/>
</g>
<!-- Node4 -->
<g id="node4" class="node">
<title>Node4</title>
<g id="a_node4"><a xlink:href="spec_2pool__types_8h.html" target="_top" xlink:title=" ">
<polygon fill="white" stroke="black" points="126,-392.5 126,-411.5 205,-411.5 205,-392.5 126,-392.5"/>
<text text-anchor="middle" x="165.5" y="-399.5" font-family="Helvetica,sans-Serif" font-size="10.00">pool_types.h</text>
</a>
</g>
</g>
<!-- Node1&#45;&gt;Node4 -->
<g id="edge3" class="edge">
<title>Node1&#45;&gt;Node4</title>
<path fill="none" stroke="midnightblue" d="M142.48,-439.57C148.33,-430.27 155.27,-419.25 159.99,-411.75"/>
<polygon fill="midnightblue" stroke="midnightblue" points="139.48,-437.76 137.11,-448.08 145.4,-441.49 139.48,-437.76"/>
</g>
<!-- Node3 -->
<g id="node3" class="node">
<title>Node3</title>
<g id="a_node3"><a xlink:href="dma_8h.html" target="_top" xlink:title=" ">
<polygon fill="white" stroke="black" points="0,-224.5 0,-243.5 47,-243.5 47,-224.5 0,-224.5"/>
<text text-anchor="middle" x="23.5" y="-231.5" font-family="Helvetica,sans-Serif" font-size="10.00">dma.h</text>
</a>
</g>
</g>
<!-- Node2&#45;&gt;Node3 -->
<g id="edge2" class="edge">
<title>Node2&#45;&gt;Node3</title>
<path fill="none" stroke="midnightblue" d="M26.75,-270.1C25.92,-261.14 24.97,-250.86 24.31,-243.75"/>
<polygon fill="midnightblue" stroke="midnightblue" points="23.27,-270.45 27.67,-280.08 30.24,-269.8 23.27,-270.45"/>
</g>
<!-- Node5 -->
<g id="node5" class="node">
<title>Node5</title>
<g id="a_node5"><a xlink:href="pool__types_8h.html" target="_top" xlink:title=" ">
<polygon fill="white" stroke="black" points="195,-336.5 195,-355.5 274,-355.5 274,-336.5 195,-336.5"/>
<text text-anchor="middle" x="234.5" y="-343.5" font-family="Helvetica,sans-Serif" font-size="10.00">pool_types.h</text>
</a>
</g>
</g>
<!-- Node4&#45;&gt;Node5 -->
<g id="edge4" class="edge">
<title>Node4&#45;&gt;Node5</title>
<path fill="none" stroke="midnightblue" d="M184.54,-386.1C196.96,-376.38 212.74,-364.03 223.21,-355.83"/>
<polygon fill="midnightblue" stroke="midnightblue" points="182.3,-383.4 176.59,-392.32 186.62,-388.92 182.3,-383.4"/>
</g>
<!-- Node5&#45;&gt;Node2 -->
<g id="edge16" class="edge">
<title>Node5&#45;&gt;Node2</title>
<path fill="none" stroke="midnightblue" d="M191.41,-333.94C156.39,-324.92 105.72,-311.78 61.5,-300 58.52,-299.21 55.38,-298.36 52.28,-297.52"/>
<polygon fill="midnightblue" stroke="midnightblue" points="190.75,-337.39 201.3,-336.49 192.49,-330.61 190.75,-337.39"/>
</g>
<!-- Node6 -->
<g id="node6" class="node">
<title>Node6</title>
<g id="a_node6"><a xlink:href="spec_2buffer_8h.html" target="_top" xlink:title=" ">
<polygon fill="white" stroke="black" points="374,-280.5 374,-299.5 427,-299.5 427,-280.5 374,-280.5"/>
<text text-anchor="middle" x="400.5" y="-287.5" font-family="Helvetica,sans-Serif" font-size="10.00">buffer.h</text>
</a>
</g>
</g>
<!-- Node5&#45;&gt;Node6 -->
<g id="edge5" class="edge">
<title>Node5&#45;&gt;Node6</title>
<path fill="none" stroke="midnightblue" d="M270.45,-333.3C301.73,-323.13 346.32,-308.62 374.32,-299.52"/>
<polygon fill="midnightblue" stroke="midnightblue" points="269.23,-330.02 260.8,-336.44 271.4,-336.68 269.23,-330.02"/>
</g>
<!-- Node8 -->
<g id="node8" class="node">
<title>Node8</title>
<g id="a_node8"><a xlink:href="spec_2classification_8h.html" target="_top" xlink:title=" ">
<polygon fill="white" stroke="black" points="142,-168.5 142,-187.5 231,-187.5 231,-168.5 142,-168.5"/>
<text text-anchor="middle" x="186.5" y="-175.5" font-family="Helvetica,sans-Serif" font-size="10.00">classification.h</text>
</a>
</g>
</g>
<!-- Node5&#45;&gt;Node8 -->
<g id="edge7" class="edge">
<title>Node5&#45;&gt;Node8</title>
<path fill="none" stroke="midnightblue" d="M205.5,-331.33C193.27,-323.92 180.31,-313.48 173.5,-300 154.26,-261.9 173.48,-208.59 182.44,-187.79"/>
<polygon fill="midnightblue" stroke="midnightblue" points="204.16,-334.59 214.59,-336.41 207.57,-328.48 204.16,-334.59"/>
</g>
<!-- Node14 -->
<g id="node14" class="node">
<title>Node14</title>
<g id="a_node14"><a xlink:href="spec_2crypto_8h.html" target="_top" xlink:title=" ">
<polygon fill="white" stroke="black" points="70.5,-280.5 70.5,-299.5 126.5,-299.5 126.5,-280.5 70.5,-280.5"/>
<text text-anchor="middle" x="98.5" y="-287.5" font-family="Helvetica,sans-Serif" font-size="10.00">crypto.h</text>
</a>
</g>
</g>
<!-- Node5&#45;&gt;Node14 -->
<g id="edge13" class="edge">
<title>Node5&#45;&gt;Node14</title>
<path fill="none" stroke="midnightblue" d="M203.37,-332.64C177.84,-322.5 142.39,-308.43 119.95,-299.52"/>
<polygon fill="midnightblue" stroke="midnightblue" points="202.36,-336.01 212.95,-336.44 204.95,-329.5 202.36,-336.01"/>
</g>
<!-- Node16 -->
<g id="node16" class="node">
<title>Node16</title>
<g id="a_node16"><a xlink:href="spec_2packet_8h.html" target="_top" xlink:title=" ">
<polygon fill="white" stroke="black" points="388.5,-168.5 388.5,-187.5 446.5,-187.5 446.5,-168.5 388.5,-168.5"/>
<text text-anchor="middle" x="417.5" y="-175.5" font-family="Helvetica,sans-Serif" font-size="10.00">packet.h</text>
</a>
</g>
</g>
<!-- Node5&#45;&gt;Node16 -->
<g id="edge17" class="edge">
<title>Node5&#45;&gt;Node16</title>
<path fill="none" stroke="midnightblue" d="M284.2,-340.93C337.73,-335.39 417.76,-323.37 436.5,-300 463.63,-266.16 435.46,-209.41 422.89,-187.76"/>
<polygon fill="midnightblue" stroke="midnightblue" points="283.81,-337.45 274.21,-341.92 284.5,-344.41 283.81,-337.45"/>
</g>
<!-- Node19 -->
<g id="node19" class="node">
<title>Node19</title>
<g id="a_node19"><a xlink:href="spec_2packet__io__types_8h.html" target="_top" xlink:title=" ">
<polygon fill="white" stroke="black" points="182.5,-280.5 182.5,-299.5 286.5,-299.5 286.5,-280.5 182.5,-280.5"/>
<text text-anchor="middle" x="234.5" y="-287.5" font-family="Helvetica,sans-Serif" font-size="10.00">packet_io_types.h</text>
</a>
</g>
</g>
<!-- Node5&#45;&gt;Node19 -->
<g id="edge20" class="edge">
<title>Node5&#45;&gt;Node19</title>
<path fill="none" stroke="midnightblue" d="M234.5,-325.8C234.5,-316.91 234.5,-306.78 234.5,-299.75"/>
<polygon fill="midnightblue" stroke="midnightblue" points="231,-326.08 234.5,-336.08 238,-326.08 231,-326.08"/>
</g>
<!-- Node23 -->
<g id="node23" class="node">
<title>Node23</title>
<g id="a_node23"><a xlink:href="spec_2pool_8h.html" target="_top" xlink:title=" ">
<polygon fill="white" stroke="black" points="485,-280.5 485,-299.5 532,-299.5 532,-280.5 485,-280.5"/>
<text text-anchor="middle" x="508.5" y="-287.5" font-family="Helvetica,sans-Serif" font-size="10.00">pool.h</text>
</a>
</g>
</g>
<!-- Node5&#45;&gt;Node23 -->
<g id="edge29" class="edge">
<title>Node5&#45;&gt;Node23</title>
<path fill="none" stroke="midnightblue" d="M284.14,-336.05C331.78,-327.34 405.7,-313.47 469.5,-300 474.4,-298.97 479.62,-297.8 484.61,-296.66"/>
<polygon fill="midnightblue" stroke="midnightblue" points="283.3,-332.65 274.09,-337.89 284.56,-339.54 283.3,-332.65"/>
</g>
<!-- Node26 -->
<g id="node26" class="node">
<title>Node26</title>
<g id="a_node26"><a xlink:href="spec_2timer_8h.html" target="_top" xlink:title=" ">
<polygon fill="white" stroke="black" points="305,-280.5 305,-299.5 356,-299.5 356,-280.5 305,-280.5"/>
<text text-anchor="middle" x="330.5" y="-287.5" font-family="Helvetica,sans-Serif" font-size="10.00">timer.h</text>
</a>
</g>
</g>
<!-- Node5&#45;&gt;Node26 -->
<g id="edge32" class="edge">
<title>Node5&#45;&gt;Node26</title>
<path fill="none" stroke="midnightblue" d="M259.07,-331.18C276.74,-321.24 300.01,-308.15 315.11,-299.65"/>
<polygon fill="midnightblue" stroke="midnightblue" points="256.92,-328.37 249.92,-336.32 260.36,-334.47 256.92,-328.37"/>
</g>
<!-- Node7 -->
<g id="node7" class="node">
<title>Node7</title>
<g id="a_node7"><a xlink:href="buffer_8h.html" target="_top" xlink:title=" ">
<polygon fill="white" stroke="black" points="374,-224.5 374,-243.5 427,-243.5 427,-224.5 374,-224.5"/>
<text text-anchor="middle" x="400.5" y="-231.5" font-family="Helvetica,sans-Serif" font-size="10.00">buffer.h</text>
</a>
</g>
</g>
<!-- Node6&#45;&gt;Node7 -->
<g id="edge6" class="edge">
<title>Node6&#45;&gt;Node7</title>
<path fill="none" stroke="midnightblue" d="M400.5,-269.8C400.5,-260.91 400.5,-250.78 400.5,-243.75"/>
<polygon fill="midnightblue" stroke="midnightblue" points="397,-270.08 400.5,-280.08 404,-270.08 397,-270.08"/>
</g>
<!-- Node9 -->
<g id="node9" class="node">
<title>Node9</title>
<g id="a_node9"><a xlink:href="classification_8h.html" target="_top" xlink:title=" ">
<polygon fill="white" stroke="black" points="142,-112.5 142,-131.5 231,-131.5 231,-112.5 142,-112.5"/>
<text text-anchor="middle" x="186.5" y="-119.5" font-family="Helvetica,sans-Serif" font-size="10.00">classification.h</text>
</a>
</g>
</g>
<!-- Node8&#45;&gt;Node9 -->
<g id="edge8" class="edge">
<title>Node8&#45;&gt;Node9</title>
<path fill="none" stroke="midnightblue" d="M186.5,-157.8C186.5,-148.91 186.5,-138.78 186.5,-131.75"/>
<polygon fill="midnightblue" stroke="midnightblue" points="183,-158.08 186.5,-168.08 190,-158.08 183,-158.08"/>
</g>
<!-- Node10 -->
<g id="node10" class="node">
<title>Node10</title>
<g id="a_node10"><a xlink:href="spec_2ipsec_8h.html" target="_top" xlink:title=" ">
<polygon fill="white" stroke="black" points="124,-56.5 124,-75.5 175,-75.5 175,-56.5 124,-56.5"/>
<text text-anchor="middle" x="149.5" y="-63.5" font-family="Helvetica,sans-Serif" font-size="10.00">ipsec.h</text>
</a>
</g>
</g>
<!-- Node9&#45;&gt;Node10 -->
<g id="edge9" class="edge">
<title>Node9&#45;&gt;Node10</title>
<path fill="none" stroke="midnightblue" d="M174.55,-103.57C168.19,-94.27 160.63,-83.25 155.5,-75.75"/>
<polygon fill="midnightblue" stroke="midnightblue" points="171.85,-105.81 180.39,-112.08 177.63,-101.86 171.85,-105.81"/>
</g>
<!-- Node12 -->
<g id="node12" class="node">
<title>Node12</title>
<g id="a_node12"><a xlink:href="spec_2packet__io_8h.html" target="_top" xlink:title=" ">
<polygon fill="white" stroke="black" points="237.5,-56.5 237.5,-75.5 309.5,-75.5 309.5,-56.5 237.5,-56.5"/>
<text text-anchor="middle" x="273.5" y="-63.5" font-family="Helvetica,sans-Serif" font-size="10.00">packet_io.h</text>
</a>
</g>
</g>
<!-- Node9&#45;&gt;Node12 -->
<g id="edge11" class="edge">
<title>Node9&#45;&gt;Node12</title>
<path fill="none" stroke="midnightblue" d="M209.22,-106.9C225.17,-97 246,-84.07 259.56,-75.65"/>
<polygon fill="midnightblue" stroke="midnightblue" points="207.13,-104.08 200.48,-112.32 210.82,-110.02 207.13,-104.08"/>
</g>
<!-- Node11 -->
<g id="node11" class="node">
<title>Node11</title>
<g id="a_node11"><a xlink:href="ipsec_8h.html" target="_top" xlink:title=" ">
<polygon fill="white" stroke="black" points="124,-0.5 124,-19.5 175,-19.5 175,-0.5 124,-0.5"/>
<text text-anchor="middle" x="149.5" y="-7.5" font-family="Helvetica,sans-Serif" font-size="10.00">ipsec.h</text>
</a>
</g>
</g>
<!-- Node10&#45;&gt;Node11 -->
<g id="edge10" class="edge">
<title>Node10&#45;&gt;Node11</title>
<path fill="none" stroke="midnightblue" d="M149.5,-45.8C149.5,-36.91 149.5,-26.78 149.5,-19.75"/>
<polygon fill="midnightblue" stroke="midnightblue" points="146,-46.08 149.5,-56.08 153,-46.08 146,-46.08"/>
</g>
<!-- Node13 -->
<g id="node13" class="node">
<title>Node13</title>
<g id="a_node13"><a xlink:href="packet__io_8h.html" target="_top" xlink:title=" ">
<polygon fill="white" stroke="black" points="237.5,-0.5 237.5,-19.5 309.5,-19.5 309.5,-0.5 237.5,-0.5"/>
<text text-anchor="middle" x="273.5" y="-7.5" font-family="Helvetica,sans-Serif" font-size="10.00">packet_io.h</text>
</a>
</g>
</g>
<!-- Node12&#45;&gt;Node13 -->
<g id="edge12" class="edge">
<title>Node12&#45;&gt;Node13</title>
<path fill="none" stroke="midnightblue" d="M273.5,-45.8C273.5,-36.91 273.5,-26.78 273.5,-19.75"/>
<polygon fill="midnightblue" stroke="midnightblue" points="270,-46.08 273.5,-56.08 277,-46.08 270,-46.08"/>
</g>
<!-- Node15 -->
<g id="node15" class="node">
<title>Node15</title>
<g id="a_node15"><a xlink:href="crypto_8h.html" target="_top" xlink:title=" ">
<polygon fill="white" stroke="black" points="29.5,-112.5 29.5,-131.5 85.5,-131.5 85.5,-112.5 29.5,-112.5"/>
<text text-anchor="middle" x="57.5" y="-119.5" font-family="Helvetica,sans-Serif" font-size="10.00">crypto.h</text>
</a>
</g>
</g>
<!-- Node14&#45;&gt;Node15 -->
<g id="edge14" class="edge">
<title>Node14&#45;&gt;Node15</title>
<path fill="none" stroke="midnightblue" d="M93.79,-269.93C84.9,-233.92 65.95,-157.23 59.62,-131.57"/>
<polygon fill="midnightblue" stroke="midnightblue" points="90.5,-271.21 96.3,-280.08 97.3,-269.53 90.5,-271.21"/>
</g>
<!-- Node15&#45;&gt;Node10 -->
<g id="edge15" class="edge">
<title>Node15&#45;&gt;Node10</title>
<path fill="none" stroke="midnightblue" d="M81.05,-107.18C97.98,-97.24 120.28,-84.15 134.76,-75.65"/>
<polygon fill="midnightblue" stroke="midnightblue" points="79.13,-104.24 72.28,-112.32 82.68,-110.28 79.13,-104.24"/>
</g>
<!-- Node17 -->
<g id="node17" class="node">
<title>Node17</title>
<g id="a_node17"><a xlink:href="packet_8h.html" target="_top" xlink:title=" ">
<polygon fill="white" stroke="black" points="388.5,-112.5 388.5,-131.5 446.5,-131.5 446.5,-112.5 388.5,-112.5"/>
<text text-anchor="middle" x="417.5" y="-119.5" font-family="Helvetica,sans-Serif" font-size="10.00">packet.h</text>
</a>
</g>
</g>
<!-- Node16&#45;&gt;Node17 -->
<g id="edge18" class="edge">
<title>Node16&#45;&gt;Node17</title>
<path fill="none" stroke="midnightblue" d="M417.5,-157.8C417.5,-148.91 417.5,-138.78 417.5,-131.75"/>
<polygon fill="midnightblue" stroke="midnightblue" points="414,-158.08 417.5,-168.08 421,-158.08 414,-158.08"/>
</g>
<!-- Node18 -->
<g id="node18" class="node">
<title>Node18</title>
<g id="a_node18"><a xlink:href="event__inlines_8h_source.html" target="_top" xlink:title=" ">
<polygon fill="white" stroke="black" points="372,-56.5 372,-75.5 463,-75.5 463,-56.5 372,-56.5"/>
<text text-anchor="middle" x="417.5" y="-63.5" font-family="Helvetica,sans-Serif" font-size="10.00">event_inlines.h</text>
</a>
</g>
</g>
<!-- Node17&#45;&gt;Node18 -->
<g id="edge19" class="edge">
<title>Node17&#45;&gt;Node18</title>
<path fill="none" stroke="midnightblue" d="M417.5,-101.8C417.5,-92.91 417.5,-82.78 417.5,-75.75"/>
<polygon fill="midnightblue" stroke="midnightblue" points="414,-102.08 417.5,-112.08 421,-102.08 414,-102.08"/>
</g>
<!-- Node20 -->
<g id="node20" class="node">
<title>Node20</title>
<g id="a_node20"><a xlink:href="packet__io__types_8h.html" target="_top" xlink:title=" ">
<polygon fill="white" stroke="black" points="182.5,-224.5 182.5,-243.5 286.5,-243.5 286.5,-224.5 182.5,-224.5"/>
<text text-anchor="middle" x="234.5" y="-231.5" font-family="Helvetica,sans-Serif" font-size="10.00">packet_io_types.h</text>
</a>
</g>
</g>
<!-- Node19&#45;&gt;Node20 -->
<g id="edge21" class="edge">
<title>Node19&#45;&gt;Node20</title>
<path fill="none" stroke="midnightblue" d="M234.5,-269.8C234.5,-260.91 234.5,-250.78 234.5,-243.75"/>
<polygon fill="midnightblue" stroke="midnightblue" points="231,-270.08 234.5,-280.08 238,-270.08 231,-270.08"/>
</g>
<!-- Node20&#45;&gt;Node8 -->
<g id="edge22" class="edge">
<title>Node20&#45;&gt;Node8</title>
<path fill="none" stroke="midnightblue" d="M219.77,-216.43C211.36,-206.97 201.15,-195.48 194.28,-187.75"/>
<polygon fill="midnightblue" stroke="midnightblue" points="217.31,-218.93 226.57,-224.08 222.55,-214.28 217.31,-218.93"/>
</g>
<!-- Node20&#45;&gt;Node10 -->
<g id="edge23" class="edge">
<title>Node20&#45;&gt;Node10</title>
<path fill="none" stroke="midnightblue" d="M178.35,-221.13C160.64,-214.45 142.98,-204.08 132.5,-188 108.99,-151.92 133.45,-96.98 144.59,-75.77"/>
<polygon fill="midnightblue" stroke="midnightblue" points="177.55,-224.55 188.14,-224.47 179.81,-217.93 177.55,-224.55"/>
</g>
<!-- Node20&#45;&gt;Node12 -->
<g id="edge25" class="edge">
<title>Node20&#45;&gt;Node12</title>
<path fill="none" stroke="midnightblue" d="M294.74,-221.25C312.84,-214.61 330.72,-204.22 341.5,-188 360.19,-159.86 357.49,-141.75 341.5,-112 332.12,-94.54 312.66,-82.72 296.95,-75.59"/>
<polygon fill="midnightblue" stroke="midnightblue" points="293.4,-218.01 285.01,-224.49 295.6,-224.66 293.4,-218.01"/>
</g>
<!-- Node20&#45;&gt;Node16 -->
<g id="edge24" class="edge">
<title>Node20&#45;&gt;Node16</title>
<path fill="none" stroke="midnightblue" d="M273.24,-221.57C307.76,-211.38 357.51,-196.7 388.64,-187.52"/>
<polygon fill="midnightblue" stroke="midnightblue" points="272.1,-218.26 263.5,-224.44 274.08,-224.97 272.1,-218.26"/>
</g>
<!-- Node21 -->
<g id="node21" class="node">
<title>Node21</title>
<g id="a_node21"><a xlink:href="spec_2traffic__mngr_8h.html" target="_top" xlink:title=" ">
<polygon fill="white" stroke="black" points="248.5,-168.5 248.5,-187.5 332.5,-187.5 332.5,-168.5 248.5,-168.5"/>
<text text-anchor="middle" x="290.5" y="-175.5" font-family="Helvetica,sans-Serif" font-size="10.00">traffic_mngr.h</text>
</a>
</g>
</g>
<!-- Node20&#45;&gt;Node21 -->
<g id="edge26" class="edge">
<title>Node20&#45;&gt;Node21</title>
<path fill="none" stroke="midnightblue" d="M250.83,-217.25C260.76,-207.67 273.09,-195.79 281.34,-187.83"/>
<polygon fill="midnightblue" stroke="midnightblue" points="248.27,-214.86 243.5,-224.32 253.13,-219.9 248.27,-214.86"/>
</g>
<!-- Node22 -->
<g id="node22" class="node">
<title>Node22</title>
<g id="a_node22"><a xlink:href="traffic__mngr_8h.html" target="_top" xlink:title=" ">
<polygon fill="white" stroke="black" points="248.5,-112.5 248.5,-131.5 332.5,-131.5 332.5,-112.5 248.5,-112.5"/>
<text text-anchor="middle" x="290.5" y="-119.5" font-family="Helvetica,sans-Serif" font-size="10.00">traffic_mngr.h</text>
</a>
</g>
</g>
<!-- Node21&#45;&gt;Node22 -->
<g id="edge27" class="edge">
<title>Node21&#45;&gt;Node22</title>
<path fill="none" stroke="midnightblue" d="M290.5,-157.8C290.5,-148.91 290.5,-138.78 290.5,-131.75"/>
<polygon fill="midnightblue" stroke="midnightblue" points="287,-158.08 290.5,-168.08 294,-158.08 287,-158.08"/>
</g>
<!-- Node22&#45;&gt;Node10 -->
<g id="edge28" class="edge">
<title>Node22&#45;&gt;Node10</title>
<path fill="none" stroke="midnightblue" d="M258.57,-108.77C232.09,-98.63 195.11,-84.47 171.74,-75.52"/>
<polygon fill="midnightblue" stroke="midnightblue" points="257.57,-112.14 268.16,-112.44 260.07,-105.6 257.57,-112.14"/>
</g>
<!-- Node24 -->
<g id="node24" class="node">
<title>Node24</title>
<g id="a_node24"><a xlink:href="pool_8h.html" target="_top" xlink:title=" ">
<polygon fill="white" stroke="black" points="486,-224.5 486,-243.5 533,-243.5 533,-224.5 486,-224.5"/>
<text text-anchor="middle" x="509.5" y="-231.5" font-family="Helvetica,sans-Serif" font-size="10.00">pool.h</text>
</a>
</g>
</g>
<!-- Node23&#45;&gt;Node24 -->
<g id="edge30" class="edge">
<title>Node23&#45;&gt;Node24</title>
<path fill="none" stroke="midnightblue" d="M508.86,-269.8C509.02,-260.91 509.21,-250.78 509.34,-243.75"/>
<polygon fill="midnightblue" stroke="midnightblue" points="505.35,-270.02 508.67,-280.08 512.35,-270.15 505.35,-270.02"/>
</g>
<!-- Node25 -->
<g id="node25" class="node">
<title>Node25</title>
<g id="a_node25"><a xlink:href="packet__inlines_8h.html" target="_top" xlink:title=" ">
<polygon fill="white" stroke="black" points="465,-168.5 465,-187.5 560,-187.5 560,-168.5 465,-168.5"/>
<text text-anchor="middle" x="512.5" y="-175.5" font-family="Helvetica,sans-Serif" font-size="10.00">packet_inlines.h</text>
</a>
</g>
</g>
<!-- Node24&#45;&gt;Node25 -->
<g id="edge31" class="edge">
<title>Node24&#45;&gt;Node25</title>
<path fill="none" stroke="midnightblue" d="M510.57,-213.8C511.06,-204.91 511.62,-194.78 512.01,-187.75"/>
<polygon fill="midnightblue" stroke="midnightblue" points="507.06,-213.9 510,-224.08 514.04,-214.29 507.06,-213.9"/>
</g>
<!-- Node27 -->
<g id="node27" class="node">
<title>Node27</title>
<g id="a_node27"><a xlink:href="timer_8h.html" target="_top" xlink:title=" ">
<polygon fill="white" stroke="black" points="305,-224.5 305,-243.5 356,-243.5 356,-224.5 305,-224.5"/>
<text text-anchor="middle" x="330.5" y="-231.5" font-family="Helvetica,sans-Serif" font-size="10.00">timer.h</text>
</a>
</g>
</g>
<!-- Node26&#45;&gt;Node27 -->
<g id="edge33" class="edge">
<title>Node26&#45;&gt;Node27</title>
<path fill="none" stroke="midnightblue" d="M330.5,-269.8C330.5,-260.91 330.5,-250.78 330.5,-243.75"/>
<polygon fill="midnightblue" stroke="midnightblue" points="327,-270.08 330.5,-280.08 334,-270.08 327,-270.08"/>
</g>
</g>
</svg>
