<?xml version="1.0" encoding="UTF-8" standalone="no"?>
<!DOCTYPE svg PUBLIC "-//W3C//DTD SVG 1.1//EN"
 "http://www.w3.org/Graphics/SVG/1.1/DTD/svg11.dtd">
<!-- Generated by graphviz version 2.43.0 (0)
 -->
<!-- Title: packet_io_types.h Pages: 1 -->
<svg width="362pt" height="252pt"
 viewBox="0.00 0.00 361.50 252.00" xmlns="http://www.w3.org/2000/svg" xmlns:xlink="http://www.w3.org/1999/xlink">
<g id="graph0" class="graph" transform="scale(1 1) rotate(0) translate(4 248)">
<title>packet_io_types.h</title>
<polygon fill="white" stroke="transparent" points="-4,4 -4,-248 357.5,-248 357.5,4 -4,4"/>
<!-- Node1 -->
<g id="node1" class="node">
<title>Node1</title>
<g id="a_node1"><a xlink:title=" ">
<polygon fill="#bfbfbf" stroke="black" points="97,-224.5 97,-243.5 201,-243.5 201,-224.5 97,-224.5"/>
<text text-anchor="middle" x="149" y="-231.5" font-family="Helvetica,sans-Serif" font-size="10.00">packet_io_types.h</text>
</a>
</g>
</g>
<!-- Node2 -->
<g id="node2" class="node">
<title>Node2</title>
<g id="a_node2"><a xlink:href="spec_2classification_8h.html" target="_top" xlink:title=" ">
<polygon fill="white" stroke="black" points="31.5,-168.5 31.5,-187.5 120.5,-187.5 120.5,-168.5 31.5,-168.5"/>
<text text-anchor="middle" x="76" y="-175.5" font-family="Helvetica,sans-Serif" font-size="10.00">classification.h</text>
</a>
</g>
</g>
<!-- Node1&#45;&gt;Node2 -->
<g id="edge1" class="edge">
<title>Node1&#45;&gt;Node2</title>
<path fill="none" stroke="midnightblue" d="M128.86,-218.1C115.72,-208.38 99.02,-196.03 87.94,-187.83"/>
<polygon fill="midnightblue" stroke="midnightblue" points="127.15,-221.19 137.27,-224.32 131.31,-215.56 127.15,-221.19"/>
</g>
<!-- Node4 -->
<g id="node4" class="node">
<title>Node4</title>
<g id="a_node4"><a xlink:href="spec_2ipsec_8h.html" target="_top" xlink:title=" ">
<polygon fill="white" stroke="black" points="123.5,-56.5 123.5,-75.5 174.5,-75.5 174.5,-56.5 123.5,-56.5"/>
<text text-anchor="middle" x="149" y="-63.5" font-family="Helvetica,sans-Serif" font-size="10.00">ipsec.h</text>
</a>
</g>
</g>
<!-- Node1&#45;&gt;Node4 -->
<g id="edge7" class="edge">
<title>Node1&#45;&gt;Node4</title>
<path fill="none" stroke="midnightblue" d="M149,-213.93C149,-177.92 149,-101.23 149,-75.57"/>
<polygon fill="midnightblue" stroke="midnightblue" points="145.5,-214.08 149,-224.08 152.5,-214.08 145.5,-214.08"/>
</g>
<!-- Node6 -->
<g id="node6" class="node">
<title>Node6</title>
<g id="a_node6"><a xlink:href="spec_2packet__io_8h.html" target="_top" xlink:title=" ">
<polygon fill="white" stroke="black" points="0,-56.5 0,-75.5 72,-75.5 72,-56.5 0,-56.5"/>
<text text-anchor="middle" x="36" y="-63.5" font-family="Helvetica,sans-Serif" font-size="10.00">packet_io.h</text>
</a>
</g>
</g>
<!-- Node1&#45;&gt;Node6 -->
<g id="edge11" class="edge">
<title>Node1&#45;&gt;Node6</title>
<path fill="none" stroke="midnightblue" d="M86.88,-226.34C62.53,-220.34 36.89,-209.07 22,-188 -2.89,-152.77 20.78,-96.85 31.42,-75.59"/>
<polygon fill="midnightblue" stroke="midnightblue" points="86.33,-229.8 96.85,-228.53 87.83,-222.96 86.33,-229.8"/>
</g>
<!-- Node8 -->
<g id="node8" class="node">
<title>Node8</title>
<g id="a_node8"><a xlink:href="spec_2packet_8h.html" target="_top" xlink:title=" ">
<polygon fill="white" stroke="black" points="279,-168.5 279,-187.5 337,-187.5 337,-168.5 279,-168.5"/>
<text text-anchor="middle" x="308" y="-175.5" font-family="Helvetica,sans-Serif" font-size="10.00">packet.h</text>
</a>
</g>
</g>
<!-- Node1&#45;&gt;Node8 -->
<g id="edge8" class="edge">
<title>Node1&#45;&gt;Node8</title>
<path fill="none" stroke="midnightblue" d="M183.83,-221.17C213.77,-211 256.22,-196.59 282.92,-187.52"/>
<polygon fill="midnightblue" stroke="midnightblue" points="182.54,-217.91 174.19,-224.44 184.79,-224.54 182.54,-217.91"/>
</g>
<!-- Node11 -->
<g id="node11" class="node">
<title>Node11</title>
<g id="a_node11"><a xlink:href="spec_2traffic__mngr_8h.html" target="_top" xlink:title=" ">
<polygon fill="white" stroke="black" points="177,-168.5 177,-187.5 261,-187.5 261,-168.5 177,-168.5"/>
<text text-anchor="middle" x="219" y="-175.5" font-family="Helvetica,sans-Serif" font-size="10.00">traffic_mngr.h</text>
</a>
</g>
</g>
<!-- Node1&#45;&gt;Node11 -->
<g id="edge12" class="edge">
<title>Node1&#45;&gt;Node11</title>
<path fill="none" stroke="midnightblue" d="M168.31,-218.1C180.91,-208.38 196.93,-196.03 207.55,-187.83"/>
<polygon fill="midnightblue" stroke="midnightblue" points="166.03,-215.44 160.25,-224.32 170.3,-220.99 166.03,-215.44"/>
</g>
<!-- Node3 -->
<g id="node3" class="node">
<title>Node3</title>
<g id="a_node3"><a xlink:href="classification_8h.html" target="_top" xlink:title=" ">
<polygon fill="white" stroke="black" points="31.5,-112.5 31.5,-131.5 120.5,-131.5 120.5,-112.5 31.5,-112.5"/>
<text text-anchor="middle" x="76" y="-119.5" font-family="Helvetica,sans-Serif" font-size="10.00">classification.h</text>
</a>
</g>
</g>
<!-- Node2&#45;&gt;Node3 -->
<g id="edge2" class="edge">
<title>Node2&#45;&gt;Node3</title>
<path fill="none" stroke="midnightblue" d="M76,-157.8C76,-148.91 76,-138.78 76,-131.75"/>
<polygon fill="midnightblue" stroke="midnightblue" points="72.5,-158.08 76,-168.08 79.5,-158.08 72.5,-158.08"/>
</g>
<!-- Node3&#45;&gt;Node4 -->
<g id="edge3" class="edge">
<title>Node3&#45;&gt;Node4</title>
<path fill="none" stroke="midnightblue" d="M96.14,-106.1C109.28,-96.38 125.98,-84.03 137.06,-75.83"/>
<polygon fill="midnightblue" stroke="midnightblue" points="93.69,-103.56 87.73,-112.32 97.85,-109.19 93.69,-103.56"/>
</g>
<!-- Node3&#45;&gt;Node6 -->
<g id="edge5" class="edge">
<title>Node3&#45;&gt;Node6</title>
<path fill="none" stroke="midnightblue" d="M63.3,-103.86C56.37,-94.5 48.09,-83.33 42.48,-75.75"/>
<polygon fill="midnightblue" stroke="midnightblue" points="60.63,-106.13 69.39,-112.08 66.25,-101.96 60.63,-106.13"/>
</g>
<!-- Node5 -->
<g id="node5" class="node">
<title>Node5</title>
<g id="a_node5"><a xlink:href="ipsec_8h.html" target="_top" xlink:title=" ">
<polygon fill="white" stroke="black" points="123.5,-0.5 123.5,-19.5 174.5,-19.5 174.5,-0.5 123.5,-0.5"/>
<text text-anchor="middle" x="149" y="-7.5" font-family="Helvetica,sans-Serif" font-size="10.00">ipsec.h</text>
</a>
</g>
</g>
<!-- Node4&#45;&gt;Node5 -->
<g id="edge4" class="edge">
<title>Node4&#45;&gt;Node5</title>
<path fill="none" stroke="midnightblue" d="M149,-45.8C149,-36.91 149,-26.78 149,-19.75"/>
<polygon fill="midnightblue" stroke="midnightblue" points="145.5,-46.08 149,-56.08 152.5,-46.08 145.5,-46.08"/>
</g>
<!-- Node7 -->
<g id="node7" class="node">
<title>Node7</title>
<g id="a_node7"><a xlink:href="packet__io_8h.html" target="_top" xlink:title=" ">
<polygon fill="white" stroke="black" points="0,-0.5 0,-19.5 72,-19.5 72,-0.5 0,-0.5"/>
<text text-anchor="middle" x="36" y="-7.5" font-family="Helvetica,sans-Serif" font-size="10.00">packet_io.h</text>
</a>
</g>
</g>
<!-- Node6&#45;&gt;Node7 -->
<g id="edge6" class="edge">
<title>Node6&#45;&gt;Node7</title>
<path fill="none" stroke="midnightblue" d="M36,-45.8C36,-36.91 36,-26.78 36,-19.75"/>
<polygon fill="midnightblue" stroke="midnightblue" points="32.5,-46.08 36,-56.08 39.5,-46.08 32.5,-46.08"/>
</g>
<!-- Node9 -->
<g id="node9" class="node">
<title>Node9</title>
<g id="a_node9"><a xlink:href="packet_8h.html" target="_top" xlink:title=" ">
<polygon fill="white" stroke="black" points="279,-112.5 279,-131.5 337,-131.5 337,-112.5 279,-112.5"/>
<text text-anchor="middle" x="308" y="-119.5" font-family="Helvetica,sans-Serif" font-size="10.00">packet.h</text>
</a>
</g>
</g>
<!-- Node8&#45;&gt;Node9 -->
<g id="edge9" class="edge">
<title>Node8&#45;&gt;Node9</title>
<path fill="none" stroke="midnightblue" d="M308,-157.8C308,-148.91 308,-138.78 308,-131.75"/>
<polygon fill="midnightblue" stroke="midnightblue" points="304.5,-158.08 308,-168.08 311.5,-158.08 304.5,-158.08"/>
</g>
<!-- Node10 -->
<g id="node10" class="node">
<title>Node10</title>
<g id="a_node10"><a xlink:href="event__inlines_8h_source.html" target="_top" xlink:title=" ">
<polygon fill="white" stroke="black" points="262.5,-56.5 262.5,-75.5 353.5,-75.5 353.5,-56.5 262.5,-56.5"/>
<text text-anchor="middle" x="308" y="-63.5" font-family="Helvetica,sans-Serif" font-size="10.00">event_inlines.h</text>
</a>
</g>
</g>
<!-- Node9&#45;&gt;Node10 -->
<g id="edge10" class="edge">
<title>Node9&#45;&gt;Node10</title>
<path fill="none" stroke="midnightblue" d="M308,-101.8C308,-92.91 308,-82.78 308,-75.75"/>
<polygon fill="midnightblue" stroke="midnightblue" points="304.5,-102.08 308,-112.08 311.5,-102.08 304.5,-102.08"/>
</g>
<!-- Node12 -->
<g id="node12" class="node">
<title>Node12</title>
<g id="a_node12"><a xlink:href="traffic__mngr_8h.html" target="_top" xlink:title=" ">
<polygon fill="white" stroke="black" points="177,-112.5 177,-131.5 261,-131.5 261,-112.5 177,-112.5"/>
<text text-anchor="middle" x="219" y="-119.5" font-family="Helvetica,sans-Serif" font-size="10.00">traffic_mngr.h</text>
</a>
</g>
</g>
<!-- Node11&#45;&gt;Node12 -->
<g id="edge13" class="edge">
<title>Node11&#45;&gt;Node12</title>
<path fill="none" stroke="midnightblue" d="M219,-157.8C219,-148.91 219,-138.78 219,-131.75"/>
<polygon fill="midnightblue" stroke="midnightblue" points="215.5,-158.08 219,-168.08 222.5,-158.08 215.5,-158.08"/>
</g>
<!-- Node12&#45;&gt;Node4 -->
<g id="edge14" class="edge">
<title>Node12&#45;&gt;Node4</title>
<path fill="none" stroke="midnightblue" d="M199.69,-106.1C187.09,-96.38 171.07,-84.03 160.45,-75.83"/>
<polygon fill="midnightblue" stroke="midnightblue" points="197.7,-108.99 207.75,-112.32 201.97,-103.44 197.7,-108.99"/>
</g>
</g>
</svg>
