<?xml version="1.0" encoding="UTF-8" standalone="no"?>
<!DOCTYPE svg PUBLIC "-//W3C//DTD SVG 1.1//EN"
 "http://www.w3.org/Graphics/SVG/1.1/DTD/svg11.dtd">
<!-- Generated by graphviz version 2.43.0 (0)
 -->
<!-- Title: packet_io_stats.h Pages: 1 -->
<svg width="406pt" height="364pt"
 viewBox="0.00 0.00 406.00 364.00" xmlns="http://www.w3.org/2000/svg" xmlns:xlink="http://www.w3.org/1999/xlink">
<g id="graph0" class="graph" transform="scale(1 1) rotate(0) translate(4 360)">
<title>packet_io_stats.h</title>
<polygon fill="white" stroke="transparent" points="-4,4 -4,-360 402,-360 402,4 -4,4"/>
<!-- Node1 -->
<g id="node1" class="node">
<title>Node1</title>
<g id="a_node1"><a xlink:title=" ">
<polygon fill="#bfbfbf" stroke="black" points="0,-336.5 0,-355.5 101,-355.5 101,-336.5 0,-336.5"/>
<text text-anchor="middle" x="50.5" y="-343.5" font-family="Helvetica,sans-Serif" font-size="10.00">packet_io_stats.h</text>
</a>
</g>
</g>
<!-- Node2 -->
<g id="node2" class="node">
<title>Node2</title>
<g id="a_node2"><a xlink:href="spec_2packet__io_8h.html" target="_top" xlink:title=" ">
<polygon fill="white" stroke="black" points="12.5,-56.5 12.5,-75.5 84.5,-75.5 84.5,-56.5 12.5,-56.5"/>
<text text-anchor="middle" x="48.5" y="-63.5" font-family="Helvetica,sans-Serif" font-size="10.00">packet_io.h</text>
</a>
</g>
</g>
<!-- Node1&#45;&gt;Node2 -->
<g id="edge1" class="edge">
<title>Node1&#45;&gt;Node2</title>
<path fill="none" stroke="midnightblue" d="M39.82,-327.5C27.97,-306.37 10.5,-269.38 10.5,-235 10.5,-235 10.5,-235 10.5,-177 10.5,-137.4 32.77,-93.96 43.22,-75.77"/>
<polygon fill="midnightblue" stroke="midnightblue" points="36.88,-329.39 44.94,-336.27 42.92,-325.87 36.88,-329.39"/>
</g>
<!-- Node4 -->
<g id="node4" class="node">
<title>Node4</title>
<g id="a_node4"><a xlink:href="spec_2packet__io__types_8h.html" target="_top" xlink:title=" ">
<polygon fill="white" stroke="black" points="53.5,-280.5 53.5,-299.5 157.5,-299.5 157.5,-280.5 53.5,-280.5"/>
<text text-anchor="middle" x="105.5" y="-287.5" font-family="Helvetica,sans-Serif" font-size="10.00">packet_io_types.h</text>
</a>
</g>
</g>
<!-- Node1&#45;&gt;Node4 -->
<g id="edge3" class="edge">
<title>Node1&#45;&gt;Node4</title>
<path fill="none" stroke="midnightblue" d="M66.79,-329C76.54,-319.43 88.55,-307.64 96.59,-299.75"/>
<polygon fill="midnightblue" stroke="midnightblue" points="64.27,-326.58 59.58,-336.08 69.17,-331.57 64.27,-326.58"/>
</g>
<!-- Node3 -->
<g id="node3" class="node">
<title>Node3</title>
<g id="a_node3"><a xlink:href="packet__io_8h.html" target="_top" xlink:title=" ">
<polygon fill="white" stroke="black" points="12.5,-0.5 12.5,-19.5 84.5,-19.5 84.5,-0.5 12.5,-0.5"/>
<text text-anchor="middle" x="48.5" y="-7.5" font-family="Helvetica,sans-Serif" font-size="10.00">packet_io.h</text>
</a>
</g>
</g>
<!-- Node2&#45;&gt;Node3 -->
<g id="edge2" class="edge">
<title>Node2&#45;&gt;Node3</title>
<path fill="none" stroke="midnightblue" d="M48.5,-45.8C48.5,-36.91 48.5,-26.78 48.5,-19.75"/>
<polygon fill="midnightblue" stroke="midnightblue" points="45,-46.08 48.5,-56.08 52,-46.08 45,-46.08"/>
</g>
<!-- Node5 -->
<g id="node5" class="node">
<title>Node5</title>
<g id="a_node5"><a xlink:href="packet__io__types_8h.html" target="_top" xlink:title=" ">
<polygon fill="white" stroke="black" points="121.5,-224.5 121.5,-243.5 225.5,-243.5 225.5,-224.5 121.5,-224.5"/>
<text text-anchor="middle" x="173.5" y="-231.5" font-family="Helvetica,sans-Serif" font-size="10.00">packet_io_types.h</text>
</a>
</g>
</g>
<!-- Node4&#45;&gt;Node5 -->
<g id="edge4" class="edge">
<title>Node4&#45;&gt;Node5</title>
<path fill="none" stroke="midnightblue" d="M124.26,-274.1C136.5,-264.38 152.06,-252.03 162.38,-243.83"/>
<polygon fill="midnightblue" stroke="midnightblue" points="122.08,-271.36 116.43,-280.32 126.43,-276.85 122.08,-271.36"/>
</g>
<!-- Node5&#45;&gt;Node2 -->
<g id="edge14" class="edge">
<title>Node5&#45;&gt;Node2</title>
<path fill="none" stroke="midnightblue" d="M118.53,-221.31C99.65,-214.61 80.12,-204.17 67.5,-188 40.82,-153.8 44.59,-97.27 47.23,-75.72"/>
<polygon fill="midnightblue" stroke="midnightblue" points="117.71,-224.73 128.3,-224.49 119.87,-218.07 117.71,-224.73"/>
</g>
<!-- Node6 -->
<g id="node6" class="node">
<title>Node6</title>
<g id="a_node6"><a xlink:href="spec_2classification_8h.html" target="_top" xlink:title=" ">
<polygon fill="white" stroke="black" points="77,-168.5 77,-187.5 166,-187.5 166,-168.5 77,-168.5"/>
<text text-anchor="middle" x="121.5" y="-175.5" font-family="Helvetica,sans-Serif" font-size="10.00">classification.h</text>
</a>
</g>
</g>
<!-- Node5&#45;&gt;Node6 -->
<g id="edge5" class="edge">
<title>Node5&#45;&gt;Node6</title>
<path fill="none" stroke="midnightblue" d="M157.82,-216.72C148.66,-207.2 137.45,-195.56 129.93,-187.75"/>
<polygon fill="midnightblue" stroke="midnightblue" points="155.46,-219.31 164.91,-224.08 160.5,-214.45 155.46,-219.31"/>
</g>
<!-- Node8 -->
<g id="node8" class="node">
<title>Node8</title>
<g id="a_node8"><a xlink:href="spec_2ipsec_8h.html" target="_top" xlink:title=" ">
<polygon fill="white" stroke="black" points="200,-56.5 200,-75.5 251,-75.5 251,-56.5 200,-56.5"/>
<text text-anchor="middle" x="225.5" y="-63.5" font-family="Helvetica,sans-Serif" font-size="10.00">ipsec.h</text>
</a>
</g>
</g>
<!-- Node5&#45;&gt;Node8 -->
<g id="edge10" class="edge">
<title>Node5&#45;&gt;Node8</title>
<path fill="none" stroke="midnightblue" d="M230.65,-221.08C248.37,-214.41 266,-204.05 276.5,-188 295,-159.74 290.39,-142.79 276.5,-112 269.31,-96.07 253.39,-83.52 241.23,-75.76"/>
<polygon fill="midnightblue" stroke="midnightblue" points="229.17,-217.89 220.83,-224.42 231.43,-224.51 229.17,-217.89"/>
</g>
<!-- Node10 -->
<g id="node10" class="node">
<title>Node10</title>
<g id="a_node10"><a xlink:href="spec_2packet_8h.html" target="_top" xlink:title=" ">
<polygon fill="white" stroke="black" points="323.5,-168.5 323.5,-187.5 381.5,-187.5 381.5,-168.5 323.5,-168.5"/>
<text text-anchor="middle" x="352.5" y="-175.5" font-family="Helvetica,sans-Serif" font-size="10.00">packet.h</text>
</a>
</g>
</g>
<!-- Node5&#45;&gt;Node10 -->
<g id="edge11" class="edge">
<title>Node5&#45;&gt;Node10</title>
<path fill="none" stroke="midnightblue" d="M211.83,-221.44C245.58,-211.26 293.95,-196.66 324.27,-187.52"/>
<polygon fill="midnightblue" stroke="midnightblue" points="210.43,-218.2 201.86,-224.44 212.45,-224.91 210.43,-218.2"/>
</g>
<!-- Node13 -->
<g id="node13" class="node">
<title>Node13</title>
<g id="a_node13"><a xlink:href="spec_2traffic__mngr_8h.html" target="_top" xlink:title=" ">
<polygon fill="white" stroke="black" points="183.5,-168.5 183.5,-187.5 267.5,-187.5 267.5,-168.5 183.5,-168.5"/>
<text text-anchor="middle" x="225.5" y="-175.5" font-family="Helvetica,sans-Serif" font-size="10.00">traffic_mngr.h</text>
</a>
</g>
</g>
<!-- Node5&#45;&gt;Node13 -->
<g id="edge15" class="edge">
<title>Node5&#45;&gt;Node13</title>
<path fill="none" stroke="midnightblue" d="M189.18,-216.72C198.34,-207.2 209.55,-195.56 217.07,-187.75"/>
<polygon fill="midnightblue" stroke="midnightblue" points="186.5,-214.45 182.09,-224.08 191.54,-219.31 186.5,-214.45"/>
</g>
<!-- Node7 -->
<g id="node7" class="node">
<title>Node7</title>
<g id="a_node7"><a xlink:href="classification_8h.html" target="_top" xlink:title=" ">
<polygon fill="white" stroke="black" points="77,-112.5 77,-131.5 166,-131.5 166,-112.5 77,-112.5"/>
<text text-anchor="middle" x="121.5" y="-119.5" font-family="Helvetica,sans-Serif" font-size="10.00">classification.h</text>
</a>
</g>
</g>
<!-- Node6&#45;&gt;Node7 -->
<g id="edge6" class="edge">
<title>Node6&#45;&gt;Node7</title>
<path fill="none" stroke="midnightblue" d="M121.5,-157.8C121.5,-148.91 121.5,-138.78 121.5,-131.75"/>
<polygon fill="midnightblue" stroke="midnightblue" points="118,-158.08 121.5,-168.08 125,-158.08 118,-158.08"/>
</g>
<!-- Node7&#45;&gt;Node2 -->
<g id="edge9" class="edge">
<title>Node7&#45;&gt;Node2</title>
<path fill="none" stroke="midnightblue" d="M101.36,-106.1C88.22,-96.38 71.52,-84.03 60.44,-75.83"/>
<polygon fill="midnightblue" stroke="midnightblue" points="99.65,-109.19 109.77,-112.32 103.81,-103.56 99.65,-109.19"/>
</g>
<!-- Node7&#45;&gt;Node8 -->
<g id="edge7" class="edge">
<title>Node7&#45;&gt;Node8</title>
<path fill="none" stroke="midnightblue" d="M147.33,-107.59C166.56,-97.61 192.24,-84.27 208.83,-75.65"/>
<polygon fill="midnightblue" stroke="midnightblue" points="145.47,-104.61 138.21,-112.32 148.7,-110.82 145.47,-104.61"/>
</g>
<!-- Node9 -->
<g id="node9" class="node">
<title>Node9</title>
<g id="a_node9"><a xlink:href="ipsec_8h.html" target="_top" xlink:title=" ">
<polygon fill="white" stroke="black" points="200,-0.5 200,-19.5 251,-19.5 251,-0.5 200,-0.5"/>
<text text-anchor="middle" x="225.5" y="-7.5" font-family="Helvetica,sans-Serif" font-size="10.00">ipsec.h</text>
</a>
</g>
</g>
<!-- Node8&#45;&gt;Node9 -->
<g id="edge8" class="edge">
<title>Node8&#45;&gt;Node9</title>
<path fill="none" stroke="midnightblue" d="M225.5,-45.8C225.5,-36.91 225.5,-26.78 225.5,-19.75"/>
<polygon fill="midnightblue" stroke="midnightblue" points="222,-46.08 225.5,-56.08 229,-46.08 222,-46.08"/>
</g>
<!-- Node11 -->
<g id="node11" class="node">
<title>Node11</title>
<g id="a_node11"><a xlink:href="packet_8h.html" target="_top" xlink:title=" ">
<polygon fill="white" stroke="black" points="323.5,-112.5 323.5,-131.5 381.5,-131.5 381.5,-112.5 323.5,-112.5"/>
<text text-anchor="middle" x="352.5" y="-119.5" font-family="Helvetica,sans-Serif" font-size="10.00">packet.h</text>
</a>
</g>
</g>
<!-- Node10&#45;&gt;Node11 -->
<g id="edge12" class="edge">
<title>Node10&#45;&gt;Node11</title>
<path fill="none" stroke="midnightblue" d="M352.5,-157.8C352.5,-148.91 352.5,-138.78 352.5,-131.75"/>
<polygon fill="midnightblue" stroke="midnightblue" points="349,-158.08 352.5,-168.08 356,-158.08 349,-158.08"/>
</g>
<!-- Node12 -->
<g id="node12" class="node">
<title>Node12</title>
<g id="a_node12"><a xlink:href="event__inlines_8h_source.html" target="_top" xlink:title=" ">
<polygon fill="white" stroke="black" points="307,-56.5 307,-75.5 398,-75.5 398,-56.5 307,-56.5"/>
<text text-anchor="middle" x="352.5" y="-63.5" font-family="Helvetica,sans-Serif" font-size="10.00">event_inlines.h</text>
</a>
</g>
</g>
<!-- Node11&#45;&gt;Node12 -->
<g id="edge13" class="edge">
<title>Node11&#45;&gt;Node12</title>
<path fill="none" stroke="midnightblue" d="M352.5,-101.8C352.5,-92.91 352.5,-82.78 352.5,-75.75"/>
<polygon fill="midnightblue" stroke="midnightblue" points="349,-102.08 352.5,-112.08 356,-102.08 349,-102.08"/>
</g>
<!-- Node14 -->
<g id="node14" class="node">
<title>Node14</title>
<g id="a_node14"><a xlink:href="traffic__mngr_8h.html" target="_top" xlink:title=" ">
<polygon fill="white" stroke="black" points="183.5,-112.5 183.5,-131.5 267.5,-131.5 267.5,-112.5 183.5,-112.5"/>
<text text-anchor="middle" x="225.5" y="-119.5" font-family="Helvetica,sans-Serif" font-size="10.00">traffic_mngr.h</text>
</a>
</g>
</g>
<!-- Node13&#45;&gt;Node14 -->
<g id="edge16" class="edge">
<title>Node13&#45;&gt;Node14</title>
<path fill="none" stroke="midnightblue" d="M225.5,-157.8C225.5,-148.91 225.5,-138.78 225.5,-131.75"/>
<polygon fill="midnightblue" stroke="midnightblue" points="222,-158.08 225.5,-168.08 229,-158.08 222,-158.08"/>
</g>
<!-- Node14&#45;&gt;Node8 -->
<g id="edge17" class="edge">
<title>Node14&#45;&gt;Node8</title>
<path fill="none" stroke="midnightblue" d="M225.5,-101.8C225.5,-92.91 225.5,-82.78 225.5,-75.75"/>
<polygon fill="midnightblue" stroke="midnightblue" points="222,-102.08 225.5,-112.08 229,-102.08 222,-102.08"/>
</g>
</g>
</svg>
