<?xml version="1.0" encoding="UTF-8" standalone="no"?>
<!DOCTYPE svg PUBLIC "-//W3C//DTD SVG 1.1//EN"
 "http://www.w3.org/Graphics/SVG/1.1/DTD/svg11.dtd">
<!-- Generated by graphviz version 2.43.0 (0)
 -->
<!-- Title: pool_types.h Pages: 1 -->
<svg width="588pt" height="364pt"
 viewBox="0.00 0.00 588.00 364.00" xmlns="http://www.w3.org/2000/svg" xmlns:xlink="http://www.w3.org/1999/xlink">
<g id="graph0" class="graph" transform="scale(1 1) rotate(0) translate(4 360)">
<title>pool_types.h</title>
<polygon fill="white" stroke="transparent" points="-4,4 -4,-360 584,-360 584,4 -4,4"/>
<!-- Node1 -->
<g id="node1" class="node">
<title>Node1</title>
<g id="a_node1"><a xlink:title=" ">
<polygon fill="#bfbfbf" stroke="black" points="291,-336.5 291,-355.5 370,-355.5 370,-336.5 291,-336.5"/>
<text text-anchor="middle" x="330.5" y="-343.5" font-family="Helvetica,sans-Serif" font-size="10.00">pool_types.h</text>
</a>
</g>
</g>
<!-- Node2 -->
<g id="node2" class="node">
<title>Node2</title>
<g id="a_node2"><a xlink:href="spec_2buffer_8h.html" target="_top" xlink:title=" ">
<polygon fill="white" stroke="black" points="16,-280.5 16,-299.5 69,-299.5 69,-280.5 16,-280.5"/>
<text text-anchor="middle" x="42.5" y="-287.5" font-family="Helvetica,sans-Serif" font-size="10.00">buffer.h</text>
</a>
</g>
</g>
<!-- Node1&#45;&gt;Node2 -->
<g id="edge1" class="edge">
<title>Node1&#45;&gt;Node2</title>
<path fill="none" stroke="midnightblue" d="M280.92,-335.7C219.67,-324.22 117.65,-305.09 69.38,-296.04"/>
<polygon fill="midnightblue" stroke="midnightblue" points="280.28,-339.15 290.76,-337.55 281.57,-332.27 280.28,-339.15"/>
</g>
<!-- Node4 -->
<g id="node4" class="node">
<title>Node4</title>
<g id="a_node4"><a xlink:href="spec_2classification_8h.html" target="_top" xlink:title=" ">
<polygon fill="white" stroke="black" points="148,-168.5 148,-187.5 237,-187.5 237,-168.5 148,-168.5"/>
<text text-anchor="middle" x="192.5" y="-175.5" font-family="Helvetica,sans-Serif" font-size="10.00">classification.h</text>
</a>
</g>
</g>
<!-- Node1&#45;&gt;Node4 -->
<g id="edge3" class="edge">
<title>Node1&#45;&gt;Node4</title>
<path fill="none" stroke="midnightblue" d="M282.99,-333.19C264.05,-326.32 243.47,-315.8 229.5,-300 199.81,-266.43 193.94,-209.53 192.78,-187.79"/>
<polygon fill="midnightblue" stroke="midnightblue" points="282.11,-336.59 292.71,-336.46 284.34,-329.95 282.11,-336.59"/>
</g>
<!-- Node10 -->
<g id="node10" class="node">
<title>Node10</title>
<g id="a_node10"><a xlink:href="spec_2crypto_8h.html" target="_top" xlink:title=" ">
<polygon fill="white" stroke="black" points="105.5,-280.5 105.5,-299.5 161.5,-299.5 161.5,-280.5 105.5,-280.5"/>
<text text-anchor="middle" x="133.5" y="-287.5" font-family="Helvetica,sans-Serif" font-size="10.00">crypto.h</text>
</a>
</g>
</g>
<!-- Node1&#45;&gt;Node10 -->
<g id="edge9" class="edge">
<title>Node1&#45;&gt;Node10</title>
<path fill="none" stroke="midnightblue" d="M289.48,-333.76C251.22,-323.27 195.16,-307.9 161.7,-298.73"/>
<polygon fill="midnightblue" stroke="midnightblue" points="288.72,-337.18 299.28,-336.44 290.57,-330.42 288.72,-337.18"/>
</g>
<!-- Node12 -->
<g id="node12" class="node">
<title>Node12</title>
<g id="a_node12"><a xlink:href="spec_2dma_8h.html" target="_top" xlink:title=" ">
<polygon fill="white" stroke="black" points="399,-280.5 399,-299.5 446,-299.5 446,-280.5 399,-280.5"/>
<text text-anchor="middle" x="422.5" y="-287.5" font-family="Helvetica,sans-Serif" font-size="10.00">dma.h</text>
</a>
</g>
</g>
<!-- Node1&#45;&gt;Node12 -->
<g id="edge12" class="edge">
<title>Node1&#45;&gt;Node12</title>
<path fill="none" stroke="midnightblue" d="M354.05,-331.18C370.98,-321.24 393.28,-308.15 407.76,-299.65"/>
<polygon fill="midnightblue" stroke="midnightblue" points="352.13,-328.24 345.28,-336.32 355.68,-334.28 352.13,-328.24"/>
</g>
<!-- Node14 -->
<g id="node14" class="node">
<title>Node14</title>
<g id="a_node14"><a xlink:href="spec_2packet_8h.html" target="_top" xlink:title=" ">
<polygon fill="white" stroke="black" points="394.5,-168.5 394.5,-187.5 452.5,-187.5 452.5,-168.5 394.5,-168.5"/>
<text text-anchor="middle" x="423.5" y="-175.5" font-family="Helvetica,sans-Serif" font-size="10.00">packet.h</text>
</a>
</g>
</g>
<!-- Node1&#45;&gt;Node14 -->
<g id="edge14" class="edge">
<title>Node1&#45;&gt;Node14</title>
<path fill="none" stroke="midnightblue" d="M338.97,-327.14C353.86,-295.84 383.68,-233.49 389.5,-224 397.69,-210.65 408.93,-196.41 416.2,-187.6"/>
<polygon fill="midnightblue" stroke="midnightblue" points="335.68,-325.91 334.56,-336.44 342.01,-328.91 335.68,-325.91"/>
</g>
<!-- Node17 -->
<g id="node17" class="node">
<title>Node17</title>
<g id="a_node17"><a xlink:href="spec_2packet__io__types_8h.html" target="_top" xlink:title=" ">
<polygon fill="white" stroke="black" points="238.5,-280.5 238.5,-299.5 342.5,-299.5 342.5,-280.5 238.5,-280.5"/>
<text text-anchor="middle" x="290.5" y="-287.5" font-family="Helvetica,sans-Serif" font-size="10.00">packet_io_types.h</text>
</a>
</g>
</g>
<!-- Node1&#45;&gt;Node17 -->
<g id="edge17" class="edge">
<title>Node1&#45;&gt;Node17</title>
<path fill="none" stroke="midnightblue" d="M317.8,-327.86C310.87,-318.5 302.59,-307.33 296.98,-299.75"/>
<polygon fill="midnightblue" stroke="midnightblue" points="315.13,-330.13 323.89,-336.08 320.75,-325.96 315.13,-330.13"/>
</g>
<!-- Node21 -->
<g id="node21" class="node">
<title>Node21</title>
<g id="a_node21"><a xlink:href="spec_2pool_8h.html" target="_top" xlink:title=" ">
<polygon fill="white" stroke="black" points="464,-280.5 464,-299.5 511,-299.5 511,-280.5 464,-280.5"/>
<text text-anchor="middle" x="487.5" y="-287.5" font-family="Helvetica,sans-Serif" font-size="10.00">pool.h</text>
</a>
</g>
</g>
<!-- Node1&#45;&gt;Node21 -->
<g id="edge26" class="edge">
<title>Node1&#45;&gt;Node21</title>
<path fill="none" stroke="midnightblue" d="M365.01,-333.13C394.95,-322.83 437.51,-308.19 463.77,-299.16"/>
<polygon fill="midnightblue" stroke="midnightblue" points="363.7,-329.88 355.38,-336.44 365.97,-336.5 363.7,-329.88"/>
</g>
<!-- Node24 -->
<g id="node24" class="node">
<title>Node24</title>
<g id="a_node24"><a xlink:href="spec_2timer_8h.html" target="_top" xlink:title=" ">
<polygon fill="white" stroke="black" points="529,-280.5 529,-299.5 580,-299.5 580,-280.5 529,-280.5"/>
<text text-anchor="middle" x="554.5" y="-287.5" font-family="Helvetica,sans-Serif" font-size="10.00">timer.h</text>
</a>
</g>
</g>
<!-- Node1&#45;&gt;Node24 -->
<g id="edge29" class="edge">
<title>Node1&#45;&gt;Node24</title>
<path fill="none" stroke="midnightblue" d="M377.59,-334.21C416.09,-325.3 471.9,-312.18 520.5,-300 523.22,-299.32 526.07,-298.59 528.9,-297.85"/>
<polygon fill="midnightblue" stroke="midnightblue" points="376.66,-330.83 367.71,-336.49 378.24,-337.65 376.66,-330.83"/>
</g>
<!-- Node3 -->
<g id="node3" class="node">
<title>Node3</title>
<g id="a_node3"><a xlink:href="buffer_8h.html" target="_top" xlink:title=" ">
<polygon fill="white" stroke="black" points="0,-224.5 0,-243.5 53,-243.5 53,-224.5 0,-224.5"/>
<text text-anchor="middle" x="26.5" y="-231.5" font-family="Helvetica,sans-Serif" font-size="10.00">buffer.h</text>
</a>
</g>
</g>
<!-- Node2&#45;&gt;Node3 -->
<g id="edge2" class="edge">
<title>Node2&#45;&gt;Node3</title>
<path fill="none" stroke="midnightblue" d="M36.99,-270.4C34.31,-261.36 31.22,-250.94 29.09,-243.75"/>
<polygon fill="midnightblue" stroke="midnightblue" points="33.66,-271.49 39.86,-280.08 40.37,-269.5 33.66,-271.49"/>
</g>
<!-- Node5 -->
<g id="node5" class="node">
<title>Node5</title>
<g id="a_node5"><a xlink:href="classification_8h.html" target="_top" xlink:title=" ">
<polygon fill="white" stroke="black" points="148,-112.5 148,-131.5 237,-131.5 237,-112.5 148,-112.5"/>
<text text-anchor="middle" x="192.5" y="-119.5" font-family="Helvetica,sans-Serif" font-size="10.00">classification.h</text>
</a>
</g>
</g>
<!-- Node4&#45;&gt;Node5 -->
<g id="edge4" class="edge">
<title>Node4&#45;&gt;Node5</title>
<path fill="none" stroke="midnightblue" d="M192.5,-157.8C192.5,-148.91 192.5,-138.78 192.5,-131.75"/>
<polygon fill="midnightblue" stroke="midnightblue" points="189,-158.08 192.5,-168.08 196,-158.08 189,-158.08"/>
</g>
<!-- Node6 -->
<g id="node6" class="node">
<title>Node6</title>
<g id="a_node6"><a xlink:href="spec_2ipsec_8h.html" target="_top" xlink:title=" ">
<polygon fill="white" stroke="black" points="130,-56.5 130,-75.5 181,-75.5 181,-56.5 130,-56.5"/>
<text text-anchor="middle" x="155.5" y="-63.5" font-family="Helvetica,sans-Serif" font-size="10.00">ipsec.h</text>
</a>
</g>
</g>
<!-- Node5&#45;&gt;Node6 -->
<g id="edge5" class="edge">
<title>Node5&#45;&gt;Node6</title>
<path fill="none" stroke="midnightblue" d="M180.55,-103.57C174.19,-94.27 166.63,-83.25 161.5,-75.75"/>
<polygon fill="midnightblue" stroke="midnightblue" points="177.85,-105.81 186.39,-112.08 183.63,-101.86 177.85,-105.81"/>
</g>
<!-- Node8 -->
<g id="node8" class="node">
<title>Node8</title>
<g id="a_node8"><a xlink:href="spec_2packet__io_8h.html" target="_top" xlink:title=" ">
<polygon fill="white" stroke="black" points="243.5,-56.5 243.5,-75.5 315.5,-75.5 315.5,-56.5 243.5,-56.5"/>
<text text-anchor="middle" x="279.5" y="-63.5" font-family="Helvetica,sans-Serif" font-size="10.00">packet_io.h</text>
</a>
</g>
</g>
<!-- Node5&#45;&gt;Node8 -->
<g id="edge7" class="edge">
<title>Node5&#45;&gt;Node8</title>
<path fill="none" stroke="midnightblue" d="M215.22,-106.9C231.17,-97 252,-84.07 265.56,-75.65"/>
<polygon fill="midnightblue" stroke="midnightblue" points="213.13,-104.08 206.48,-112.32 216.82,-110.02 213.13,-104.08"/>
</g>
<!-- Node7 -->
<g id="node7" class="node">
<title>Node7</title>
<g id="a_node7"><a xlink:href="ipsec_8h.html" target="_top" xlink:title=" ">
<polygon fill="white" stroke="black" points="130,-0.5 130,-19.5 181,-19.5 181,-0.5 130,-0.5"/>
<text text-anchor="middle" x="155.5" y="-7.5" font-family="Helvetica,sans-Serif" font-size="10.00">ipsec.h</text>
</a>
</g>
</g>
<!-- Node6&#45;&gt;Node7 -->
<g id="edge6" class="edge">
<title>Node6&#45;&gt;Node7</title>
<path fill="none" stroke="midnightblue" d="M155.5,-45.8C155.5,-36.91 155.5,-26.78 155.5,-19.75"/>
<polygon fill="midnightblue" stroke="midnightblue" points="152,-46.08 155.5,-56.08 159,-46.08 152,-46.08"/>
</g>
<!-- Node9 -->
<g id="node9" class="node">
<title>Node9</title>
<g id="a_node9"><a xlink:href="packet__io_8h.html" target="_top" xlink:title=" ">
<polygon fill="white" stroke="black" points="243.5,-0.5 243.5,-19.5 315.5,-19.5 315.5,-0.5 243.5,-0.5"/>
<text text-anchor="middle" x="279.5" y="-7.5" font-family="Helvetica,sans-Serif" font-size="10.00">packet_io.h</text>
</a>
</g>
</g>
<!-- Node8&#45;&gt;Node9 -->
<g id="edge8" class="edge">
<title>Node8&#45;&gt;Node9</title>
<path fill="none" stroke="midnightblue" d="M279.5,-45.8C279.5,-36.91 279.5,-26.78 279.5,-19.75"/>
<polygon fill="midnightblue" stroke="midnightblue" points="276,-46.08 279.5,-56.08 283,-46.08 276,-46.08"/>
</g>
<!-- Node11 -->
<g id="node11" class="node">
<title>Node11</title>
<g id="a_node11"><a xlink:href="crypto_8h.html" target="_top" xlink:title=" ">
<polygon fill="white" stroke="black" points="35.5,-112.5 35.5,-131.5 91.5,-131.5 91.5,-112.5 35.5,-112.5"/>
<text text-anchor="middle" x="63.5" y="-119.5" font-family="Helvetica,sans-Serif" font-size="10.00">crypto.h</text>
</a>
</g>
</g>
<!-- Node10&#45;&gt;Node11 -->
<g id="edge10" class="edge">
<title>Node10&#45;&gt;Node11</title>
<path fill="none" stroke="midnightblue" d="M125.85,-270.86C110.84,-235.25 78.03,-157.45 67.11,-131.57"/>
<polygon fill="midnightblue" stroke="midnightblue" points="122.63,-272.22 129.74,-280.08 129.08,-269.5 122.63,-272.22"/>
</g>
<!-- Node11&#45;&gt;Node6 -->
<g id="edge11" class="edge">
<title>Node11&#45;&gt;Node6</title>
<path fill="none" stroke="midnightblue" d="M87.05,-107.18C103.98,-97.24 126.28,-84.15 140.76,-75.65"/>
<polygon fill="midnightblue" stroke="midnightblue" points="85.13,-104.24 78.28,-112.32 88.68,-110.28 85.13,-104.24"/>
</g>
<!-- Node13 -->
<g id="node13" class="node">
<title>Node13</title>
<g id="a_node13"><a xlink:href="dma_8h.html" target="_top" xlink:title=" ">
<polygon fill="white" stroke="black" points="399,-224.5 399,-243.5 446,-243.5 446,-224.5 399,-224.5"/>
<text text-anchor="middle" x="422.5" y="-231.5" font-family="Helvetica,sans-Serif" font-size="10.00">dma.h</text>
</a>
</g>
</g>
<!-- Node12&#45;&gt;Node13 -->
<g id="edge13" class="edge">
<title>Node12&#45;&gt;Node13</title>
<path fill="none" stroke="midnightblue" d="M422.5,-269.8C422.5,-260.91 422.5,-250.78 422.5,-243.75"/>
<polygon fill="midnightblue" stroke="midnightblue" points="419,-270.08 422.5,-280.08 426,-270.08 419,-270.08"/>
</g>
<!-- Node15 -->
<g id="node15" class="node">
<title>Node15</title>
<g id="a_node15"><a xlink:href="packet_8h.html" target="_top" xlink:title=" ">
<polygon fill="white" stroke="black" points="394.5,-112.5 394.5,-131.5 452.5,-131.5 452.5,-112.5 394.5,-112.5"/>
<text text-anchor="middle" x="423.5" y="-119.5" font-family="Helvetica,sans-Serif" font-size="10.00">packet.h</text>
</a>
</g>
</g>
<!-- Node14&#45;&gt;Node15 -->
<g id="edge15" class="edge">
<title>Node14&#45;&gt;Node15</title>
<path fill="none" stroke="midnightblue" d="M423.5,-157.8C423.5,-148.91 423.5,-138.78 423.5,-131.75"/>
<polygon fill="midnightblue" stroke="midnightblue" points="420,-158.08 423.5,-168.08 427,-158.08 420,-158.08"/>
</g>
<!-- Node16 -->
<g id="node16" class="node">
<title>Node16</title>
<g id="a_node16"><a xlink:href="event__inlines_8h_source.html" target="_top" xlink:title=" ">
<polygon fill="white" stroke="black" points="378,-56.5 378,-75.5 469,-75.5 469,-56.5 378,-56.5"/>
<text text-anchor="middle" x="423.5" y="-63.5" font-family="Helvetica,sans-Serif" font-size="10.00">event_inlines.h</text>
</a>
</g>
</g>
<!-- Node15&#45;&gt;Node16 -->
<g id="edge16" class="edge">
<title>Node15&#45;&gt;Node16</title>
<path fill="none" stroke="midnightblue" d="M423.5,-101.8C423.5,-92.91 423.5,-82.78 423.5,-75.75"/>
<polygon fill="midnightblue" stroke="midnightblue" points="420,-102.08 423.5,-112.08 427,-102.08 420,-102.08"/>
</g>
<!-- Node18 -->
<g id="node18" class="node">
<title>Node18</title>
<g id="a_node18"><a xlink:href="packet__io__types_8h.html" target="_top" xlink:title=" ">
<polygon fill="white" stroke="black" points="238.5,-224.5 238.5,-243.5 342.5,-243.5 342.5,-224.5 238.5,-224.5"/>
<text text-anchor="middle" x="290.5" y="-231.5" font-family="Helvetica,sans-Serif" font-size="10.00">packet_io_types.h</text>
</a>
</g>
</g>
<!-- Node17&#45;&gt;Node18 -->
<g id="edge18" class="edge">
<title>Node17&#45;&gt;Node18</title>
<path fill="none" stroke="midnightblue" d="M290.5,-269.8C290.5,-260.91 290.5,-250.78 290.5,-243.75"/>
<polygon fill="midnightblue" stroke="midnightblue" points="287,-270.08 290.5,-280.08 294,-270.08 287,-270.08"/>
</g>
<!-- Node18&#45;&gt;Node4 -->
<g id="edge19" class="edge">
<title>Node18&#45;&gt;Node4</title>
<path fill="none" stroke="midnightblue" d="M265.91,-219.45C247.82,-209.48 223.77,-196.23 208.21,-187.65"/>
<polygon fill="midnightblue" stroke="midnightblue" points="264.31,-222.56 274.75,-224.32 267.69,-216.43 264.31,-222.56"/>
</g>
<!-- Node18&#45;&gt;Node6 -->
<g id="edge20" class="edge">
<title>Node18&#45;&gt;Node6</title>
<path fill="none" stroke="midnightblue" d="M227.98,-231.36C195.79,-226.93 159.08,-215.56 138.5,-188 112.6,-153.33 138.78,-97.08 150.48,-75.66"/>
<polygon fill="midnightblue" stroke="midnightblue" points="227.91,-234.87 238.25,-232.56 228.72,-227.92 227.91,-234.87"/>
</g>
<!-- Node18&#45;&gt;Node8 -->
<g id="edge22" class="edge">
<title>Node18&#45;&gt;Node8</title>
<path fill="none" stroke="midnightblue" d="M317.17,-219.22C328.75,-211.7 341.1,-201.2 347.5,-188 362.23,-157.6 363.49,-141.75 347.5,-112 338.12,-94.54 318.66,-82.72 302.95,-75.59"/>
<polygon fill="midnightblue" stroke="midnightblue" points="315.34,-216.23 308.58,-224.39 318.95,-222.23 315.34,-216.23"/>
</g>
<!-- Node18&#45;&gt;Node14 -->
<g id="edge21" class="edge">
<title>Node18&#45;&gt;Node14</title>
<path fill="none" stroke="midnightblue" d="M320.95,-220.64C345.91,-210.5 380.58,-196.43 402.52,-187.52"/>
<polygon fill="midnightblue" stroke="midnightblue" points="319.52,-217.44 311.57,-224.44 322.16,-223.92 319.52,-217.44"/>
</g>
<!-- Node19 -->
<g id="node19" class="node">
<title>Node19</title>
<g id="a_node19"><a xlink:href="spec_2traffic__mngr_8h.html" target="_top" xlink:title=" ">
<polygon fill="white" stroke="black" points="254.5,-168.5 254.5,-187.5 338.5,-187.5 338.5,-168.5 254.5,-168.5"/>
<text text-anchor="middle" x="296.5" y="-175.5" font-family="Helvetica,sans-Serif" font-size="10.00">traffic_mngr.h</text>
</a>
</g>
</g>
<!-- Node18&#45;&gt;Node19 -->
<g id="edge23" class="edge">
<title>Node18&#45;&gt;Node19</title>
<path fill="none" stroke="midnightblue" d="M292.6,-214.1C293.6,-205.14 294.74,-194.86 295.53,-187.75"/>
<polygon fill="midnightblue" stroke="midnightblue" points="289.12,-213.76 291.49,-224.08 296.07,-214.53 289.12,-213.76"/>
</g>
<!-- Node20 -->
<g id="node20" class="node">
<title>Node20</title>
<g id="a_node20"><a xlink:href="traffic__mngr_8h.html" target="_top" xlink:title=" ">
<polygon fill="white" stroke="black" points="254.5,-112.5 254.5,-131.5 338.5,-131.5 338.5,-112.5 254.5,-112.5"/>
<text text-anchor="middle" x="296.5" y="-119.5" font-family="Helvetica,sans-Serif" font-size="10.00">traffic_mngr.h</text>
</a>
</g>
</g>
<!-- Node19&#45;&gt;Node20 -->
<g id="edge24" class="edge">
<title>Node19&#45;&gt;Node20</title>
<path fill="none" stroke="midnightblue" d="M296.5,-157.8C296.5,-148.91 296.5,-138.78 296.5,-131.75"/>
<polygon fill="midnightblue" stroke="midnightblue" points="293,-158.08 296.5,-168.08 300,-158.08 293,-158.08"/>
</g>
<!-- Node20&#45;&gt;Node6 -->
<g id="edge25" class="edge">
<title>Node20&#45;&gt;Node6</title>
<path fill="none" stroke="midnightblue" d="M264.57,-108.77C238.09,-98.63 201.11,-84.47 177.74,-75.52"/>
<polygon fill="midnightblue" stroke="midnightblue" points="263.57,-112.14 274.16,-112.44 266.07,-105.6 263.57,-112.14"/>
</g>
<!-- Node22 -->
<g id="node22" class="node">
<title>Node22</title>
<g id="a_node22"><a xlink:href="pool_8h.html" target="_top" xlink:title=" ">
<polygon fill="white" stroke="black" points="464,-224.5 464,-243.5 511,-243.5 511,-224.5 464,-224.5"/>
<text text-anchor="middle" x="487.5" y="-231.5" font-family="Helvetica,sans-Serif" font-size="10.00">pool.h</text>
</a>
</g>
</g>
<!-- Node21&#45;&gt;Node22 -->
<g id="edge27" class="edge">
<title>Node21&#45;&gt;Node22</title>
<path fill="none" stroke="midnightblue" d="M487.5,-269.8C487.5,-260.91 487.5,-250.78 487.5,-243.75"/>
<polygon fill="midnightblue" stroke="midnightblue" points="484,-270.08 487.5,-280.08 491,-270.08 484,-270.08"/>
</g>
<!-- Node23 -->
<g id="node23" class="node">
<title>Node23</title>
<g id="a_node23"><a xlink:href="packet__inlines_8h.html" target="_top" xlink:title=" ">
<polygon fill="white" stroke="black" points="471,-168.5 471,-187.5 566,-187.5 566,-168.5 471,-168.5"/>
<text text-anchor="middle" x="518.5" y="-175.5" font-family="Helvetica,sans-Serif" font-size="10.00">packet_inlines.h</text>
</a>
</g>
</g>
<!-- Node22&#45;&gt;Node23 -->
<g id="edge28" class="edge">
<title>Node22&#45;&gt;Node23</title>
<path fill="none" stroke="midnightblue" d="M497.68,-215.27C502.97,-206.05 509.22,-195.17 513.48,-187.75"/>
<polygon fill="midnightblue" stroke="midnightblue" points="494.56,-213.67 492.62,-224.08 500.63,-217.15 494.56,-213.67"/>
</g>
<!-- Node25 -->
<g id="node25" class="node">
<title>Node25</title>
<g id="a_node25"><a xlink:href="timer_8h.html" target="_top" xlink:title=" ">
<polygon fill="white" stroke="black" points="529,-224.5 529,-243.5 580,-243.5 580,-224.5 529,-224.5"/>
<text text-anchor="middle" x="554.5" y="-231.5" font-family="Helvetica,sans-Serif" font-size="10.00">timer.h</text>
</a>
</g>
</g>
<!-- Node24&#45;&gt;Node25 -->
<g id="edge30" class="edge">
<title>Node24&#45;&gt;Node25</title>
<path fill="none" stroke="midnightblue" d="M554.5,-269.8C554.5,-260.91 554.5,-250.78 554.5,-243.75"/>
<polygon fill="midnightblue" stroke="midnightblue" points="551,-270.08 554.5,-280.08 558,-270.08 551,-270.08"/>
</g>
</g>
</svg>
