<?xml version="1.0" encoding="UTF-8" standalone="no"?>
<!DOCTYPE svg PUBLIC "-//W3C//DTD SVG 1.1//EN"
 "http://www.w3.org/Graphics/SVG/1.1/DTD/svg11.dtd">
<!-- Generated by graphviz version 2.43.0 (0)
 -->
<!-- Title: proto_stats_types.h Pages: 1 -->
<svg width="831pt" height="700pt"
 viewBox="0.00 0.00 831.00 700.00" xmlns="http://www.w3.org/2000/svg" xmlns:xlink="http://www.w3.org/1999/xlink">
<g id="graph0" class="graph" transform="scale(1 1) rotate(0) translate(4 696)">
<title>proto_stats_types.h</title>
<polygon fill="white" stroke="transparent" points="-4,4 -4,-696 827,-696 827,4 -4,4"/>
<!-- Node1 -->
<g id="node1" class="node">
<title>Node1</title>
<g id="a_node1"><a xlink:title=" ">
<polygon fill="#bfbfbf" stroke="black" points="658.5,-672.5 658.5,-691.5 771.5,-691.5 771.5,-672.5 658.5,-672.5"/>
<text text-anchor="middle" x="715" y="-679.5" font-family="Helvetica,sans-Serif" font-size="10.00">proto_stats_types.h</text>
</a>
</g>
</g>
<!-- Node2 -->
<g id="node2" class="node">
<title>Node2</title>
<g id="a_node2"><a xlink:href="spec_2packet_8h.html" target="_top" xlink:title=" ">
<polygon fill="white" stroke="black" points="591,-168.5 591,-187.5 649,-187.5 649,-168.5 591,-168.5"/>
<text text-anchor="middle" x="620" y="-175.5" font-family="Helvetica,sans-Serif" font-size="10.00">packet.h</text>
</a>
</g>
</g>
<!-- Node1&#45;&gt;Node2 -->
<g id="edge1" class="edge">
<title>Node1&#45;&gt;Node2</title>
<path fill="none" stroke="midnightblue" d="M715,-662.25C715,-640.36 715,-603.05 715,-571 715,-571 715,-571 715,-289 715,-241.06 662.67,-203.69 635.69,-187.6"/>
<polygon fill="midnightblue" stroke="midnightblue" points="711.5,-662.44 715,-672.44 718.5,-662.44 711.5,-662.44"/>
</g>
<!-- Node5 -->
<g id="node5" class="node">
<title>Node5</title>
<g id="a_node5"><a xlink:href="spec_2packet__types_8h.html" target="_top" xlink:title=" ">
<polygon fill="white" stroke="black" points="524,-616.5 524,-635.5 614,-635.5 614,-616.5 524,-616.5"/>
<text text-anchor="middle" x="569" y="-623.5" font-family="Helvetica,sans-Serif" font-size="10.00">packet_types.h</text>
</a>
</g>
</g>
<!-- Node1&#45;&gt;Node5 -->
<g id="edge4" class="edge">
<title>Node1&#45;&gt;Node5</title>
<path fill="none" stroke="midnightblue" d="M682.3,-668.91C654.85,-658.75 616.33,-644.51 592.03,-635.52"/>
<polygon fill="midnightblue" stroke="midnightblue" points="681.27,-672.26 691.87,-672.44 683.7,-665.69 681.27,-672.26"/>
</g>
<!-- Node38 -->
<g id="node38" class="node">
<title>Node38</title>
<g id="a_node38"><a xlink:href="spec_2proto__stats_8h.html" target="_top" xlink:title=" ">
<polygon fill="white" stroke="black" points="743,-616.5 743,-635.5 823,-635.5 823,-616.5 743,-616.5"/>
<text text-anchor="middle" x="783" y="-623.5" font-family="Helvetica,sans-Serif" font-size="10.00">proto_stats.h</text>
</a>
</g>
</g>
<!-- Node1&#45;&gt;Node38 -->
<g id="edge50" class="edge">
<title>Node1&#45;&gt;Node38</title>
<path fill="none" stroke="midnightblue" d="M733.76,-666.1C746,-656.38 761.56,-644.03 771.88,-635.83"/>
<polygon fill="midnightblue" stroke="midnightblue" points="731.58,-663.36 725.93,-672.32 735.93,-668.85 731.58,-663.36"/>
</g>
<!-- Node3 -->
<g id="node3" class="node">
<title>Node3</title>
<g id="a_node3"><a xlink:href="packet_8h.html" target="_top" xlink:title=" ">
<polygon fill="white" stroke="black" points="595,-112.5 595,-131.5 653,-131.5 653,-112.5 595,-112.5"/>
<text text-anchor="middle" x="624" y="-119.5" font-family="Helvetica,sans-Serif" font-size="10.00">packet.h</text>
</a>
</g>
</g>
<!-- Node2&#45;&gt;Node3 -->
<g id="edge2" class="edge">
<title>Node2&#45;&gt;Node3</title>
<path fill="none" stroke="midnightblue" d="M621.4,-158.1C622.06,-149.14 622.83,-138.86 623.35,-131.75"/>
<polygon fill="midnightblue" stroke="midnightblue" points="617.91,-157.85 620.66,-168.08 624.89,-158.37 617.91,-157.85"/>
</g>
<!-- Node4 -->
<g id="node4" class="node">
<title>Node4</title>
<g id="a_node4"><a xlink:href="event__inlines_8h_source.html" target="_top" xlink:title=" ">
<polygon fill="white" stroke="black" points="578.5,-56.5 578.5,-75.5 669.5,-75.5 669.5,-56.5 578.5,-56.5"/>
<text text-anchor="middle" x="624" y="-63.5" font-family="Helvetica,sans-Serif" font-size="10.00">event_inlines.h</text>
</a>
</g>
</g>
<!-- Node3&#45;&gt;Node4 -->
<g id="edge3" class="edge">
<title>Node3&#45;&gt;Node4</title>
<path fill="none" stroke="midnightblue" d="M624,-101.8C624,-92.91 624,-82.78 624,-75.75"/>
<polygon fill="midnightblue" stroke="midnightblue" points="620.5,-102.08 624,-112.08 627.5,-102.08 620.5,-102.08"/>
</g>
<!-- Node6 -->
<g id="node6" class="node">
<title>Node6</title>
<g id="a_node6"><a xlink:href="packet__types_8h.html" target="_top" xlink:title=" ">
<polygon fill="white" stroke="black" points="405,-560.5 405,-579.5 495,-579.5 495,-560.5 405,-560.5"/>
<text text-anchor="middle" x="450" y="-567.5" font-family="Helvetica,sans-Serif" font-size="10.00">packet_types.h</text>
</a>
</g>
</g>
<!-- Node5&#45;&gt;Node6 -->
<g id="edge5" class="edge">
<title>Node5&#45;&gt;Node6</title>
<path fill="none" stroke="midnightblue" d="M540.86,-612.23C518.6,-602.13 488.14,-588.31 468.77,-579.52"/>
<polygon fill="midnightblue" stroke="midnightblue" points="539.59,-615.5 550.14,-616.44 542.48,-609.12 539.59,-615.5"/>
</g>
<!-- Node6&#45;&gt;Node2 -->
<g id="edge44" class="edge">
<title>Node6&#45;&gt;Node2</title>
<path fill="none" stroke="midnightblue" d="M504.94,-559.73C527.19,-553.27 551.29,-542.37 567,-524 656.19,-419.67 629.05,-229.89 621.6,-187.53"/>
<polygon fill="midnightblue" stroke="midnightblue" points="503.98,-556.36 495.21,-562.31 505.78,-563.13 503.98,-556.36"/>
</g>
<!-- Node7 -->
<g id="node7" class="node">
<title>Node7</title>
<g id="a_node7"><a xlink:href="spec_2comp_8h.html" target="_top" xlink:title=" ">
<polygon fill="white" stroke="black" points="633.5,-504.5 633.5,-523.5 686.5,-523.5 686.5,-504.5 633.5,-504.5"/>
<text text-anchor="middle" x="660" y="-511.5" font-family="Helvetica,sans-Serif" font-size="10.00">comp.h</text>
</a>
</g>
</g>
<!-- Node6&#45;&gt;Node7 -->
<g id="edge6" class="edge">
<title>Node6&#45;&gt;Node7</title>
<path fill="none" stroke="midnightblue" d="M492.97,-557.95C535.04,-547.13 597.81,-530.99 633.21,-521.89"/>
<polygon fill="midnightblue" stroke="midnightblue" points="492.09,-554.56 483.28,-560.44 493.83,-561.34 492.09,-554.56"/>
</g>
<!-- Node9 -->
<g id="node9" class="node">
<title>Node9</title>
<g id="a_node9"><a xlink:href="spec_2crypto_8h.html" target="_top" xlink:title=" ">
<polygon fill="white" stroke="black" points="536,-280.5 536,-299.5 592,-299.5 592,-280.5 536,-280.5"/>
<text text-anchor="middle" x="564" y="-287.5" font-family="Helvetica,sans-Serif" font-size="10.00">crypto.h</text>
</a>
</g>
</g>
<!-- Node6&#45;&gt;Node9 -->
<g id="edge8" class="edge">
<title>Node6&#45;&gt;Node9</title>
<path fill="none" stroke="midnightblue" d="M494.69,-556.98C512.88,-550.04 532.7,-539.52 546,-524 565.58,-501.14 565,-489.1 565,-459 565,-459 565,-459 565,-401 565,-363.19 564.4,-318.06 564.13,-299.56"/>
<polygon fill="midnightblue" stroke="midnightblue" points="493.35,-553.75 485.09,-560.39 495.69,-560.35 493.35,-553.75"/>
</g>
<!-- Node13 -->
<g id="node13" class="node">
<title>Node13</title>
<g id="a_node13"><a xlink:href="spec_2dma__types_8h.html" target="_top" xlink:title=" ">
<polygon fill="white" stroke="black" points="241,-504.5 241,-523.5 321,-523.5 321,-504.5 241,-504.5"/>
<text text-anchor="middle" x="281" y="-511.5" font-family="Helvetica,sans-Serif" font-size="10.00">dma_types.h</text>
</a>
</g>
</g>
<!-- Node6&#45;&gt;Node13 -->
<g id="edge12" class="edge">
<title>Node6&#45;&gt;Node13</title>
<path fill="none" stroke="midnightblue" d="M413.4,-557.3C381.55,-547.13 336.16,-532.62 307.65,-523.52"/>
<polygon fill="midnightblue" stroke="midnightblue" points="412.63,-560.73 423.22,-560.44 414.76,-554.07 412.63,-560.73"/>
</g>
<!-- Node23 -->
<g id="node23" class="node">
<title>Node23</title>
<g id="a_node23"><a xlink:href="spec_2packet__io_8h.html" target="_top" xlink:title=" ">
<polygon fill="white" stroke="black" points="244,-56.5 244,-75.5 316,-75.5 316,-56.5 244,-56.5"/>
<text text-anchor="middle" x="280" y="-63.5" font-family="Helvetica,sans-Serif" font-size="10.00">packet_io.h</text>
</a>
</g>
</g>
<!-- Node6&#45;&gt;Node23 -->
<g id="edge47" class="edge">
<title>Node6&#45;&gt;Node23</title>
<path fill="none" stroke="midnightblue" d="M394.6,-566.21C305.01,-561.05 132.73,-548.26 77,-524 35.94,-506.12 0,-503.79 0,-459 0,-459 0,-459 0,-177 0,-125.16 168.34,-87.58 243.97,-73.31"/>
<polygon fill="midnightblue" stroke="midnightblue" points="394.66,-569.72 404.84,-566.79 395.05,-562.73 394.66,-569.72"/>
</g>
<!-- Node25 -->
<g id="node25" class="node">
<title>Node25</title>
<g id="a_node25"><a xlink:href="spec_2packet__io__types_8h.html" target="_top" xlink:title=" ">
<polygon fill="white" stroke="black" points="376,-280.5 376,-299.5 480,-299.5 480,-280.5 376,-280.5"/>
<text text-anchor="middle" x="428" y="-287.5" font-family="Helvetica,sans-Serif" font-size="10.00">packet_io_types.h</text>
</a>
</g>
</g>
<!-- Node6&#45;&gt;Node25 -->
<g id="edge48" class="edge">
<title>Node6&#45;&gt;Node25</title>
<path fill="none" stroke="midnightblue" d="M414.68,-556.32C398.98,-549.06 381.49,-538.47 370,-524 351.28,-500.43 351,-489.1 351,-459 351,-459 351,-459 351,-401 351,-356.01 394.76,-316.34 416.31,-299.53"/>
<polygon fill="midnightblue" stroke="midnightblue" points="413.59,-559.66 424.16,-560.41 416.37,-553.23 413.59,-559.66"/>
</g>
<!-- Node31 -->
<g id="node31" class="node">
<title>Node31</title>
<g id="a_node31"><a xlink:href="packet__inlines_8h.html" target="_top" xlink:title=" ">
<polygon fill="white" stroke="black" points="68.5,-168.5 68.5,-187.5 163.5,-187.5 163.5,-168.5 68.5,-168.5"/>
<text text-anchor="middle" x="116" y="-175.5" font-family="Helvetica,sans-Serif" font-size="10.00">packet_inlines.h</text>
</a>
</g>
</g>
<!-- Node6&#45;&gt;Node31 -->
<g id="edge49" class="edge">
<title>Node6&#45;&gt;Node31</title>
<path fill="none" stroke="midnightblue" d="M394.6,-565.8C282.22,-557.78 38,-531.96 38,-459 38,-459 38,-459 38,-289 38,-258.9 39.96,-248.81 57,-224 67.94,-208.07 86.32,-195.36 99.66,-187.56"/>
<polygon fill="midnightblue" stroke="midnightblue" points="394.51,-569.3 404.73,-566.5 395,-562.32 394.51,-569.3"/>
</g>
<!-- Node34 -->
<g id="node34" class="node">
<title>Node34</title>
<g id="a_node34"><a xlink:href="spec_2event_8h.html" target="_top" xlink:title=" ">
<polygon fill="white" stroke="black" points="379.5,-504.5 379.5,-523.5 432.5,-523.5 432.5,-504.5 379.5,-504.5"/>
<text text-anchor="middle" x="406" y="-511.5" font-family="Helvetica,sans-Serif" font-size="10.00">event.h</text>
</a>
</g>
</g>
<!-- Node6&#45;&gt;Node34 -->
<g id="edge42" class="edge">
<title>Node6&#45;&gt;Node34</title>
<path fill="none" stroke="midnightblue" d="M436.27,-552.14C428.6,-542.74 419.37,-531.4 413.13,-523.75"/>
<polygon fill="midnightblue" stroke="midnightblue" points="433.7,-554.54 442.73,-560.08 439.13,-550.12 433.7,-554.54"/>
</g>
<!-- Node36 -->
<g id="node36" class="node">
<title>Node36</title>
<g id="a_node36"><a xlink:href="spec_2packet__flags_8h.html" target="_top" xlink:title=" ">
<polygon fill="white" stroke="black" points="451,-504.5 451,-523.5 537,-523.5 537,-504.5 451,-504.5"/>
<text text-anchor="middle" x="494" y="-511.5" font-family="Helvetica,sans-Serif" font-size="10.00">packet_flags.h</text>
</a>
</g>
</g>
<!-- Node6&#45;&gt;Node36 -->
<g id="edge45" class="edge">
<title>Node6&#45;&gt;Node36</title>
<path fill="none" stroke="midnightblue" d="M463.73,-552.14C471.4,-542.74 480.63,-531.4 486.87,-523.75"/>
<polygon fill="midnightblue" stroke="midnightblue" points="460.87,-550.12 457.27,-560.08 466.3,-554.54 460.87,-550.12"/>
</g>
<!-- Node8 -->
<g id="node8" class="node">
<title>Node8</title>
<g id="a_node8"><a xlink:href="comp_8h.html" target="_top" xlink:title=" ">
<polygon fill="white" stroke="black" points="633.5,-448.5 633.5,-467.5 686.5,-467.5 686.5,-448.5 633.5,-448.5"/>
<text text-anchor="middle" x="660" y="-455.5" font-family="Helvetica,sans-Serif" font-size="10.00">comp.h</text>
</a>
</g>
</g>
<!-- Node7&#45;&gt;Node8 -->
<g id="edge7" class="edge">
<title>Node7&#45;&gt;Node8</title>
<path fill="none" stroke="midnightblue" d="M660,-493.8C660,-484.91 660,-474.78 660,-467.75"/>
<polygon fill="midnightblue" stroke="midnightblue" points="656.5,-494.08 660,-504.08 663.5,-494.08 656.5,-494.08"/>
</g>
<!-- Node10 -->
<g id="node10" class="node">
<title>Node10</title>
<g id="a_node10"><a xlink:href="crypto_8h.html" target="_top" xlink:title=" ">
<polygon fill="white" stroke="black" points="521,-112.5 521,-131.5 577,-131.5 577,-112.5 521,-112.5"/>
<text text-anchor="middle" x="549" y="-119.5" font-family="Helvetica,sans-Serif" font-size="10.00">crypto.h</text>
</a>
</g>
</g>
<!-- Node9&#45;&gt;Node10 -->
<g id="edge9" class="edge">
<title>Node9&#45;&gt;Node10</title>
<path fill="none" stroke="midnightblue" d="M562.28,-269.93C559.02,-233.92 552.09,-157.23 549.77,-131.57"/>
<polygon fill="midnightblue" stroke="midnightblue" points="558.81,-270.43 563.19,-280.08 565.78,-269.8 558.81,-270.43"/>
</g>
<!-- Node11 -->
<g id="node11" class="node">
<title>Node11</title>
<g id="a_node11"><a xlink:href="spec_2ipsec_8h.html" target="_top" xlink:title=" ">
<polygon fill="white" stroke="black" points="432.5,-56.5 432.5,-75.5 483.5,-75.5 483.5,-56.5 432.5,-56.5"/>
<text text-anchor="middle" x="458" y="-63.5" font-family="Helvetica,sans-Serif" font-size="10.00">ipsec.h</text>
</a>
</g>
</g>
<!-- Node10&#45;&gt;Node11 -->
<g id="edge10" class="edge">
<title>Node10&#45;&gt;Node11</title>
<path fill="none" stroke="midnightblue" d="M525.71,-107.18C508.96,-97.24 486.9,-84.15 472.58,-75.65"/>
<polygon fill="midnightblue" stroke="midnightblue" points="523.99,-110.23 534.38,-112.32 527.57,-104.21 523.99,-110.23"/>
</g>
<!-- Node12 -->
<g id="node12" class="node">
<title>Node12</title>
<g id="a_node12"><a xlink:href="ipsec_8h.html" target="_top" xlink:title=" ">
<polygon fill="white" stroke="black" points="432.5,-0.5 432.5,-19.5 483.5,-19.5 483.5,-0.5 432.5,-0.5"/>
<text text-anchor="middle" x="458" y="-7.5" font-family="Helvetica,sans-Serif" font-size="10.00">ipsec.h</text>
</a>
</g>
</g>
<!-- Node11&#45;&gt;Node12 -->
<g id="edge11" class="edge">
<title>Node11&#45;&gt;Node12</title>
<path fill="none" stroke="midnightblue" d="M458,-45.8C458,-36.91 458,-26.78 458,-19.75"/>
<polygon fill="midnightblue" stroke="midnightblue" points="454.5,-46.08 458,-56.08 461.5,-46.08 454.5,-46.08"/>
</g>
<!-- Node14 -->
<g id="node14" class="node">
<title>Node14</title>
<g id="a_node14"><a xlink:href="dma__types_8h.html" target="_top" xlink:title=" ">
<polygon fill="white" stroke="black" points="238,-448.5 238,-467.5 318,-467.5 318,-448.5 238,-448.5"/>
<text text-anchor="middle" x="278" y="-455.5" font-family="Helvetica,sans-Serif" font-size="10.00">dma_types.h</text>
</a>
</g>
</g>
<!-- Node13&#45;&gt;Node14 -->
<g id="edge13" class="edge">
<title>Node13&#45;&gt;Node14</title>
<path fill="none" stroke="midnightblue" d="M279.93,-493.8C279.44,-484.91 278.88,-474.78 278.49,-467.75"/>
<polygon fill="midnightblue" stroke="midnightblue" points="276.46,-494.29 280.5,-504.08 283.44,-493.9 276.46,-494.29"/>
</g>
<!-- Node15 -->
<g id="node15" class="node">
<title>Node15</title>
<g id="a_node15"><a xlink:href="spec_2dma_8h.html" target="_top" xlink:title=" ">
<polygon fill="white" stroke="black" points="66.5,-280.5 66.5,-299.5 113.5,-299.5 113.5,-280.5 66.5,-280.5"/>
<text text-anchor="middle" x="90" y="-287.5" font-family="Helvetica,sans-Serif" font-size="10.00">dma.h</text>
</a>
</g>
</g>
<!-- Node14&#45;&gt;Node15 -->
<g id="edge14" class="edge">
<title>Node14&#45;&gt;Node15</title>
<path fill="none" stroke="midnightblue" d="M260.3,-441.37C221.46,-407.07 129.82,-326.16 99.75,-299.61"/>
<polygon fill="midnightblue" stroke="midnightblue" points="258.34,-444.31 268.16,-448.31 262.98,-439.07 258.34,-444.31"/>
</g>
<!-- Node17 -->
<g id="node17" class="node">
<title>Node17</title>
<g id="a_node17"><a xlink:href="spec_2pool__types_8h.html" target="_top" xlink:title=" ">
<polygon fill="white" stroke="black" points="238.5,-392.5 238.5,-411.5 317.5,-411.5 317.5,-392.5 238.5,-392.5"/>
<text text-anchor="middle" x="278" y="-399.5" font-family="Helvetica,sans-Serif" font-size="10.00">pool_types.h</text>
</a>
</g>
</g>
<!-- Node14&#45;&gt;Node17 -->
<g id="edge16" class="edge">
<title>Node14&#45;&gt;Node17</title>
<path fill="none" stroke="midnightblue" d="M278,-437.8C278,-428.91 278,-418.78 278,-411.75"/>
<polygon fill="midnightblue" stroke="midnightblue" points="274.5,-438.08 278,-448.08 281.5,-438.08 274.5,-438.08"/>
</g>
<!-- Node16 -->
<g id="node16" class="node">
<title>Node16</title>
<g id="a_node16"><a xlink:href="dma_8h.html" target="_top" xlink:title=" ">
<polygon fill="white" stroke="black" points="66.5,-224.5 66.5,-243.5 113.5,-243.5 113.5,-224.5 66.5,-224.5"/>
<text text-anchor="middle" x="90" y="-231.5" font-family="Helvetica,sans-Serif" font-size="10.00">dma.h</text>
</a>
</g>
</g>
<!-- Node15&#45;&gt;Node16 -->
<g id="edge15" class="edge">
<title>Node15&#45;&gt;Node16</title>
<path fill="none" stroke="midnightblue" d="M90,-269.8C90,-260.91 90,-250.78 90,-243.75"/>
<polygon fill="midnightblue" stroke="midnightblue" points="86.5,-270.08 90,-280.08 93.5,-270.08 86.5,-270.08"/>
</g>
<!-- Node18 -->
<g id="node18" class="node">
<title>Node18</title>
<g id="a_node18"><a xlink:href="pool__types_8h.html" target="_top" xlink:title=" ">
<polygon fill="white" stroke="black" points="238.5,-336.5 238.5,-355.5 317.5,-355.5 317.5,-336.5 238.5,-336.5"/>
<text text-anchor="middle" x="278" y="-343.5" font-family="Helvetica,sans-Serif" font-size="10.00">pool_types.h</text>
</a>
</g>
</g>
<!-- Node17&#45;&gt;Node18 -->
<g id="edge17" class="edge">
<title>Node17&#45;&gt;Node18</title>
<path fill="none" stroke="midnightblue" d="M278,-381.8C278,-372.91 278,-362.78 278,-355.75"/>
<polygon fill="midnightblue" stroke="midnightblue" points="274.5,-382.08 278,-392.08 281.5,-382.08 274.5,-382.08"/>
</g>
<!-- Node18&#45;&gt;Node2 -->
<g id="edge27" class="edge">
<title>Node18&#45;&gt;Node2</title>
<path fill="none" stroke="midnightblue" d="M327.8,-341.86C372.22,-337.36 437.93,-326.45 489,-300 545.63,-270.67 595.95,-210.19 613.44,-187.69"/>
<polygon fill="midnightblue" stroke="midnightblue" points="327.46,-338.37 317.83,-342.79 328.11,-345.34 327.46,-338.37"/>
</g>
<!-- Node18&#45;&gt;Node9 -->
<g id="edge25" class="edge">
<title>Node18&#45;&gt;Node9</title>
<path fill="none" stroke="midnightblue" d="M327.89,-336.23C377.26,-327.45 454.95,-313.36 522,-300 526.39,-299.13 531.03,-298.17 535.56,-297.21"/>
<polygon fill="midnightblue" stroke="midnightblue" points="327.03,-332.83 317.79,-338.02 328.25,-339.72 327.03,-332.83"/>
</g>
<!-- Node18&#45;&gt;Node15 -->
<g id="edge26" class="edge">
<title>Node18&#45;&gt;Node15</title>
<path fill="none" stroke="midnightblue" d="M238.55,-333.67C200.78,-322.82 145.06,-306.82 113.7,-297.81"/>
<polygon fill="midnightblue" stroke="midnightblue" points="237.63,-337.05 248.21,-336.44 239.57,-330.32 237.63,-337.05"/>
</g>
<!-- Node19 -->
<g id="node19" class="node">
<title>Node19</title>
<g id="a_node19"><a xlink:href="spec_2buffer_8h.html" target="_top" xlink:title=" ">
<polygon fill="white" stroke="black" points="304.5,-280.5 304.5,-299.5 357.5,-299.5 357.5,-280.5 304.5,-280.5"/>
<text text-anchor="middle" x="331" y="-287.5" font-family="Helvetica,sans-Serif" font-size="10.00">buffer.h</text>
</a>
</g>
</g>
<!-- Node18&#45;&gt;Node19 -->
<g id="edge18" class="edge">
<title>Node18&#45;&gt;Node19</title>
<path fill="none" stroke="midnightblue" d="M293.98,-328.72C303.32,-319.2 314.75,-307.56 322.41,-299.75"/>
<polygon fill="midnightblue" stroke="midnightblue" points="291.26,-326.49 286.75,-336.08 296.25,-331.4 291.26,-326.49"/>
</g>
<!-- Node21 -->
<g id="node21" class="node">
<title>Node21</title>
<g id="a_node21"><a xlink:href="spec_2classification_8h.html" target="_top" xlink:title=" ">
<polygon fill="white" stroke="black" points="235.5,-168.5 235.5,-187.5 324.5,-187.5 324.5,-168.5 235.5,-168.5"/>
<text text-anchor="middle" x="280" y="-175.5" font-family="Helvetica,sans-Serif" font-size="10.00">classification.h</text>
</a>
</g>
</g>
<!-- Node18&#45;&gt;Node21 -->
<g id="edge20" class="edge">
<title>Node18&#45;&gt;Node21</title>
<path fill="none" stroke="midnightblue" d="M278.23,-325.93C278.66,-289.92 279.59,-213.23 279.9,-187.57"/>
<polygon fill="midnightblue" stroke="midnightblue" points="274.73,-326.03 278.11,-336.08 281.73,-326.12 274.73,-326.03"/>
</g>
<!-- Node18&#45;&gt;Node25 -->
<g id="edge28" class="edge">
<title>Node18&#45;&gt;Node25</title>
<path fill="none" stroke="midnightblue" d="M311.22,-333.04C339.45,-322.88 379.26,-308.55 404.34,-299.52"/>
<polygon fill="midnightblue" stroke="midnightblue" points="309.99,-329.76 301.77,-336.44 312.36,-336.35 309.99,-329.76"/>
</g>
<!-- Node29 -->
<g id="node29" class="node">
<title>Node29</title>
<g id="a_node29"><a xlink:href="spec_2pool_8h.html" target="_top" xlink:title=" ">
<polygon fill="white" stroke="black" points="131.5,-280.5 131.5,-299.5 178.5,-299.5 178.5,-280.5 131.5,-280.5"/>
<text text-anchor="middle" x="155" y="-287.5" font-family="Helvetica,sans-Serif" font-size="10.00">pool.h</text>
</a>
</g>
</g>
<!-- Node18&#45;&gt;Node29 -->
<g id="edge37" class="edge">
<title>Node18&#45;&gt;Node29</title>
<path fill="none" stroke="midnightblue" d="M249.23,-332.37C226.19,-322.26 194.52,-308.35 174.4,-299.52"/>
<polygon fill="midnightblue" stroke="midnightblue" points="247.95,-335.63 258.51,-336.44 250.76,-329.22 247.95,-335.63"/>
</g>
<!-- Node32 -->
<g id="node32" class="node">
<title>Node32</title>
<g id="a_node32"><a xlink:href="spec_2timer_8h.html" target="_top" xlink:title=" ">
<polygon fill="white" stroke="black" points="196.5,-280.5 196.5,-299.5 247.5,-299.5 247.5,-280.5 196.5,-280.5"/>
<text text-anchor="middle" x="222" y="-287.5" font-family="Helvetica,sans-Serif" font-size="10.00">timer.h</text>
</a>
</g>
</g>
<!-- Node18&#45;&gt;Node32 -->
<g id="edge40" class="edge">
<title>Node18&#45;&gt;Node32</title>
<path fill="none" stroke="midnightblue" d="M261.67,-329.25C251.74,-319.67 239.41,-307.79 231.16,-299.83"/>
<polygon fill="midnightblue" stroke="midnightblue" points="259.37,-331.9 269,-336.32 264.23,-326.86 259.37,-331.9"/>
</g>
<!-- Node20 -->
<g id="node20" class="node">
<title>Node20</title>
<g id="a_node20"><a xlink:href="buffer_8h.html" target="_top" xlink:title=" ">
<polygon fill="white" stroke="black" points="304.5,-224.5 304.5,-243.5 357.5,-243.5 357.5,-224.5 304.5,-224.5"/>
<text text-anchor="middle" x="331" y="-231.5" font-family="Helvetica,sans-Serif" font-size="10.00">buffer.h</text>
</a>
</g>
</g>
<!-- Node19&#45;&gt;Node20 -->
<g id="edge19" class="edge">
<title>Node19&#45;&gt;Node20</title>
<path fill="none" stroke="midnightblue" d="M331,-269.8C331,-260.91 331,-250.78 331,-243.75"/>
<polygon fill="midnightblue" stroke="midnightblue" points="327.5,-270.08 331,-280.08 334.5,-270.08 327.5,-270.08"/>
</g>
<!-- Node22 -->
<g id="node22" class="node">
<title>Node22</title>
<g id="a_node22"><a xlink:href="classification_8h.html" target="_top" xlink:title=" ">
<polygon fill="white" stroke="black" points="235.5,-112.5 235.5,-131.5 324.5,-131.5 324.5,-112.5 235.5,-112.5"/>
<text text-anchor="middle" x="280" y="-119.5" font-family="Helvetica,sans-Serif" font-size="10.00">classification.h</text>
</a>
</g>
</g>
<!-- Node21&#45;&gt;Node22 -->
<g id="edge21" class="edge">
<title>Node21&#45;&gt;Node22</title>
<path fill="none" stroke="midnightblue" d="M280,-157.8C280,-148.91 280,-138.78 280,-131.75"/>
<polygon fill="midnightblue" stroke="midnightblue" points="276.5,-158.08 280,-168.08 283.5,-158.08 276.5,-158.08"/>
</g>
<!-- Node22&#45;&gt;Node11 -->
<g id="edge22" class="edge">
<title>Node22&#45;&gt;Node11</title>
<path fill="none" stroke="midnightblue" d="M317.92,-109.5C352.36,-99.05 402.22,-83.92 432.24,-74.82"/>
<polygon fill="midnightblue" stroke="midnightblue" points="316.76,-106.19 308.2,-112.44 318.79,-112.89 316.76,-106.19"/>
</g>
<!-- Node22&#45;&gt;Node23 -->
<g id="edge23" class="edge">
<title>Node22&#45;&gt;Node23</title>
<path fill="none" stroke="midnightblue" d="M280,-101.8C280,-92.91 280,-82.78 280,-75.75"/>
<polygon fill="midnightblue" stroke="midnightblue" points="276.5,-102.08 280,-112.08 283.5,-102.08 276.5,-102.08"/>
</g>
<!-- Node24 -->
<g id="node24" class="node">
<title>Node24</title>
<g id="a_node24"><a xlink:href="packet__io_8h.html" target="_top" xlink:title=" ">
<polygon fill="white" stroke="black" points="244,-0.5 244,-19.5 316,-19.5 316,-0.5 244,-0.5"/>
<text text-anchor="middle" x="280" y="-7.5" font-family="Helvetica,sans-Serif" font-size="10.00">packet_io.h</text>
</a>
</g>
</g>
<!-- Node23&#45;&gt;Node24 -->
<g id="edge24" class="edge">
<title>Node23&#45;&gt;Node24</title>
<path fill="none" stroke="midnightblue" d="M280,-45.8C280,-36.91 280,-26.78 280,-19.75"/>
<polygon fill="midnightblue" stroke="midnightblue" points="276.5,-46.08 280,-56.08 283.5,-46.08 276.5,-46.08"/>
</g>
<!-- Node26 -->
<g id="node26" class="node">
<title>Node26</title>
<g id="a_node26"><a xlink:href="packet__io__types_8h.html" target="_top" xlink:title=" ">
<polygon fill="white" stroke="black" points="376,-224.5 376,-243.5 480,-243.5 480,-224.5 376,-224.5"/>
<text text-anchor="middle" x="428" y="-231.5" font-family="Helvetica,sans-Serif" font-size="10.00">packet_io_types.h</text>
</a>
</g>
</g>
<!-- Node25&#45;&gt;Node26 -->
<g id="edge29" class="edge">
<title>Node25&#45;&gt;Node26</title>
<path fill="none" stroke="midnightblue" d="M428,-269.8C428,-260.91 428,-250.78 428,-243.75"/>
<polygon fill="midnightblue" stroke="midnightblue" points="424.5,-270.08 428,-280.08 431.5,-270.08 424.5,-270.08"/>
</g>
<!-- Node26&#45;&gt;Node2 -->
<g id="edge32" class="edge">
<title>Node26&#45;&gt;Node2</title>
<path fill="none" stroke="midnightblue" d="M468.3,-221.66C505,-211.34 558.3,-196.35 590.98,-187.16"/>
<polygon fill="midnightblue" stroke="midnightblue" points="467.1,-218.37 458.42,-224.44 469,-225.11 467.1,-218.37"/>
</g>
<!-- Node26&#45;&gt;Node11 -->
<g id="edge31" class="edge">
<title>Node26&#45;&gt;Node11</title>
<path fill="none" stroke="midnightblue" d="M449.71,-218.07C459.06,-210.31 468.97,-199.95 474,-188 490.6,-148.55 471.04,-96.02 462.05,-75.61"/>
<polygon fill="midnightblue" stroke="midnightblue" points="447.56,-215.31 441.79,-224.19 451.84,-220.85 447.56,-215.31"/>
</g>
<!-- Node26&#45;&gt;Node21 -->
<g id="edge30" class="edge">
<title>Node26&#45;&gt;Node21</title>
<path fill="none" stroke="midnightblue" d="M394.85,-220.91C367.03,-210.75 327.98,-196.51 303.34,-187.52"/>
<polygon fill="midnightblue" stroke="midnightblue" points="393.96,-224.3 404.55,-224.44 396.35,-217.73 393.96,-224.3"/>
</g>
<!-- Node26&#45;&gt;Node23 -->
<g id="edge33" class="edge">
<title>Node26&#45;&gt;Node23</title>
<path fill="none" stroke="midnightblue" d="M405.8,-218.52C394.68,-210.48 381.58,-199.75 372,-188 348.01,-158.57 356.59,-141.75 333,-112 321.45,-97.44 304.62,-84.11 293.04,-75.8"/>
<polygon fill="midnightblue" stroke="midnightblue" points="403.99,-221.52 414.19,-224.35 407.98,-215.77 403.99,-221.52"/>
</g>
<!-- Node27 -->
<g id="node27" class="node">
<title>Node27</title>
<g id="a_node27"><a xlink:href="spec_2traffic__mngr_8h.html" target="_top" xlink:title=" ">
<polygon fill="white" stroke="black" points="381,-168.5 381,-187.5 465,-187.5 465,-168.5 381,-168.5"/>
<text text-anchor="middle" x="423" y="-175.5" font-family="Helvetica,sans-Serif" font-size="10.00">traffic_mngr.h</text>
</a>
</g>
</g>
<!-- Node26&#45;&gt;Node27 -->
<g id="edge34" class="edge">
<title>Node26&#45;&gt;Node27</title>
<path fill="none" stroke="midnightblue" d="M426.25,-214.1C425.42,-205.14 424.47,-194.86 423.81,-187.75"/>
<polygon fill="midnightblue" stroke="midnightblue" points="422.77,-214.45 427.17,-224.08 429.74,-213.8 422.77,-214.45"/>
</g>
<!-- Node28 -->
<g id="node28" class="node">
<title>Node28</title>
<g id="a_node28"><a xlink:href="traffic__mngr_8h.html" target="_top" xlink:title=" ">
<polygon fill="white" stroke="black" points="381,-112.5 381,-131.5 465,-131.5 465,-112.5 381,-112.5"/>
<text text-anchor="middle" x="423" y="-119.5" font-family="Helvetica,sans-Serif" font-size="10.00">traffic_mngr.h</text>
</a>
</g>
</g>
<!-- Node27&#45;&gt;Node28 -->
<g id="edge35" class="edge">
<title>Node27&#45;&gt;Node28</title>
<path fill="none" stroke="midnightblue" d="M423,-157.8C423,-148.91 423,-138.78 423,-131.75"/>
<polygon fill="midnightblue" stroke="midnightblue" points="419.5,-158.08 423,-168.08 426.5,-158.08 419.5,-158.08"/>
</g>
<!-- Node28&#45;&gt;Node11 -->
<g id="edge36" class="edge">
<title>Node28&#45;&gt;Node11</title>
<path fill="none" stroke="midnightblue" d="M434.3,-103.57C440.32,-94.27 447.47,-83.25 452.33,-75.75"/>
<polygon fill="midnightblue" stroke="midnightblue" points="431.28,-101.79 428.78,-112.08 437.16,-105.6 431.28,-101.79"/>
</g>
<!-- Node30 -->
<g id="node30" class="node">
<title>Node30</title>
<g id="a_node30"><a xlink:href="pool_8h.html" target="_top" xlink:title=" ">
<polygon fill="white" stroke="black" points="131.5,-224.5 131.5,-243.5 178.5,-243.5 178.5,-224.5 131.5,-224.5"/>
<text text-anchor="middle" x="155" y="-231.5" font-family="Helvetica,sans-Serif" font-size="10.00">pool.h</text>
</a>
</g>
</g>
<!-- Node29&#45;&gt;Node30 -->
<g id="edge38" class="edge">
<title>Node29&#45;&gt;Node30</title>
<path fill="none" stroke="midnightblue" d="M155,-269.8C155,-260.91 155,-250.78 155,-243.75"/>
<polygon fill="midnightblue" stroke="midnightblue" points="151.5,-270.08 155,-280.08 158.5,-270.08 151.5,-270.08"/>
</g>
<!-- Node30&#45;&gt;Node31 -->
<g id="edge39" class="edge">
<title>Node30&#45;&gt;Node31</title>
<path fill="none" stroke="midnightblue" d="M142.62,-215.86C135.86,-206.5 127.79,-195.33 122.32,-187.75"/>
<polygon fill="midnightblue" stroke="midnightblue" points="139.87,-218.03 148.56,-224.08 145.54,-213.93 139.87,-218.03"/>
</g>
<!-- Node33 -->
<g id="node33" class="node">
<title>Node33</title>
<g id="a_node33"><a xlink:href="timer_8h.html" target="_top" xlink:title=" ">
<polygon fill="white" stroke="black" points="196.5,-224.5 196.5,-243.5 247.5,-243.5 247.5,-224.5 196.5,-224.5"/>
<text text-anchor="middle" x="222" y="-231.5" font-family="Helvetica,sans-Serif" font-size="10.00">timer.h</text>
</a>
</g>
</g>
<!-- Node32&#45;&gt;Node33 -->
<g id="edge41" class="edge">
<title>Node32&#45;&gt;Node33</title>
<path fill="none" stroke="midnightblue" d="M222,-269.8C222,-260.91 222,-250.78 222,-243.75"/>
<polygon fill="midnightblue" stroke="midnightblue" points="218.5,-270.08 222,-280.08 225.5,-270.08 218.5,-270.08"/>
</g>
<!-- Node35 -->
<g id="node35" class="node">
<title>Node35</title>
<g id="a_node35"><a xlink:href="event_8h.html" target="_top" xlink:title=" ">
<polygon fill="white" stroke="black" points="379.5,-448.5 379.5,-467.5 432.5,-467.5 432.5,-448.5 379.5,-448.5"/>
<text text-anchor="middle" x="406" y="-455.5" font-family="Helvetica,sans-Serif" font-size="10.00">event.h</text>
</a>
</g>
</g>
<!-- Node34&#45;&gt;Node35 -->
<g id="edge43" class="edge">
<title>Node34&#45;&gt;Node35</title>
<path fill="none" stroke="midnightblue" d="M406,-493.8C406,-484.91 406,-474.78 406,-467.75"/>
<polygon fill="midnightblue" stroke="midnightblue" points="402.5,-494.08 406,-504.08 409.5,-494.08 402.5,-494.08"/>
</g>
<!-- Node37 -->
<g id="node37" class="node">
<title>Node37</title>
<g id="a_node37"><a xlink:href="packet__flags_8h.html" target="_top" xlink:title=" ">
<polygon fill="white" stroke="black" points="451,-448.5 451,-467.5 537,-467.5 537,-448.5 451,-448.5"/>
<text text-anchor="middle" x="494" y="-455.5" font-family="Helvetica,sans-Serif" font-size="10.00">packet_flags.h</text>
</a>
</g>
</g>
<!-- Node36&#45;&gt;Node37 -->
<g id="edge46" class="edge">
<title>Node36&#45;&gt;Node37</title>
<path fill="none" stroke="midnightblue" d="M494,-493.8C494,-484.91 494,-474.78 494,-467.75"/>
<polygon fill="midnightblue" stroke="midnightblue" points="490.5,-494.08 494,-504.08 497.5,-494.08 490.5,-494.08"/>
</g>
<!-- Node39 -->
<g id="node39" class="node">
<title>Node39</title>
<g id="a_node39"><a xlink:href="proto__stats_8h.html" target="_top" xlink:title=" ">
<polygon fill="white" stroke="black" points="743,-560.5 743,-579.5 823,-579.5 823,-560.5 743,-560.5"/>
<text text-anchor="middle" x="783" y="-567.5" font-family="Helvetica,sans-Serif" font-size="10.00">proto_stats.h</text>
</a>
</g>
</g>
<!-- Node38&#45;&gt;Node39 -->
<g id="edge51" class="edge">
<title>Node38&#45;&gt;Node39</title>
<path fill="none" stroke="midnightblue" d="M783,-605.8C783,-596.91 783,-586.78 783,-579.75"/>
<polygon fill="midnightblue" stroke="midnightblue" points="779.5,-606.08 783,-616.08 786.5,-606.08 779.5,-606.08"/>
</g>
</g>
</svg>
