<?xml version="1.0" encoding="UTF-8" standalone="no"?>
<!DOCTYPE svg PUBLIC "-//W3C//DTD SVG 1.1//EN"
 "http://www.w3.org/Graphics/SVG/1.1/DTD/svg11.dtd">
<!-- Generated by graphviz version 2.43.0 (0)
 -->
<!-- Title: reassembly.h Pages: 1 -->
<svg width="396pt" height="364pt"
 viewBox="0.00 0.00 396.00 364.00" xmlns="http://www.w3.org/2000/svg" xmlns:xlink="http://www.w3.org/1999/xlink">
<g id="graph0" class="graph" transform="scale(1 1) rotate(0) translate(4 360)">
<title>reassembly.h</title>
<polygon fill="white" stroke="transparent" points="-4,4 -4,-360 392,-360 392,4 -4,4"/>
<!-- Node1 -->
<g id="node1" class="node">
<title>Node1</title>
<g id="a_node1"><a xlink:title=" ">
<polygon fill="#bfbfbf" stroke="black" points="0,-336.5 0,-355.5 81,-355.5 81,-336.5 0,-336.5"/>
<text text-anchor="middle" x="40.5" y="-343.5" font-family="Helvetica,sans-Serif" font-size="10.00">reassembly.h</text>
</a>
</g>
</g>
<!-- Node2 -->
<g id="node2" class="node">
<title>Node2</title>
<g id="a_node2"><a xlink:href="spec_2packet__io_8h.html" target="_top" xlink:title=" ">
<polygon fill="white" stroke="black" points="2.5,-56.5 2.5,-75.5 74.5,-75.5 74.5,-56.5 2.5,-56.5"/>
<text text-anchor="middle" x="38.5" y="-63.5" font-family="Helvetica,sans-Serif" font-size="10.00">packet_io.h</text>
</a>
</g>
</g>
<!-- Node1&#45;&gt;Node2 -->
<g id="edge1" class="edge">
<title>Node1&#45;&gt;Node2</title>
<path fill="none" stroke="midnightblue" d="M29.82,-327.5C17.97,-306.37 0.5,-269.38 0.5,-235 0.5,-235 0.5,-235 0.5,-177 0.5,-137.4 22.77,-93.96 33.22,-75.77"/>
<polygon fill="midnightblue" stroke="midnightblue" points="26.88,-329.39 34.94,-336.27 32.92,-325.87 26.88,-329.39"/>
</g>
<!-- Node4 -->
<g id="node4" class="node">
<title>Node4</title>
<g id="a_node4"><a xlink:href="spec_2packet__io__types_8h.html" target="_top" xlink:title=" ">
<polygon fill="white" stroke="black" points="43.5,-280.5 43.5,-299.5 147.5,-299.5 147.5,-280.5 43.5,-280.5"/>
<text text-anchor="middle" x="95.5" y="-287.5" font-family="Helvetica,sans-Serif" font-size="10.00">packet_io_types.h</text>
</a>
</g>
</g>
<!-- Node1&#45;&gt;Node4 -->
<g id="edge3" class="edge">
<title>Node1&#45;&gt;Node4</title>
<path fill="none" stroke="midnightblue" d="M56.79,-329C66.54,-319.43 78.55,-307.64 86.59,-299.75"/>
<polygon fill="midnightblue" stroke="midnightblue" points="54.27,-326.58 49.58,-336.08 59.17,-331.57 54.27,-326.58"/>
</g>
<!-- Node3 -->
<g id="node3" class="node">
<title>Node3</title>
<g id="a_node3"><a xlink:href="packet__io_8h.html" target="_top" xlink:title=" ">
<polygon fill="white" stroke="black" points="2.5,-0.5 2.5,-19.5 74.5,-19.5 74.5,-0.5 2.5,-0.5"/>
<text text-anchor="middle" x="38.5" y="-7.5" font-family="Helvetica,sans-Serif" font-size="10.00">packet_io.h</text>
</a>
</g>
</g>
<!-- Node2&#45;&gt;Node3 -->
<g id="edge2" class="edge">
<title>Node2&#45;&gt;Node3</title>
<path fill="none" stroke="midnightblue" d="M38.5,-45.8C38.5,-36.91 38.5,-26.78 38.5,-19.75"/>
<polygon fill="midnightblue" stroke="midnightblue" points="35,-46.08 38.5,-56.08 42,-46.08 35,-46.08"/>
</g>
<!-- Node5 -->
<g id="node5" class="node">
<title>Node5</title>
<g id="a_node5"><a xlink:href="packet__io__types_8h.html" target="_top" xlink:title=" ">
<polygon fill="white" stroke="black" points="111.5,-224.5 111.5,-243.5 215.5,-243.5 215.5,-224.5 111.5,-224.5"/>
<text text-anchor="middle" x="163.5" y="-231.5" font-family="Helvetica,sans-Serif" font-size="10.00">packet_io_types.h</text>
</a>
</g>
</g>
<!-- Node4&#45;&gt;Node5 -->
<g id="edge4" class="edge">
<title>Node4&#45;&gt;Node5</title>
<path fill="none" stroke="midnightblue" d="M114.26,-274.1C126.5,-264.38 142.06,-252.03 152.38,-243.83"/>
<polygon fill="midnightblue" stroke="midnightblue" points="112.08,-271.36 106.43,-280.32 116.43,-276.85 112.08,-271.36"/>
</g>
<!-- Node5&#45;&gt;Node2 -->
<g id="edge14" class="edge">
<title>Node5&#45;&gt;Node2</title>
<path fill="none" stroke="midnightblue" d="M108.53,-221.31C89.65,-214.61 70.12,-204.17 57.5,-188 30.82,-153.8 34.59,-97.27 37.23,-75.72"/>
<polygon fill="midnightblue" stroke="midnightblue" points="107.71,-224.73 118.3,-224.49 109.87,-218.07 107.71,-224.73"/>
</g>
<!-- Node6 -->
<g id="node6" class="node">
<title>Node6</title>
<g id="a_node6"><a xlink:href="spec_2classification_8h.html" target="_top" xlink:title=" ">
<polygon fill="white" stroke="black" points="67,-168.5 67,-187.5 156,-187.5 156,-168.5 67,-168.5"/>
<text text-anchor="middle" x="111.5" y="-175.5" font-family="Helvetica,sans-Serif" font-size="10.00">classification.h</text>
</a>
</g>
</g>
<!-- Node5&#45;&gt;Node6 -->
<g id="edge5" class="edge">
<title>Node5&#45;&gt;Node6</title>
<path fill="none" stroke="midnightblue" d="M147.82,-216.72C138.66,-207.2 127.45,-195.56 119.93,-187.75"/>
<polygon fill="midnightblue" stroke="midnightblue" points="145.46,-219.31 154.91,-224.08 150.5,-214.45 145.46,-219.31"/>
</g>
<!-- Node8 -->
<g id="node8" class="node">
<title>Node8</title>
<g id="a_node8"><a xlink:href="spec_2ipsec_8h.html" target="_top" xlink:title=" ">
<polygon fill="white" stroke="black" points="190,-56.5 190,-75.5 241,-75.5 241,-56.5 190,-56.5"/>
<text text-anchor="middle" x="215.5" y="-63.5" font-family="Helvetica,sans-Serif" font-size="10.00">ipsec.h</text>
</a>
</g>
</g>
<!-- Node5&#45;&gt;Node8 -->
<g id="edge10" class="edge">
<title>Node5&#45;&gt;Node8</title>
<path fill="none" stroke="midnightblue" d="M220.65,-221.08C238.37,-214.41 256,-204.05 266.5,-188 285,-159.74 280.39,-142.79 266.5,-112 259.31,-96.07 243.39,-83.52 231.23,-75.76"/>
<polygon fill="midnightblue" stroke="midnightblue" points="219.17,-217.89 210.83,-224.42 221.43,-224.51 219.17,-217.89"/>
</g>
<!-- Node10 -->
<g id="node10" class="node">
<title>Node10</title>
<g id="a_node10"><a xlink:href="spec_2packet_8h.html" target="_top" xlink:title=" ">
<polygon fill="white" stroke="black" points="313.5,-168.5 313.5,-187.5 371.5,-187.5 371.5,-168.5 313.5,-168.5"/>
<text text-anchor="middle" x="342.5" y="-175.5" font-family="Helvetica,sans-Serif" font-size="10.00">packet.h</text>
</a>
</g>
</g>
<!-- Node5&#45;&gt;Node10 -->
<g id="edge11" class="edge">
<title>Node5&#45;&gt;Node10</title>
<path fill="none" stroke="midnightblue" d="M201.83,-221.44C235.58,-211.26 283.95,-196.66 314.27,-187.52"/>
<polygon fill="midnightblue" stroke="midnightblue" points="200.43,-218.2 191.86,-224.44 202.45,-224.91 200.43,-218.2"/>
</g>
<!-- Node13 -->
<g id="node13" class="node">
<title>Node13</title>
<g id="a_node13"><a xlink:href="spec_2traffic__mngr_8h.html" target="_top" xlink:title=" ">
<polygon fill="white" stroke="black" points="173.5,-168.5 173.5,-187.5 257.5,-187.5 257.5,-168.5 173.5,-168.5"/>
<text text-anchor="middle" x="215.5" y="-175.5" font-family="Helvetica,sans-Serif" font-size="10.00">traffic_mngr.h</text>
</a>
</g>
</g>
<!-- Node5&#45;&gt;Node13 -->
<g id="edge15" class="edge">
<title>Node5&#45;&gt;Node13</title>
<path fill="none" stroke="midnightblue" d="M179.18,-216.72C188.34,-207.2 199.55,-195.56 207.07,-187.75"/>
<polygon fill="midnightblue" stroke="midnightblue" points="176.5,-214.45 172.09,-224.08 181.54,-219.31 176.5,-214.45"/>
</g>
<!-- Node7 -->
<g id="node7" class="node">
<title>Node7</title>
<g id="a_node7"><a xlink:href="classification_8h.html" target="_top" xlink:title=" ">
<polygon fill="white" stroke="black" points="67,-112.5 67,-131.5 156,-131.5 156,-112.5 67,-112.5"/>
<text text-anchor="middle" x="111.5" y="-119.5" font-family="Helvetica,sans-Serif" font-size="10.00">classification.h</text>
</a>
</g>
</g>
<!-- Node6&#45;&gt;Node7 -->
<g id="edge6" class="edge">
<title>Node6&#45;&gt;Node7</title>
<path fill="none" stroke="midnightblue" d="M111.5,-157.8C111.5,-148.91 111.5,-138.78 111.5,-131.75"/>
<polygon fill="midnightblue" stroke="midnightblue" points="108,-158.08 111.5,-168.08 115,-158.08 108,-158.08"/>
</g>
<!-- Node7&#45;&gt;Node2 -->
<g id="edge9" class="edge">
<title>Node7&#45;&gt;Node2</title>
<path fill="none" stroke="midnightblue" d="M91.36,-106.1C78.22,-96.38 61.52,-84.03 50.44,-75.83"/>
<polygon fill="midnightblue" stroke="midnightblue" points="89.65,-109.19 99.77,-112.32 93.81,-103.56 89.65,-109.19"/>
</g>
<!-- Node7&#45;&gt;Node8 -->
<g id="edge7" class="edge">
<title>Node7&#45;&gt;Node8</title>
<path fill="none" stroke="midnightblue" d="M137.33,-107.59C156.56,-97.61 182.24,-84.27 198.83,-75.65"/>
<polygon fill="midnightblue" stroke="midnightblue" points="135.47,-104.61 128.21,-112.32 138.7,-110.82 135.47,-104.61"/>
</g>
<!-- Node9 -->
<g id="node9" class="node">
<title>Node9</title>
<g id="a_node9"><a xlink:href="ipsec_8h.html" target="_top" xlink:title=" ">
<polygon fill="white" stroke="black" points="190,-0.5 190,-19.5 241,-19.5 241,-0.5 190,-0.5"/>
<text text-anchor="middle" x="215.5" y="-7.5" font-family="Helvetica,sans-Serif" font-size="10.00">ipsec.h</text>
</a>
</g>
</g>
<!-- Node8&#45;&gt;Node9 -->
<g id="edge8" class="edge">
<title>Node8&#45;&gt;Node9</title>
<path fill="none" stroke="midnightblue" d="M215.5,-45.8C215.5,-36.91 215.5,-26.78 215.5,-19.75"/>
<polygon fill="midnightblue" stroke="midnightblue" points="212,-46.08 215.5,-56.08 219,-46.08 212,-46.08"/>
</g>
<!-- Node11 -->
<g id="node11" class="node">
<title>Node11</title>
<g id="a_node11"><a xlink:href="packet_8h.html" target="_top" xlink:title=" ">
<polygon fill="white" stroke="black" points="313.5,-112.5 313.5,-131.5 371.5,-131.5 371.5,-112.5 313.5,-112.5"/>
<text text-anchor="middle" x="342.5" y="-119.5" font-family="Helvetica,sans-Serif" font-size="10.00">packet.h</text>
</a>
</g>
</g>
<!-- Node10&#45;&gt;Node11 -->
<g id="edge12" class="edge">
<title>Node10&#45;&gt;Node11</title>
<path fill="none" stroke="midnightblue" d="M342.5,-157.8C342.5,-148.91 342.5,-138.78 342.5,-131.75"/>
<polygon fill="midnightblue" stroke="midnightblue" points="339,-158.08 342.5,-168.08 346,-158.08 339,-158.08"/>
</g>
<!-- Node12 -->
<g id="node12" class="node">
<title>Node12</title>
<g id="a_node12"><a xlink:href="event__inlines_8h_source.html" target="_top" xlink:title=" ">
<polygon fill="white" stroke="black" points="297,-56.5 297,-75.5 388,-75.5 388,-56.5 297,-56.5"/>
<text text-anchor="middle" x="342.5" y="-63.5" font-family="Helvetica,sans-Serif" font-size="10.00">event_inlines.h</text>
</a>
</g>
</g>
<!-- Node11&#45;&gt;Node12 -->
<g id="edge13" class="edge">
<title>Node11&#45;&gt;Node12</title>
<path fill="none" stroke="midnightblue" d="M342.5,-101.8C342.5,-92.91 342.5,-82.78 342.5,-75.75"/>
<polygon fill="midnightblue" stroke="midnightblue" points="339,-102.08 342.5,-112.08 346,-102.08 339,-102.08"/>
</g>
<!-- Node14 -->
<g id="node14" class="node">
<title>Node14</title>
<g id="a_node14"><a xlink:href="traffic__mngr_8h.html" target="_top" xlink:title=" ">
<polygon fill="white" stroke="black" points="173.5,-112.5 173.5,-131.5 257.5,-131.5 257.5,-112.5 173.5,-112.5"/>
<text text-anchor="middle" x="215.5" y="-119.5" font-family="Helvetica,sans-Serif" font-size="10.00">traffic_mngr.h</text>
</a>
</g>
</g>
<!-- Node13&#45;&gt;Node14 -->
<g id="edge16" class="edge">
<title>Node13&#45;&gt;Node14</title>
<path fill="none" stroke="midnightblue" d="M215.5,-157.8C215.5,-148.91 215.5,-138.78 215.5,-131.75"/>
<polygon fill="midnightblue" stroke="midnightblue" points="212,-158.08 215.5,-168.08 219,-158.08 212,-158.08"/>
</g>
<!-- Node14&#45;&gt;Node8 -->
<g id="edge17" class="edge">
<title>Node14&#45;&gt;Node8</title>
<path fill="none" stroke="midnightblue" d="M215.5,-101.8C215.5,-92.91 215.5,-82.78 215.5,-75.75"/>
<polygon fill="midnightblue" stroke="midnightblue" points="212,-102.08 215.5,-112.08 219,-102.08 212,-102.08"/>
</g>
</g>
</svg>
