<?xml version="1.0" encoding="UTF-8" standalone="no"?>
<!DOCTYPE svg PUBLIC "-//W3C//DTD SVG 1.1//EN"
 "http://www.w3.org/Graphics/SVG/1.1/DTD/svg11.dtd">
<!-- Generated by graphviz version 2.43.0 (0)
 -->
<!-- Title: hints.h Pages: 1 -->
<svg width="456pt" height="308pt"
 viewBox="0.00 0.00 456.00 308.00" xmlns="http://www.w3.org/2000/svg" xmlns:xlink="http://www.w3.org/1999/xlink">
<g id="graph0" class="graph" transform="scale(1 1) rotate(0) translate(4 304)">
<title>hints.h</title>
<polygon fill="white" stroke="transparent" points="-4,4 -4,-304 452,-304 452,4 -4,4"/>
<!-- Node1 -->
<g id="node1" class="node">
<title>Node1</title>
<g id="a_node1"><a xlink:title=" ">
<polygon fill="#bfbfbf" stroke="black" points="218,-280.5 218,-299.5 268,-299.5 268,-280.5 218,-280.5"/>
<text text-anchor="middle" x="243" y="-287.5" font-family="Helvetica,sans-Serif" font-size="10.00">hints.h</text>
</a>
</g>
</g>
<!-- Node2 -->
<g id="node2" class="node">
<title>Node2</title>
<g id="a_node2"><a xlink:href="hints_8h.html" target="_top" xlink:title=" ">
<polygon fill="white" stroke="black" points="218,-224.5 218,-243.5 268,-243.5 268,-224.5 218,-224.5"/>
<text text-anchor="middle" x="243" y="-231.5" font-family="Helvetica,sans-Serif" font-size="10.00">hints.h</text>
</a>
</g>
</g>
<!-- Node1&#45;&gt;Node2 -->
<g id="edge1" class="edge">
<title>Node1&#45;&gt;Node2</title>
<path fill="none" stroke="midnightblue" d="M243,-269.8C243,-260.91 243,-250.78 243,-243.75"/>
<polygon fill="midnightblue" stroke="midnightblue" points="239.5,-270.08 243,-280.08 246.5,-270.08 239.5,-270.08"/>
</g>
<!-- Node3 -->
<g id="node3" class="node">
<title>Node3</title>
<g id="a_node3"><a xlink:href="spec_2init_8h.html" target="_top" xlink:title=" ">
<polygon fill="white" stroke="black" points="90.5,-168.5 90.5,-187.5 131.5,-187.5 131.5,-168.5 90.5,-168.5"/>
<text text-anchor="middle" x="111" y="-175.5" font-family="Helvetica,sans-Serif" font-size="10.00">init.h</text>
</a>
</g>
</g>
<!-- Node2&#45;&gt;Node3 -->
<g id="edge2" class="edge">
<title>Node2&#45;&gt;Node3</title>
<path fill="none" stroke="midnightblue" d="M212.78,-220.64C188.01,-210.5 153.6,-196.43 131.82,-187.52"/>
<polygon fill="midnightblue" stroke="midnightblue" points="211.5,-223.9 222.08,-224.44 214.15,-217.42 211.5,-223.9"/>
</g>
<!-- Node8 -->
<g id="node8" class="node">
<title>Node8</title>
<g id="a_node8"><a xlink:href="cpu__inlines_8h_source.html" target="_top" xlink:title=" ">
<polygon fill="white" stroke="black" points="150,-168.5 150,-187.5 230,-187.5 230,-168.5 150,-168.5"/>
<text text-anchor="middle" x="190" y="-175.5" font-family="Helvetica,sans-Serif" font-size="10.00">cpu_inlines.h</text>
</a>
</g>
</g>
<!-- Node2&#45;&gt;Node8 -->
<g id="edge7" class="edge">
<title>Node2&#45;&gt;Node8</title>
<path fill="none" stroke="midnightblue" d="M227.02,-216.72C217.68,-207.2 206.25,-195.56 198.59,-187.75"/>
<polygon fill="midnightblue" stroke="midnightblue" points="224.75,-219.4 234.25,-224.08 229.74,-214.49 224.75,-219.4"/>
</g>
<!-- Node9 -->
<g id="node9" class="node">
<title>Node9</title>
<g id="a_node9"><a xlink:href="packet__inlines_8h.html" target="_top" xlink:title=" ">
<polygon fill="white" stroke="black" points="248.5,-168.5 248.5,-187.5 343.5,-187.5 343.5,-168.5 248.5,-168.5"/>
<text text-anchor="middle" x="296" y="-175.5" font-family="Helvetica,sans-Serif" font-size="10.00">packet_inlines.h</text>
</a>
</g>
</g>
<!-- Node2&#45;&gt;Node9 -->
<g id="edge8" class="edge">
<title>Node2&#45;&gt;Node9</title>
<path fill="none" stroke="midnightblue" d="M258.98,-216.72C268.32,-207.2 279.75,-195.56 287.41,-187.75"/>
<polygon fill="midnightblue" stroke="midnightblue" points="256.26,-214.49 251.75,-224.08 261.25,-219.4 256.26,-214.49"/>
</g>
<!-- Node10 -->
<g id="node10" class="node">
<title>Node10</title>
<g id="a_node10"><a xlink:href="time__inlines_8h_source.html" target="_top" xlink:title=" ">
<polygon fill="white" stroke="black" points="362,-168.5 362,-187.5 448,-187.5 448,-168.5 362,-168.5"/>
<text text-anchor="middle" x="405" y="-175.5" font-family="Helvetica,sans-Serif" font-size="10.00">time_inlines.h</text>
</a>
</g>
</g>
<!-- Node2&#45;&gt;Node10 -->
<g id="edge9" class="edge">
<title>Node2&#45;&gt;Node10</title>
<path fill="none" stroke="midnightblue" d="M278.11,-221.3C308.59,-211.14 352.01,-196.66 379.33,-187.56"/>
<polygon fill="midnightblue" stroke="midnightblue" points="276.69,-218.08 268.31,-224.56 278.91,-224.72 276.69,-218.08"/>
</g>
<!-- Node4 -->
<g id="node4" class="node">
<title>Node4</title>
<g id="a_node4"><a xlink:href="init_8h.html" target="_top" xlink:title=" ">
<polygon fill="white" stroke="black" points="90.5,-112.5 90.5,-131.5 131.5,-131.5 131.5,-112.5 90.5,-112.5"/>
<text text-anchor="middle" x="111" y="-119.5" font-family="Helvetica,sans-Serif" font-size="10.00">init.h</text>
</a>
</g>
</g>
<!-- Node3&#45;&gt;Node4 -->
<g id="edge3" class="edge">
<title>Node3&#45;&gt;Node4</title>
<path fill="none" stroke="midnightblue" d="M111,-157.8C111,-148.91 111,-138.78 111,-131.75"/>
<polygon fill="midnightblue" stroke="midnightblue" points="107.5,-158.08 111,-168.08 114.5,-158.08 107.5,-158.08"/>
</g>
<!-- Node5 -->
<g id="node5" class="node">
<title>Node5</title>
<g id="a_node5"><a xlink:href="spec_2shared__memory_8h.html" target="_top" xlink:title=" ">
<polygon fill="white" stroke="black" points="0,-56.5 0,-75.5 104,-75.5 104,-56.5 0,-56.5"/>
<text text-anchor="middle" x="52" y="-63.5" font-family="Helvetica,sans-Serif" font-size="10.00">shared_memory.h</text>
</a>
</g>
</g>
<!-- Node4&#45;&gt;Node5 -->
<g id="edge4" class="edge">
<title>Node4&#45;&gt;Node5</title>
<path fill="none" stroke="midnightblue" d="M94.11,-105.54C83.59,-95.91 70.43,-83.87 61.65,-75.83"/>
<polygon fill="midnightblue" stroke="midnightblue" points="91.78,-108.15 101.52,-112.32 96.51,-102.99 91.78,-108.15"/>
</g>
<!-- Node7 -->
<g id="node7" class="node">
<title>Node7</title>
<g id="a_node7"><a xlink:href="thread__inlines_8h_source.html" target="_top" xlink:title=" ">
<polygon fill="white" stroke="black" points="122.5,-56.5 122.5,-75.5 217.5,-75.5 217.5,-56.5 122.5,-56.5"/>
<text text-anchor="middle" x="170" y="-63.5" font-family="Helvetica,sans-Serif" font-size="10.00">thread_inlines.h</text>
</a>
</g>
</g>
<!-- Node4&#45;&gt;Node7 -->
<g id="edge6" class="edge">
<title>Node4&#45;&gt;Node7</title>
<path fill="none" stroke="midnightblue" d="M127.89,-105.54C138.41,-95.91 151.57,-83.87 160.35,-75.83"/>
<polygon fill="midnightblue" stroke="midnightblue" points="125.49,-102.99 120.48,-112.32 130.22,-108.15 125.49,-102.99"/>
</g>
<!-- Node6 -->
<g id="node6" class="node">
<title>Node6</title>
<g id="a_node6"><a xlink:href="shared__memory_8h.html" target="_top" xlink:title=" ">
<polygon fill="white" stroke="black" points="0,-0.5 0,-19.5 104,-19.5 104,-0.5 0,-0.5"/>
<text text-anchor="middle" x="52" y="-7.5" font-family="Helvetica,sans-Serif" font-size="10.00">shared_memory.h</text>
</a>
</g>
</g>
<!-- Node5&#45;&gt;Node6 -->
<g id="edge5" class="edge">
<title>Node5&#45;&gt;Node6</title>
<path fill="none" stroke="midnightblue" d="M52,-45.8C52,-36.91 52,-26.78 52,-19.75"/>
<polygon fill="midnightblue" stroke="midnightblue" points="48.5,-46.08 52,-56.08 55.5,-46.08 48.5,-46.08"/>
</g>
</g>
</svg>
