<?xml version="1.0" encoding="UTF-8" standalone="no"?>
<!DOCTYPE svg PUBLIC "-//W3C//DTD SVG 1.1//EN"
 "http://www.w3.org/Graphics/SVG/1.1/DTD/svg11.dtd">
<!-- Generated by graphviz version 2.43.0 (0)
 -->
<!-- Title: schedule_types.h Pages: 1 -->
<svg width="944pt" height="868pt"
 viewBox="0.00 0.00 944.00 868.00" xmlns="http://www.w3.org/2000/svg" xmlns:xlink="http://www.w3.org/1999/xlink">
<g id="graph0" class="graph" transform="scale(1 1) rotate(0) translate(4 864)">
<title>schedule_types.h</title>
<polygon fill="white" stroke="transparent" points="-4,4 -4,-864 940,-864 940,4 -4,4"/>
<!-- Node1 -->
<g id="node1" class="node">
<title>Node1</title>
<g id="a_node1"><a xlink:title=" ">
<polygon fill="#bfbfbf" stroke="black" points="703,-840.5 703,-859.5 804,-859.5 804,-840.5 703,-840.5"/>
<text text-anchor="middle" x="753.5" y="-847.5" font-family="Helvetica,sans-Serif" font-size="10.00">schedule_types.h</text>
</a>
</g>
</g>
<!-- Node2 -->
<g id="node2" class="node">
<title>Node2</title>
<g id="a_node2"><a xlink:href="schedule__types_8h.html" target="_top" xlink:title=" ">
<polygon fill="white" stroke="black" points="703,-784.5 703,-803.5 804,-803.5 804,-784.5 703,-784.5"/>
<text text-anchor="middle" x="753.5" y="-791.5" font-family="Helvetica,sans-Serif" font-size="10.00">schedule_types.h</text>
</a>
</g>
</g>
<!-- Node1&#45;&gt;Node2 -->
<g id="edge1" class="edge">
<title>Node1&#45;&gt;Node2</title>
<path fill="none" stroke="midnightblue" d="M753.5,-829.8C753.5,-820.91 753.5,-810.78 753.5,-803.75"/>
<polygon fill="midnightblue" stroke="midnightblue" points="750,-830.08 753.5,-840.08 757,-830.08 750,-830.08"/>
</g>
<!-- Node3 -->
<g id="node3" class="node">
<title>Node3</title>
<g id="a_node3"><a xlink:href="spec_2queue__types_8h.html" target="_top" xlink:title=" ">
<polygon fill="white" stroke="black" points="673.5,-728.5 673.5,-747.5 761.5,-747.5 761.5,-728.5 673.5,-728.5"/>
<text text-anchor="middle" x="717.5" y="-735.5" font-family="Helvetica,sans-Serif" font-size="10.00">queue_types.h</text>
</a>
</g>
</g>
<!-- Node2&#45;&gt;Node3 -->
<g id="edge2" class="edge">
<title>Node2&#45;&gt;Node3</title>
<path fill="none" stroke="midnightblue" d="M741.88,-775.57C735.68,-766.27 728.33,-755.25 723.33,-747.75"/>
<polygon fill="midnightblue" stroke="midnightblue" points="739.1,-777.7 747.56,-784.08 744.92,-773.82 739.1,-777.7"/>
</g>
<!-- Node45 -->
<g id="node45" class="node">
<title>Node45</title>
<g id="a_node45"><a xlink:href="spec_2schedule_8h.html" target="_top" xlink:title=" ">
<polygon fill="white" stroke="black" points="867,-616.5 867,-635.5 936,-635.5 936,-616.5 867,-616.5"/>
<text text-anchor="middle" x="901.5" y="-623.5" font-family="Helvetica,sans-Serif" font-size="10.00">schedule.h</text>
</a>
</g>
</g>
<!-- Node2&#45;&gt;Node45 -->
<g id="edge67" class="edge">
<title>Node2&#45;&gt;Node45</title>
<path fill="none" stroke="midnightblue" d="M768.47,-776.21C799.63,-741.26 870.49,-661.79 893.86,-635.57"/>
<polygon fill="midnightblue" stroke="midnightblue" points="765.5,-774.28 761.46,-784.08 770.72,-778.94 765.5,-774.28"/>
</g>
<!-- Node4 -->
<g id="node4" class="node">
<title>Node4</title>
<g id="a_node4"><a xlink:href="queue__types_8h.html" target="_top" xlink:title=" ">
<polygon fill="white" stroke="black" points="562.5,-672.5 562.5,-691.5 650.5,-691.5 650.5,-672.5 562.5,-672.5"/>
<text text-anchor="middle" x="606.5" y="-679.5" font-family="Helvetica,sans-Serif" font-size="10.00">queue_types.h</text>
</a>
</g>
</g>
<!-- Node3&#45;&gt;Node4 -->
<g id="edge3" class="edge">
<title>Node3&#45;&gt;Node4</title>
<path fill="none" stroke="midnightblue" d="M690.49,-723.86C669.91,-713.85 642.16,-700.35 624.29,-691.65"/>
<polygon fill="midnightblue" stroke="midnightblue" points="689.14,-727.1 699.67,-728.32 692.2,-720.8 689.14,-727.1"/>
</g>
<!-- Node5 -->
<g id="node5" class="node">
<title>Node5</title>
<g id="a_node5"><a xlink:href="spec_2comp_8h.html" target="_top" xlink:title=" ">
<polygon fill="white" stroke="black" points="663,-504.5 663,-523.5 716,-523.5 716,-504.5 663,-504.5"/>
<text text-anchor="middle" x="689.5" y="-511.5" font-family="Helvetica,sans-Serif" font-size="10.00">comp.h</text>
</a>
</g>
</g>
<!-- Node4&#45;&gt;Node5 -->
<g id="edge4" class="edge">
<title>Node4&#45;&gt;Node5</title>
<path fill="none" stroke="midnightblue" d="M621.85,-664.97C629.11,-656.78 637.49,-646.37 643.5,-636 666.28,-596.73 681.75,-544.1 687.26,-523.64"/>
<polygon fill="midnightblue" stroke="midnightblue" points="619.27,-662.61 615.09,-672.34 624.43,-667.34 619.27,-662.61"/>
</g>
<!-- Node7 -->
<g id="node7" class="node">
<title>Node7</title>
<g id="a_node7"><a xlink:href="spec_2dma__types_8h.html" target="_top" xlink:title=" ">
<polygon fill="white" stroke="black" points="84.5,-504.5 84.5,-523.5 164.5,-523.5 164.5,-504.5 84.5,-504.5"/>
<text text-anchor="middle" x="124.5" y="-511.5" font-family="Helvetica,sans-Serif" font-size="10.00">dma_types.h</text>
</a>
</g>
</g>
<!-- Node4&#45;&gt;Node7 -->
<g id="edge6" class="edge">
<title>Node4&#45;&gt;Node7</title>
<path fill="none" stroke="midnightblue" d="M552.28,-681.86C450.74,-682.43 236.88,-678.38 178.5,-636 139.96,-608.03 128.44,-546.18 125.44,-523.53"/>
<polygon fill="midnightblue" stroke="midnightblue" points="552.36,-685.36 562.34,-681.79 552.31,-678.36 552.36,-685.36"/>
</g>
<!-- Node19 -->
<g id="node19" class="node">
<title>Node19</title>
<g id="a_node19"><a xlink:href="spec_2packet__io_8h.html" target="_top" xlink:title=" ">
<polygon fill="white" stroke="black" points="641.5,-56.5 641.5,-75.5 713.5,-75.5 713.5,-56.5 641.5,-56.5"/>
<text text-anchor="middle" x="677.5" y="-63.5" font-family="Helvetica,sans-Serif" font-size="10.00">packet_io.h</text>
</a>
</g>
</g>
<!-- Node4&#45;&gt;Node19 -->
<g id="edge41" class="edge">
<title>Node4&#45;&gt;Node19</title>
<path fill="none" stroke="midnightblue" d="M660.64,-675.88C715.94,-669.58 796.79,-657.04 819.5,-636 841.58,-615.54 838.5,-601.1 838.5,-571 838.5,-571 838.5,-571 838.5,-177 838.5,-116.91 761.1,-87.27 713.63,-74.74"/>
<polygon fill="midnightblue" stroke="midnightblue" points="660.19,-672.41 650.64,-676.99 660.96,-679.37 660.19,-672.41"/>
</g>
<!-- Node26 -->
<g id="node26" class="node">
<title>Node26</title>
<g id="a_node26"><a xlink:href="spec_2packet__io__types_8h.html" target="_top" xlink:title=" ">
<polygon fill="white" stroke="black" points="390.5,-280.5 390.5,-299.5 494.5,-299.5 494.5,-280.5 390.5,-280.5"/>
<text text-anchor="middle" x="442.5" y="-287.5" font-family="Helvetica,sans-Serif" font-size="10.00">packet_io_types.h</text>
</a>
</g>
</g>
<!-- Node4&#45;&gt;Node26 -->
<g id="edge46" class="edge">
<title>Node4&#45;&gt;Node26</title>
<path fill="none" stroke="midnightblue" d="M552.26,-677.21C471.13,-670.95 322.47,-657.01 273.5,-636 231.08,-617.8 192.5,-617.16 192.5,-571 192.5,-571 192.5,-571 192.5,-513 192.5,-393.72 353.6,-322.89 417.15,-299.58"/>
<polygon fill="midnightblue" stroke="midnightblue" points="552.05,-680.71 562.29,-677.97 552.58,-673.73 552.05,-680.71"/>
</g>
<!-- Node33 -->
<g id="node33" class="node">
<title>Node33</title>
<g id="a_node33"><a xlink:href="spec_2timer_8h.html" target="_top" xlink:title=" ">
<polygon fill="white" stroke="black" points="579,-280.5 579,-299.5 630,-299.5 630,-280.5 579,-280.5"/>
<text text-anchor="middle" x="604.5" y="-287.5" font-family="Helvetica,sans-Serif" font-size="10.00">timer.h</text>
</a>
</g>
</g>
<!-- Node4&#45;&gt;Node33 -->
<g id="edge64" class="edge">
<title>Node4&#45;&gt;Node33</title>
<path fill="none" stroke="midnightblue" d="M588.86,-665.15C581.36,-657.23 573.44,-647 569.5,-636 558.11,-604.2 555.57,-590.77 569.5,-560 579.5,-537.91 596.77,-543.99 610.5,-524 627.94,-498.62 634.5,-489.8 634.5,-459 634.5,-459 634.5,-459 634.5,-401 634.5,-362 616.73,-317.89 608.55,-299.62"/>
<polygon fill="midnightblue" stroke="midnightblue" points="586.48,-667.72 596.06,-672.24 591.39,-662.73 586.48,-667.72"/>
</g>
<!-- Node35 -->
<g id="node35" class="node">
<title>Node35</title>
<g id="a_node35"><a xlink:href="spec_2packet__io__stats_8h.html" target="_top" xlink:title=" ">
<polygon fill="white" stroke="black" points="383,-392.5 383,-411.5 484,-411.5 484,-392.5 383,-392.5"/>
<text text-anchor="middle" x="433.5" y="-399.5" font-family="Helvetica,sans-Serif" font-size="10.00">packet_io_stats.h</text>
</a>
</g>
</g>
<!-- Node4&#45;&gt;Node35 -->
<g id="edge42" class="edge">
<title>Node4&#45;&gt;Node35</title>
<path fill="none" stroke="midnightblue" d="M552.25,-676.5C448.13,-666.36 230.5,-637.23 230.5,-571 230.5,-571 230.5,-571 230.5,-513 230.5,-443.85 322.67,-417.95 382.8,-408.4"/>
<polygon fill="midnightblue" stroke="midnightblue" points="551.98,-679.99 562.26,-677.45 552.64,-673.02 551.98,-679.99"/>
</g>
<!-- Node37 -->
<g id="node37" class="node">
<title>Node37</title>
<g id="a_node37"><a xlink:href="spec_2packet__types_8h.html" target="_top" xlink:title=" ">
<polygon fill="white" stroke="black" points="432.5,-616.5 432.5,-635.5 522.5,-635.5 522.5,-616.5 432.5,-616.5"/>
<text text-anchor="middle" x="477.5" y="-623.5" font-family="Helvetica,sans-Serif" font-size="10.00">packet_types.h</text>
</a>
</g>
</g>
<!-- Node4&#45;&gt;Node37 -->
<g id="edge47" class="edge">
<title>Node4&#45;&gt;Node37</title>
<path fill="none" stroke="midnightblue" d="M576.65,-668.5C552.46,-658.38 519.04,-644.39 497.84,-635.52"/>
<polygon fill="midnightblue" stroke="midnightblue" points="575.48,-671.81 586.06,-672.44 578.19,-665.35 575.48,-671.81"/>
</g>
<!-- Node43 -->
<g id="node43" class="node">
<title>Node43</title>
<g id="a_node43"><a xlink:href="spec_2queue_8h.html" target="_top" xlink:title=" ">
<polygon fill="white" stroke="black" points="578.5,-616.5 578.5,-635.5 634.5,-635.5 634.5,-616.5 578.5,-616.5"/>
<text text-anchor="middle" x="606.5" y="-623.5" font-family="Helvetica,sans-Serif" font-size="10.00">queue.h</text>
</a>
</g>
</g>
<!-- Node4&#45;&gt;Node43 -->
<g id="edge60" class="edge">
<title>Node4&#45;&gt;Node43</title>
<path fill="none" stroke="midnightblue" d="M606.5,-661.8C606.5,-652.91 606.5,-642.78 606.5,-635.75"/>
<polygon fill="midnightblue" stroke="midnightblue" points="603,-662.08 606.5,-672.08 610,-662.08 603,-662.08"/>
</g>
<!-- Node4&#45;&gt;Node45 -->
<g id="edge62" class="edge">
<title>Node4&#45;&gt;Node45</title>
<path fill="none" stroke="midnightblue" d="M660.86,-671.07C710.71,-661.96 786.58,-648.08 852.5,-636 857.18,-635.14 862.11,-634.24 866.97,-633.35"/>
<polygon fill="midnightblue" stroke="midnightblue" points="660.15,-667.64 650.94,-672.88 661.41,-674.53 660.15,-667.64"/>
</g>
<!-- Node47 -->
<g id="node47" class="node">
<title>Node47</title>
<g id="a_node47"><a xlink:href="queue__inline__types_8h_source.html" target="_top" xlink:title=" ">
<polygon fill="white" stroke="black" points="690.5,-616.5 690.5,-635.5 810.5,-635.5 810.5,-616.5 690.5,-616.5"/>
<text text-anchor="middle" x="750.5" y="-623.5" font-family="Helvetica,sans-Serif" font-size="10.00">queue_inline_types.h</text>
</a>
</g>
</g>
<!-- Node4&#45;&gt;Node47 -->
<g id="edge65" class="edge">
<title>Node4&#45;&gt;Node47</title>
<path fill="none" stroke="midnightblue" d="M638.75,-668.91C665.82,-658.75 703.82,-644.51 727.79,-635.52"/>
<polygon fill="midnightblue" stroke="midnightblue" points="637.45,-665.66 629.32,-672.44 639.91,-672.21 637.45,-665.66"/>
</g>
<!-- Node6 -->
<g id="node6" class="node">
<title>Node6</title>
<g id="a_node6"><a xlink:href="comp_8h.html" target="_top" xlink:title=" ">
<polygon fill="white" stroke="black" points="663,-448.5 663,-467.5 716,-467.5 716,-448.5 663,-448.5"/>
<text text-anchor="middle" x="689.5" y="-455.5" font-family="Helvetica,sans-Serif" font-size="10.00">comp.h</text>
</a>
</g>
</g>
<!-- Node5&#45;&gt;Node6 -->
<g id="edge5" class="edge">
<title>Node5&#45;&gt;Node6</title>
<path fill="none" stroke="midnightblue" d="M689.5,-493.8C689.5,-484.91 689.5,-474.78 689.5,-467.75"/>
<polygon fill="midnightblue" stroke="midnightblue" points="686,-494.08 689.5,-504.08 693,-494.08 686,-494.08"/>
</g>
<!-- Node8 -->
<g id="node8" class="node">
<title>Node8</title>
<g id="a_node8"><a xlink:href="dma__types_8h.html" target="_top" xlink:title=" ">
<polygon fill="white" stroke="black" points="84.5,-448.5 84.5,-467.5 164.5,-467.5 164.5,-448.5 84.5,-448.5"/>
<text text-anchor="middle" x="124.5" y="-455.5" font-family="Helvetica,sans-Serif" font-size="10.00">dma_types.h</text>
</a>
</g>
</g>
<!-- Node7&#45;&gt;Node8 -->
<g id="edge7" class="edge">
<title>Node7&#45;&gt;Node8</title>
<path fill="none" stroke="midnightblue" d="M124.5,-493.8C124.5,-484.91 124.5,-474.78 124.5,-467.75"/>
<polygon fill="midnightblue" stroke="midnightblue" points="121,-494.08 124.5,-504.08 128,-494.08 121,-494.08"/>
</g>
<!-- Node9 -->
<g id="node9" class="node">
<title>Node9</title>
<g id="a_node9"><a xlink:href="spec_2dma_8h.html" target="_top" xlink:title=" ">
<polygon fill="white" stroke="black" points="0,-280.5 0,-299.5 47,-299.5 47,-280.5 0,-280.5"/>
<text text-anchor="middle" x="23.5" y="-287.5" font-family="Helvetica,sans-Serif" font-size="10.00">dma.h</text>
</a>
</g>
</g>
<!-- Node8&#45;&gt;Node9 -->
<g id="edge8" class="edge">
<title>Node8&#45;&gt;Node9</title>
<path fill="none" stroke="midnightblue" d="M105.74,-441.57C96.69,-433.45 86.16,-422.93 78.5,-412 51.74,-373.83 32.97,-320.56 26.24,-299.79"/>
<polygon fill="midnightblue" stroke="midnightblue" points="103.65,-444.4 113.51,-448.3 108.23,-439.11 103.65,-444.4"/>
</g>
<!-- Node11 -->
<g id="node11" class="node">
<title>Node11</title>
<g id="a_node11"><a xlink:href="spec_2pool__types_8h.html" target="_top" xlink:title=" ">
<polygon fill="white" stroke="black" points="88,-392.5 88,-411.5 167,-411.5 167,-392.5 88,-392.5"/>
<text text-anchor="middle" x="127.5" y="-399.5" font-family="Helvetica,sans-Serif" font-size="10.00">pool_types.h</text>
</a>
</g>
</g>
<!-- Node8&#45;&gt;Node11 -->
<g id="edge10" class="edge">
<title>Node8&#45;&gt;Node11</title>
<path fill="none" stroke="midnightblue" d="M125.57,-437.8C126.06,-428.91 126.62,-418.78 127.01,-411.75"/>
<polygon fill="midnightblue" stroke="midnightblue" points="122.06,-437.9 125,-448.08 129.04,-438.29 122.06,-437.9"/>
</g>
<!-- Node10 -->
<g id="node10" class="node">
<title>Node10</title>
<g id="a_node10"><a xlink:href="dma_8h.html" target="_top" xlink:title=" ">
<polygon fill="white" stroke="black" points="0,-224.5 0,-243.5 47,-243.5 47,-224.5 0,-224.5"/>
<text text-anchor="middle" x="23.5" y="-231.5" font-family="Helvetica,sans-Serif" font-size="10.00">dma.h</text>
</a>
</g>
</g>
<!-- Node9&#45;&gt;Node10 -->
<g id="edge9" class="edge">
<title>Node9&#45;&gt;Node10</title>
<path fill="none" stroke="midnightblue" d="M23.5,-269.8C23.5,-260.91 23.5,-250.78 23.5,-243.75"/>
<polygon fill="midnightblue" stroke="midnightblue" points="20,-270.08 23.5,-280.08 27,-270.08 20,-270.08"/>
</g>
<!-- Node12 -->
<g id="node12" class="node">
<title>Node12</title>
<g id="a_node12"><a xlink:href="pool__types_8h.html" target="_top" xlink:title=" ">
<polygon fill="white" stroke="black" points="154,-336.5 154,-355.5 233,-355.5 233,-336.5 154,-336.5"/>
<text text-anchor="middle" x="193.5" y="-343.5" font-family="Helvetica,sans-Serif" font-size="10.00">pool_types.h</text>
</a>
</g>
</g>
<!-- Node11&#45;&gt;Node12 -->
<g id="edge11" class="edge">
<title>Node11&#45;&gt;Node12</title>
<path fill="none" stroke="midnightblue" d="M146.05,-385.82C157.88,-376.15 172.79,-363.95 182.7,-355.83"/>
<polygon fill="midnightblue" stroke="midnightblue" points="143.63,-383.28 138.1,-392.32 148.06,-388.7 143.63,-383.28"/>
</g>
<!-- Node12&#45;&gt;Node9 -->
<g id="edge23" class="edge">
<title>Node12&#45;&gt;Node9</title>
<path fill="none" stroke="midnightblue" d="M156.74,-333.32C123.46,-322.75 75.41,-307.49 47.03,-298.47"/>
<polygon fill="midnightblue" stroke="midnightblue" points="155.97,-336.75 166.56,-336.44 158.09,-330.08 155.97,-336.75"/>
</g>
<!-- Node13 -->
<g id="node13" class="node">
<title>Node13</title>
<g id="a_node13"><a xlink:href="spec_2buffer_8h.html" target="_top" xlink:title=" ">
<polygon fill="white" stroke="black" points="169,-280.5 169,-299.5 222,-299.5 222,-280.5 169,-280.5"/>
<text text-anchor="middle" x="195.5" y="-287.5" font-family="Helvetica,sans-Serif" font-size="10.00">buffer.h</text>
</a>
</g>
</g>
<!-- Node12&#45;&gt;Node13 -->
<g id="edge12" class="edge">
<title>Node12&#45;&gt;Node13</title>
<path fill="none" stroke="midnightblue" d="M194.21,-325.8C194.54,-316.91 194.92,-306.78 195.18,-299.75"/>
<polygon fill="midnightblue" stroke="midnightblue" points="190.7,-325.96 193.83,-336.08 197.7,-326.22 190.7,-325.96"/>
</g>
<!-- Node15 -->
<g id="node15" class="node">
<title>Node15</title>
<g id="a_node15"><a xlink:href="spec_2classification_8h.html" target="_top" xlink:title=" ">
<polygon fill="white" stroke="black" points="248,-168.5 248,-187.5 337,-187.5 337,-168.5 248,-168.5"/>
<text text-anchor="middle" x="292.5" y="-175.5" font-family="Helvetica,sans-Serif" font-size="10.00">classification.h</text>
</a>
</g>
</g>
<!-- Node12&#45;&gt;Node15 -->
<g id="edge14" class="edge">
<title>Node12&#45;&gt;Node15</title>
<path fill="none" stroke="midnightblue" d="M208.09,-328.98C215.29,-320.67 223.84,-310.15 230.5,-300 256.66,-260.14 280.14,-207.85 288.88,-187.56"/>
<polygon fill="midnightblue" stroke="midnightblue" points="205.47,-326.66 201.46,-336.47 210.71,-331.31 205.47,-326.66"/>
</g>
<!-- Node21 -->
<g id="node21" class="node">
<title>Node21</title>
<g id="a_node21"><a xlink:href="spec_2crypto_8h.html" target="_top" xlink:title=" ">
<polygon fill="white" stroke="black" points="278.5,-280.5 278.5,-299.5 334.5,-299.5 334.5,-280.5 278.5,-280.5"/>
<text text-anchor="middle" x="306.5" y="-287.5" font-family="Helvetica,sans-Serif" font-size="10.00">crypto.h</text>
</a>
</g>
</g>
<!-- Node12&#45;&gt;Node21 -->
<g id="edge20" class="edge">
<title>Node12&#45;&gt;Node21</title>
<path fill="none" stroke="midnightblue" d="M220.5,-332.1C241.61,-322.01 270.36,-308.27 288.68,-299.52"/>
<polygon fill="midnightblue" stroke="midnightblue" points="218.92,-328.97 211.41,-336.44 221.94,-335.29 218.92,-328.97"/>
</g>
<!-- Node23 -->
<g id="node23" class="node">
<title>Node23</title>
<g id="a_node23"><a xlink:href="spec_2packet_8h.html" target="_top" xlink:title=" ">
<polygon fill="white" stroke="black" points="572.5,-168.5 572.5,-187.5 630.5,-187.5 630.5,-168.5 572.5,-168.5"/>
<text text-anchor="middle" x="601.5" y="-175.5" font-family="Helvetica,sans-Serif" font-size="10.00">packet.h</text>
</a>
</g>
</g>
<!-- Node12&#45;&gt;Node23 -->
<g id="edge24" class="edge">
<title>Node12&#45;&gt;Node23</title>
<path fill="none" stroke="midnightblue" d="M238.54,-333.93C268.74,-325.91 309.13,-314.05 343.5,-300 361.17,-292.78 364.38,-288.43 381.5,-280 419.87,-261.11 536.25,-208.43 582.38,-187.62"/>
<polygon fill="midnightblue" stroke="midnightblue" points="237.5,-330.58 228.71,-336.49 239.27,-337.35 237.5,-330.58"/>
</g>
<!-- Node12&#45;&gt;Node26 -->
<g id="edge27" class="edge">
<title>Node12&#45;&gt;Node26</title>
<path fill="none" stroke="midnightblue" d="M242.92,-334.28C289.98,-324.08 359.87,-308.92 403.23,-299.52"/>
<polygon fill="midnightblue" stroke="midnightblue" points="241.99,-330.9 232.95,-336.44 243.47,-337.74 241.99,-330.9"/>
</g>
<!-- Node30 -->
<g id="node30" class="node">
<title>Node30</title>
<g id="a_node30"><a xlink:href="spec_2pool_8h.html" target="_top" xlink:title=" ">
<polygon fill="white" stroke="black" points="104,-280.5 104,-299.5 151,-299.5 151,-280.5 104,-280.5"/>
<text text-anchor="middle" x="127.5" y="-287.5" font-family="Helvetica,sans-Serif" font-size="10.00">pool.h</text>
</a>
</g>
</g>
<!-- Node12&#45;&gt;Node30 -->
<g id="edge36" class="edge">
<title>Node12&#45;&gt;Node30</title>
<path fill="none" stroke="midnightblue" d="M174.95,-329.82C163.12,-320.15 148.21,-307.95 138.3,-299.83"/>
<polygon fill="midnightblue" stroke="midnightblue" points="172.94,-332.7 182.9,-336.32 177.37,-327.28 172.94,-332.7"/>
</g>
<!-- Node12&#45;&gt;Node33 -->
<g id="edge39" class="edge">
<title>Node12&#45;&gt;Node33</title>
<path fill="none" stroke="midnightblue" d="M243.31,-338.46C331.46,-326.87 511.96,-303.16 578.83,-294.37"/>
<polygon fill="midnightblue" stroke="midnightblue" points="242.74,-335 233.28,-339.77 243.65,-341.94 242.74,-335"/>
</g>
<!-- Node14 -->
<g id="node14" class="node">
<title>Node14</title>
<g id="a_node14"><a xlink:href="buffer_8h.html" target="_top" xlink:title=" ">
<polygon fill="white" stroke="black" points="169,-224.5 169,-243.5 222,-243.5 222,-224.5 169,-224.5"/>
<text text-anchor="middle" x="195.5" y="-231.5" font-family="Helvetica,sans-Serif" font-size="10.00">buffer.h</text>
</a>
</g>
</g>
<!-- Node13&#45;&gt;Node14 -->
<g id="edge13" class="edge">
<title>Node13&#45;&gt;Node14</title>
<path fill="none" stroke="midnightblue" d="M195.5,-269.8C195.5,-260.91 195.5,-250.78 195.5,-243.75"/>
<polygon fill="midnightblue" stroke="midnightblue" points="192,-270.08 195.5,-280.08 199,-270.08 192,-270.08"/>
</g>
<!-- Node16 -->
<g id="node16" class="node">
<title>Node16</title>
<g id="a_node16"><a xlink:href="classification_8h.html" target="_top" xlink:title=" ">
<polygon fill="white" stroke="black" points="427,-112.5 427,-131.5 516,-131.5 516,-112.5 427,-112.5"/>
<text text-anchor="middle" x="471.5" y="-119.5" font-family="Helvetica,sans-Serif" font-size="10.00">classification.h</text>
</a>
</g>
</g>
<!-- Node15&#45;&gt;Node16 -->
<g id="edge15" class="edge">
<title>Node15&#45;&gt;Node16</title>
<path fill="none" stroke="midnightblue" d="M330.83,-165.44C364.58,-155.26 412.95,-140.66 443.27,-131.52"/>
<polygon fill="midnightblue" stroke="midnightblue" points="329.43,-162.2 320.86,-168.44 331.45,-168.91 329.43,-162.2"/>
</g>
<!-- Node17 -->
<g id="node17" class="node">
<title>Node17</title>
<g id="a_node17"><a xlink:href="spec_2ipsec_8h.html" target="_top" xlink:title=" ">
<polygon fill="white" stroke="black" points="338,-56.5 338,-75.5 389,-75.5 389,-56.5 338,-56.5"/>
<text text-anchor="middle" x="363.5" y="-63.5" font-family="Helvetica,sans-Serif" font-size="10.00">ipsec.h</text>
</a>
</g>
</g>
<!-- Node16&#45;&gt;Node17 -->
<g id="edge16" class="edge">
<title>Node16&#45;&gt;Node17</title>
<path fill="none" stroke="midnightblue" d="M444.95,-107.73C424.95,-97.73 398.11,-84.31 380.81,-75.65"/>
<polygon fill="midnightblue" stroke="midnightblue" points="443.64,-110.98 454.15,-112.32 446.77,-104.72 443.64,-110.98"/>
</g>
<!-- Node16&#45;&gt;Node19 -->
<g id="edge18" class="edge">
<title>Node16&#45;&gt;Node19</title>
<path fill="none" stroke="midnightblue" d="M514.12,-109.83C553.01,-99.63 609.66,-84.78 645.01,-75.52"/>
<polygon fill="midnightblue" stroke="midnightblue" points="512.93,-106.52 504.14,-112.44 514.7,-113.29 512.93,-106.52"/>
</g>
<!-- Node18 -->
<g id="node18" class="node">
<title>Node18</title>
<g id="a_node18"><a xlink:href="ipsec_8h.html" target="_top" xlink:title=" ">
<polygon fill="white" stroke="black" points="338,-0.5 338,-19.5 389,-19.5 389,-0.5 338,-0.5"/>
<text text-anchor="middle" x="363.5" y="-7.5" font-family="Helvetica,sans-Serif" font-size="10.00">ipsec.h</text>
</a>
</g>
</g>
<!-- Node17&#45;&gt;Node18 -->
<g id="edge17" class="edge">
<title>Node17&#45;&gt;Node18</title>
<path fill="none" stroke="midnightblue" d="M363.5,-45.8C363.5,-36.91 363.5,-26.78 363.5,-19.75"/>
<polygon fill="midnightblue" stroke="midnightblue" points="360,-46.08 363.5,-56.08 367,-46.08 360,-46.08"/>
</g>
<!-- Node20 -->
<g id="node20" class="node">
<title>Node20</title>
<g id="a_node20"><a xlink:href="packet__io_8h.html" target="_top" xlink:title=" ">
<polygon fill="white" stroke="black" points="641.5,-0.5 641.5,-19.5 713.5,-19.5 713.5,-0.5 641.5,-0.5"/>
<text text-anchor="middle" x="677.5" y="-7.5" font-family="Helvetica,sans-Serif" font-size="10.00">packet_io.h</text>
</a>
</g>
</g>
<!-- Node19&#45;&gt;Node20 -->
<g id="edge19" class="edge">
<title>Node19&#45;&gt;Node20</title>
<path fill="none" stroke="midnightblue" d="M677.5,-45.8C677.5,-36.91 677.5,-26.78 677.5,-19.75"/>
<polygon fill="midnightblue" stroke="midnightblue" points="674,-46.08 677.5,-56.08 681,-46.08 674,-46.08"/>
</g>
<!-- Node22 -->
<g id="node22" class="node">
<title>Node22</title>
<g id="a_node22"><a xlink:href="crypto_8h.html" target="_top" xlink:title=" ">
<polygon fill="white" stroke="black" points="205.5,-112.5 205.5,-131.5 261.5,-131.5 261.5,-112.5 205.5,-112.5"/>
<text text-anchor="middle" x="233.5" y="-119.5" font-family="Helvetica,sans-Serif" font-size="10.00">crypto.h</text>
</a>
</g>
</g>
<!-- Node21&#45;&gt;Node22 -->
<g id="edge21" class="edge">
<title>Node21&#45;&gt;Node22</title>
<path fill="none" stroke="midnightblue" d="M291.62,-272.79C275.35,-253.97 250.06,-221.24 238.5,-188 231.81,-168.76 232.06,-144.44 232.79,-131.7"/>
<polygon fill="midnightblue" stroke="midnightblue" points="289.12,-275.25 298.37,-280.41 294.36,-270.6 289.12,-275.25"/>
</g>
<!-- Node22&#45;&gt;Node17 -->
<g id="edge22" class="edge">
<title>Node22&#45;&gt;Node17</title>
<path fill="none" stroke="midnightblue" d="M263.59,-108.5C287.96,-98.38 321.64,-84.39 343,-75.52"/>
<polygon fill="midnightblue" stroke="midnightblue" points="261.99,-105.38 254.1,-112.44 264.68,-111.84 261.99,-105.38"/>
</g>
<!-- Node24 -->
<g id="node24" class="node">
<title>Node24</title>
<g id="a_node24"><a xlink:href="packet_8h.html" target="_top" xlink:title=" ">
<polygon fill="white" stroke="black" points="572.5,-112.5 572.5,-131.5 630.5,-131.5 630.5,-112.5 572.5,-112.5"/>
<text text-anchor="middle" x="601.5" y="-119.5" font-family="Helvetica,sans-Serif" font-size="10.00">packet.h</text>
</a>
</g>
</g>
<!-- Node23&#45;&gt;Node24 -->
<g id="edge25" class="edge">
<title>Node23&#45;&gt;Node24</title>
<path fill="none" stroke="midnightblue" d="M601.5,-157.8C601.5,-148.91 601.5,-138.78 601.5,-131.75"/>
<polygon fill="midnightblue" stroke="midnightblue" points="598,-158.08 601.5,-168.08 605,-158.08 598,-158.08"/>
</g>
<!-- Node25 -->
<g id="node25" class="node">
<title>Node25</title>
<g id="a_node25"><a xlink:href="event__inlines_8h_source.html" target="_top" xlink:title=" ">
<polygon fill="white" stroke="black" points="532,-56.5 532,-75.5 623,-75.5 623,-56.5 532,-56.5"/>
<text text-anchor="middle" x="577.5" y="-63.5" font-family="Helvetica,sans-Serif" font-size="10.00">event_inlines.h</text>
</a>
</g>
</g>
<!-- Node24&#45;&gt;Node25 -->
<g id="edge26" class="edge">
<title>Node24&#45;&gt;Node25</title>
<path fill="none" stroke="midnightblue" d="M593.36,-102.69C589.32,-93.59 584.62,-83.01 581.39,-75.75"/>
<polygon fill="midnightblue" stroke="midnightblue" points="590.28,-104.37 597.54,-112.08 596.67,-101.52 590.28,-104.37"/>
</g>
<!-- Node27 -->
<g id="node27" class="node">
<title>Node27</title>
<g id="a_node27"><a xlink:href="packet__io__types_8h.html" target="_top" xlink:title=" ">
<polygon fill="white" stroke="black" points="344.5,-224.5 344.5,-243.5 448.5,-243.5 448.5,-224.5 344.5,-224.5"/>
<text text-anchor="middle" x="396.5" y="-231.5" font-family="Helvetica,sans-Serif" font-size="10.00">packet_io_types.h</text>
</a>
</g>
</g>
<!-- Node26&#45;&gt;Node27 -->
<g id="edge28" class="edge">
<title>Node26&#45;&gt;Node27</title>
<path fill="none" stroke="midnightblue" d="M428.39,-272.43C420.32,-262.97 410.54,-251.48 403.95,-243.75"/>
<polygon fill="midnightblue" stroke="midnightblue" points="425.75,-274.74 434.9,-280.08 431.08,-270.2 425.75,-274.74"/>
</g>
<!-- Node27&#45;&gt;Node15 -->
<g id="edge29" class="edge">
<title>Node27&#45;&gt;Node15</title>
<path fill="none" stroke="midnightblue" d="M370.67,-219.59C351.44,-209.61 325.76,-196.27 309.17,-187.65"/>
<polygon fill="midnightblue" stroke="midnightblue" points="369.3,-222.82 379.79,-224.32 372.53,-216.61 369.3,-222.82"/>
</g>
<!-- Node27&#45;&gt;Node17 -->
<g id="edge30" class="edge">
<title>Node27&#45;&gt;Node17</title>
<path fill="none" stroke="midnightblue" d="M420.62,-218.47C430.94,-210.83 441.88,-200.44 447.5,-188 451.16,-179.9 450.52,-176.36 447.5,-168 446.49,-165.2 391.14,-99.65 370.85,-75.68"/>
<polygon fill="midnightblue" stroke="midnightblue" points="418.49,-215.69 412.23,-224.24 422.46,-221.46 418.49,-215.69"/>
</g>
<!-- Node27&#45;&gt;Node19 -->
<g id="edge32" class="edge">
<title>Node27&#45;&gt;Node19</title>
<path fill="none" stroke="midnightblue" d="M418.45,-218.41C431.38,-209.72 447.99,-198.4 462.5,-188 508.16,-155.28 514.49,-139.45 563.5,-112 591.53,-96.3 626.16,-83.47 649.85,-75.58"/>
<polygon fill="midnightblue" stroke="midnightblue" points="416.14,-215.74 409.77,-224.21 420.03,-221.56 416.14,-215.74"/>
</g>
<!-- Node27&#45;&gt;Node23 -->
<g id="edge31" class="edge">
<title>Node27&#45;&gt;Node23</title>
<path fill="none" stroke="midnightblue" d="M438.7,-221.88C478.65,-211.36 537.56,-195.84 572.48,-186.64"/>
<polygon fill="midnightblue" stroke="midnightblue" points="437.76,-218.51 428.98,-224.44 439.54,-225.28 437.76,-218.51"/>
</g>
<!-- Node28 -->
<g id="node28" class="node">
<title>Node28</title>
<g id="a_node28"><a xlink:href="spec_2traffic__mngr_8h.html" target="_top" xlink:title=" ">
<polygon fill="white" stroke="black" points="354.5,-168.5 354.5,-187.5 438.5,-187.5 438.5,-168.5 354.5,-168.5"/>
<text text-anchor="middle" x="396.5" y="-175.5" font-family="Helvetica,sans-Serif" font-size="10.00">traffic_mngr.h</text>
</a>
</g>
</g>
<!-- Node27&#45;&gt;Node28 -->
<g id="edge33" class="edge">
<title>Node27&#45;&gt;Node28</title>
<path fill="none" stroke="midnightblue" d="M396.5,-213.8C396.5,-204.91 396.5,-194.78 396.5,-187.75"/>
<polygon fill="midnightblue" stroke="midnightblue" points="393,-214.08 396.5,-224.08 400,-214.08 393,-214.08"/>
</g>
<!-- Node29 -->
<g id="node29" class="node">
<title>Node29</title>
<g id="a_node29"><a xlink:href="traffic__mngr_8h.html" target="_top" xlink:title=" ">
<polygon fill="white" stroke="black" points="286.5,-112.5 286.5,-131.5 370.5,-131.5 370.5,-112.5 286.5,-112.5"/>
<text text-anchor="middle" x="328.5" y="-119.5" font-family="Helvetica,sans-Serif" font-size="10.00">traffic_mngr.h</text>
</a>
</g>
</g>
<!-- Node28&#45;&gt;Node29 -->
<g id="edge34" class="edge">
<title>Node28&#45;&gt;Node29</title>
<path fill="none" stroke="midnightblue" d="M377.74,-162.1C365.5,-152.38 349.94,-140.03 339.62,-131.83"/>
<polygon fill="midnightblue" stroke="midnightblue" points="375.57,-164.85 385.57,-168.32 379.92,-159.36 375.57,-164.85"/>
</g>
<!-- Node29&#45;&gt;Node17 -->
<g id="edge35" class="edge">
<title>Node29&#45;&gt;Node17</title>
<path fill="none" stroke="midnightblue" d="M339.8,-103.57C345.82,-94.27 352.97,-83.25 357.83,-75.75"/>
<polygon fill="midnightblue" stroke="midnightblue" points="336.78,-101.79 334.28,-112.08 342.66,-105.6 336.78,-101.79"/>
</g>
<!-- Node31 -->
<g id="node31" class="node">
<title>Node31</title>
<g id="a_node31"><a xlink:href="pool_8h.html" target="_top" xlink:title=" ">
<polygon fill="white" stroke="black" points="104,-224.5 104,-243.5 151,-243.5 151,-224.5 104,-224.5"/>
<text text-anchor="middle" x="127.5" y="-231.5" font-family="Helvetica,sans-Serif" font-size="10.00">pool.h</text>
</a>
</g>
</g>
<!-- Node30&#45;&gt;Node31 -->
<g id="edge37" class="edge">
<title>Node30&#45;&gt;Node31</title>
<path fill="none" stroke="midnightblue" d="M127.5,-269.8C127.5,-260.91 127.5,-250.78 127.5,-243.75"/>
<polygon fill="midnightblue" stroke="midnightblue" points="124,-270.08 127.5,-280.08 131,-270.08 124,-270.08"/>
</g>
<!-- Node32 -->
<g id="node32" class="node">
<title>Node32</title>
<g id="a_node32"><a xlink:href="packet__inlines_8h.html" target="_top" xlink:title=" ">
<polygon fill="white" stroke="black" points="54,-168.5 54,-187.5 149,-187.5 149,-168.5 54,-168.5"/>
<text text-anchor="middle" x="101.5" y="-175.5" font-family="Helvetica,sans-Serif" font-size="10.00">packet_inlines.h</text>
</a>
</g>
</g>
<!-- Node31&#45;&gt;Node32 -->
<g id="edge38" class="edge">
<title>Node31&#45;&gt;Node32</title>
<path fill="none" stroke="midnightblue" d="M118.83,-214.98C114.41,-205.82 109.25,-195.09 105.71,-187.75"/>
<polygon fill="midnightblue" stroke="midnightblue" points="115.71,-216.59 123.21,-224.08 122.02,-213.55 115.71,-216.59"/>
</g>
<!-- Node34 -->
<g id="node34" class="node">
<title>Node34</title>
<g id="a_node34"><a xlink:href="timer_8h.html" target="_top" xlink:title=" ">
<polygon fill="white" stroke="black" points="579,-224.5 579,-243.5 630,-243.5 630,-224.5 579,-224.5"/>
<text text-anchor="middle" x="604.5" y="-231.5" font-family="Helvetica,sans-Serif" font-size="10.00">timer.h</text>
</a>
</g>
</g>
<!-- Node33&#45;&gt;Node34 -->
<g id="edge40" class="edge">
<title>Node33&#45;&gt;Node34</title>
<path fill="none" stroke="midnightblue" d="M604.5,-269.8C604.5,-260.91 604.5,-250.78 604.5,-243.75"/>
<polygon fill="midnightblue" stroke="midnightblue" points="601,-270.08 604.5,-280.08 608,-270.08 601,-270.08"/>
</g>
<!-- Node36 -->
<g id="node36" class="node">
<title>Node36</title>
<g id="a_node36"><a xlink:href="packet__io__stats_8h.html" target="_top" xlink:title=" ">
<polygon fill="white" stroke="black" points="392,-336.5 392,-355.5 493,-355.5 493,-336.5 392,-336.5"/>
<text text-anchor="middle" x="442.5" y="-343.5" font-family="Helvetica,sans-Serif" font-size="10.00">packet_io_stats.h</text>
</a>
</g>
</g>
<!-- Node35&#45;&gt;Node36 -->
<g id="edge43" class="edge">
<title>Node35&#45;&gt;Node36</title>
<path fill="none" stroke="midnightblue" d="M436.65,-382.1C438.14,-373.14 439.86,-362.86 441.04,-355.75"/>
<polygon fill="midnightblue" stroke="midnightblue" points="433.18,-381.64 434.99,-392.08 440.08,-382.79 433.18,-381.64"/>
</g>
<!-- Node36&#45;&gt;Node19 -->
<g id="edge44" class="edge">
<title>Node36&#45;&gt;Node19</title>
<path fill="none" stroke="midnightblue" d="M503.52,-337.87C553.85,-330.8 620.03,-318.34 639.5,-300 661.41,-279.36 658.5,-265.1 658.5,-235 658.5,-235 658.5,-235 658.5,-177 658.5,-138.82 669.75,-94.26 674.94,-75.75"/>
<polygon fill="midnightblue" stroke="midnightblue" points="502.8,-334.44 493.37,-339.26 503.75,-341.38 502.8,-334.44"/>
</g>
<!-- Node36&#45;&gt;Node26 -->
<g id="edge45" class="edge">
<title>Node36&#45;&gt;Node26</title>
<path fill="none" stroke="midnightblue" d="M442.5,-325.8C442.5,-316.91 442.5,-306.78 442.5,-299.75"/>
<polygon fill="midnightblue" stroke="midnightblue" points="439,-326.08 442.5,-336.08 446,-326.08 439,-326.08"/>
</g>
<!-- Node38 -->
<g id="node38" class="node">
<title>Node38</title>
<g id="a_node38"><a xlink:href="packet__types_8h.html" target="_top" xlink:title=" ">
<polygon fill="white" stroke="black" points="380.5,-560.5 380.5,-579.5 470.5,-579.5 470.5,-560.5 380.5,-560.5"/>
<text text-anchor="middle" x="425.5" y="-567.5" font-family="Helvetica,sans-Serif" font-size="10.00">packet_types.h</text>
</a>
</g>
</g>
<!-- Node37&#45;&gt;Node38 -->
<g id="edge48" class="edge">
<title>Node37&#45;&gt;Node38</title>
<path fill="none" stroke="midnightblue" d="M461.82,-608.72C452.66,-599.2 441.45,-587.56 433.93,-579.75"/>
<polygon fill="midnightblue" stroke="midnightblue" points="459.46,-611.31 468.91,-616.08 464.5,-606.45 459.46,-611.31"/>
</g>
<!-- Node38&#45;&gt;Node5 -->
<g id="edge49" class="edge">
<title>Node38&#45;&gt;Node5</title>
<path fill="none" stroke="midnightblue" d="M477.36,-558.39C533.06,-547 619.39,-529.34 662.74,-520.47"/>
<polygon fill="midnightblue" stroke="midnightblue" points="476.43,-555.01 467.33,-560.44 477.83,-561.87 476.43,-555.01"/>
</g>
<!-- Node38&#45;&gt;Node7 -->
<g id="edge51" class="edge">
<title>Node38&#45;&gt;Node7</title>
<path fill="none" stroke="midnightblue" d="M370.46,-559.13C310.94,-548.45 217.49,-531.68 164.57,-522.19"/>
<polygon fill="midnightblue" stroke="midnightblue" points="369.98,-562.59 380.44,-560.92 371.21,-555.7 369.98,-562.59"/>
</g>
<!-- Node38&#45;&gt;Node19 -->
<g id="edge57" class="edge">
<title>Node38&#45;&gt;Node19</title>
<path fill="none" stroke="midnightblue" d="M480.62,-560.83C507.04,-554.52 537.61,-543.43 559.5,-524 665.8,-429.63 696.5,-377.15 696.5,-235 696.5,-235 696.5,-235 696.5,-177 696.5,-138.82 685.25,-94.26 680.06,-75.75"/>
<polygon fill="midnightblue" stroke="midnightblue" points="479.73,-557.44 470.72,-563.02 481.24,-564.28 479.73,-557.44"/>
</g>
<!-- Node38&#45;&gt;Node21 -->
<g id="edge50" class="edge">
<title>Node38&#45;&gt;Node21</title>
<path fill="none" stroke="midnightblue" d="M393.96,-556.16C358.7,-539.47 306.5,-506.7 306.5,-459 306.5,-459 306.5,-459 306.5,-401 306.5,-363.19 306.5,-318.06 306.5,-299.56"/>
<polygon fill="midnightblue" stroke="midnightblue" points="392.84,-559.5 403.4,-560.44 395.73,-553.12 392.84,-559.5"/>
</g>
<!-- Node38&#45;&gt;Node23 -->
<g id="edge54" class="edge">
<title>Node38&#45;&gt;Node23</title>
<path fill="none" stroke="midnightblue" d="M480.56,-560C502.26,-553.61 525.34,-542.67 539.5,-524 620.5,-417.2 524.15,-349.77 570.5,-224 575.68,-209.94 586.28,-196.09 593.63,-187.55"/>
<polygon fill="midnightblue" stroke="midnightblue" points="479.48,-556.67 470.73,-562.64 481.29,-563.43 479.48,-556.67"/>
</g>
<!-- Node38&#45;&gt;Node26 -->
<g id="edge58" class="edge">
<title>Node38&#45;&gt;Node26</title>
<path fill="none" stroke="midnightblue" d="M399.35,-555.42C386.86,-547.73 372.68,-537.04 363.5,-524 346.17,-499.39 344.5,-489.1 344.5,-459 344.5,-459 344.5,-459 344.5,-401 344.5,-352.66 397.92,-315.74 425.88,-299.73"/>
<polygon fill="midnightblue" stroke="midnightblue" points="397.64,-558.48 408.04,-560.48 401.16,-552.42 397.64,-558.48"/>
</g>
<!-- Node38&#45;&gt;Node32 -->
<g id="edge59" class="edge">
<title>Node38&#45;&gt;Node32</title>
<path fill="none" stroke="midnightblue" d="M388.77,-556.95C367.84,-549.2 341.65,-537.96 320.5,-524 290.99,-504.52 107.1,-333.03 94.5,-300 79.35,-260.29 92.47,-207.91 98.67,-187.58"/>
<polygon fill="midnightblue" stroke="midnightblue" points="387.69,-560.28 398.28,-560.37 390.06,-553.69 387.69,-560.28"/>
</g>
<!-- Node39 -->
<g id="node39" class="node">
<title>Node39</title>
<g id="a_node39"><a xlink:href="spec_2event_8h.html" target="_top" xlink:title=" ">
<polygon fill="white" stroke="black" points="373,-504.5 373,-523.5 426,-523.5 426,-504.5 373,-504.5"/>
<text text-anchor="middle" x="399.5" y="-511.5" font-family="Helvetica,sans-Serif" font-size="10.00">event.h</text>
</a>
</g>
</g>
<!-- Node38&#45;&gt;Node39 -->
<g id="edge52" class="edge">
<title>Node38&#45;&gt;Node39</title>
<path fill="none" stroke="midnightblue" d="M416.83,-550.98C412.41,-541.82 407.25,-531.09 403.71,-523.75"/>
<polygon fill="midnightblue" stroke="midnightblue" points="413.71,-552.59 421.21,-560.08 420.02,-549.55 413.71,-552.59"/>
</g>
<!-- Node41 -->
<g id="node41" class="node">
<title>Node41</title>
<g id="a_node41"><a xlink:href="spec_2packet__flags_8h.html" target="_top" xlink:title=" ">
<polygon fill="white" stroke="black" points="444.5,-504.5 444.5,-523.5 530.5,-523.5 530.5,-504.5 444.5,-504.5"/>
<text text-anchor="middle" x="487.5" y="-511.5" font-family="Helvetica,sans-Serif" font-size="10.00">packet_flags.h</text>
</a>
</g>
</g>
<!-- Node38&#45;&gt;Node41 -->
<g id="edge55" class="edge">
<title>Node38&#45;&gt;Node41</title>
<path fill="none" stroke="midnightblue" d="M443.25,-553.54C454.31,-543.91 468.13,-531.87 477.36,-523.83"/>
<polygon fill="midnightblue" stroke="midnightblue" points="440.7,-551.12 435.46,-560.32 445.3,-556.4 440.7,-551.12"/>
</g>
<!-- Node40 -->
<g id="node40" class="node">
<title>Node40</title>
<g id="a_node40"><a xlink:href="event_8h.html" target="_top" xlink:title=" ">
<polygon fill="white" stroke="black" points="373,-448.5 373,-467.5 426,-467.5 426,-448.5 373,-448.5"/>
<text text-anchor="middle" x="399.5" y="-455.5" font-family="Helvetica,sans-Serif" font-size="10.00">event.h</text>
</a>
</g>
</g>
<!-- Node39&#45;&gt;Node40 -->
<g id="edge53" class="edge">
<title>Node39&#45;&gt;Node40</title>
<path fill="none" stroke="midnightblue" d="M399.5,-493.8C399.5,-484.91 399.5,-474.78 399.5,-467.75"/>
<polygon fill="midnightblue" stroke="midnightblue" points="396,-494.08 399.5,-504.08 403,-494.08 396,-494.08"/>
</g>
<!-- Node42 -->
<g id="node42" class="node">
<title>Node42</title>
<g id="a_node42"><a xlink:href="packet__flags_8h.html" target="_top" xlink:title=" ">
<polygon fill="white" stroke="black" points="444.5,-448.5 444.5,-467.5 530.5,-467.5 530.5,-448.5 444.5,-448.5"/>
<text text-anchor="middle" x="487.5" y="-455.5" font-family="Helvetica,sans-Serif" font-size="10.00">packet_flags.h</text>
</a>
</g>
</g>
<!-- Node41&#45;&gt;Node42 -->
<g id="edge56" class="edge">
<title>Node41&#45;&gt;Node42</title>
<path fill="none" stroke="midnightblue" d="M487.5,-493.8C487.5,-484.91 487.5,-474.78 487.5,-467.75"/>
<polygon fill="midnightblue" stroke="midnightblue" points="484,-494.08 487.5,-504.08 491,-494.08 484,-494.08"/>
</g>
<!-- Node44 -->
<g id="node44" class="node">
<title>Node44</title>
<g id="a_node44"><a xlink:href="queue_8h.html" target="_top" xlink:title=" ">
<polygon fill="white" stroke="black" points="578.5,-560.5 578.5,-579.5 634.5,-579.5 634.5,-560.5 578.5,-560.5"/>
<text text-anchor="middle" x="606.5" y="-567.5" font-family="Helvetica,sans-Serif" font-size="10.00">queue.h</text>
</a>
</g>
</g>
<!-- Node43&#45;&gt;Node44 -->
<g id="edge61" class="edge">
<title>Node43&#45;&gt;Node44</title>
<path fill="none" stroke="midnightblue" d="M606.5,-605.8C606.5,-596.91 606.5,-586.78 606.5,-579.75"/>
<polygon fill="midnightblue" stroke="midnightblue" points="603,-606.08 606.5,-616.08 610,-606.08 603,-606.08"/>
</g>
<!-- Node46 -->
<g id="node46" class="node">
<title>Node46</title>
<g id="a_node46"><a xlink:href="schedule_8h.html" target="_top" xlink:title=" ">
<polygon fill="white" stroke="black" points="867,-560.5 867,-579.5 936,-579.5 936,-560.5 867,-560.5"/>
<text text-anchor="middle" x="901.5" y="-567.5" font-family="Helvetica,sans-Serif" font-size="10.00">schedule.h</text>
</a>
</g>
</g>
<!-- Node45&#45;&gt;Node46 -->
<g id="edge63" class="edge">
<title>Node45&#45;&gt;Node46</title>
<path fill="none" stroke="midnightblue" d="M901.5,-605.8C901.5,-596.91 901.5,-586.78 901.5,-579.75"/>
<polygon fill="midnightblue" stroke="midnightblue" points="898,-606.08 901.5,-616.08 905,-606.08 898,-606.08"/>
</g>
<!-- Node48 -->
<g id="node48" class="node">
<title>Node48</title>
<g id="a_node48"><a xlink:href="queue__inlines_8h_source.html" target="_top" xlink:title=" ">
<polygon fill="white" stroke="black" points="704,-560.5 704,-579.5 797,-579.5 797,-560.5 704,-560.5"/>
<text text-anchor="middle" x="750.5" y="-567.5" font-family="Helvetica,sans-Serif" font-size="10.00">queue_inlines.h</text>
</a>
</g>
</g>
<!-- Node47&#45;&gt;Node48 -->
<g id="edge66" class="edge">
<title>Node47&#45;&gt;Node48</title>
<path fill="none" stroke="midnightblue" d="M750.5,-605.8C750.5,-596.91 750.5,-586.78 750.5,-579.75"/>
<polygon fill="midnightblue" stroke="midnightblue" points="747,-606.08 750.5,-616.08 754,-606.08 747,-606.08"/>
</g>
</g>
</svg>
