<?xml version="1.0" encoding="UTF-8" standalone="no"?>
<!DOCTYPE svg PUBLIC "-//W3C//DTD SVG 1.1//EN"
 "http://www.w3.org/Graphics/SVG/1.1/DTD/svg11.dtd">
<!-- Generated by graphviz version 2.43.0 (0)
 -->
<!-- Title: queue_types.h Pages: 1 -->
<svg width="1128pt" height="756pt"
 viewBox="0.00 0.00 1127.50 756.00" xmlns="http://www.w3.org/2000/svg" xmlns:xlink="http://www.w3.org/1999/xlink">
<g id="graph0" class="graph" transform="scale(1 1) rotate(0) translate(4 752)">
<title>queue_types.h</title>
<polygon fill="white" stroke="transparent" points="-4,4 -4,-752 1123.5,-752 1123.5,4 -4,4"/>
<!-- Node1 -->
<g id="node1" class="node">
<title>Node1</title>
<g id="a_node1"><a xlink:title=" ">
<polygon fill="#bfbfbf" stroke="black" points="708.5,-728.5 708.5,-747.5 796.5,-747.5 796.5,-728.5 708.5,-728.5"/>
<text text-anchor="middle" x="752.5" y="-735.5" font-family="Helvetica,sans-Serif" font-size="10.00">queue_types.h</text>
</a>
</g>
</g>
<!-- Node2 -->
<g id="node2" class="node">
<title>Node2</title>
<g id="a_node2"><a xlink:href="queue__types_8h.html" target="_top" xlink:title=" ">
<polygon fill="white" stroke="black" points="708.5,-672.5 708.5,-691.5 796.5,-691.5 796.5,-672.5 708.5,-672.5"/>
<text text-anchor="middle" x="752.5" y="-679.5" font-family="Helvetica,sans-Serif" font-size="10.00">queue_types.h</text>
</a>
</g>
</g>
<!-- Node1&#45;&gt;Node2 -->
<g id="edge1" class="edge">
<title>Node1&#45;&gt;Node2</title>
<path fill="none" stroke="midnightblue" d="M752.5,-717.8C752.5,-708.91 752.5,-698.78 752.5,-691.75"/>
<polygon fill="midnightblue" stroke="midnightblue" points="749,-718.08 752.5,-728.08 756,-718.08 749,-718.08"/>
</g>
<!-- Node3 -->
<g id="node3" class="node">
<title>Node3</title>
<g id="a_node3"><a xlink:href="spec_2comp_8h.html" target="_top" xlink:title=" ">
<polygon fill="white" stroke="black" points="150,-504.5 150,-523.5 203,-523.5 203,-504.5 150,-504.5"/>
<text text-anchor="middle" x="176.5" y="-511.5" font-family="Helvetica,sans-Serif" font-size="10.00">comp.h</text>
</a>
</g>
</g>
<!-- Node2&#45;&gt;Node3 -->
<g id="edge2" class="edge">
<title>Node2&#45;&gt;Node3</title>
<path fill="none" stroke="midnightblue" d="M698.2,-680.37C592.38,-678.37 362.79,-670.13 292.5,-636 238.31,-609.69 195.91,-546.82 181.67,-523.71"/>
<polygon fill="midnightblue" stroke="midnightblue" points="698.29,-683.87 708.35,-680.54 698.41,-676.87 698.29,-683.87"/>
</g>
<!-- Node5 -->
<g id="node5" class="node">
<title>Node5</title>
<g id="a_node5"><a xlink:href="spec_2dma__types_8h.html" target="_top" xlink:title=" ">
<polygon fill="white" stroke="black" points="221.5,-504.5 221.5,-523.5 301.5,-523.5 301.5,-504.5 221.5,-504.5"/>
<text text-anchor="middle" x="261.5" y="-511.5" font-family="Helvetica,sans-Serif" font-size="10.00">dma_types.h</text>
</a>
</g>
</g>
<!-- Node2&#45;&gt;Node5 -->
<g id="edge4" class="edge">
<title>Node2&#45;&gt;Node5</title>
<path fill="none" stroke="midnightblue" d="M698.24,-678.43C588.05,-672.79 345.91,-658.02 315.5,-636 276.93,-608.07 265.43,-546.19 262.44,-523.53"/>
<polygon fill="midnightblue" stroke="midnightblue" points="698.32,-681.94 708.48,-678.95 698.67,-674.95 698.32,-681.94"/>
</g>
<!-- Node17 -->
<g id="node17" class="node">
<title>Node17</title>
<g id="a_node17"><a xlink:href="spec_2packet__io_8h.html" target="_top" xlink:title=" ">
<polygon fill="white" stroke="black" points="636.5,-56.5 636.5,-75.5 708.5,-75.5 708.5,-56.5 636.5,-56.5"/>
<text text-anchor="middle" x="672.5" y="-63.5" font-family="Helvetica,sans-Serif" font-size="10.00">packet_io.h</text>
</a>
</g>
</g>
<!-- Node2&#45;&gt;Node17 -->
<g id="edge39" class="edge">
<title>Node2&#45;&gt;Node17</title>
<path fill="none" stroke="midnightblue" d="M765.27,-664.06C770.78,-655.96 776.79,-645.89 780.5,-636 826.21,-514.16 827.5,-477.13 827.5,-347 827.5,-347 827.5,-347 827.5,-177 827.5,-119.09 754.65,-88.88 708.84,-75.61"/>
<polygon fill="midnightblue" stroke="midnightblue" points="762.39,-662.08 759.42,-672.25 768.08,-666.14 762.39,-662.08"/>
</g>
<!-- Node24 -->
<g id="node24" class="node">
<title>Node24</title>
<g id="a_node24"><a xlink:href="spec_2packet__io__types_8h.html" target="_top" xlink:title=" ">
<polygon fill="white" stroke="black" points="353.5,-280.5 353.5,-299.5 457.5,-299.5 457.5,-280.5 353.5,-280.5"/>
<text text-anchor="middle" x="405.5" y="-287.5" font-family="Helvetica,sans-Serif" font-size="10.00">packet_io_types.h</text>
</a>
</g>
</g>
<!-- Node2&#45;&gt;Node24 -->
<g id="edge44" class="edge">
<title>Node2&#45;&gt;Node24</title>
<path fill="none" stroke="midnightblue" d="M698.16,-678.25C583.95,-670.98 329.5,-646.33 329.5,-571 329.5,-571 329.5,-571 329.5,-401 329.5,-356.2 372.7,-316.43 393.96,-299.57"/>
<polygon fill="midnightblue" stroke="midnightblue" points="698.23,-681.76 708.43,-678.88 698.66,-674.77 698.23,-681.76"/>
</g>
<!-- Node31 -->
<g id="node31" class="node">
<title>Node31</title>
<g id="a_node31"><a xlink:href="spec_2timer_8h.html" target="_top" xlink:title=" ">
<polygon fill="white" stroke="black" points="514,-280.5 514,-299.5 565,-299.5 565,-280.5 514,-280.5"/>
<text text-anchor="middle" x="539.5" y="-287.5" font-family="Helvetica,sans-Serif" font-size="10.00">timer.h</text>
</a>
</g>
</g>
<!-- Node2&#45;&gt;Node31 -->
<g id="edge62" class="edge">
<title>Node2&#45;&gt;Node31</title>
<path fill="none" stroke="midnightblue" d="M757.72,-662.39C763.34,-640.65 771.5,-603.51 771.5,-571 771.5,-571 771.5,-571 771.5,-513 771.5,-432.35 788.3,-393.26 731.5,-336 708.35,-312.67 611.93,-299.02 565.16,-293.66"/>
<polygon fill="midnightblue" stroke="midnightblue" points="754.28,-661.68 755.06,-672.25 761.04,-663.5 754.28,-661.68"/>
</g>
<!-- Node33 -->
<g id="node33" class="node">
<title>Node33</title>
<g id="a_node33"><a xlink:href="spec_2packet__io__stats_8h.html" target="_top" xlink:title=" ">
<polygon fill="white" stroke="black" points="622,-392.5 622,-411.5 723,-411.5 723,-392.5 622,-392.5"/>
<text text-anchor="middle" x="672.5" y="-399.5" font-family="Helvetica,sans-Serif" font-size="10.00">packet_io_stats.h</text>
</a>
</g>
</g>
<!-- Node2&#45;&gt;Node33 -->
<g id="edge40" class="edge">
<title>Node2&#45;&gt;Node33</title>
<path fill="none" stroke="midnightblue" d="M747.28,-662.39C741.66,-640.65 733.5,-603.51 733.5,-571 733.5,-571 733.5,-571 733.5,-513 733.5,-470.42 698.11,-428.88 681.24,-411.51"/>
<polygon fill="midnightblue" stroke="midnightblue" points="743.96,-663.5 749.94,-672.25 750.72,-661.68 743.96,-663.5"/>
</g>
<!-- Node35 -->
<g id="node35" class="node">
<title>Node35</title>
<g id="a_node35"><a xlink:href="spec_2packet__types_8h.html" target="_top" xlink:title=" ">
<polygon fill="white" stroke="black" points="520.5,-616.5 520.5,-635.5 610.5,-635.5 610.5,-616.5 520.5,-616.5"/>
<text text-anchor="middle" x="565.5" y="-623.5" font-family="Helvetica,sans-Serif" font-size="10.00">packet_types.h</text>
</a>
</g>
</g>
<!-- Node2&#45;&gt;Node35 -->
<g id="edge45" class="edge">
<title>Node2&#45;&gt;Node35</title>
<path fill="none" stroke="midnightblue" d="M712.91,-669.57C677.63,-659.38 626.81,-644.7 594.99,-635.52"/>
<polygon fill="midnightblue" stroke="midnightblue" points="712.29,-673.03 722.87,-672.44 714.23,-666.31 712.29,-673.03"/>
</g>
<!-- Node41 -->
<g id="node41" class="node">
<title>Node41</title>
<g id="a_node41"><a xlink:href="spec_2queue_8h.html" target="_top" xlink:title=" ">
<polygon fill="white" stroke="black" points="837.5,-616.5 837.5,-635.5 893.5,-635.5 893.5,-616.5 837.5,-616.5"/>
<text text-anchor="middle" x="865.5" y="-623.5" font-family="Helvetica,sans-Serif" font-size="10.00">queue.h</text>
</a>
</g>
</g>
<!-- Node2&#45;&gt;Node41 -->
<g id="edge58" class="edge">
<title>Node2&#45;&gt;Node41</title>
<path fill="none" stroke="midnightblue" d="M779.5,-668.1C800.61,-658.01 829.36,-644.27 847.68,-635.52"/>
<polygon fill="midnightblue" stroke="midnightblue" points="777.92,-664.97 770.41,-672.44 780.94,-671.29 777.92,-664.97"/>
</g>
<!-- Node43 -->
<g id="node43" class="node">
<title>Node43</title>
<g id="a_node43"><a xlink:href="spec_2schedule_8h.html" target="_top" xlink:title=" ">
<polygon fill="white" stroke="black" points="912,-616.5 912,-635.5 981,-635.5 981,-616.5 912,-616.5"/>
<text text-anchor="middle" x="946.5" y="-623.5" font-family="Helvetica,sans-Serif" font-size="10.00">schedule.h</text>
</a>
</g>
</g>
<!-- Node2&#45;&gt;Node43 -->
<g id="edge60" class="edge">
<title>Node2&#45;&gt;Node43</title>
<path fill="none" stroke="midnightblue" d="M793.1,-669.7C829.72,-659.51 882.76,-644.74 915.9,-635.52"/>
<polygon fill="midnightblue" stroke="midnightblue" points="791.94,-666.39 783.24,-672.44 793.81,-673.13 791.94,-666.39"/>
</g>
<!-- Node45 -->
<g id="node45" class="node">
<title>Node45</title>
<g id="a_node45"><a xlink:href="queue__inline__types_8h_source.html" target="_top" xlink:title=" ">
<polygon fill="white" stroke="black" points="999.5,-616.5 999.5,-635.5 1119.5,-635.5 1119.5,-616.5 999.5,-616.5"/>
<text text-anchor="middle" x="1059.5" y="-623.5" font-family="Helvetica,sans-Serif" font-size="10.00">queue_inline_types.h</text>
</a>
</g>
</g>
<!-- Node2&#45;&gt;Node45 -->
<g id="edge63" class="edge">
<title>Node2&#45;&gt;Node45</title>
<path fill="none" stroke="midnightblue" d="M806.88,-671.44C864.8,-661.25 955.64,-645.27 1011.15,-635.5"/>
<polygon fill="midnightblue" stroke="midnightblue" points="806.06,-668.03 796.81,-673.21 807.27,-674.92 806.06,-668.03"/>
</g>
<!-- Node4 -->
<g id="node4" class="node">
<title>Node4</title>
<g id="a_node4"><a xlink:href="comp_8h.html" target="_top" xlink:title=" ">
<polygon fill="white" stroke="black" points="112,-448.5 112,-467.5 165,-467.5 165,-448.5 112,-448.5"/>
<text text-anchor="middle" x="138.5" y="-455.5" font-family="Helvetica,sans-Serif" font-size="10.00">comp.h</text>
</a>
</g>
</g>
<!-- Node3&#45;&gt;Node4 -->
<g id="edge3" class="edge">
<title>Node3&#45;&gt;Node4</title>
<path fill="none" stroke="midnightblue" d="M164.44,-495.86C157.86,-486.5 149.99,-475.33 144.66,-467.75"/>
<polygon fill="midnightblue" stroke="midnightblue" points="161.61,-497.92 170.23,-504.08 167.33,-493.89 161.61,-497.92"/>
</g>
<!-- Node6 -->
<g id="node6" class="node">
<title>Node6</title>
<g id="a_node6"><a xlink:href="dma__types_8h.html" target="_top" xlink:title=" ">
<polygon fill="white" stroke="black" points="183.5,-448.5 183.5,-467.5 263.5,-467.5 263.5,-448.5 183.5,-448.5"/>
<text text-anchor="middle" x="223.5" y="-455.5" font-family="Helvetica,sans-Serif" font-size="10.00">dma_types.h</text>
</a>
</g>
</g>
<!-- Node5&#45;&gt;Node6 -->
<g id="edge5" class="edge">
<title>Node5&#45;&gt;Node6</title>
<path fill="none" stroke="midnightblue" d="M249.44,-495.86C242.86,-486.5 234.99,-475.33 229.66,-467.75"/>
<polygon fill="midnightblue" stroke="midnightblue" points="246.61,-497.92 255.23,-504.08 252.33,-493.89 246.61,-497.92"/>
</g>
<!-- Node7 -->
<g id="node7" class="node">
<title>Node7</title>
<g id="a_node7"><a xlink:href="spec_2dma_8h.html" target="_top" xlink:title=" ">
<polygon fill="white" stroke="black" points="0,-280.5 0,-299.5 47,-299.5 47,-280.5 0,-280.5"/>
<text text-anchor="middle" x="23.5" y="-287.5" font-family="Helvetica,sans-Serif" font-size="10.00">dma.h</text>
</a>
</g>
</g>
<!-- Node6&#45;&gt;Node7 -->
<g id="edge6" class="edge">
<title>Node6&#45;&gt;Node7</title>
<path fill="none" stroke="midnightblue" d="M205.19,-441.8C164.17,-407.75 65.99,-326.27 33.87,-299.61"/>
<polygon fill="midnightblue" stroke="midnightblue" points="203.1,-444.62 213.03,-448.31 207.57,-439.23 203.1,-444.62"/>
</g>
<!-- Node9 -->
<g id="node9" class="node">
<title>Node9</title>
<g id="a_node9"><a xlink:href="spec_2pool__types_8h.html" target="_top" xlink:title=" ">
<polygon fill="white" stroke="black" points="221,-392.5 221,-411.5 300,-411.5 300,-392.5 221,-392.5"/>
<text text-anchor="middle" x="260.5" y="-399.5" font-family="Helvetica,sans-Serif" font-size="10.00">pool_types.h</text>
</a>
</g>
</g>
<!-- Node6&#45;&gt;Node9 -->
<g id="edge8" class="edge">
<title>Node6&#45;&gt;Node9</title>
<path fill="none" stroke="midnightblue" d="M235.45,-439.57C241.81,-430.27 249.37,-419.25 254.5,-411.75"/>
<polygon fill="midnightblue" stroke="midnightblue" points="232.37,-437.86 229.61,-448.08 238.15,-441.81 232.37,-437.86"/>
</g>
<!-- Node8 -->
<g id="node8" class="node">
<title>Node8</title>
<g id="a_node8"><a xlink:href="dma_8h.html" target="_top" xlink:title=" ">
<polygon fill="white" stroke="black" points="0,-224.5 0,-243.5 47,-243.5 47,-224.5 0,-224.5"/>
<text text-anchor="middle" x="23.5" y="-231.5" font-family="Helvetica,sans-Serif" font-size="10.00">dma.h</text>
</a>
</g>
</g>
<!-- Node7&#45;&gt;Node8 -->
<g id="edge7" class="edge">
<title>Node7&#45;&gt;Node8</title>
<path fill="none" stroke="midnightblue" d="M23.5,-269.8C23.5,-260.91 23.5,-250.78 23.5,-243.75"/>
<polygon fill="midnightblue" stroke="midnightblue" points="20,-270.08 23.5,-280.08 27,-270.08 20,-270.08"/>
</g>
<!-- Node10 -->
<g id="node10" class="node">
<title>Node10</title>
<g id="a_node10"><a xlink:href="pool__types_8h.html" target="_top" xlink:title=" ">
<polygon fill="white" stroke="black" points="221,-336.5 221,-355.5 300,-355.5 300,-336.5 221,-336.5"/>
<text text-anchor="middle" x="260.5" y="-343.5" font-family="Helvetica,sans-Serif" font-size="10.00">pool_types.h</text>
</a>
</g>
</g>
<!-- Node9&#45;&gt;Node10 -->
<g id="edge9" class="edge">
<title>Node9&#45;&gt;Node10</title>
<path fill="none" stroke="midnightblue" d="M260.5,-381.8C260.5,-372.91 260.5,-362.78 260.5,-355.75"/>
<polygon fill="midnightblue" stroke="midnightblue" points="257,-382.08 260.5,-392.08 264,-382.08 257,-382.08"/>
</g>
<!-- Node10&#45;&gt;Node7 -->
<g id="edge21" class="edge">
<title>Node10&#45;&gt;Node7</title>
<path fill="none" stroke="midnightblue" d="M211.04,-334.8C169.63,-326.09 109.04,-312.95 56.5,-300 53.5,-299.26 50.36,-298.45 47.26,-297.63"/>
<polygon fill="midnightblue" stroke="midnightblue" points="210.37,-338.24 220.88,-336.86 211.81,-331.39 210.37,-338.24"/>
</g>
<!-- Node11 -->
<g id="node11" class="node">
<title>Node11</title>
<g id="a_node11"><a xlink:href="spec_2buffer_8h.html" target="_top" xlink:title=" ">
<polygon fill="white" stroke="black" points="140,-280.5 140,-299.5 193,-299.5 193,-280.5 140,-280.5"/>
<text text-anchor="middle" x="166.5" y="-287.5" font-family="Helvetica,sans-Serif" font-size="10.00">buffer.h</text>
</a>
</g>
</g>
<!-- Node10&#45;&gt;Node11 -->
<g id="edge10" class="edge">
<title>Node10&#45;&gt;Node11</title>
<path fill="none" stroke="midnightblue" d="M236.44,-331.18C219.14,-321.24 196.35,-308.15 181.57,-299.65"/>
<polygon fill="midnightblue" stroke="midnightblue" points="234.98,-334.38 245.4,-336.32 238.47,-328.31 234.98,-334.38"/>
</g>
<!-- Node13 -->
<g id="node13" class="node">
<title>Node13</title>
<g id="a_node13"><a xlink:href="spec_2classification_8h.html" target="_top" xlink:title=" ">
<polygon fill="white" stroke="black" points="113,-168.5 113,-187.5 202,-187.5 202,-168.5 113,-168.5"/>
<text text-anchor="middle" x="157.5" y="-175.5" font-family="Helvetica,sans-Serif" font-size="10.00">classification.h</text>
</a>
</g>
</g>
<!-- Node10&#45;&gt;Node13 -->
<g id="edge12" class="edge">
<title>Node10&#45;&gt;Node13</title>
<path fill="none" stroke="midnightblue" d="M253.75,-326.77C244.19,-302.19 225.19,-257.61 201.5,-224 191.55,-209.89 177.13,-196.05 167.53,-187.53"/>
<polygon fill="midnightblue" stroke="midnightblue" points="250.54,-328.17 257.36,-336.27 257.08,-325.68 250.54,-328.17"/>
</g>
<!-- Node19 -->
<g id="node19" class="node">
<title>Node19</title>
<g id="a_node19"><a xlink:href="spec_2crypto_8h.html" target="_top" xlink:title=" ">
<polygon fill="white" stroke="black" points="65.5,-280.5 65.5,-299.5 121.5,-299.5 121.5,-280.5 65.5,-280.5"/>
<text text-anchor="middle" x="93.5" y="-287.5" font-family="Helvetica,sans-Serif" font-size="10.00">crypto.h</text>
</a>
</g>
</g>
<!-- Node10&#45;&gt;Node19 -->
<g id="edge18" class="edge">
<title>Node10&#45;&gt;Node19</title>
<path fill="none" stroke="midnightblue" d="M224.33,-333.3C192.86,-323.13 148.01,-308.62 119.84,-299.52"/>
<polygon fill="midnightblue" stroke="midnightblue" points="223.45,-336.7 234.04,-336.44 225.6,-330.04 223.45,-336.7"/>
</g>
<!-- Node21 -->
<g id="node21" class="node">
<title>Node21</title>
<g id="a_node21"><a xlink:href="spec_2packet_8h.html" target="_top" xlink:title=" ">
<polygon fill="white" stroke="black" points="469.5,-168.5 469.5,-187.5 527.5,-187.5 527.5,-168.5 469.5,-168.5"/>
<text text-anchor="middle" x="498.5" y="-175.5" font-family="Helvetica,sans-Serif" font-size="10.00">packet.h</text>
</a>
</g>
</g>
<!-- Node10&#45;&gt;Node21 -->
<g id="edge22" class="edge">
<title>Node10&#45;&gt;Node21</title>
<path fill="none" stroke="midnightblue" d="M261.41,-326.2C263.03,-311.99 267.32,-292.8 278.5,-280 305.22,-249.41 325.83,-261.47 362.5,-244 379.73,-235.79 383.38,-232.43 400.5,-224 427.37,-210.77 458.94,-196.5 478.83,-187.66"/>
<polygon fill="midnightblue" stroke="midnightblue" points="257.91,-326.07 260.61,-336.32 264.89,-326.63 257.91,-326.07"/>
</g>
<!-- Node10&#45;&gt;Node24 -->
<g id="edge25" class="edge">
<title>Node10&#45;&gt;Node24</title>
<path fill="none" stroke="midnightblue" d="M292.98,-332.91C320.24,-322.75 358.49,-308.51 382.63,-299.52"/>
<polygon fill="midnightblue" stroke="midnightblue" points="291.63,-329.67 283.48,-336.44 294.07,-336.23 291.63,-329.67"/>
</g>
<!-- Node28 -->
<g id="node28" class="node">
<title>Node28</title>
<g id="a_node28"><a xlink:href="spec_2pool_8h.html" target="_top" xlink:title=" ">
<polygon fill="white" stroke="black" points="288,-280.5 288,-299.5 335,-299.5 335,-280.5 288,-280.5"/>
<text text-anchor="middle" x="311.5" y="-287.5" font-family="Helvetica,sans-Serif" font-size="10.00">pool.h</text>
</a>
</g>
</g>
<!-- Node10&#45;&gt;Node28 -->
<g id="edge34" class="edge">
<title>Node10&#45;&gt;Node28</title>
<path fill="none" stroke="midnightblue" d="M275.88,-328.72C284.87,-319.2 295.86,-307.56 303.24,-299.75"/>
<polygon fill="midnightblue" stroke="midnightblue" points="273.24,-326.41 268.92,-336.08 278.33,-331.22 273.24,-326.41"/>
</g>
<!-- Node10&#45;&gt;Node31 -->
<g id="edge37" class="edge">
<title>Node10&#45;&gt;Node31</title>
<path fill="none" stroke="midnightblue" d="M310.12,-335.4C369.73,-323.86 467.46,-304.94 513.7,-295.99"/>
<polygon fill="midnightblue" stroke="midnightblue" points="309.33,-331.98 300.18,-337.32 310.66,-338.86 309.33,-331.98"/>
</g>
<!-- Node12 -->
<g id="node12" class="node">
<title>Node12</title>
<g id="a_node12"><a xlink:href="buffer_8h.html" target="_top" xlink:title=" ">
<polygon fill="white" stroke="black" points="140,-224.5 140,-243.5 193,-243.5 193,-224.5 140,-224.5"/>
<text text-anchor="middle" x="166.5" y="-231.5" font-family="Helvetica,sans-Serif" font-size="10.00">buffer.h</text>
</a>
</g>
</g>
<!-- Node11&#45;&gt;Node12 -->
<g id="edge11" class="edge">
<title>Node11&#45;&gt;Node12</title>
<path fill="none" stroke="midnightblue" d="M166.5,-269.8C166.5,-260.91 166.5,-250.78 166.5,-243.75"/>
<polygon fill="midnightblue" stroke="midnightblue" points="163,-270.08 166.5,-280.08 170,-270.08 163,-270.08"/>
</g>
<!-- Node14 -->
<g id="node14" class="node">
<title>Node14</title>
<g id="a_node14"><a xlink:href="classification_8h.html" target="_top" xlink:title=" ">
<polygon fill="white" stroke="black" points="342,-112.5 342,-131.5 431,-131.5 431,-112.5 342,-112.5"/>
<text text-anchor="middle" x="386.5" y="-119.5" font-family="Helvetica,sans-Serif" font-size="10.00">classification.h</text>
</a>
</g>
</g>
<!-- Node13&#45;&gt;Node14 -->
<g id="edge13" class="edge">
<title>Node13&#45;&gt;Node14</title>
<path fill="none" stroke="midnightblue" d="M203.77,-166.09C247.04,-155.89 310.76,-140.86 350.38,-131.52"/>
<polygon fill="midnightblue" stroke="midnightblue" points="202.72,-162.74 193.79,-168.44 204.32,-169.55 202.72,-162.74"/>
</g>
<!-- Node15 -->
<g id="node15" class="node">
<title>Node15</title>
<g id="a_node15"><a xlink:href="spec_2ipsec_8h.html" target="_top" xlink:title=" ">
<polygon fill="white" stroke="black" points="253,-56.5 253,-75.5 304,-75.5 304,-56.5 253,-56.5"/>
<text text-anchor="middle" x="278.5" y="-63.5" font-family="Helvetica,sans-Serif" font-size="10.00">ipsec.h</text>
</a>
</g>
</g>
<!-- Node14&#45;&gt;Node15 -->
<g id="edge14" class="edge">
<title>Node14&#45;&gt;Node15</title>
<path fill="none" stroke="midnightblue" d="M359.95,-107.73C339.95,-97.73 313.11,-84.31 295.81,-75.65"/>
<polygon fill="midnightblue" stroke="midnightblue" points="358.64,-110.98 369.15,-112.32 361.77,-104.72 358.64,-110.98"/>
</g>
<!-- Node14&#45;&gt;Node17 -->
<g id="edge16" class="edge">
<title>Node14&#45;&gt;Node17</title>
<path fill="none" stroke="midnightblue" d="M441.17,-110.68C498.52,-99.85 587.03,-83.14 636.28,-73.84"/>
<polygon fill="midnightblue" stroke="midnightblue" points="440.36,-107.27 431.19,-112.56 441.66,-114.15 440.36,-107.27"/>
</g>
<!-- Node16 -->
<g id="node16" class="node">
<title>Node16</title>
<g id="a_node16"><a xlink:href="ipsec_8h.html" target="_top" xlink:title=" ">
<polygon fill="white" stroke="black" points="253,-0.5 253,-19.5 304,-19.5 304,-0.5 253,-0.5"/>
<text text-anchor="middle" x="278.5" y="-7.5" font-family="Helvetica,sans-Serif" font-size="10.00">ipsec.h</text>
</a>
</g>
</g>
<!-- Node15&#45;&gt;Node16 -->
<g id="edge15" class="edge">
<title>Node15&#45;&gt;Node16</title>
<path fill="none" stroke="midnightblue" d="M278.5,-45.8C278.5,-36.91 278.5,-26.78 278.5,-19.75"/>
<polygon fill="midnightblue" stroke="midnightblue" points="275,-46.08 278.5,-56.08 282,-46.08 275,-46.08"/>
</g>
<!-- Node18 -->
<g id="node18" class="node">
<title>Node18</title>
<g id="a_node18"><a xlink:href="packet__io_8h.html" target="_top" xlink:title=" ">
<polygon fill="white" stroke="black" points="636.5,-0.5 636.5,-19.5 708.5,-19.5 708.5,-0.5 636.5,-0.5"/>
<text text-anchor="middle" x="672.5" y="-7.5" font-family="Helvetica,sans-Serif" font-size="10.00">packet_io.h</text>
</a>
</g>
</g>
<!-- Node17&#45;&gt;Node18 -->
<g id="edge17" class="edge">
<title>Node17&#45;&gt;Node18</title>
<path fill="none" stroke="midnightblue" d="M672.5,-45.8C672.5,-36.91 672.5,-26.78 672.5,-19.75"/>
<polygon fill="midnightblue" stroke="midnightblue" points="669,-46.08 672.5,-56.08 676,-46.08 669,-46.08"/>
</g>
<!-- Node20 -->
<g id="node20" class="node">
<title>Node20</title>
<g id="a_node20"><a xlink:href="crypto_8h.html" target="_top" xlink:title=" ">
<polygon fill="white" stroke="black" points="83.5,-112.5 83.5,-131.5 139.5,-131.5 139.5,-112.5 83.5,-112.5"/>
<text text-anchor="middle" x="111.5" y="-119.5" font-family="Helvetica,sans-Serif" font-size="10.00">crypto.h</text>
</a>
</g>
</g>
<!-- Node19&#45;&gt;Node20 -->
<g id="edge19" class="edge">
<title>Node19&#45;&gt;Node20</title>
<path fill="none" stroke="midnightblue" d="M94.5,-270.38C95.9,-246.58 98.81,-204.11 103.5,-168 105.16,-155.25 107.92,-140.62 109.73,-131.59"/>
<polygon fill="midnightblue" stroke="midnightblue" points="91,-270.28 93.93,-280.46 97.99,-270.67 91,-270.28"/>
</g>
<!-- Node20&#45;&gt;Node15 -->
<g id="edge20" class="edge">
<title>Node20&#45;&gt;Node15</title>
<path fill="none" stroke="midnightblue" d="M147.76,-109.28C179.53,-99 224.9,-84.33 252.98,-75.25"/>
<polygon fill="midnightblue" stroke="midnightblue" points="146.4,-106.04 137.96,-112.44 148.55,-112.7 146.4,-106.04"/>
</g>
<!-- Node22 -->
<g id="node22" class="node">
<title>Node22</title>
<g id="a_node22"><a xlink:href="packet_8h.html" target="_top" xlink:title=" ">
<polygon fill="white" stroke="black" points="487.5,-112.5 487.5,-131.5 545.5,-131.5 545.5,-112.5 487.5,-112.5"/>
<text text-anchor="middle" x="516.5" y="-119.5" font-family="Helvetica,sans-Serif" font-size="10.00">packet.h</text>
</a>
</g>
</g>
<!-- Node21&#45;&gt;Node22 -->
<g id="edge23" class="edge">
<title>Node21&#45;&gt;Node22</title>
<path fill="none" stroke="midnightblue" d="M504.7,-158.4C507.71,-149.36 511.19,-138.94 513.58,-131.75"/>
<polygon fill="midnightblue" stroke="midnightblue" points="501.31,-157.49 501.47,-168.08 507.96,-159.7 501.31,-157.49"/>
</g>
<!-- Node23 -->
<g id="node23" class="node">
<title>Node23</title>
<g id="a_node23"><a xlink:href="event__inlines_8h_source.html" target="_top" xlink:title=" ">
<polygon fill="white" stroke="black" points="471,-56.5 471,-75.5 562,-75.5 562,-56.5 471,-56.5"/>
<text text-anchor="middle" x="516.5" y="-63.5" font-family="Helvetica,sans-Serif" font-size="10.00">event_inlines.h</text>
</a>
</g>
</g>
<!-- Node22&#45;&gt;Node23 -->
<g id="edge24" class="edge">
<title>Node22&#45;&gt;Node23</title>
<path fill="none" stroke="midnightblue" d="M516.5,-101.8C516.5,-92.91 516.5,-82.78 516.5,-75.75"/>
<polygon fill="midnightblue" stroke="midnightblue" points="513,-102.08 516.5,-112.08 520,-102.08 513,-102.08"/>
</g>
<!-- Node25 -->
<g id="node25" class="node">
<title>Node25</title>
<g id="a_node25"><a xlink:href="packet__io__types_8h.html" target="_top" xlink:title=" ">
<polygon fill="white" stroke="black" points="249.5,-224.5 249.5,-243.5 353.5,-243.5 353.5,-224.5 249.5,-224.5"/>
<text text-anchor="middle" x="301.5" y="-231.5" font-family="Helvetica,sans-Serif" font-size="10.00">packet_io_types.h</text>
</a>
</g>
</g>
<!-- Node24&#45;&gt;Node25 -->
<g id="edge26" class="edge">
<title>Node24&#45;&gt;Node25</title>
<path fill="none" stroke="midnightblue" d="M379.67,-275.59C360.44,-265.61 334.76,-252.27 318.17,-243.65"/>
<polygon fill="midnightblue" stroke="midnightblue" points="378.3,-278.82 388.79,-280.32 381.53,-272.61 378.3,-278.82"/>
</g>
<!-- Node25&#45;&gt;Node13 -->
<g id="edge27" class="edge">
<title>Node25&#45;&gt;Node13</title>
<path fill="none" stroke="midnightblue" d="M269.25,-220.91C242.18,-210.75 204.18,-196.51 180.21,-187.52"/>
<polygon fill="midnightblue" stroke="midnightblue" points="268.09,-224.21 278.68,-224.44 270.55,-217.66 268.09,-224.21"/>
</g>
<!-- Node25&#45;&gt;Node15 -->
<g id="edge28" class="edge">
<title>Node25&#45;&gt;Node15</title>
<path fill="none" stroke="midnightblue" d="M307.04,-214.66C309.21,-206.57 311.43,-196.89 312.5,-188 317.72,-144.67 294.03,-95.19 283.42,-75.62"/>
<polygon fill="midnightblue" stroke="midnightblue" points="303.61,-213.91 304.23,-224.49 310.34,-215.83 303.61,-213.91"/>
</g>
<!-- Node25&#45;&gt;Node17 -->
<g id="edge30" class="edge">
<title>Node25&#45;&gt;Node17</title>
<path fill="none" stroke="midnightblue" d="M321.55,-217.89C360.48,-188.78 445.37,-126.55 478.5,-112 530.73,-89.06 596.23,-77 636.19,-71.32"/>
<polygon fill="midnightblue" stroke="midnightblue" points="319.02,-215.41 313.12,-224.21 323.22,-221.01 319.02,-215.41"/>
</g>
<!-- Node25&#45;&gt;Node21 -->
<g id="edge29" class="edge">
<title>Node25&#45;&gt;Node21</title>
<path fill="none" stroke="midnightblue" d="M342.43,-221.78C380.34,-211.39 435.77,-196.2 469.36,-186.99"/>
<polygon fill="midnightblue" stroke="midnightblue" points="341.43,-218.42 332.72,-224.44 343.28,-225.18 341.43,-218.42"/>
</g>
<!-- Node26 -->
<g id="node26" class="node">
<title>Node26</title>
<g id="a_node26"><a xlink:href="spec_2traffic__mngr_8h.html" target="_top" xlink:title=" ">
<polygon fill="white" stroke="black" points="219.5,-168.5 219.5,-187.5 303.5,-187.5 303.5,-168.5 219.5,-168.5"/>
<text text-anchor="middle" x="261.5" y="-175.5" font-family="Helvetica,sans-Serif" font-size="10.00">traffic_mngr.h</text>
</a>
</g>
</g>
<!-- Node25&#45;&gt;Node26 -->
<g id="edge31" class="edge">
<title>Node25&#45;&gt;Node26</title>
<path fill="none" stroke="midnightblue" d="M288.8,-215.86C281.87,-206.5 273.59,-195.33 267.98,-187.75"/>
<polygon fill="midnightblue" stroke="midnightblue" points="286.13,-218.13 294.89,-224.08 291.75,-213.96 286.13,-218.13"/>
</g>
<!-- Node27 -->
<g id="node27" class="node">
<title>Node27</title>
<g id="a_node27"><a xlink:href="traffic__mngr_8h.html" target="_top" xlink:title=" ">
<polygon fill="white" stroke="black" points="201.5,-112.5 201.5,-131.5 285.5,-131.5 285.5,-112.5 201.5,-112.5"/>
<text text-anchor="middle" x="243.5" y="-119.5" font-family="Helvetica,sans-Serif" font-size="10.00">traffic_mngr.h</text>
</a>
</g>
</g>
<!-- Node26&#45;&gt;Node27 -->
<g id="edge32" class="edge">
<title>Node26&#45;&gt;Node27</title>
<path fill="none" stroke="midnightblue" d="M255.3,-158.4C252.29,-149.36 248.81,-138.94 246.42,-131.75"/>
<polygon fill="midnightblue" stroke="midnightblue" points="252.04,-159.7 258.53,-168.08 258.69,-157.49 252.04,-159.7"/>
</g>
<!-- Node27&#45;&gt;Node15 -->
<g id="edge33" class="edge">
<title>Node27&#45;&gt;Node15</title>
<path fill="none" stroke="midnightblue" d="M254.8,-103.57C260.82,-94.27 267.97,-83.25 272.83,-75.75"/>
<polygon fill="midnightblue" stroke="midnightblue" points="251.78,-101.79 249.28,-112.08 257.66,-105.6 251.78,-101.79"/>
</g>
<!-- Node29 -->
<g id="node29" class="node">
<title>Node29</title>
<g id="a_node29"><a xlink:href="pool_8h.html" target="_top" xlink:title=" ">
<polygon fill="white" stroke="black" points="410,-224.5 410,-243.5 457,-243.5 457,-224.5 410,-224.5"/>
<text text-anchor="middle" x="433.5" y="-231.5" font-family="Helvetica,sans-Serif" font-size="10.00">pool.h</text>
</a>
</g>
</g>
<!-- Node28&#45;&gt;Node29 -->
<g id="edge35" class="edge">
<title>Node28&#45;&gt;Node29</title>
<path fill="none" stroke="midnightblue" d="M340.04,-276.37C362.89,-266.26 394.31,-252.35 414.26,-243.52"/>
<polygon fill="midnightblue" stroke="midnightblue" points="338.56,-273.2 330.83,-280.44 341.39,-279.6 338.56,-273.2"/>
</g>
<!-- Node30 -->
<g id="node30" class="node">
<title>Node30</title>
<g id="a_node30"><a xlink:href="packet__inlines_8h.html" target="_top" xlink:title=" ">
<polygon fill="white" stroke="black" points="546,-168.5 546,-187.5 641,-187.5 641,-168.5 546,-168.5"/>
<text text-anchor="middle" x="593.5" y="-175.5" font-family="Helvetica,sans-Serif" font-size="10.00">packet_inlines.h</text>
</a>
</g>
</g>
<!-- Node29&#45;&gt;Node30 -->
<g id="edge36" class="edge">
<title>Node29&#45;&gt;Node30</title>
<path fill="none" stroke="midnightblue" d="M466.78,-221.77C496.96,-211.58 540.8,-196.78 568.21,-187.54"/>
<polygon fill="midnightblue" stroke="midnightblue" points="465.46,-218.52 457.11,-225.03 467.7,-225.15 465.46,-218.52"/>
</g>
<!-- Node32 -->
<g id="node32" class="node">
<title>Node32</title>
<g id="a_node32"><a xlink:href="timer_8h.html" target="_top" xlink:title=" ">
<polygon fill="white" stroke="black" points="514,-224.5 514,-243.5 565,-243.5 565,-224.5 514,-224.5"/>
<text text-anchor="middle" x="539.5" y="-231.5" font-family="Helvetica,sans-Serif" font-size="10.00">timer.h</text>
</a>
</g>
</g>
<!-- Node31&#45;&gt;Node32 -->
<g id="edge38" class="edge">
<title>Node31&#45;&gt;Node32</title>
<path fill="none" stroke="midnightblue" d="M539.5,-269.8C539.5,-260.91 539.5,-250.78 539.5,-243.75"/>
<polygon fill="midnightblue" stroke="midnightblue" points="536,-270.08 539.5,-280.08 543,-270.08 536,-270.08"/>
</g>
<!-- Node34 -->
<g id="node34" class="node">
<title>Node34</title>
<g id="a_node34"><a xlink:href="packet__io__stats_8h.html" target="_top" xlink:title=" ">
<polygon fill="white" stroke="black" points="622,-336.5 622,-355.5 723,-355.5 723,-336.5 622,-336.5"/>
<text text-anchor="middle" x="672.5" y="-343.5" font-family="Helvetica,sans-Serif" font-size="10.00">packet_io_stats.h</text>
</a>
</g>
</g>
<!-- Node33&#45;&gt;Node34 -->
<g id="edge41" class="edge">
<title>Node33&#45;&gt;Node34</title>
<path fill="none" stroke="midnightblue" d="M672.5,-381.8C672.5,-372.91 672.5,-362.78 672.5,-355.75"/>
<polygon fill="midnightblue" stroke="midnightblue" points="669,-382.08 672.5,-392.08 676,-382.08 669,-382.08"/>
</g>
<!-- Node34&#45;&gt;Node17 -->
<g id="edge42" class="edge">
<title>Node34&#45;&gt;Node17</title>
<path fill="none" stroke="midnightblue" d="M672.5,-326.25C672.5,-304.36 672.5,-267.05 672.5,-235 672.5,-235 672.5,-235 672.5,-177 672.5,-139.19 672.5,-94.06 672.5,-75.56"/>
<polygon fill="midnightblue" stroke="midnightblue" points="669,-326.44 672.5,-336.44 676,-326.44 669,-326.44"/>
</g>
<!-- Node34&#45;&gt;Node24 -->
<g id="edge43" class="edge">
<title>Node34&#45;&gt;Node24</title>
<path fill="none" stroke="midnightblue" d="M620.14,-334.41C569.68,-324.2 494.3,-308.96 447.61,-299.52"/>
<polygon fill="midnightblue" stroke="midnightblue" points="619.7,-337.89 630.19,-336.44 621.09,-331.03 619.7,-337.89"/>
</g>
<!-- Node36 -->
<g id="node36" class="node">
<title>Node36</title>
<g id="a_node36"><a xlink:href="packet__types_8h.html" target="_top" xlink:title=" ">
<polygon fill="white" stroke="black" points="425.5,-560.5 425.5,-579.5 515.5,-579.5 515.5,-560.5 425.5,-560.5"/>
<text text-anchor="middle" x="470.5" y="-567.5" font-family="Helvetica,sans-Serif" font-size="10.00">packet_types.h</text>
</a>
</g>
</g>
<!-- Node35&#45;&gt;Node36 -->
<g id="edge46" class="edge">
<title>Node35&#45;&gt;Node36</title>
<path fill="none" stroke="midnightblue" d="M541.18,-611.18C523.7,-601.24 500.67,-588.15 485.73,-579.65"/>
<polygon fill="midnightblue" stroke="midnightblue" points="539.81,-614.43 550.24,-616.32 543.27,-608.34 539.81,-614.43"/>
</g>
<!-- Node36&#45;&gt;Node3 -->
<g id="edge47" class="edge">
<title>Node36&#45;&gt;Node3</title>
<path fill="none" stroke="midnightblue" d="M415.01,-560.51C362.61,-552.21 281.93,-538.71 212.5,-524 209.47,-523.36 206.32,-522.64 203.19,-521.9"/>
<polygon fill="midnightblue" stroke="midnightblue" points="414.68,-564 425.1,-562.1 415.77,-557.09 414.68,-564"/>
</g>
<!-- Node36&#45;&gt;Node5 -->
<g id="edge49" class="edge">
<title>Node36&#45;&gt;Node5</title>
<path fill="none" stroke="midnightblue" d="M427.52,-557.89C388.05,-547.7 330.4,-532.8 294.46,-523.52"/>
<polygon fill="midnightblue" stroke="midnightblue" points="426.83,-561.33 437.38,-560.44 428.58,-554.55 426.83,-561.33"/>
</g>
<!-- Node36&#45;&gt;Node17 -->
<g id="edge55" class="edge">
<title>Node36&#45;&gt;Node17</title>
<path fill="none" stroke="midnightblue" d="M525.77,-565.78C565.5,-561.21 618.84,-550.23 658.5,-524 740.13,-470.01 789.5,-444.87 789.5,-347 789.5,-347 789.5,-347 789.5,-177 789.5,-125.14 727.74,-90.57 693.96,-75.54"/>
<polygon fill="midnightblue" stroke="midnightblue" points="525.3,-562.31 515.72,-566.84 526.03,-569.28 525.3,-562.31"/>
</g>
<!-- Node36&#45;&gt;Node19 -->
<g id="edge48" class="edge">
<title>Node36&#45;&gt;Node19</title>
<path fill="none" stroke="midnightblue" d="M447.71,-554.92C410.95,-532.23 336.22,-486.27 272.5,-448 245.51,-431.79 236.26,-431.44 211.5,-412 164.65,-375.22 117.9,-320.69 100.55,-299.68"/>
<polygon fill="midnightblue" stroke="midnightblue" points="446.27,-558.14 456.62,-560.42 449.95,-552.19 446.27,-558.14"/>
</g>
<!-- Node36&#45;&gt;Node21 -->
<g id="edge52" class="edge">
<title>Node36&#45;&gt;Node21</title>
<path fill="none" stroke="midnightblue" d="M466.47,-550.57C464.89,-542.46 463.28,-532.8 462.5,-524 459.53,-490.35 460.25,-481.7 462.5,-448 469.36,-345.04 490.83,-221.38 496.89,-187.78"/>
<polygon fill="midnightblue" stroke="midnightblue" points="463.06,-551.35 468.51,-560.43 469.91,-549.93 463.06,-551.35"/>
</g>
<!-- Node36&#45;&gt;Node24 -->
<g id="edge56" class="edge">
<title>Node36&#45;&gt;Node24</title>
<path fill="none" stroke="midnightblue" d="M453.05,-552.95C445.04,-544.87 435.92,-534.57 429.5,-524 413.5,-497.69 405.5,-489.8 405.5,-459 405.5,-459 405.5,-459 405.5,-401 405.5,-363.19 405.5,-318.06 405.5,-299.56"/>
<polygon fill="midnightblue" stroke="midnightblue" points="450.92,-555.77 460.54,-560.21 455.79,-550.74 450.92,-555.77"/>
</g>
<!-- Node36&#45;&gt;Node30 -->
<g id="edge57" class="edge">
<title>Node36&#45;&gt;Node30</title>
<path fill="none" stroke="midnightblue" d="M525.71,-561.53C569.19,-554.38 624.69,-542 638.5,-524 659.06,-497.2 648.89,-480.14 638.5,-448 632.43,-429.22 621.17,-429.73 612.5,-412 599.27,-384.96 593.5,-377.1 593.5,-347 593.5,-347 593.5,-347 593.5,-289 593.5,-251.19 593.5,-206.06 593.5,-187.56"/>
<polygon fill="midnightblue" stroke="midnightblue" points="525.12,-558.08 515.8,-563.1 526.22,-564.99 525.12,-558.08"/>
</g>
<!-- Node37 -->
<g id="node37" class="node">
<title>Node37</title>
<g id="a_node37"><a xlink:href="spec_2event_8h.html" target="_top" xlink:title=" ">
<polygon fill="white" stroke="black" points="472,-504.5 472,-523.5 525,-523.5 525,-504.5 472,-504.5"/>
<text text-anchor="middle" x="498.5" y="-511.5" font-family="Helvetica,sans-Serif" font-size="10.00">event.h</text>
</a>
</g>
</g>
<!-- Node36&#45;&gt;Node37 -->
<g id="edge50" class="edge">
<title>Node36&#45;&gt;Node37</title>
<path fill="none" stroke="midnightblue" d="M479.84,-550.98C484.59,-541.82 490.16,-531.09 493.96,-523.75"/>
<polygon fill="midnightblue" stroke="midnightblue" points="476.62,-549.59 475.12,-560.08 482.83,-552.82 476.62,-549.59"/>
</g>
<!-- Node39 -->
<g id="node39" class="node">
<title>Node39</title>
<g id="a_node39"><a xlink:href="spec_2packet__flags_8h.html" target="_top" xlink:title=" ">
<polygon fill="white" stroke="black" points="543.5,-504.5 543.5,-523.5 629.5,-523.5 629.5,-504.5 543.5,-504.5"/>
<text text-anchor="middle" x="586.5" y="-511.5" font-family="Helvetica,sans-Serif" font-size="10.00">packet_flags.h</text>
</a>
</g>
</g>
<!-- Node36&#45;&gt;Node39 -->
<g id="edge53" class="edge">
<title>Node36&#45;&gt;Node39</title>
<path fill="none" stroke="midnightblue" d="M498.22,-556.1C519.89,-546.01 549.4,-532.27 568.21,-523.52"/>
<polygon fill="midnightblue" stroke="midnightblue" points="496.47,-553.05 488.88,-560.44 499.42,-559.4 496.47,-553.05"/>
</g>
<!-- Node38 -->
<g id="node38" class="node">
<title>Node38</title>
<g id="a_node38"><a xlink:href="event_8h.html" target="_top" xlink:title=" ">
<polygon fill="white" stroke="black" points="472,-448.5 472,-467.5 525,-467.5 525,-448.5 472,-448.5"/>
<text text-anchor="middle" x="498.5" y="-455.5" font-family="Helvetica,sans-Serif" font-size="10.00">event.h</text>
</a>
</g>
</g>
<!-- Node37&#45;&gt;Node38 -->
<g id="edge51" class="edge">
<title>Node37&#45;&gt;Node38</title>
<path fill="none" stroke="midnightblue" d="M498.5,-493.8C498.5,-484.91 498.5,-474.78 498.5,-467.75"/>
<polygon fill="midnightblue" stroke="midnightblue" points="495,-494.08 498.5,-504.08 502,-494.08 495,-494.08"/>
</g>
<!-- Node40 -->
<g id="node40" class="node">
<title>Node40</title>
<g id="a_node40"><a xlink:href="packet__flags_8h.html" target="_top" xlink:title=" ">
<polygon fill="white" stroke="black" points="543.5,-448.5 543.5,-467.5 629.5,-467.5 629.5,-448.5 543.5,-448.5"/>
<text text-anchor="middle" x="586.5" y="-455.5" font-family="Helvetica,sans-Serif" font-size="10.00">packet_flags.h</text>
</a>
</g>
</g>
<!-- Node39&#45;&gt;Node40 -->
<g id="edge54" class="edge">
<title>Node39&#45;&gt;Node40</title>
<path fill="none" stroke="midnightblue" d="M586.5,-493.8C586.5,-484.91 586.5,-474.78 586.5,-467.75"/>
<polygon fill="midnightblue" stroke="midnightblue" points="583,-494.08 586.5,-504.08 590,-494.08 583,-494.08"/>
</g>
<!-- Node42 -->
<g id="node42" class="node">
<title>Node42</title>
<g id="a_node42"><a xlink:href="queue_8h.html" target="_top" xlink:title=" ">
<polygon fill="white" stroke="black" points="837.5,-560.5 837.5,-579.5 893.5,-579.5 893.5,-560.5 837.5,-560.5"/>
<text text-anchor="middle" x="865.5" y="-567.5" font-family="Helvetica,sans-Serif" font-size="10.00">queue.h</text>
</a>
</g>
</g>
<!-- Node41&#45;&gt;Node42 -->
<g id="edge59" class="edge">
<title>Node41&#45;&gt;Node42</title>
<path fill="none" stroke="midnightblue" d="M865.5,-605.8C865.5,-596.91 865.5,-586.78 865.5,-579.75"/>
<polygon fill="midnightblue" stroke="midnightblue" points="862,-606.08 865.5,-616.08 869,-606.08 862,-606.08"/>
</g>
<!-- Node44 -->
<g id="node44" class="node">
<title>Node44</title>
<g id="a_node44"><a xlink:href="schedule_8h.html" target="_top" xlink:title=" ">
<polygon fill="white" stroke="black" points="912,-560.5 912,-579.5 981,-579.5 981,-560.5 912,-560.5"/>
<text text-anchor="middle" x="946.5" y="-567.5" font-family="Helvetica,sans-Serif" font-size="10.00">schedule.h</text>
</a>
</g>
</g>
<!-- Node43&#45;&gt;Node44 -->
<g id="edge61" class="edge">
<title>Node43&#45;&gt;Node44</title>
<path fill="none" stroke="midnightblue" d="M946.5,-605.8C946.5,-596.91 946.5,-586.78 946.5,-579.75"/>
<polygon fill="midnightblue" stroke="midnightblue" points="943,-606.08 946.5,-616.08 950,-606.08 943,-606.08"/>
</g>
<!-- Node46 -->
<g id="node46" class="node">
<title>Node46</title>
<g id="a_node46"><a xlink:href="queue__inlines_8h_source.html" target="_top" xlink:title=" ">
<polygon fill="white" stroke="black" points="1013,-560.5 1013,-579.5 1106,-579.5 1106,-560.5 1013,-560.5"/>
<text text-anchor="middle" x="1059.5" y="-567.5" font-family="Helvetica,sans-Serif" font-size="10.00">queue_inlines.h</text>
</a>
</g>
</g>
<!-- Node45&#45;&gt;Node46 -->
<g id="edge64" class="edge">
<title>Node45&#45;&gt;Node46</title>
<path fill="none" stroke="midnightblue" d="M1059.5,-605.8C1059.5,-596.91 1059.5,-586.78 1059.5,-579.75"/>
<polygon fill="midnightblue" stroke="midnightblue" points="1056,-606.08 1059.5,-616.08 1063,-606.08 1056,-606.08"/>
</g>
</g>
</svg>
