<?xml version="1.0" encoding="UTF-8" standalone="no"?>
<!DOCTYPE svg PUBLIC "-//W3C//DTD SVG 1.1//EN"
 "http://www.w3.org/Graphics/SVG/1.1/DTD/svg11.dtd">
<!-- Generated by graphviz version 2.43.0 (0)
 -->
<!-- Title: packet_types.h Pages: 1 -->
<svg width="860pt" height="644pt"
 viewBox="0.00 0.00 859.50 644.00" xmlns="http://www.w3.org/2000/svg" xmlns:xlink="http://www.w3.org/1999/xlink">
<g id="graph0" class="graph" transform="scale(1 1) rotate(0) translate(4 640)">
<title>packet_types.h</title>
<polygon fill="white" stroke="transparent" points="-4,4 -4,-640 855.5,-640 855.5,4 -4,4"/>
<!-- Node1 -->
<g id="node1" class="node">
<title>Node1</title>
<g id="a_node1"><a xlink:title=" ">
<polygon fill="#bfbfbf" stroke="black" points="502.5,-616.5 502.5,-635.5 592.5,-635.5 592.5,-616.5 502.5,-616.5"/>
<text text-anchor="middle" x="547.5" y="-623.5" font-family="Helvetica,sans-Serif" font-size="10.00">packet_types.h</text>
</a>
</g>
</g>
<!-- Node2 -->
<g id="node2" class="node">
<title>Node2</title>
<g id="a_node2"><a xlink:href="packet__types_8h.html" target="_top" xlink:title=" ">
<polygon fill="white" stroke="black" points="502.5,-560.5 502.5,-579.5 592.5,-579.5 592.5,-560.5 502.5,-560.5"/>
<text text-anchor="middle" x="547.5" y="-567.5" font-family="Helvetica,sans-Serif" font-size="10.00">packet_types.h</text>
</a>
</g>
</g>
<!-- Node1&#45;&gt;Node2 -->
<g id="edge1" class="edge">
<title>Node1&#45;&gt;Node2</title>
<path fill="none" stroke="midnightblue" d="M547.5,-605.8C547.5,-596.91 547.5,-586.78 547.5,-579.75"/>
<polygon fill="midnightblue" stroke="midnightblue" points="544,-606.08 547.5,-616.08 551,-606.08 544,-606.08"/>
</g>
<!-- Node3 -->
<g id="node3" class="node">
<title>Node3</title>
<g id="a_node3"><a xlink:href="spec_2comp_8h.html" target="_top" xlink:title=" ">
<polygon fill="white" stroke="black" points="0,-504.5 0,-523.5 53,-523.5 53,-504.5 0,-504.5"/>
<text text-anchor="middle" x="26.5" y="-511.5" font-family="Helvetica,sans-Serif" font-size="10.00">comp.h</text>
</a>
</g>
</g>
<!-- Node2&#45;&gt;Node3 -->
<g id="edge2" class="edge">
<title>Node2&#45;&gt;Node3</title>
<path fill="none" stroke="midnightblue" d="M492.07,-566.02C402.42,-560.7 220.23,-547.83 67.5,-524 62.89,-523.28 58.03,-522.36 53.32,-521.38"/>
<polygon fill="midnightblue" stroke="midnightblue" points="492.08,-569.52 502.27,-566.61 492.49,-562.54 492.08,-569.52"/>
</g>
<!-- Node5 -->
<g id="node5" class="node">
<title>Node5</title>
<g id="a_node5"><a xlink:href="spec_2crypto_8h.html" target="_top" xlink:title=" ">
<polygon fill="white" stroke="black" points="35.5,-280.5 35.5,-299.5 91.5,-299.5 91.5,-280.5 35.5,-280.5"/>
<text text-anchor="middle" x="63.5" y="-287.5" font-family="Helvetica,sans-Serif" font-size="10.00">crypto.h</text>
</a>
</g>
</g>
<!-- Node2&#45;&gt;Node5 -->
<g id="edge4" class="edge">
<title>Node2&#45;&gt;Node5</title>
<path fill="none" stroke="midnightblue" d="M492.43,-566.63C380.72,-561.35 135.5,-547.25 105.5,-524 81.16,-505.14 81.5,-489.8 81.5,-459 81.5,-459 81.5,-459 81.5,-401 81.5,-362.88 70.84,-318.29 65.93,-299.76"/>
<polygon fill="midnightblue" stroke="midnightblue" points="492.34,-570.13 502.49,-567.1 492.66,-563.13 492.34,-570.13"/>
</g>
<!-- Node9 -->
<g id="node9" class="node">
<title>Node9</title>
<g id="a_node9"><a xlink:href="spec_2dma__types_8h.html" target="_top" xlink:title=" ">
<polygon fill="white" stroke="black" points="411.5,-504.5 411.5,-523.5 491.5,-523.5 491.5,-504.5 411.5,-504.5"/>
<text text-anchor="middle" x="451.5" y="-511.5" font-family="Helvetica,sans-Serif" font-size="10.00">dma_types.h</text>
</a>
</g>
</g>
<!-- Node2&#45;&gt;Node9 -->
<g id="edge8" class="edge">
<title>Node2&#45;&gt;Node9</title>
<path fill="none" stroke="midnightblue" d="M522.93,-555.18C505.26,-545.24 481.99,-532.15 466.89,-523.65"/>
<polygon fill="midnightblue" stroke="midnightblue" points="521.64,-558.47 532.08,-560.32 525.08,-552.37 521.64,-558.47"/>
</g>
<!-- Node19 -->
<g id="node19" class="node">
<title>Node19</title>
<g id="a_node19"><a xlink:href="spec_2packet__io_8h.html" target="_top" xlink:title=" ">
<polygon fill="white" stroke="black" points="527.5,-56.5 527.5,-75.5 599.5,-75.5 599.5,-56.5 527.5,-56.5"/>
<text text-anchor="middle" x="563.5" y="-63.5" font-family="Helvetica,sans-Serif" font-size="10.00">packet_io.h</text>
</a>
</g>
</g>
<!-- Node2&#45;&gt;Node19 -->
<g id="edge45" class="edge">
<title>Node2&#45;&gt;Node19</title>
<path fill="none" stroke="midnightblue" d="M568.1,-554.03C591.81,-534.89 627.5,-499.38 627.5,-459 627.5,-459 627.5,-459 627.5,-345 627.5,-265.14 687.93,-242.24 658.5,-168 641.82,-125.93 598.41,-91.18 576.52,-75.69"/>
<polygon fill="midnightblue" stroke="midnightblue" points="565.76,-551.42 560,-560.31 570.05,-556.95 565.76,-551.42"/>
</g>
<!-- Node21 -->
<g id="node21" class="node">
<title>Node21</title>
<g id="a_node21"><a xlink:href="spec_2packet_8h.html" target="_top" xlink:title=" ">
<polygon fill="white" stroke="black" points="591.5,-168.5 591.5,-187.5 649.5,-187.5 649.5,-168.5 591.5,-168.5"/>
<text text-anchor="middle" x="620.5" y="-175.5" font-family="Helvetica,sans-Serif" font-size="10.00">packet.h</text>
</a>
</g>
</g>
<!-- Node2&#45;&gt;Node21 -->
<g id="edge42" class="edge">
<title>Node2&#45;&gt;Node21</title>
<path fill="none" stroke="midnightblue" d="M589.15,-556.98C607.29,-549.92 627.55,-539.3 641.5,-524 662.24,-501.24 665.5,-489.8 665.5,-459 665.5,-459 665.5,-459 665.5,-345 665.5,-282.89 635.79,-212.12 624.65,-187.77"/>
<polygon fill="midnightblue" stroke="midnightblue" points="587.82,-553.73 579.62,-560.44 590.22,-560.31 587.82,-553.73"/>
</g>
<!-- Node24 -->
<g id="node24" class="node">
<title>Node24</title>
<g id="a_node24"><a xlink:href="spec_2packet__io__types_8h.html" target="_top" xlink:title=" ">
<polygon fill="white" stroke="black" points="495.5,-280.5 495.5,-299.5 599.5,-299.5 599.5,-280.5 495.5,-280.5"/>
<text text-anchor="middle" x="547.5" y="-287.5" font-family="Helvetica,sans-Serif" font-size="10.00">packet_io_types.h</text>
</a>
</g>
</g>
<!-- Node2&#45;&gt;Node24 -->
<g id="edge46" class="edge">
<title>Node2&#45;&gt;Node24</title>
<path fill="none" stroke="midnightblue" d="M547.5,-550.25C547.5,-528.36 547.5,-491.05 547.5,-459 547.5,-459 547.5,-459 547.5,-401 547.5,-363.19 547.5,-318.06 547.5,-299.56"/>
<polygon fill="midnightblue" stroke="midnightblue" points="544,-550.44 547.5,-560.44 551,-550.44 544,-550.44"/>
</g>
<!-- Node30 -->
<g id="node30" class="node">
<title>Node30</title>
<g id="a_node30"><a xlink:href="packet__inlines_8h.html" target="_top" xlink:title=" ">
<polygon fill="white" stroke="black" points="113,-168.5 113,-187.5 208,-187.5 208,-168.5 113,-168.5"/>
<text text-anchor="middle" x="160.5" y="-175.5" font-family="Helvetica,sans-Serif" font-size="10.00">packet_inlines.h</text>
</a>
</g>
</g>
<!-- Node2&#45;&gt;Node30 -->
<g id="edge47" class="edge">
<title>Node2&#45;&gt;Node30</title>
<path fill="none" stroke="midnightblue" d="M492.01,-566.34C376.22,-559.28 119.5,-535.06 119.5,-459 119.5,-459 119.5,-459 119.5,-289 119.5,-249.05 143.53,-205.8 154.8,-187.71"/>
<polygon fill="midnightblue" stroke="midnightblue" points="491.91,-569.84 502.1,-566.94 492.32,-562.86 491.91,-569.84"/>
</g>
<!-- Node33 -->
<g id="node33" class="node">
<title>Node33</title>
<g id="a_node33"><a xlink:href="spec_2event_8h.html" target="_top" xlink:title=" ">
<polygon fill="white" stroke="black" points="694,-504.5 694,-523.5 747,-523.5 747,-504.5 694,-504.5"/>
<text text-anchor="middle" x="720.5" y="-511.5" font-family="Helvetica,sans-Serif" font-size="10.00">event.h</text>
</a>
</g>
</g>
<!-- Node2&#45;&gt;Node33 -->
<g id="edge40" class="edge">
<title>Node2&#45;&gt;Node33</title>
<path fill="none" stroke="midnightblue" d="M584.61,-557.42C617.43,-547.17 664.53,-532.47 693.78,-523.34"/>
<polygon fill="midnightblue" stroke="midnightblue" points="583.42,-554.12 574.91,-560.44 585.5,-560.8 583.42,-554.12"/>
</g>
<!-- Node35 -->
<g id="node35" class="node">
<title>Node35</title>
<g id="a_node35"><a xlink:href="spec_2packet__flags_8h.html" target="_top" xlink:title=" ">
<polygon fill="white" stroke="black" points="765.5,-504.5 765.5,-523.5 851.5,-523.5 851.5,-504.5 765.5,-504.5"/>
<text text-anchor="middle" x="808.5" y="-511.5" font-family="Helvetica,sans-Serif" font-size="10.00">packet_flags.h</text>
</a>
</g>
</g>
<!-- Node2&#45;&gt;Node35 -->
<g id="edge43" class="edge">
<title>Node2&#45;&gt;Node35</title>
<path fill="none" stroke="midnightblue" d="M598.69,-558.41C648.01,-548.2 721.69,-532.96 767.34,-523.52"/>
<polygon fill="midnightblue" stroke="midnightblue" points="597.94,-554.99 588.86,-560.44 599.36,-561.84 597.94,-554.99"/>
</g>
<!-- Node4 -->
<g id="node4" class="node">
<title>Node4</title>
<g id="a_node4"><a xlink:href="comp_8h.html" target="_top" xlink:title=" ">
<polygon fill="white" stroke="black" points="0,-448.5 0,-467.5 53,-467.5 53,-448.5 0,-448.5"/>
<text text-anchor="middle" x="26.5" y="-455.5" font-family="Helvetica,sans-Serif" font-size="10.00">comp.h</text>
</a>
</g>
</g>
<!-- Node3&#45;&gt;Node4 -->
<g id="edge3" class="edge">
<title>Node3&#45;&gt;Node4</title>
<path fill="none" stroke="midnightblue" d="M26.5,-493.8C26.5,-484.91 26.5,-474.78 26.5,-467.75"/>
<polygon fill="midnightblue" stroke="midnightblue" points="23,-494.08 26.5,-504.08 30,-494.08 23,-494.08"/>
</g>
<!-- Node6 -->
<g id="node6" class="node">
<title>Node6</title>
<g id="a_node6"><a xlink:href="crypto_8h.html" target="_top" xlink:title=" ">
<polygon fill="white" stroke="black" points="138.5,-112.5 138.5,-131.5 194.5,-131.5 194.5,-112.5 138.5,-112.5"/>
<text text-anchor="middle" x="166.5" y="-119.5" font-family="Helvetica,sans-Serif" font-size="10.00">crypto.h</text>
</a>
</g>
</g>
<!-- Node5&#45;&gt;Node6 -->
<g id="edge5" class="edge">
<title>Node5&#45;&gt;Node6</title>
<path fill="none" stroke="midnightblue" d="M66.01,-270.14C70.15,-244.81 80.4,-199.36 103.5,-168 115.38,-151.88 134.77,-139.28 148.91,-131.56"/>
<polygon fill="midnightblue" stroke="midnightblue" points="62.52,-269.83 64.51,-280.24 69.44,-270.86 62.52,-269.83"/>
</g>
<!-- Node7 -->
<g id="node7" class="node">
<title>Node7</title>
<g id="a_node7"><a xlink:href="spec_2ipsec_8h.html" target="_top" xlink:title=" ">
<polygon fill="white" stroke="black" points="361,-56.5 361,-75.5 412,-75.5 412,-56.5 361,-56.5"/>
<text text-anchor="middle" x="386.5" y="-63.5" font-family="Helvetica,sans-Serif" font-size="10.00">ipsec.h</text>
</a>
</g>
</g>
<!-- Node6&#45;&gt;Node7 -->
<g id="edge6" class="edge">
<title>Node6&#45;&gt;Node7</title>
<path fill="none" stroke="midnightblue" d="M204.71,-111.62C249.41,-100.65 322.17,-82.79 360.69,-73.34"/>
<polygon fill="midnightblue" stroke="midnightblue" points="203.69,-108.27 194.81,-114.05 205.36,-115.07 203.69,-108.27"/>
</g>
<!-- Node8 -->
<g id="node8" class="node">
<title>Node8</title>
<g id="a_node8"><a xlink:href="ipsec_8h.html" target="_top" xlink:title=" ">
<polygon fill="white" stroke="black" points="361,-0.5 361,-19.5 412,-19.5 412,-0.5 361,-0.5"/>
<text text-anchor="middle" x="386.5" y="-7.5" font-family="Helvetica,sans-Serif" font-size="10.00">ipsec.h</text>
</a>
</g>
</g>
<!-- Node7&#45;&gt;Node8 -->
<g id="edge7" class="edge">
<title>Node7&#45;&gt;Node8</title>
<path fill="none" stroke="midnightblue" d="M386.5,-45.8C386.5,-36.91 386.5,-26.78 386.5,-19.75"/>
<polygon fill="midnightblue" stroke="midnightblue" points="383,-46.08 386.5,-56.08 390,-46.08 383,-46.08"/>
</g>
<!-- Node10 -->
<g id="node10" class="node">
<title>Node10</title>
<g id="a_node10"><a xlink:href="dma__types_8h.html" target="_top" xlink:title=" ">
<polygon fill="white" stroke="black" points="383.5,-448.5 383.5,-467.5 463.5,-467.5 463.5,-448.5 383.5,-448.5"/>
<text text-anchor="middle" x="423.5" y="-455.5" font-family="Helvetica,sans-Serif" font-size="10.00">dma_types.h</text>
</a>
</g>
</g>
<!-- Node9&#45;&gt;Node10 -->
<g id="edge9" class="edge">
<title>Node9&#45;&gt;Node10</title>
<path fill="none" stroke="midnightblue" d="M442.16,-494.98C437.41,-485.82 431.84,-475.09 428.04,-467.75"/>
<polygon fill="midnightblue" stroke="midnightblue" points="439.17,-496.82 446.88,-504.08 445.38,-493.59 439.17,-496.82"/>
</g>
<!-- Node11 -->
<g id="node11" class="node">
<title>Node11</title>
<g id="a_node11"><a xlink:href="spec_2dma_8h.html" target="_top" xlink:title=" ">
<polygon fill="white" stroke="black" points="392,-280.5 392,-299.5 439,-299.5 439,-280.5 392,-280.5"/>
<text text-anchor="middle" x="415.5" y="-287.5" font-family="Helvetica,sans-Serif" font-size="10.00">dma.h</text>
</a>
</g>
</g>
<!-- Node10&#45;&gt;Node11 -->
<g id="edge10" class="edge">
<title>Node10&#45;&gt;Node11</title>
<path fill="none" stroke="midnightblue" d="M422.58,-437.93C420.85,-401.92 417.15,-325.23 415.91,-299.57"/>
<polygon fill="midnightblue" stroke="midnightblue" points="419.09,-438.26 423.07,-448.08 426.08,-437.92 419.09,-438.26"/>
</g>
<!-- Node13 -->
<g id="node13" class="node">
<title>Node13</title>
<g id="a_node13"><a xlink:href="spec_2pool__types_8h.html" target="_top" xlink:title=" ">
<polygon fill="white" stroke="black" points="316,-392.5 316,-411.5 395,-411.5 395,-392.5 316,-392.5"/>
<text text-anchor="middle" x="355.5" y="-399.5" font-family="Helvetica,sans-Serif" font-size="10.00">pool_types.h</text>
</a>
</g>
</g>
<!-- Node10&#45;&gt;Node13 -->
<g id="edge12" class="edge">
<title>Node10&#45;&gt;Node13</title>
<path fill="none" stroke="midnightblue" d="M404.74,-442.1C392.5,-432.38 376.94,-420.03 366.62,-411.83"/>
<polygon fill="midnightblue" stroke="midnightblue" points="402.57,-444.85 412.57,-448.32 406.92,-439.36 402.57,-444.85"/>
</g>
<!-- Node12 -->
<g id="node12" class="node">
<title>Node12</title>
<g id="a_node12"><a xlink:href="dma_8h.html" target="_top" xlink:title=" ">
<polygon fill="white" stroke="black" points="392,-224.5 392,-243.5 439,-243.5 439,-224.5 392,-224.5"/>
<text text-anchor="middle" x="415.5" y="-231.5" font-family="Helvetica,sans-Serif" font-size="10.00">dma.h</text>
</a>
</g>
</g>
<!-- Node11&#45;&gt;Node12 -->
<g id="edge11" class="edge">
<title>Node11&#45;&gt;Node12</title>
<path fill="none" stroke="midnightblue" d="M415.5,-269.8C415.5,-260.91 415.5,-250.78 415.5,-243.75"/>
<polygon fill="midnightblue" stroke="midnightblue" points="412,-270.08 415.5,-280.08 419,-270.08 412,-270.08"/>
</g>
<!-- Node14 -->
<g id="node14" class="node">
<title>Node14</title>
<g id="a_node14"><a xlink:href="pool__types_8h.html" target="_top" xlink:title=" ">
<polygon fill="white" stroke="black" points="316,-336.5 316,-355.5 395,-355.5 395,-336.5 316,-336.5"/>
<text text-anchor="middle" x="355.5" y="-343.5" font-family="Helvetica,sans-Serif" font-size="10.00">pool_types.h</text>
</a>
</g>
</g>
<!-- Node13&#45;&gt;Node14 -->
<g id="edge13" class="edge">
<title>Node13&#45;&gt;Node14</title>
<path fill="none" stroke="midnightblue" d="M355.5,-381.8C355.5,-372.91 355.5,-362.78 355.5,-355.75"/>
<polygon fill="midnightblue" stroke="midnightblue" points="352,-382.08 355.5,-392.08 359,-382.08 352,-382.08"/>
</g>
<!-- Node14&#45;&gt;Node5 -->
<g id="edge21" class="edge">
<title>Node14&#45;&gt;Node5</title>
<path fill="none" stroke="midnightblue" d="M305.92,-335.83C244.29,-324.43 141.19,-305.37 91.7,-296.21"/>
<polygon fill="midnightblue" stroke="midnightblue" points="305.35,-339.28 315.82,-337.66 306.62,-332.4 305.35,-339.28"/>
</g>
<!-- Node14&#45;&gt;Node11 -->
<g id="edge22" class="edge">
<title>Node14&#45;&gt;Node11</title>
<path fill="none" stroke="midnightblue" d="M372.68,-329.54C383.38,-319.91 396.76,-307.87 405.68,-299.83"/>
<polygon fill="midnightblue" stroke="midnightblue" points="370.23,-327.03 365.14,-336.32 374.91,-332.24 370.23,-327.03"/>
</g>
<!-- Node15 -->
<g id="node15" class="node">
<title>Node15</title>
<g id="a_node15"><a xlink:href="spec_2buffer_8h.html" target="_top" xlink:title=" ">
<polygon fill="white" stroke="black" points="282,-280.5 282,-299.5 335,-299.5 335,-280.5 282,-280.5"/>
<text text-anchor="middle" x="308.5" y="-287.5" font-family="Helvetica,sans-Serif" font-size="10.00">buffer.h</text>
</a>
</g>
</g>
<!-- Node14&#45;&gt;Node15 -->
<g id="edge14" class="edge">
<title>Node14&#45;&gt;Node15</title>
<path fill="none" stroke="midnightblue" d="M341.08,-328.43C332.84,-318.97 322.85,-307.48 316.12,-299.75"/>
<polygon fill="midnightblue" stroke="midnightblue" points="338.53,-330.84 347.74,-336.08 343.81,-326.24 338.53,-330.84"/>
</g>
<!-- Node17 -->
<g id="node17" class="node">
<title>Node17</title>
<g id="a_node17"><a xlink:href="spec_2classification_8h.html" target="_top" xlink:title=" ">
<polygon fill="white" stroke="black" points="306,-168.5 306,-187.5 395,-187.5 395,-168.5 306,-168.5"/>
<text text-anchor="middle" x="350.5" y="-175.5" font-family="Helvetica,sans-Serif" font-size="10.00">classification.h</text>
</a>
</g>
</g>
<!-- Node14&#45;&gt;Node17 -->
<g id="edge16" class="edge">
<title>Node14&#45;&gt;Node17</title>
<path fill="none" stroke="midnightblue" d="M354.93,-325.93C353.84,-289.92 351.53,-213.23 350.76,-187.57"/>
<polygon fill="midnightblue" stroke="midnightblue" points="351.43,-326.19 355.23,-336.08 358.43,-325.97 351.43,-326.19"/>
</g>
<!-- Node14&#45;&gt;Node21 -->
<g id="edge23" class="edge">
<title>Node14&#45;&gt;Node21</title>
<path fill="none" stroke="midnightblue" d="M382.41,-332C400.79,-323.09 425.67,-310.94 447.5,-300 464.92,-291.28 468.87,-288.29 486.5,-280 523.26,-262.72 538.41,-268.9 570.5,-244 591.2,-227.94 607.97,-201.39 615.77,-187.72"/>
<polygon fill="midnightblue" stroke="midnightblue" points="380.66,-328.96 373.19,-336.47 383.71,-335.26 380.66,-328.96"/>
</g>
<!-- Node14&#45;&gt;Node24 -->
<g id="edge26" class="edge">
<title>Node14&#45;&gt;Node24</title>
<path fill="none" stroke="midnightblue" d="M395.68,-333.7C431.92,-323.51 484.41,-308.74 517.22,-299.52"/>
<polygon fill="midnightblue" stroke="midnightblue" points="394.6,-330.37 385.92,-336.44 396.5,-337.11 394.6,-330.37"/>
</g>
<!-- Node28 -->
<g id="node28" class="node">
<title>Node28</title>
<g id="a_node28"><a xlink:href="spec_2pool_8h.html" target="_top" xlink:title=" ">
<polygon fill="white" stroke="black" points="148,-280.5 148,-299.5 195,-299.5 195,-280.5 148,-280.5"/>
<text text-anchor="middle" x="171.5" y="-287.5" font-family="Helvetica,sans-Serif" font-size="10.00">pool.h</text>
</a>
</g>
</g>
<!-- Node14&#45;&gt;Node28 -->
<g id="edge35" class="edge">
<title>Node14&#45;&gt;Node28</title>
<path fill="none" stroke="midnightblue" d="M316.47,-333.55C279.74,-322.77 225.93,-306.97 195.25,-297.97"/>
<polygon fill="midnightblue" stroke="midnightblue" points="315.76,-336.99 326.34,-336.44 317.73,-330.27 315.76,-336.99"/>
</g>
<!-- Node31 -->
<g id="node31" class="node">
<title>Node31</title>
<g id="a_node31"><a xlink:href="spec_2timer_8h.html" target="_top" xlink:title=" ">
<polygon fill="white" stroke="black" points="213,-280.5 213,-299.5 264,-299.5 264,-280.5 213,-280.5"/>
<text text-anchor="middle" x="238.5" y="-287.5" font-family="Helvetica,sans-Serif" font-size="10.00">timer.h</text>
</a>
</g>
</g>
<!-- Node14&#45;&gt;Node31 -->
<g id="edge38" class="edge">
<title>Node14&#45;&gt;Node31</title>
<path fill="none" stroke="midnightblue" d="M327.84,-332.23C305.95,-322.13 276,-308.31 256.95,-299.52"/>
<polygon fill="midnightblue" stroke="midnightblue" points="326.41,-335.43 336.96,-336.44 329.35,-329.08 326.41,-335.43"/>
</g>
<!-- Node16 -->
<g id="node16" class="node">
<title>Node16</title>
<g id="a_node16"><a xlink:href="buffer_8h.html" target="_top" xlink:title=" ">
<polygon fill="white" stroke="black" points="282,-224.5 282,-243.5 335,-243.5 335,-224.5 282,-224.5"/>
<text text-anchor="middle" x="308.5" y="-231.5" font-family="Helvetica,sans-Serif" font-size="10.00">buffer.h</text>
</a>
</g>
</g>
<!-- Node15&#45;&gt;Node16 -->
<g id="edge15" class="edge">
<title>Node15&#45;&gt;Node16</title>
<path fill="none" stroke="midnightblue" d="M308.5,-269.8C308.5,-260.91 308.5,-250.78 308.5,-243.75"/>
<polygon fill="midnightblue" stroke="midnightblue" points="305,-270.08 308.5,-280.08 312,-270.08 305,-270.08"/>
</g>
<!-- Node18 -->
<g id="node18" class="node">
<title>Node18</title>
<g id="a_node18"><a xlink:href="classification_8h.html" target="_top" xlink:title=" ">
<polygon fill="white" stroke="black" points="306,-112.5 306,-131.5 395,-131.5 395,-112.5 306,-112.5"/>
<text text-anchor="middle" x="350.5" y="-119.5" font-family="Helvetica,sans-Serif" font-size="10.00">classification.h</text>
</a>
</g>
</g>
<!-- Node17&#45;&gt;Node18 -->
<g id="edge17" class="edge">
<title>Node17&#45;&gt;Node18</title>
<path fill="none" stroke="midnightblue" d="M350.5,-157.8C350.5,-148.91 350.5,-138.78 350.5,-131.75"/>
<polygon fill="midnightblue" stroke="midnightblue" points="347,-158.08 350.5,-168.08 354,-158.08 347,-158.08"/>
</g>
<!-- Node18&#45;&gt;Node7 -->
<g id="edge18" class="edge">
<title>Node18&#45;&gt;Node7</title>
<path fill="none" stroke="midnightblue" d="M362.12,-103.57C368.32,-94.27 375.67,-83.25 380.67,-75.75"/>
<polygon fill="midnightblue" stroke="midnightblue" points="359.08,-101.82 356.44,-112.08 364.9,-105.7 359.08,-101.82"/>
</g>
<!-- Node18&#45;&gt;Node19 -->
<g id="edge19" class="edge">
<title>Node18&#45;&gt;Node19</title>
<path fill="none" stroke="midnightblue" d="M394.05,-109.96C434.28,-99.76 493.2,-84.82 529.91,-75.52"/>
<polygon fill="midnightblue" stroke="midnightblue" points="393.08,-106.59 384.25,-112.44 394.8,-113.38 393.08,-106.59"/>
</g>
<!-- Node20 -->
<g id="node20" class="node">
<title>Node20</title>
<g id="a_node20"><a xlink:href="packet__io_8h.html" target="_top" xlink:title=" ">
<polygon fill="white" stroke="black" points="527.5,-0.5 527.5,-19.5 599.5,-19.5 599.5,-0.5 527.5,-0.5"/>
<text text-anchor="middle" x="563.5" y="-7.5" font-family="Helvetica,sans-Serif" font-size="10.00">packet_io.h</text>
</a>
</g>
</g>
<!-- Node19&#45;&gt;Node20 -->
<g id="edge20" class="edge">
<title>Node19&#45;&gt;Node20</title>
<path fill="none" stroke="midnightblue" d="M563.5,-45.8C563.5,-36.91 563.5,-26.78 563.5,-19.75"/>
<polygon fill="midnightblue" stroke="midnightblue" points="560,-46.08 563.5,-56.08 567,-46.08 560,-46.08"/>
</g>
<!-- Node22 -->
<g id="node22" class="node">
<title>Node22</title>
<g id="a_node22"><a xlink:href="packet_8h.html" target="_top" xlink:title=" ">
<polygon fill="white" stroke="black" points="705.5,-112.5 705.5,-131.5 763.5,-131.5 763.5,-112.5 705.5,-112.5"/>
<text text-anchor="middle" x="734.5" y="-119.5" font-family="Helvetica,sans-Serif" font-size="10.00">packet.h</text>
</a>
</g>
</g>
<!-- Node21&#45;&gt;Node22 -->
<g id="edge24" class="edge">
<title>Node21&#45;&gt;Node22</title>
<path fill="none" stroke="midnightblue" d="M647.74,-164.1C669.04,-154.01 698.04,-140.27 716.52,-131.52"/>
<polygon fill="midnightblue" stroke="midnightblue" points="646.1,-161 638.56,-168.44 649.1,-167.33 646.1,-161"/>
</g>
<!-- Node23 -->
<g id="node23" class="node">
<title>Node23</title>
<g id="a_node23"><a xlink:href="event__inlines_8h_source.html" target="_top" xlink:title=" ">
<polygon fill="white" stroke="black" points="689,-56.5 689,-75.5 780,-75.5 780,-56.5 689,-56.5"/>
<text text-anchor="middle" x="734.5" y="-63.5" font-family="Helvetica,sans-Serif" font-size="10.00">event_inlines.h</text>
</a>
</g>
</g>
<!-- Node22&#45;&gt;Node23 -->
<g id="edge25" class="edge">
<title>Node22&#45;&gt;Node23</title>
<path fill="none" stroke="midnightblue" d="M734.5,-101.8C734.5,-92.91 734.5,-82.78 734.5,-75.75"/>
<polygon fill="midnightblue" stroke="midnightblue" points="731,-102.08 734.5,-112.08 738,-102.08 731,-102.08"/>
</g>
<!-- Node25 -->
<g id="node25" class="node">
<title>Node25</title>
<g id="a_node25"><a xlink:href="packet__io__types_8h.html" target="_top" xlink:title=" ">
<polygon fill="white" stroke="black" points="457.5,-224.5 457.5,-243.5 561.5,-243.5 561.5,-224.5 457.5,-224.5"/>
<text text-anchor="middle" x="509.5" y="-231.5" font-family="Helvetica,sans-Serif" font-size="10.00">packet_io_types.h</text>
</a>
</g>
</g>
<!-- Node24&#45;&gt;Node25 -->
<g id="edge27" class="edge">
<title>Node24&#45;&gt;Node25</title>
<path fill="none" stroke="midnightblue" d="M535.44,-271.86C528.86,-262.5 520.99,-251.33 515.66,-243.75"/>
<polygon fill="midnightblue" stroke="midnightblue" points="532.61,-273.92 541.23,-280.08 538.33,-269.89 532.61,-273.92"/>
</g>
<!-- Node25&#45;&gt;Node7 -->
<g id="edge29" class="edge">
<title>Node25&#45;&gt;Node7</title>
<path fill="none" stroke="midnightblue" d="M482.73,-219.58C469.3,-211.81 453.58,-200.99 442.5,-188 426.72,-169.51 399.15,-99.93 389.75,-75.53"/>
<polygon fill="midnightblue" stroke="midnightblue" points="481.12,-222.7 491.57,-224.47 484.51,-216.57 481.12,-222.7"/>
</g>
<!-- Node25&#45;&gt;Node17 -->
<g id="edge28" class="edge">
<title>Node25&#45;&gt;Node17</title>
<path fill="none" stroke="midnightblue" d="M474.67,-221.17C444.73,-211 402.28,-196.59 375.58,-187.52"/>
<polygon fill="midnightblue" stroke="midnightblue" points="473.71,-224.54 484.31,-224.44 475.96,-217.91 473.71,-224.54"/>
</g>
<!-- Node25&#45;&gt;Node19 -->
<g id="edge31" class="edge">
<title>Node25&#45;&gt;Node19</title>
<path fill="none" stroke="midnightblue" d="M525.4,-216.75C532.36,-208.73 539.95,-198.52 544.5,-188 561.56,-148.58 563.53,-96.03 563.6,-75.62"/>
<polygon fill="midnightblue" stroke="midnightblue" points="522.71,-214.51 518.54,-224.25 527.87,-219.24 522.71,-214.51"/>
</g>
<!-- Node25&#45;&gt;Node21 -->
<g id="edge30" class="edge">
<title>Node25&#45;&gt;Node21</title>
<path fill="none" stroke="midnightblue" d="M536.51,-219.86C557.09,-209.85 584.84,-196.35 602.71,-187.65"/>
<polygon fill="midnightblue" stroke="midnightblue" points="534.8,-216.8 527.33,-224.32 537.86,-223.1 534.8,-216.8"/>
</g>
<!-- Node26 -->
<g id="node26" class="node">
<title>Node26</title>
<g id="a_node26"><a xlink:href="spec_2traffic__mngr_8h.html" target="_top" xlink:title=" ">
<polygon fill="white" stroke="black" points="451.5,-168.5 451.5,-187.5 535.5,-187.5 535.5,-168.5 451.5,-168.5"/>
<text text-anchor="middle" x="493.5" y="-175.5" font-family="Helvetica,sans-Serif" font-size="10.00">traffic_mngr.h</text>
</a>
</g>
</g>
<!-- Node25&#45;&gt;Node26 -->
<g id="edge32" class="edge">
<title>Node25&#45;&gt;Node26</title>
<path fill="none" stroke="midnightblue" d="M503.99,-214.4C501.31,-205.36 498.22,-194.94 496.09,-187.75"/>
<polygon fill="midnightblue" stroke="midnightblue" points="500.66,-215.49 506.86,-224.08 507.37,-213.5 500.66,-215.49"/>
</g>
<!-- Node27 -->
<g id="node27" class="node">
<title>Node27</title>
<g id="a_node27"><a xlink:href="traffic__mngr_8h.html" target="_top" xlink:title=" ">
<polygon fill="white" stroke="black" points="451.5,-112.5 451.5,-131.5 535.5,-131.5 535.5,-112.5 451.5,-112.5"/>
<text text-anchor="middle" x="493.5" y="-119.5" font-family="Helvetica,sans-Serif" font-size="10.00">traffic_mngr.h</text>
</a>
</g>
</g>
<!-- Node26&#45;&gt;Node27 -->
<g id="edge33" class="edge">
<title>Node26&#45;&gt;Node27</title>
<path fill="none" stroke="midnightblue" d="M493.5,-157.8C493.5,-148.91 493.5,-138.78 493.5,-131.75"/>
<polygon fill="midnightblue" stroke="midnightblue" points="490,-158.08 493.5,-168.08 497,-158.08 490,-158.08"/>
</g>
<!-- Node27&#45;&gt;Node7 -->
<g id="edge34" class="edge">
<title>Node27&#45;&gt;Node7</title>
<path fill="none" stroke="midnightblue" d="M467.2,-107.73C447.39,-97.73 420.79,-84.31 403.65,-75.65"/>
<polygon fill="midnightblue" stroke="midnightblue" points="465.8,-110.94 476.31,-112.32 468.96,-104.69 465.8,-110.94"/>
</g>
<!-- Node29 -->
<g id="node29" class="node">
<title>Node29</title>
<g id="a_node29"><a xlink:href="pool_8h.html" target="_top" xlink:title=" ">
<polygon fill="white" stroke="black" points="148,-224.5 148,-243.5 195,-243.5 195,-224.5 148,-224.5"/>
<text text-anchor="middle" x="171.5" y="-231.5" font-family="Helvetica,sans-Serif" font-size="10.00">pool.h</text>
</a>
</g>
</g>
<!-- Node28&#45;&gt;Node29 -->
<g id="edge36" class="edge">
<title>Node28&#45;&gt;Node29</title>
<path fill="none" stroke="midnightblue" d="M171.5,-269.8C171.5,-260.91 171.5,-250.78 171.5,-243.75"/>
<polygon fill="midnightblue" stroke="midnightblue" points="168,-270.08 171.5,-280.08 175,-270.08 168,-270.08"/>
</g>
<!-- Node29&#45;&gt;Node30 -->
<g id="edge37" class="edge">
<title>Node29&#45;&gt;Node30</title>
<path fill="none" stroke="midnightblue" d="M167.65,-214.1C165.82,-205.14 163.73,-194.86 162.28,-187.75"/>
<polygon fill="midnightblue" stroke="midnightblue" points="164.26,-214.98 169.68,-224.08 171.12,-213.59 164.26,-214.98"/>
</g>
<!-- Node32 -->
<g id="node32" class="node">
<title>Node32</title>
<g id="a_node32"><a xlink:href="timer_8h.html" target="_top" xlink:title=" ">
<polygon fill="white" stroke="black" points="213,-224.5 213,-243.5 264,-243.5 264,-224.5 213,-224.5"/>
<text text-anchor="middle" x="238.5" y="-231.5" font-family="Helvetica,sans-Serif" font-size="10.00">timer.h</text>
</a>
</g>
</g>
<!-- Node31&#45;&gt;Node32 -->
<g id="edge39" class="edge">
<title>Node31&#45;&gt;Node32</title>
<path fill="none" stroke="midnightblue" d="M238.5,-269.8C238.5,-260.91 238.5,-250.78 238.5,-243.75"/>
<polygon fill="midnightblue" stroke="midnightblue" points="235,-270.08 238.5,-280.08 242,-270.08 235,-270.08"/>
</g>
<!-- Node34 -->
<g id="node34" class="node">
<title>Node34</title>
<g id="a_node34"><a xlink:href="event_8h.html" target="_top" xlink:title=" ">
<polygon fill="white" stroke="black" points="694,-448.5 694,-467.5 747,-467.5 747,-448.5 694,-448.5"/>
<text text-anchor="middle" x="720.5" y="-455.5" font-family="Helvetica,sans-Serif" font-size="10.00">event.h</text>
</a>
</g>
</g>
<!-- Node33&#45;&gt;Node34 -->
<g id="edge41" class="edge">
<title>Node33&#45;&gt;Node34</title>
<path fill="none" stroke="midnightblue" d="M720.5,-493.8C720.5,-484.91 720.5,-474.78 720.5,-467.75"/>
<polygon fill="midnightblue" stroke="midnightblue" points="717,-494.08 720.5,-504.08 724,-494.08 717,-494.08"/>
</g>
<!-- Node36 -->
<g id="node36" class="node">
<title>Node36</title>
<g id="a_node36"><a xlink:href="packet__flags_8h.html" target="_top" xlink:title=" ">
<polygon fill="white" stroke="black" points="765.5,-448.5 765.5,-467.5 851.5,-467.5 851.5,-448.5 765.5,-448.5"/>
<text text-anchor="middle" x="808.5" y="-455.5" font-family="Helvetica,sans-Serif" font-size="10.00">packet_flags.h</text>
</a>
</g>
</g>
<!-- Node35&#45;&gt;Node36 -->
<g id="edge44" class="edge">
<title>Node35&#45;&gt;Node36</title>
<path fill="none" stroke="midnightblue" d="M808.5,-493.8C808.5,-484.91 808.5,-474.78 808.5,-467.75"/>
<polygon fill="midnightblue" stroke="midnightblue" points="805,-494.08 808.5,-504.08 812,-494.08 805,-494.08"/>
</g>
</g>
</svg>
