<?xml version="1.0" encoding="UTF-8" standalone="no"?>
<!DOCTYPE svg PUBLIC "-//W3C//DTD SVG 1.1//EN"
 "http://www.w3.org/Graphics/SVG/1.1/DTD/svg11.dtd">
<!-- Generated by graphviz version 2.43.0 (0)
 -->
<!-- Title: deprecated.h Pages: 1 -->
<svg width="513pt" height="532pt"
 viewBox="0.00 0.00 512.66 532.00" xmlns="http://www.w3.org/2000/svg" xmlns:xlink="http://www.w3.org/1999/xlink">
<g id="graph0" class="graph" transform="scale(1 1) rotate(0) translate(4 528)">
<title>deprecated.h</title>
<polygon fill="white" stroke="transparent" points="-4,4 -4,-528 508.66,-528 508.66,4 -4,4"/>
<!-- Node1 -->
<g id="node1" class="node">
<title>Node1</title>
<g id="a_node1"><a xlink:title=" ">
<polygon fill="#bfbfbf" stroke="black" points="268,-504.5 268,-523.5 348,-523.5 348,-504.5 268,-504.5"/>
<text text-anchor="middle" x="308" y="-511.5" font-family="Helvetica,sans-Serif" font-size="10.00">deprecated.h</text>
</a>
</g>
</g>
<!-- Node2 -->
<g id="node2" class="node">
<title>Node2</title>
<g id="a_node2"><a xlink:href="deprecated_8h.html" target="_top" xlink:title=" ">
<polygon fill="white" stroke="black" points="268,-448.5 268,-467.5 348,-467.5 348,-448.5 268,-448.5"/>
<text text-anchor="middle" x="308" y="-455.5" font-family="Helvetica,sans-Serif" font-size="10.00">deprecated.h</text>
</a>
</g>
</g>
<!-- Node1&#45;&gt;Node2 -->
<g id="edge1" class="edge">
<title>Node1&#45;&gt;Node2</title>
<path fill="none" stroke="midnightblue" d="M308,-493.8C308,-484.91 308,-474.78 308,-467.75"/>
<polygon fill="midnightblue" stroke="midnightblue" points="304.5,-494.08 308,-504.08 311.5,-494.08 304.5,-494.08"/>
</g>
<!-- Node3 -->
<g id="node3" class="node">
<title>Node3</title>
<g id="a_node3"><a xlink:href="abi-default_2event__types_8h_source.html" target="_top" xlink:title=" ">
<polygon fill="white" stroke="black" points="0,-392.5 0,-411.5 86,-411.5 86,-392.5 0,-392.5"/>
<text text-anchor="middle" x="43" y="-399.5" font-family="Helvetica,sans-Serif" font-size="10.00">event_types.h</text>
</a>
</g>
</g>
<!-- Node2&#45;&gt;Node3 -->
<g id="edge2" class="edge">
<title>Node2&#45;&gt;Node3</title>
<path fill="none" stroke="midnightblue" d="M257.8,-446.77C207.78,-436.58 131.85,-421.1 84.94,-411.55"/>
<polygon fill="midnightblue" stroke="midnightblue" points="257.25,-450.23 267.75,-448.8 258.65,-443.37 257.25,-450.23"/>
</g>
<!-- Node4 -->
<g id="node4" class="node">
<title>Node4</title>
<g id="a_node4"><a xlink:href="abi-default_2schedule__types_8h.html" target="_top" xlink:title=" ">
<polygon fill="white" stroke="black" points="104.5,-392.5 104.5,-411.5 205.5,-411.5 205.5,-392.5 104.5,-392.5"/>
<text text-anchor="middle" x="155" y="-399.5" font-family="Helvetica,sans-Serif" font-size="10.00">schedule_types.h</text>
</a>
</g>
</g>
<!-- Node2&#45;&gt;Node4 -->
<g id="edge3" class="edge">
<title>Node2&#45;&gt;Node4</title>
<path fill="none" stroke="midnightblue" d="M274.11,-445.04C245.32,-434.88 204.71,-420.55 179.13,-411.52"/>
<polygon fill="midnightblue" stroke="midnightblue" points="273.16,-448.42 283.76,-448.44 275.49,-441.81 273.16,-448.42"/>
</g>
<!-- Node5 -->
<g id="node5" class="node">
<title>Node5</title>
<g id="a_node5"><a xlink:href="spec_2classification_8h.html" target="_top" xlink:title=" ">
<polygon fill="white" stroke="black" points="348.5,-168.5 348.5,-187.5 437.5,-187.5 437.5,-168.5 348.5,-168.5"/>
<text text-anchor="middle" x="393" y="-175.5" font-family="Helvetica,sans-Serif" font-size="10.00">classification.h</text>
</a>
</g>
</g>
<!-- Node2&#45;&gt;Node5 -->
<g id="edge4" class="edge">
<title>Node2&#45;&gt;Node5</title>
<path fill="none" stroke="midnightblue" d="M318.14,-439.43C329.4,-418.24 346,-381.19 346,-347 346,-347 346,-347 346,-289 346,-248.3 373.55,-205.44 386.46,-187.59"/>
<polygon fill="midnightblue" stroke="midnightblue" points="315.05,-437.78 313.28,-448.23 321.18,-441.17 315.05,-437.78"/>
</g>
<!-- Node9 -->
<g id="node9" class="node">
<title>Node9</title>
<g id="a_node9"><a xlink:href="spec_2packet__io_8h.html" target="_top" xlink:title=" ">
<polygon fill="white" stroke="black" points="393,-56.5 393,-75.5 465,-75.5 465,-56.5 393,-56.5"/>
<text text-anchor="middle" x="429" y="-63.5" font-family="Helvetica,sans-Serif" font-size="10.00">packet_io.h</text>
</a>
</g>
</g>
<!-- Node2&#45;&gt;Node9 -->
<g id="edge13" class="edge">
<title>Node2&#45;&gt;Node9</title>
<path fill="none" stroke="midnightblue" d="M358.43,-457.1C397.84,-454.45 451.39,-444.44 485,-412 506.66,-391.1 504,-377.1 504,-347 504,-347 504,-347 504,-177 504,-132.39 461.37,-92.52 440.39,-75.6"/>
<polygon fill="midnightblue" stroke="midnightblue" points="358.03,-453.61 348.23,-457.64 358.4,-460.6 358.03,-453.61"/>
</g>
<!-- Node11 -->
<g id="node11" class="node">
<title>Node11</title>
<g id="a_node11"><a xlink:href="spec_2crypto_8h.html" target="_top" xlink:title=" ">
<polygon fill="white" stroke="black" points="224,-392.5 224,-411.5 280,-411.5 280,-392.5 224,-392.5"/>
<text text-anchor="middle" x="252" y="-399.5" font-family="Helvetica,sans-Serif" font-size="10.00">crypto.h</text>
</a>
</g>
</g>
<!-- Node2&#45;&gt;Node11 -->
<g id="edge10" class="edge">
<title>Node2&#45;&gt;Node11</title>
<path fill="none" stroke="midnightblue" d="M291.67,-441.25C281.74,-431.67 269.41,-419.79 261.16,-411.83"/>
<polygon fill="midnightblue" stroke="midnightblue" points="289.37,-443.9 299,-448.32 294.23,-438.86 289.37,-443.9"/>
</g>
<!-- Node13 -->
<g id="node13" class="node">
<title>Node13</title>
<g id="a_node13"><a xlink:href="spec_2packet__io__stats_8h.html" target="_top" xlink:title=" ">
<polygon fill="white" stroke="black" points="374.5,-392.5 374.5,-411.5 475.5,-411.5 475.5,-392.5 374.5,-392.5"/>
<text text-anchor="middle" x="425" y="-399.5" font-family="Helvetica,sans-Serif" font-size="10.00">packet_io_stats.h</text>
</a>
</g>
</g>
<!-- Node2&#45;&gt;Node13 -->
<g id="edge14" class="edge">
<title>Node2&#45;&gt;Node13</title>
<path fill="none" stroke="midnightblue" d="M335.66,-444.23C357.55,-434.13 387.5,-420.31 406.55,-411.52"/>
<polygon fill="midnightblue" stroke="midnightblue" points="334.15,-441.08 326.54,-448.44 337.09,-447.43 334.15,-441.08"/>
</g>
<!-- Node15 -->
<g id="node15" class="node">
<title>Node15</title>
<g id="a_node15"><a xlink:href="spec_2packet__io__types_8h.html" target="_top" xlink:title=" ">
<polygon fill="white" stroke="black" points="214,-280.5 214,-299.5 318,-299.5 318,-280.5 214,-280.5"/>
<text text-anchor="middle" x="266" y="-287.5" font-family="Helvetica,sans-Serif" font-size="10.00">packet_io_types.h</text>
</a>
</g>
</g>
<!-- Node2&#45;&gt;Node15 -->
<g id="edge28" class="edge">
<title>Node2&#45;&gt;Node15</title>
<path fill="none" stroke="midnightblue" d="M303.17,-437.93C294.06,-401.92 274.66,-325.23 268.17,-299.57"/>
<polygon fill="midnightblue" stroke="midnightblue" points="299.9,-439.24 305.74,-448.08 306.68,-437.52 299.9,-439.24"/>
</g>
<!-- Node6 -->
<g id="node6" class="node">
<title>Node6</title>
<g id="a_node6"><a xlink:href="classification_8h.html" target="_top" xlink:title=" ">
<polygon fill="white" stroke="black" points="348.5,-112.5 348.5,-131.5 437.5,-131.5 437.5,-112.5 348.5,-112.5"/>
<text text-anchor="middle" x="393" y="-119.5" font-family="Helvetica,sans-Serif" font-size="10.00">classification.h</text>
</a>
</g>
</g>
<!-- Node5&#45;&gt;Node6 -->
<g id="edge5" class="edge">
<title>Node5&#45;&gt;Node6</title>
<path fill="none" stroke="midnightblue" d="M393,-157.8C393,-148.91 393,-138.78 393,-131.75"/>
<polygon fill="midnightblue" stroke="midnightblue" points="389.5,-158.08 393,-168.08 396.5,-158.08 389.5,-158.08"/>
</g>
<!-- Node7 -->
<g id="node7" class="node">
<title>Node7</title>
<g id="a_node7"><a xlink:href="spec_2ipsec_8h.html" target="_top" xlink:title=" ">
<polygon fill="white" stroke="black" points="129.5,-56.5 129.5,-75.5 180.5,-75.5 180.5,-56.5 129.5,-56.5"/>
<text text-anchor="middle" x="155" y="-63.5" font-family="Helvetica,sans-Serif" font-size="10.00">ipsec.h</text>
</a>
</g>
</g>
<!-- Node6&#45;&gt;Node7 -->
<g id="edge6" class="edge">
<title>Node6&#45;&gt;Node7</title>
<path fill="none" stroke="midnightblue" d="M345.45,-110.21C295.92,-98.97 220.18,-81.79 180.8,-72.85"/>
<polygon fill="midnightblue" stroke="midnightblue" points="344.76,-113.64 355.29,-112.44 346.31,-106.82 344.76,-113.64"/>
</g>
<!-- Node6&#45;&gt;Node9 -->
<g id="edge8" class="edge">
<title>Node6&#45;&gt;Node9</title>
<path fill="none" stroke="midnightblue" d="M404.62,-103.57C410.82,-94.27 418.17,-83.25 423.17,-75.75"/>
<polygon fill="midnightblue" stroke="midnightblue" points="401.58,-101.82 398.94,-112.08 407.4,-105.7 401.58,-101.82"/>
</g>
<!-- Node8 -->
<g id="node8" class="node">
<title>Node8</title>
<g id="a_node8"><a xlink:href="ipsec_8h.html" target="_top" xlink:title=" ">
<polygon fill="white" stroke="black" points="129.5,-0.5 129.5,-19.5 180.5,-19.5 180.5,-0.5 129.5,-0.5"/>
<text text-anchor="middle" x="155" y="-7.5" font-family="Helvetica,sans-Serif" font-size="10.00">ipsec.h</text>
</a>
</g>
</g>
<!-- Node7&#45;&gt;Node8 -->
<g id="edge7" class="edge">
<title>Node7&#45;&gt;Node8</title>
<path fill="none" stroke="midnightblue" d="M155,-45.8C155,-36.91 155,-26.78 155,-19.75"/>
<polygon fill="midnightblue" stroke="midnightblue" points="151.5,-46.08 155,-56.08 158.5,-46.08 151.5,-46.08"/>
</g>
<!-- Node10 -->
<g id="node10" class="node">
<title>Node10</title>
<g id="a_node10"><a xlink:href="packet__io_8h.html" target="_top" xlink:title=" ">
<polygon fill="white" stroke="black" points="393,-0.5 393,-19.5 465,-19.5 465,-0.5 393,-0.5"/>
<text text-anchor="middle" x="429" y="-7.5" font-family="Helvetica,sans-Serif" font-size="10.00">packet_io.h</text>
</a>
</g>
</g>
<!-- Node9&#45;&gt;Node10 -->
<g id="edge9" class="edge">
<title>Node9&#45;&gt;Node10</title>
<path fill="none" stroke="midnightblue" d="M429,-45.8C429,-36.91 429,-26.78 429,-19.75"/>
<polygon fill="midnightblue" stroke="midnightblue" points="425.5,-46.08 429,-56.08 432.5,-46.08 425.5,-46.08"/>
</g>
<!-- Node12 -->
<g id="node12" class="node">
<title>Node12</title>
<g id="a_node12"><a xlink:href="crypto_8h.html" target="_top" xlink:title=" ">
<polygon fill="white" stroke="black" points="89,-280.5 89,-299.5 145,-299.5 145,-280.5 89,-280.5"/>
<text text-anchor="middle" x="117" y="-287.5" font-family="Helvetica,sans-Serif" font-size="10.00">crypto.h</text>
</a>
</g>
</g>
<!-- Node11&#45;&gt;Node12 -->
<g id="edge11" class="edge">
<title>Node11&#45;&gt;Node12</title>
<path fill="none" stroke="midnightblue" d="M233.36,-385.82C204.61,-362.39 150.37,-318.19 127.54,-299.59"/>
<polygon fill="midnightblue" stroke="midnightblue" points="231.44,-388.77 241.41,-392.37 235.87,-383.34 231.44,-388.77"/>
</g>
<!-- Node12&#45;&gt;Node7 -->
<g id="edge12" class="edge">
<title>Node12&#45;&gt;Node7</title>
<path fill="none" stroke="midnightblue" d="M106.65,-271.28C88.68,-237.97 56.25,-164.66 85,-112 94.62,-94.37 114.43,-82.62 130.53,-75.56"/>
<polygon fill="midnightblue" stroke="midnightblue" points="103.74,-273.24 111.68,-280.26 109.85,-269.83 103.74,-273.24"/>
</g>
<!-- Node14 -->
<g id="node14" class="node">
<title>Node14</title>
<g id="a_node14"><a xlink:href="packet__io__stats_8h.html" target="_top" xlink:title=" ">
<polygon fill="white" stroke="black" points="374.5,-336.5 374.5,-355.5 475.5,-355.5 475.5,-336.5 374.5,-336.5"/>
<text text-anchor="middle" x="425" y="-343.5" font-family="Helvetica,sans-Serif" font-size="10.00">packet_io_stats.h</text>
</a>
</g>
</g>
<!-- Node13&#45;&gt;Node14 -->
<g id="edge15" class="edge">
<title>Node13&#45;&gt;Node14</title>
<path fill="none" stroke="midnightblue" d="M425,-381.8C425,-372.91 425,-362.78 425,-355.75"/>
<polygon fill="midnightblue" stroke="midnightblue" points="421.5,-382.08 425,-392.08 428.5,-382.08 421.5,-382.08"/>
</g>
<!-- Node14&#45;&gt;Node9 -->
<g id="edge16" class="edge">
<title>Node14&#45;&gt;Node9</title>
<path fill="none" stroke="midnightblue" d="M435.94,-327.53C448.09,-306.44 466,-269.48 466,-235 466,-235 466,-235 466,-177 466,-137.31 444.09,-93.56 433.99,-75.51"/>
<polygon fill="midnightblue" stroke="midnightblue" points="432.84,-325.91 430.7,-336.29 438.84,-329.51 432.84,-325.91"/>
</g>
<!-- Node14&#45;&gt;Node15 -->
<g id="edge17" class="edge">
<title>Node14&#45;&gt;Node15</title>
<path fill="none" stroke="midnightblue" d="M390.17,-333.17C360.23,-323 317.78,-308.59 291.08,-299.52"/>
<polygon fill="midnightblue" stroke="midnightblue" points="389.21,-336.54 399.81,-336.44 391.46,-329.91 389.21,-336.54"/>
</g>
<!-- Node16 -->
<g id="node16" class="node">
<title>Node16</title>
<g id="a_node16"><a xlink:href="packet__io__types_8h.html" target="_top" xlink:title=" ">
<polygon fill="white" stroke="black" points="212,-224.5 212,-243.5 316,-243.5 316,-224.5 212,-224.5"/>
<text text-anchor="middle" x="264" y="-231.5" font-family="Helvetica,sans-Serif" font-size="10.00">packet_io_types.h</text>
</a>
</g>
</g>
<!-- Node15&#45;&gt;Node16 -->
<g id="edge18" class="edge">
<title>Node15&#45;&gt;Node16</title>
<path fill="none" stroke="midnightblue" d="M265.29,-269.8C264.96,-260.91 264.58,-250.78 264.32,-243.75"/>
<polygon fill="midnightblue" stroke="midnightblue" points="261.8,-270.22 265.67,-280.08 268.8,-269.96 261.8,-270.22"/>
</g>
<!-- Node16&#45;&gt;Node5 -->
<g id="edge19" class="edge">
<title>Node16&#45;&gt;Node5</title>
<path fill="none" stroke="midnightblue" d="M293.85,-220.5C318.04,-210.38 351.46,-196.39 372.66,-187.52"/>
<polygon fill="midnightblue" stroke="midnightblue" points="292.31,-217.35 284.44,-224.44 295.02,-223.81 292.31,-217.35"/>
</g>
<!-- Node16&#45;&gt;Node7 -->
<g id="edge20" class="edge">
<title>Node16&#45;&gt;Node7</title>
<path fill="none" stroke="midnightblue" d="M248.22,-216.82C240.67,-208.59 231.8,-198.19 225,-188 204.02,-156.6 206.45,-144.37 187,-112 179.1,-98.85 168.58,-84.56 161.79,-75.69"/>
<polygon fill="midnightblue" stroke="midnightblue" points="245.81,-219.36 255.22,-224.24 250.9,-214.56 245.81,-219.36"/>
</g>
<!-- Node16&#45;&gt;Node9 -->
<g id="edge24" class="edge">
<title>Node16&#45;&gt;Node9</title>
<path fill="none" stroke="midnightblue" d="M278.59,-216.98C285.79,-208.67 294.34,-198.14 301,-188 321.84,-156.27 313.07,-138.77 340,-112 357.44,-94.67 382.91,-82.72 402.15,-75.51"/>
<polygon fill="midnightblue" stroke="midnightblue" points="275.97,-214.66 271.96,-224.47 281.21,-219.3 275.97,-214.66"/>
</g>
<!-- Node17 -->
<g id="node17" class="node">
<title>Node17</title>
<g id="a_node17"><a xlink:href="spec_2packet_8h.html" target="_top" xlink:title=" ">
<polygon fill="white" stroke="black" points="234,-168.5 234,-187.5 292,-187.5 292,-168.5 234,-168.5"/>
<text text-anchor="middle" x="263" y="-175.5" font-family="Helvetica,sans-Serif" font-size="10.00">packet.h</text>
</a>
</g>
</g>
<!-- Node16&#45;&gt;Node17 -->
<g id="edge21" class="edge">
<title>Node16&#45;&gt;Node17</title>
<path fill="none" stroke="midnightblue" d="M263.64,-213.8C263.48,-204.91 263.29,-194.78 263.16,-187.75"/>
<polygon fill="midnightblue" stroke="midnightblue" points="260.15,-214.15 263.83,-224.08 267.15,-214.02 260.15,-214.15"/>
</g>
<!-- Node20 -->
<g id="node20" class="node">
<title>Node20</title>
<g id="a_node20"><a xlink:href="spec_2traffic__mngr_8h.html" target="_top" xlink:title=" ">
<polygon fill="white" stroke="black" points="94,-168.5 94,-187.5 178,-187.5 178,-168.5 94,-168.5"/>
<text text-anchor="middle" x="136" y="-175.5" font-family="Helvetica,sans-Serif" font-size="10.00">traffic_mngr.h</text>
</a>
</g>
</g>
<!-- Node16&#45;&gt;Node20 -->
<g id="edge25" class="edge">
<title>Node16&#45;&gt;Node20</title>
<path fill="none" stroke="midnightblue" d="M234.38,-220.5C210.38,-210.38 177.22,-196.39 156.19,-187.52"/>
<polygon fill="midnightblue" stroke="midnightblue" points="233.14,-223.78 243.72,-224.44 235.86,-217.33 233.14,-223.78"/>
</g>
<!-- Node18 -->
<g id="node18" class="node">
<title>Node18</title>
<g id="a_node18"><a xlink:href="packet_8h.html" target="_top" xlink:title=" ">
<polygon fill="white" stroke="black" points="234,-112.5 234,-131.5 292,-131.5 292,-112.5 234,-112.5"/>
<text text-anchor="middle" x="263" y="-119.5" font-family="Helvetica,sans-Serif" font-size="10.00">packet.h</text>
</a>
</g>
</g>
<!-- Node17&#45;&gt;Node18 -->
<g id="edge22" class="edge">
<title>Node17&#45;&gt;Node18</title>
<path fill="none" stroke="midnightblue" d="M263,-157.8C263,-148.91 263,-138.78 263,-131.75"/>
<polygon fill="midnightblue" stroke="midnightblue" points="259.5,-158.08 263,-168.08 266.5,-158.08 259.5,-158.08"/>
</g>
<!-- Node19 -->
<g id="node19" class="node">
<title>Node19</title>
<g id="a_node19"><a xlink:href="event__inlines_8h_source.html" target="_top" xlink:title=" ">
<polygon fill="white" stroke="black" points="217.5,-56.5 217.5,-75.5 308.5,-75.5 308.5,-56.5 217.5,-56.5"/>
<text text-anchor="middle" x="263" y="-63.5" font-family="Helvetica,sans-Serif" font-size="10.00">event_inlines.h</text>
</a>
</g>
</g>
<!-- Node18&#45;&gt;Node19 -->
<g id="edge23" class="edge">
<title>Node18&#45;&gt;Node19</title>
<path fill="none" stroke="midnightblue" d="M263,-101.8C263,-92.91 263,-82.78 263,-75.75"/>
<polygon fill="midnightblue" stroke="midnightblue" points="259.5,-102.08 263,-112.08 266.5,-102.08 259.5,-102.08"/>
</g>
<!-- Node21 -->
<g id="node21" class="node">
<title>Node21</title>
<g id="a_node21"><a xlink:href="traffic__mngr_8h.html" target="_top" xlink:title=" ">
<polygon fill="white" stroke="black" points="94,-112.5 94,-131.5 178,-131.5 178,-112.5 94,-112.5"/>
<text text-anchor="middle" x="136" y="-119.5" font-family="Helvetica,sans-Serif" font-size="10.00">traffic_mngr.h</text>
</a>
</g>
</g>
<!-- Node20&#45;&gt;Node21 -->
<g id="edge26" class="edge">
<title>Node20&#45;&gt;Node21</title>
<path fill="none" stroke="midnightblue" d="M136,-157.8C136,-148.91 136,-138.78 136,-131.75"/>
<polygon fill="midnightblue" stroke="midnightblue" points="132.5,-158.08 136,-168.08 139.5,-158.08 132.5,-158.08"/>
</g>
<!-- Node21&#45;&gt;Node7 -->
<g id="edge27" class="edge">
<title>Node21&#45;&gt;Node7</title>
<path fill="none" stroke="midnightblue" d="M142.55,-102.4C145.72,-93.36 149.39,-82.94 151.92,-75.75"/>
<polygon fill="midnightblue" stroke="midnightblue" points="139.15,-101.49 139.14,-112.08 145.76,-103.81 139.15,-101.49"/>
</g>
</g>
</svg>
