<?xml version="1.0" encoding="UTF-8" standalone="no"?>
<!DOCTYPE svg PUBLIC "-//W3C//DTD SVG 1.1//EN"
 "http://www.w3.org/Graphics/SVG/1.1/DTD/svg11.dtd">
<!-- Generated by graphviz version 2.43.0 (0)
 -->
<!-- Title: event_types.h Pages: 1 -->
<svg width="1198pt" height="644pt"
 viewBox="0.00 0.00 1197.50 644.00" xmlns="http://www.w3.org/2000/svg" xmlns:xlink="http://www.w3.org/1999/xlink">
<g id="graph0" class="graph" transform="scale(1 1) rotate(0) translate(4 640)">
<title>event_types.h</title>
<polygon fill="white" stroke="transparent" points="-4,4 -4,-640 1193.5,-640 1193.5,4 -4,4"/>
<!-- Node1 -->
<g id="node1" class="node">
<title>Node1</title>
<g id="a_node1"><a xlink:title=" ">
<polygon fill="#bfbfbf" stroke="black" points="658.5,-616.5 658.5,-635.5 744.5,-635.5 744.5,-616.5 658.5,-616.5"/>
<text text-anchor="middle" x="701.5" y="-623.5" font-family="Helvetica,sans-Serif" font-size="10.00">event_types.h</text>
</a>
</g>
</g>
<!-- Node2 -->
<g id="node2" class="node">
<title>Node2</title>
<g id="a_node2"><a xlink:href="event__types_8h.html" target="_top" xlink:title=" ">
<polygon fill="white" stroke="black" points="658.5,-560.5 658.5,-579.5 744.5,-579.5 744.5,-560.5 658.5,-560.5"/>
<text text-anchor="middle" x="701.5" y="-567.5" font-family="Helvetica,sans-Serif" font-size="10.00">event_types.h</text>
</a>
</g>
</g>
<!-- Node1&#45;&gt;Node2 -->
<g id="edge1" class="edge">
<title>Node1&#45;&gt;Node2</title>
<path fill="none" stroke="midnightblue" d="M701.5,-605.8C701.5,-596.91 701.5,-586.78 701.5,-579.75"/>
<polygon fill="midnightblue" stroke="midnightblue" points="698,-606.08 701.5,-616.08 705,-606.08 698,-606.08"/>
</g>
<!-- Node3 -->
<g id="node3" class="node">
<title>Node3</title>
<g id="a_node3"><a xlink:href="spec_2buffer_8h.html" target="_top" xlink:title=" ">
<polygon fill="white" stroke="black" points="37,-280.5 37,-299.5 90,-299.5 90,-280.5 37,-280.5"/>
<text text-anchor="middle" x="63.5" y="-287.5" font-family="Helvetica,sans-Serif" font-size="10.00">buffer.h</text>
</a>
</g>
</g>
<!-- Node2&#45;&gt;Node3 -->
<g id="edge2" class="edge">
<title>Node2&#45;&gt;Node3</title>
<path fill="none" stroke="midnightblue" d="M647.68,-565.08C497.27,-553.39 83.5,-516.07 83.5,-459 83.5,-459 83.5,-459 83.5,-401 83.5,-362.76 71.66,-318.23 66.2,-299.74"/>
<polygon fill="midnightblue" stroke="midnightblue" points="647.8,-568.6 658.04,-565.87 648.34,-561.62 647.8,-568.6"/>
</g>
<!-- Node5 -->
<g id="node5" class="node">
<title>Node5</title>
<g id="a_node5"><a xlink:href="spec_2comp_8h.html" target="_top" xlink:title=" ">
<polygon fill="white" stroke="black" points="765,-504.5 765,-523.5 818,-523.5 818,-504.5 765,-504.5"/>
<text text-anchor="middle" x="791.5" y="-511.5" font-family="Helvetica,sans-Serif" font-size="10.00">comp.h</text>
</a>
</g>
</g>
<!-- Node2&#45;&gt;Node5 -->
<g id="edge4" class="edge">
<title>Node2&#45;&gt;Node5</title>
<path fill="none" stroke="midnightblue" d="M724.54,-555.18C741.1,-545.24 762.92,-532.15 777.08,-523.65"/>
<polygon fill="midnightblue" stroke="midnightblue" points="722.73,-552.18 715.96,-560.32 726.34,-558.18 722.73,-552.18"/>
</g>
<!-- Node7 -->
<g id="node7" class="node">
<title>Node7</title>
<g id="a_node7"><a xlink:href="spec_2dma__types_8h.html" target="_top" xlink:title=" ">
<polygon fill="white" stroke="black" points="350.5,-504.5 350.5,-523.5 430.5,-523.5 430.5,-504.5 350.5,-504.5"/>
<text text-anchor="middle" x="390.5" y="-511.5" font-family="Helvetica,sans-Serif" font-size="10.00">dma_types.h</text>
</a>
</g>
</g>
<!-- Node2&#45;&gt;Node7 -->
<g id="edge6" class="edge">
<title>Node2&#45;&gt;Node7</title>
<path fill="none" stroke="midnightblue" d="M648.34,-559.77C586.71,-549.07 486.51,-531.67 430.91,-522.02"/>
<polygon fill="midnightblue" stroke="midnightblue" points="647.81,-563.23 658.26,-561.49 649,-556.33 647.81,-563.23"/>
</g>
<!-- Node21 -->
<g id="node21" class="node">
<title>Node21</title>
<g id="a_node21"><a xlink:href="spec_2packet_8h.html" target="_top" xlink:title=" ">
<polygon fill="white" stroke="black" points="463.5,-168.5 463.5,-187.5 521.5,-187.5 521.5,-168.5 463.5,-168.5"/>
<text text-anchor="middle" x="492.5" y="-175.5" font-family="Helvetica,sans-Serif" font-size="10.00">packet.h</text>
</a>
</g>
</g>
<!-- Node2&#45;&gt;Node21 -->
<g id="edge42" class="edge">
<title>Node2&#45;&gt;Node21</title>
<path fill="none" stroke="midnightblue" d="M648.26,-565.8C614.7,-561.13 572.56,-550.05 544.5,-524 521.93,-503.05 520.5,-489.8 520.5,-459 520.5,-459 520.5,-459 520.5,-289 520.5,-250.18 503.92,-205.97 496.28,-187.65"/>
<polygon fill="midnightblue" stroke="midnightblue" points="648.02,-569.3 658.37,-567.05 648.88,-562.35 648.02,-569.3"/>
</g>
<!-- Node23 -->
<g id="node23" class="node">
<title>Node23</title>
<g id="a_node23"><a xlink:href="event__inlines_8h_source.html" target="_top" xlink:title=" ">
<polygon fill="white" stroke="black" points="484,-56.5 484,-75.5 575,-75.5 575,-56.5 484,-56.5"/>
<text text-anchor="middle" x="529.5" y="-63.5" font-family="Helvetica,sans-Serif" font-size="10.00">event_inlines.h</text>
</a>
</g>
</g>
<!-- Node2&#45;&gt;Node23 -->
<g id="edge52" class="edge">
<title>Node2&#45;&gt;Node23</title>
<path fill="none" stroke="midnightblue" d="M661.31,-557.2C619.01,-542.01 558.5,-511.16 558.5,-459 558.5,-459 558.5,-459 558.5,-177 558.5,-138.09 541.33,-93.93 533.41,-75.64"/>
<polygon fill="midnightblue" stroke="midnightblue" points="660.23,-560.53 670.82,-560.46 662.5,-553.91 660.23,-560.53"/>
</g>
<!-- Node31 -->
<g id="node31" class="node">
<title>Node31</title>
<g id="a_node31"><a xlink:href="spec_2timer_8h.html" target="_top" xlink:title=" ">
<polygon fill="white" stroke="black" points="587,-280.5 587,-299.5 638,-299.5 638,-280.5 587,-280.5"/>
<text text-anchor="middle" x="612.5" y="-287.5" font-family="Helvetica,sans-Serif" font-size="10.00">timer.h</text>
</a>
</g>
</g>
<!-- Node2&#45;&gt;Node31 -->
<g id="edge47" class="edge">
<title>Node2&#45;&gt;Node31</title>
<path fill="none" stroke="midnightblue" d="M662.94,-556.64C646.23,-549.5 627.73,-538.93 615.5,-524 596.42,-500.72 596.5,-489.1 596.5,-459 596.5,-459 596.5,-459 596.5,-401 596.5,-362.98 605.97,-318.34 610.34,-299.78"/>
<polygon fill="midnightblue" stroke="midnightblue" points="661.93,-560 672.51,-560.44 664.52,-553.49 661.93,-560"/>
</g>
<!-- Node33 -->
<g id="node33" class="node">
<title>Node33</title>
<g id="a_node33"><a xlink:href="spec_2event_8h.html" target="_top" xlink:title=" ">
<polygon fill="white" stroke="black" points="836,-504.5 836,-523.5 889,-523.5 889,-504.5 836,-504.5"/>
<text text-anchor="middle" x="862.5" y="-511.5" font-family="Helvetica,sans-Serif" font-size="10.00">event.h</text>
</a>
</g>
</g>
<!-- Node2&#45;&gt;Node33 -->
<g id="edge40" class="edge">
<title>Node2&#45;&gt;Node33</title>
<path fill="none" stroke="midnightblue" d="M736.76,-557.17C767.08,-547 810.07,-532.59 837.11,-523.52"/>
<polygon fill="midnightblue" stroke="midnightblue" points="735.38,-553.95 727.01,-560.44 737.6,-560.58 735.38,-553.95"/>
</g>
<!-- Node35 -->
<g id="node35" class="node">
<title>Node35</title>
<g id="a_node35"><a xlink:href="spec_2queue_8h.html" target="_top" xlink:title=" ">
<polygon fill="white" stroke="black" points="907.5,-504.5 907.5,-523.5 963.5,-523.5 963.5,-504.5 907.5,-504.5"/>
<text text-anchor="middle" x="935.5" y="-511.5" font-family="Helvetica,sans-Serif" font-size="10.00">queue.h</text>
</a>
</g>
</g>
<!-- Node2&#45;&gt;Node35 -->
<g id="edge43" class="edge">
<title>Node2&#45;&gt;Node35</title>
<path fill="none" stroke="midnightblue" d="M749.03,-558.18C788.73,-549.13 846.83,-535.82 897.5,-524 900.67,-523.26 903.99,-522.48 907.28,-521.71"/>
<polygon fill="midnightblue" stroke="midnightblue" points="748.06,-554.81 739.09,-560.45 749.62,-561.64 748.06,-554.81"/>
</g>
<!-- Node37 -->
<g id="node37" class="node">
<title>Node37</title>
<g id="a_node37"><a xlink:href="spec_2schedule_8h.html" target="_top" xlink:title=" ">
<polygon fill="white" stroke="black" points="982,-504.5 982,-523.5 1051,-523.5 1051,-504.5 982,-504.5"/>
<text text-anchor="middle" x="1016.5" y="-511.5" font-family="Helvetica,sans-Serif" font-size="10.00">schedule.h</text>
</a>
</g>
</g>
<!-- Node2&#45;&gt;Node37 -->
<g id="edge45" class="edge">
<title>Node2&#45;&gt;Node37</title>
<path fill="none" stroke="midnightblue" d="M754.93,-560.73C809.66,-552.12 897.16,-537.95 972.5,-524 975.57,-523.43 978.75,-522.82 981.94,-522.2"/>
<polygon fill="midnightblue" stroke="midnightblue" points="754.1,-557.32 744.77,-562.32 755.19,-564.23 754.1,-557.32"/>
</g>
<!-- Node39 -->
<g id="node39" class="node">
<title>Node39</title>
<g id="a_node39"><a xlink:href="spec_2timer__types_8h.html" target="_top" xlink:title=" ">
<polygon fill="white" stroke="black" points="624.5,-504.5 624.5,-523.5 708.5,-523.5 708.5,-504.5 624.5,-504.5"/>
<text text-anchor="middle" x="666.5" y="-511.5" font-family="Helvetica,sans-Serif" font-size="10.00">timer_types.h</text>
</a>
</g>
</g>
<!-- Node2&#45;&gt;Node39 -->
<g id="edge48" class="edge">
<title>Node2&#45;&gt;Node39</title>
<path fill="none" stroke="midnightblue" d="M690.2,-551.57C684.18,-542.27 677.03,-531.25 672.17,-523.75"/>
<polygon fill="midnightblue" stroke="midnightblue" points="687.34,-553.6 695.72,-560.08 693.22,-549.79 687.34,-553.6"/>
</g>
<!-- Node41 -->
<g id="node41" class="node">
<title>Node41</title>
<g id="a_node41"><a xlink:href="timer__inlines_8h_source.html" target="_top" xlink:title=" ">
<polygon fill="white" stroke="black" points="685,-392.5 685,-411.5 774,-411.5 774,-392.5 685,-392.5"/>
<text text-anchor="middle" x="729.5" y="-399.5" font-family="Helvetica,sans-Serif" font-size="10.00">timer_inlines.h</text>
</a>
</g>
</g>
<!-- Node2&#45;&gt;Node41 -->
<g id="edge55" class="edge">
<title>Node2&#45;&gt;Node41</title>
<path fill="none" stroke="midnightblue" d="M709.13,-550.74C712.2,-542.68 715.48,-533 717.5,-524 726.77,-482.59 728.88,-431.62 729.36,-411.62"/>
<polygon fill="midnightblue" stroke="midnightblue" points="705.8,-549.64 705.34,-560.22 712.3,-552.24 705.8,-549.64"/>
</g>
<!-- Node42 -->
<g id="node42" class="node">
<title>Node42</title>
<g id="a_node42"><a xlink:href="queue__inline__types_8h_source.html" target="_top" xlink:title=" ">
<polygon fill="white" stroke="black" points="1069.5,-504.5 1069.5,-523.5 1189.5,-523.5 1189.5,-504.5 1069.5,-504.5"/>
<text text-anchor="middle" x="1129.5" y="-511.5" font-family="Helvetica,sans-Serif" font-size="10.00">queue_inline_types.h</text>
</a>
</g>
</g>
<!-- Node2&#45;&gt;Node42 -->
<g id="edge53" class="edge">
<title>Node2&#45;&gt;Node42</title>
<path fill="none" stroke="midnightblue" d="M754.96,-562.38C825.1,-553.68 952.05,-537.87 1060.5,-524 1063.38,-523.63 1066.32,-523.25 1069.29,-522.87"/>
<polygon fill="midnightblue" stroke="midnightblue" points="754.11,-558.96 744.61,-563.67 754.97,-565.91 754.11,-558.96"/>
</g>
<!-- Node4 -->
<g id="node4" class="node">
<title>Node4</title>
<g id="a_node4"><a xlink:href="buffer_8h.html" target="_top" xlink:title=" ">
<polygon fill="white" stroke="black" points="37,-224.5 37,-243.5 90,-243.5 90,-224.5 37,-224.5"/>
<text text-anchor="middle" x="63.5" y="-231.5" font-family="Helvetica,sans-Serif" font-size="10.00">buffer.h</text>
</a>
</g>
</g>
<!-- Node3&#45;&gt;Node4 -->
<g id="edge3" class="edge">
<title>Node3&#45;&gt;Node4</title>
<path fill="none" stroke="midnightblue" d="M63.5,-269.8C63.5,-260.91 63.5,-250.78 63.5,-243.75"/>
<polygon fill="midnightblue" stroke="midnightblue" points="60,-270.08 63.5,-280.08 67,-270.08 60,-270.08"/>
</g>
<!-- Node6 -->
<g id="node6" class="node">
<title>Node6</title>
<g id="a_node6"><a xlink:href="comp_8h.html" target="_top" xlink:title=" ">
<polygon fill="white" stroke="black" points="765,-448.5 765,-467.5 818,-467.5 818,-448.5 765,-448.5"/>
<text text-anchor="middle" x="791.5" y="-455.5" font-family="Helvetica,sans-Serif" font-size="10.00">comp.h</text>
</a>
</g>
</g>
<!-- Node5&#45;&gt;Node6 -->
<g id="edge5" class="edge">
<title>Node5&#45;&gt;Node6</title>
<path fill="none" stroke="midnightblue" d="M791.5,-493.8C791.5,-484.91 791.5,-474.78 791.5,-467.75"/>
<polygon fill="midnightblue" stroke="midnightblue" points="788,-494.08 791.5,-504.08 795,-494.08 788,-494.08"/>
</g>
<!-- Node8 -->
<g id="node8" class="node">
<title>Node8</title>
<g id="a_node8"><a xlink:href="dma__types_8h.html" target="_top" xlink:title=" ">
<polygon fill="white" stroke="black" points="268.5,-448.5 268.5,-467.5 348.5,-467.5 348.5,-448.5 268.5,-448.5"/>
<text text-anchor="middle" x="308.5" y="-455.5" font-family="Helvetica,sans-Serif" font-size="10.00">dma_types.h</text>
</a>
</g>
</g>
<!-- Node7&#45;&gt;Node8 -->
<g id="edge7" class="edge">
<title>Node7&#45;&gt;Node8</title>
<path fill="none" stroke="midnightblue" d="M368.67,-498.62C353.69,-488.76 334.3,-475.99 321.64,-467.65"/>
<polygon fill="midnightblue" stroke="midnightblue" points="367.05,-501.75 377.33,-504.32 370.9,-495.9 367.05,-501.75"/>
</g>
<!-- Node9 -->
<g id="node9" class="node">
<title>Node9</title>
<g id="a_node9"><a xlink:href="spec_2dma_8h.html" target="_top" xlink:title=" ">
<polygon fill="white" stroke="black" points="108,-280.5 108,-299.5 155,-299.5 155,-280.5 108,-280.5"/>
<text text-anchor="middle" x="131.5" y="-287.5" font-family="Helvetica,sans-Serif" font-size="10.00">dma.h</text>
</a>
</g>
</g>
<!-- Node8&#45;&gt;Node9 -->
<g id="edge8" class="edge">
<title>Node8&#45;&gt;Node9</title>
<path fill="none" stroke="midnightblue" d="M291.5,-441.5C282.05,-432.85 270.09,-421.87 259.5,-412 214.53,-370.1 161.27,-319.4 140.46,-299.55"/>
<polygon fill="midnightblue" stroke="midnightblue" points="289.33,-444.25 299.07,-448.41 294.05,-439.08 289.33,-444.25"/>
</g>
<!-- Node11 -->
<g id="node11" class="node">
<title>Node11</title>
<g id="a_node11"><a xlink:href="spec_2pool__types_8h.html" target="_top" xlink:title=" ">
<polygon fill="white" stroke="black" points="269,-392.5 269,-411.5 348,-411.5 348,-392.5 269,-392.5"/>
<text text-anchor="middle" x="308.5" y="-399.5" font-family="Helvetica,sans-Serif" font-size="10.00">pool_types.h</text>
</a>
</g>
</g>
<!-- Node8&#45;&gt;Node11 -->
<g id="edge10" class="edge">
<title>Node8&#45;&gt;Node11</title>
<path fill="none" stroke="midnightblue" d="M308.5,-437.8C308.5,-428.91 308.5,-418.78 308.5,-411.75"/>
<polygon fill="midnightblue" stroke="midnightblue" points="305,-438.08 308.5,-448.08 312,-438.08 305,-438.08"/>
</g>
<!-- Node10 -->
<g id="node10" class="node">
<title>Node10</title>
<g id="a_node10"><a xlink:href="dma_8h.html" target="_top" xlink:title=" ">
<polygon fill="white" stroke="black" points="108,-224.5 108,-243.5 155,-243.5 155,-224.5 108,-224.5"/>
<text text-anchor="middle" x="131.5" y="-231.5" font-family="Helvetica,sans-Serif" font-size="10.00">dma.h</text>
</a>
</g>
</g>
<!-- Node9&#45;&gt;Node10 -->
<g id="edge9" class="edge">
<title>Node9&#45;&gt;Node10</title>
<path fill="none" stroke="midnightblue" d="M131.5,-269.8C131.5,-260.91 131.5,-250.78 131.5,-243.75"/>
<polygon fill="midnightblue" stroke="midnightblue" points="128,-270.08 131.5,-280.08 135,-270.08 128,-270.08"/>
</g>
<!-- Node12 -->
<g id="node12" class="node">
<title>Node12</title>
<g id="a_node12"><a xlink:href="pool__types_8h.html" target="_top" xlink:title=" ">
<polygon fill="white" stroke="black" points="269,-336.5 269,-355.5 348,-355.5 348,-336.5 269,-336.5"/>
<text text-anchor="middle" x="308.5" y="-343.5" font-family="Helvetica,sans-Serif" font-size="10.00">pool_types.h</text>
</a>
</g>
</g>
<!-- Node11&#45;&gt;Node12 -->
<g id="edge11" class="edge">
<title>Node11&#45;&gt;Node12</title>
<path fill="none" stroke="midnightblue" d="M308.5,-381.8C308.5,-372.91 308.5,-362.78 308.5,-355.75"/>
<polygon fill="midnightblue" stroke="midnightblue" points="305,-382.08 308.5,-392.08 312,-382.08 305,-382.08"/>
</g>
<!-- Node12&#45;&gt;Node3 -->
<g id="edge12" class="edge">
<title>Node12&#45;&gt;Node3</title>
<path fill="none" stroke="midnightblue" d="M259.07,-335C216.43,-326.23 153.27,-312.9 98.5,-300 95.81,-299.37 93.02,-298.69 90.23,-297.99"/>
<polygon fill="midnightblue" stroke="midnightblue" points="258.42,-338.44 268.91,-337.02 259.82,-331.58 258.42,-338.44"/>
</g>
<!-- Node12&#45;&gt;Node9 -->
<g id="edge22" class="edge">
<title>Node12&#45;&gt;Node9</title>
<path fill="none" stroke="midnightblue" d="M270.59,-333.43C235.59,-322.76 184.71,-307.23 155.17,-298.22"/>
<polygon fill="midnightblue" stroke="midnightblue" points="269.87,-336.87 280.45,-336.44 271.91,-330.18 269.87,-336.87"/>
</g>
<!-- Node13 -->
<g id="node13" class="node">
<title>Node13</title>
<g id="a_node13"><a xlink:href="spec_2classification_8h.html" target="_top" xlink:title=" ">
<polygon fill="white" stroke="black" points="113,-168.5 113,-187.5 202,-187.5 202,-168.5 113,-168.5"/>
<text text-anchor="middle" x="157.5" y="-175.5" font-family="Helvetica,sans-Serif" font-size="10.00">classification.h</text>
</a>
</g>
</g>
<!-- Node12&#45;&gt;Node13 -->
<g id="edge13" class="edge">
<title>Node12&#45;&gt;Node13</title>
<path fill="none" stroke="midnightblue" d="M292.15,-329.16C284.15,-320.91 274.71,-310.4 267.5,-300 245.86,-268.81 254.1,-252.04 228.5,-224 213.84,-207.94 192.19,-195.33 176.66,-187.6"/>
<polygon fill="midnightblue" stroke="midnightblue" points="289.72,-331.68 299.26,-336.3 294.68,-326.74 289.72,-331.68"/>
</g>
<!-- Node19 -->
<g id="node19" class="node">
<title>Node19</title>
<g id="a_node19"><a xlink:href="spec_2crypto_8h.html" target="_top" xlink:title=" ">
<polygon fill="white" stroke="black" points="398.5,-280.5 398.5,-299.5 454.5,-299.5 454.5,-280.5 398.5,-280.5"/>
<text text-anchor="middle" x="426.5" y="-287.5" font-family="Helvetica,sans-Serif" font-size="10.00">crypto.h</text>
</a>
</g>
</g>
<!-- Node12&#45;&gt;Node19 -->
<g id="edge19" class="edge">
<title>Node12&#45;&gt;Node19</title>
<path fill="none" stroke="midnightblue" d="M336.4,-332.23C358.47,-322.13 388.68,-308.31 407.89,-299.52"/>
<polygon fill="midnightblue" stroke="midnightblue" points="334.83,-329.1 327.2,-336.44 337.75,-335.46 334.83,-329.1"/>
</g>
<!-- Node12&#45;&gt;Node21 -->
<g id="edge23" class="edge">
<title>Node12&#45;&gt;Node21</title>
<path fill="none" stroke="midnightblue" d="M358.44,-343.14C392.6,-339.19 436.42,-328.39 463.5,-300 494.06,-267.95 494.27,-209.64 493.14,-187.68"/>
<polygon fill="midnightblue" stroke="midnightblue" points="357.79,-339.69 348.19,-344.16 358.48,-346.66 357.79,-339.69"/>
</g>
<!-- Node24 -->
<g id="node24" class="node">
<title>Node24</title>
<g id="a_node24"><a xlink:href="spec_2packet__io__types_8h.html" target="_top" xlink:title=" ">
<polygon fill="white" stroke="black" points="276.5,-280.5 276.5,-299.5 380.5,-299.5 380.5,-280.5 276.5,-280.5"/>
<text text-anchor="middle" x="328.5" y="-287.5" font-family="Helvetica,sans-Serif" font-size="10.00">packet_io_types.h</text>
</a>
</g>
</g>
<!-- Node12&#45;&gt;Node24 -->
<g id="edge26" class="edge">
<title>Node12&#45;&gt;Node24</title>
<path fill="none" stroke="midnightblue" d="M315.28,-326.69C318.65,-317.59 322.57,-307.01 325.26,-299.75"/>
<polygon fill="midnightblue" stroke="midnightblue" points="311.99,-325.49 311.8,-336.08 318.56,-327.92 311.99,-325.49"/>
</g>
<!-- Node28 -->
<g id="node28" class="node">
<title>Node28</title>
<g id="a_node28"><a xlink:href="spec_2pool_8h.html" target="_top" xlink:title=" ">
<polygon fill="white" stroke="black" points="173,-280.5 173,-299.5 220,-299.5 220,-280.5 173,-280.5"/>
<text text-anchor="middle" x="196.5" y="-287.5" font-family="Helvetica,sans-Serif" font-size="10.00">pool.h</text>
</a>
</g>
</g>
<!-- Node12&#45;&gt;Node28 -->
<g id="edge35" class="edge">
<title>Node12&#45;&gt;Node28</title>
<path fill="none" stroke="midnightblue" d="M281.25,-331.86C260.48,-321.85 232.48,-308.35 214.45,-299.65"/>
<polygon fill="midnightblue" stroke="midnightblue" points="279.98,-335.13 290.51,-336.32 283.02,-328.83 279.98,-335.13"/>
</g>
<!-- Node12&#45;&gt;Node31 -->
<g id="edge38" class="edge">
<title>Node12&#45;&gt;Node31</title>
<path fill="none" stroke="midnightblue" d="M358.34,-336.15C423.9,-324.5 536.65,-304.47 586.97,-295.54"/>
<polygon fill="midnightblue" stroke="midnightblue" points="357.48,-332.75 348.24,-337.94 358.7,-339.64 357.48,-332.75"/>
</g>
<!-- Node14 -->
<g id="node14" class="node">
<title>Node14</title>
<g id="a_node14"><a xlink:href="classification_8h.html" target="_top" xlink:title=" ">
<polygon fill="white" stroke="black" points="113,-112.5 113,-131.5 202,-131.5 202,-112.5 113,-112.5"/>
<text text-anchor="middle" x="157.5" y="-119.5" font-family="Helvetica,sans-Serif" font-size="10.00">classification.h</text>
</a>
</g>
</g>
<!-- Node13&#45;&gt;Node14 -->
<g id="edge14" class="edge">
<title>Node13&#45;&gt;Node14</title>
<path fill="none" stroke="midnightblue" d="M157.5,-157.8C157.5,-148.91 157.5,-138.78 157.5,-131.75"/>
<polygon fill="midnightblue" stroke="midnightblue" points="154,-158.08 157.5,-168.08 161,-158.08 154,-158.08"/>
</g>
<!-- Node15 -->
<g id="node15" class="node">
<title>Node15</title>
<g id="a_node15"><a xlink:href="spec_2ipsec_8h.html" target="_top" xlink:title=" ">
<polygon fill="white" stroke="black" points="271,-56.5 271,-75.5 322,-75.5 322,-56.5 271,-56.5"/>
<text text-anchor="middle" x="296.5" y="-63.5" font-family="Helvetica,sans-Serif" font-size="10.00">ipsec.h</text>
</a>
</g>
</g>
<!-- Node14&#45;&gt;Node15 -->
<g id="edge15" class="edge">
<title>Node14&#45;&gt;Node15</title>
<path fill="none" stroke="midnightblue" d="M188.98,-108.77C215.09,-98.63 251.54,-84.47 274.58,-75.52"/>
<polygon fill="midnightblue" stroke="midnightblue" points="187.58,-105.56 179.52,-112.44 190.11,-112.08 187.58,-105.56"/>
</g>
<!-- Node17 -->
<g id="node17" class="node">
<title>Node17</title>
<g id="a_node17"><a xlink:href="spec_2packet__io_8h.html" target="_top" xlink:title=" ">
<polygon fill="white" stroke="black" points="165.5,-56.5 165.5,-75.5 237.5,-75.5 237.5,-56.5 165.5,-56.5"/>
<text text-anchor="middle" x="201.5" y="-63.5" font-family="Helvetica,sans-Serif" font-size="10.00">packet_io.h</text>
</a>
</g>
</g>
<!-- Node14&#45;&gt;Node17 -->
<g id="edge17" class="edge">
<title>Node14&#45;&gt;Node17</title>
<path fill="none" stroke="midnightblue" d="M171.23,-104.14C178.9,-94.74 188.13,-83.4 194.37,-75.75"/>
<polygon fill="midnightblue" stroke="midnightblue" points="168.37,-102.12 164.77,-112.08 173.8,-106.54 168.37,-102.12"/>
</g>
<!-- Node16 -->
<g id="node16" class="node">
<title>Node16</title>
<g id="a_node16"><a xlink:href="ipsec_8h.html" target="_top" xlink:title=" ">
<polygon fill="white" stroke="black" points="271,-0.5 271,-19.5 322,-19.5 322,-0.5 271,-0.5"/>
<text text-anchor="middle" x="296.5" y="-7.5" font-family="Helvetica,sans-Serif" font-size="10.00">ipsec.h</text>
</a>
</g>
</g>
<!-- Node15&#45;&gt;Node16 -->
<g id="edge16" class="edge">
<title>Node15&#45;&gt;Node16</title>
<path fill="none" stroke="midnightblue" d="M296.5,-45.8C296.5,-36.91 296.5,-26.78 296.5,-19.75"/>
<polygon fill="midnightblue" stroke="midnightblue" points="293,-46.08 296.5,-56.08 300,-46.08 293,-46.08"/>
</g>
<!-- Node18 -->
<g id="node18" class="node">
<title>Node18</title>
<g id="a_node18"><a xlink:href="packet__io_8h.html" target="_top" xlink:title=" ">
<polygon fill="white" stroke="black" points="165.5,-0.5 165.5,-19.5 237.5,-19.5 237.5,-0.5 165.5,-0.5"/>
<text text-anchor="middle" x="201.5" y="-7.5" font-family="Helvetica,sans-Serif" font-size="10.00">packet_io.h</text>
</a>
</g>
</g>
<!-- Node17&#45;&gt;Node18 -->
<g id="edge18" class="edge">
<title>Node17&#45;&gt;Node18</title>
<path fill="none" stroke="midnightblue" d="M201.5,-45.8C201.5,-36.91 201.5,-26.78 201.5,-19.75"/>
<polygon fill="midnightblue" stroke="midnightblue" points="198,-46.08 201.5,-56.08 205,-46.08 198,-46.08"/>
</g>
<!-- Node20 -->
<g id="node20" class="node">
<title>Node20</title>
<g id="a_node20"><a xlink:href="crypto_8h.html" target="_top" xlink:title=" ">
<polygon fill="white" stroke="black" points="398.5,-112.5 398.5,-131.5 454.5,-131.5 454.5,-112.5 398.5,-112.5"/>
<text text-anchor="middle" x="426.5" y="-119.5" font-family="Helvetica,sans-Serif" font-size="10.00">crypto.h</text>
</a>
</g>
</g>
<!-- Node19&#45;&gt;Node20 -->
<g id="edge20" class="edge">
<title>Node19&#45;&gt;Node20</title>
<path fill="none" stroke="midnightblue" d="M426.5,-269.93C426.5,-233.92 426.5,-157.23 426.5,-131.57"/>
<polygon fill="midnightblue" stroke="midnightblue" points="423,-270.08 426.5,-280.08 430,-270.08 423,-270.08"/>
</g>
<!-- Node20&#45;&gt;Node15 -->
<g id="edge21" class="edge">
<title>Node20&#45;&gt;Node15</title>
<path fill="none" stroke="midnightblue" d="M396.41,-108.5C372.04,-98.38 338.36,-84.39 317,-75.52"/>
<polygon fill="midnightblue" stroke="midnightblue" points="395.32,-111.84 405.9,-112.44 398.01,-105.38 395.32,-111.84"/>
</g>
<!-- Node22 -->
<g id="node22" class="node">
<title>Node22</title>
<g id="a_node22"><a xlink:href="packet_8h.html" target="_top" xlink:title=" ">
<polygon fill="white" stroke="black" points="472.5,-112.5 472.5,-131.5 530.5,-131.5 530.5,-112.5 472.5,-112.5"/>
<text text-anchor="middle" x="501.5" y="-119.5" font-family="Helvetica,sans-Serif" font-size="10.00">packet.h</text>
</a>
</g>
</g>
<!-- Node21&#45;&gt;Node22 -->
<g id="edge24" class="edge">
<title>Node21&#45;&gt;Node22</title>
<path fill="none" stroke="midnightblue" d="M495.65,-158.1C497.14,-149.14 498.86,-138.86 500.04,-131.75"/>
<polygon fill="midnightblue" stroke="midnightblue" points="492.18,-157.64 493.99,-168.08 499.08,-158.79 492.18,-157.64"/>
</g>
<!-- Node22&#45;&gt;Node23 -->
<g id="edge25" class="edge">
<title>Node22&#45;&gt;Node23</title>
<path fill="none" stroke="midnightblue" d="M510.84,-102.98C515.59,-93.82 521.16,-83.09 524.96,-75.75"/>
<polygon fill="midnightblue" stroke="midnightblue" points="507.62,-101.59 506.12,-112.08 513.83,-104.82 507.62,-101.59"/>
</g>
<!-- Node25 -->
<g id="node25" class="node">
<title>Node25</title>
<g id="a_node25"><a xlink:href="packet__io__types_8h.html" target="_top" xlink:title=" ">
<polygon fill="white" stroke="black" points="276.5,-224.5 276.5,-243.5 380.5,-243.5 380.5,-224.5 276.5,-224.5"/>
<text text-anchor="middle" x="328.5" y="-231.5" font-family="Helvetica,sans-Serif" font-size="10.00">packet_io_types.h</text>
</a>
</g>
</g>
<!-- Node24&#45;&gt;Node25 -->
<g id="edge27" class="edge">
<title>Node24&#45;&gt;Node25</title>
<path fill="none" stroke="midnightblue" d="M328.5,-269.8C328.5,-260.91 328.5,-250.78 328.5,-243.75"/>
<polygon fill="midnightblue" stroke="midnightblue" points="325,-270.08 328.5,-280.08 332,-270.08 325,-270.08"/>
</g>
<!-- Node25&#45;&gt;Node13 -->
<g id="edge28" class="edge">
<title>Node25&#45;&gt;Node13</title>
<path fill="none" stroke="midnightblue" d="M291.46,-221.3C259.24,-211.13 213.31,-196.62 184.47,-187.52"/>
<polygon fill="midnightblue" stroke="midnightblue" points="290.81,-224.77 301.4,-224.44 292.92,-218.09 290.81,-224.77"/>
</g>
<!-- Node25&#45;&gt;Node15 -->
<g id="edge29" class="edge">
<title>Node25&#45;&gt;Node15</title>
<path fill="none" stroke="midnightblue" d="M309.25,-217.75C300.87,-209.87 291.95,-199.5 287.5,-188 272.13,-148.32 286.62,-95.92 293.42,-75.58"/>
<polygon fill="midnightblue" stroke="midnightblue" points="307.13,-220.54 316.96,-224.49 311.74,-215.27 307.13,-220.54"/>
</g>
<!-- Node25&#45;&gt;Node17 -->
<g id="edge31" class="edge">
<title>Node25&#45;&gt;Node17</title>
<path fill="none" stroke="midnightblue" d="M309.79,-217.82C300.17,-209.54 288.6,-198.79 279.5,-188 246.97,-149.39 217.21,-96.38 206.1,-75.73"/>
<polygon fill="midnightblue" stroke="midnightblue" points="307.72,-220.65 317.63,-224.4 312.22,-215.29 307.72,-220.65"/>
</g>
<!-- Node25&#45;&gt;Node21 -->
<g id="edge30" class="edge">
<title>Node25&#45;&gt;Node21</title>
<path fill="none" stroke="midnightblue" d="M364.02,-221.3C394.92,-211.13 438.97,-196.62 466.64,-187.52"/>
<polygon fill="midnightblue" stroke="midnightblue" points="362.89,-217.99 354.49,-224.44 365.08,-224.64 362.89,-217.99"/>
</g>
<!-- Node26 -->
<g id="node26" class="node">
<title>Node26</title>
<g id="a_node26"><a xlink:href="spec_2traffic__mngr_8h.html" target="_top" xlink:title=" ">
<polygon fill="white" stroke="black" points="296.5,-168.5 296.5,-187.5 380.5,-187.5 380.5,-168.5 296.5,-168.5"/>
<text text-anchor="middle" x="338.5" y="-175.5" font-family="Helvetica,sans-Serif" font-size="10.00">traffic_mngr.h</text>
</a>
</g>
</g>
<!-- Node25&#45;&gt;Node26 -->
<g id="edge32" class="edge">
<title>Node25&#45;&gt;Node26</title>
<path fill="none" stroke="midnightblue" d="M332,-214.1C333.66,-205.14 335.56,-194.86 336.88,-187.75"/>
<polygon fill="midnightblue" stroke="midnightblue" points="328.53,-213.61 330.15,-224.08 335.41,-214.89 328.53,-213.61"/>
</g>
<!-- Node27 -->
<g id="node27" class="node">
<title>Node27</title>
<g id="a_node27"><a xlink:href="traffic__mngr_8h.html" target="_top" xlink:title=" ">
<polygon fill="white" stroke="black" points="296.5,-112.5 296.5,-131.5 380.5,-131.5 380.5,-112.5 296.5,-112.5"/>
<text text-anchor="middle" x="338.5" y="-119.5" font-family="Helvetica,sans-Serif" font-size="10.00">traffic_mngr.h</text>
</a>
</g>
</g>
<!-- Node26&#45;&gt;Node27 -->
<g id="edge33" class="edge">
<title>Node26&#45;&gt;Node27</title>
<path fill="none" stroke="midnightblue" d="M338.5,-157.8C338.5,-148.91 338.5,-138.78 338.5,-131.75"/>
<polygon fill="midnightblue" stroke="midnightblue" points="335,-158.08 338.5,-168.08 342,-158.08 335,-158.08"/>
</g>
<!-- Node27&#45;&gt;Node15 -->
<g id="edge34" class="edge">
<title>Node27&#45;&gt;Node15</title>
<path fill="none" stroke="midnightblue" d="M325.39,-104.14C318.07,-94.74 309.26,-83.4 303.31,-75.75"/>
<polygon fill="midnightblue" stroke="midnightblue" points="322.66,-106.34 331.56,-112.08 328.19,-102.04 322.66,-106.34"/>
</g>
<!-- Node29 -->
<g id="node29" class="node">
<title>Node29</title>
<g id="a_node29"><a xlink:href="pool_8h.html" target="_top" xlink:title=" ">
<polygon fill="white" stroke="black" points="173,-224.5 173,-243.5 220,-243.5 220,-224.5 173,-224.5"/>
<text text-anchor="middle" x="196.5" y="-231.5" font-family="Helvetica,sans-Serif" font-size="10.00">pool.h</text>
</a>
</g>
</g>
<!-- Node28&#45;&gt;Node29 -->
<g id="edge36" class="edge">
<title>Node28&#45;&gt;Node29</title>
<path fill="none" stroke="midnightblue" d="M196.5,-269.8C196.5,-260.91 196.5,-250.78 196.5,-243.75"/>
<polygon fill="midnightblue" stroke="midnightblue" points="193,-270.08 196.5,-280.08 200,-270.08 193,-270.08"/>
</g>
<!-- Node30 -->
<g id="node30" class="node">
<title>Node30</title>
<g id="a_node30"><a xlink:href="packet__inlines_8h.html" target="_top" xlink:title=" ">
<polygon fill="white" stroke="black" points="0,-168.5 0,-187.5 95,-187.5 95,-168.5 0,-168.5"/>
<text text-anchor="middle" x="47.5" y="-175.5" font-family="Helvetica,sans-Serif" font-size="10.00">packet_inlines.h</text>
</a>
</g>
</g>
<!-- Node29&#45;&gt;Node30 -->
<g id="edge37" class="edge">
<title>Node29&#45;&gt;Node30</title>
<path fill="none" stroke="midnightblue" d="M163.13,-220.91C135.12,-210.75 95.8,-196.51 71,-187.52"/>
<polygon fill="midnightblue" stroke="midnightblue" points="162.3,-224.33 172.89,-224.44 164.68,-217.75 162.3,-224.33"/>
</g>
<!-- Node32 -->
<g id="node32" class="node">
<title>Node32</title>
<g id="a_node32"><a xlink:href="timer_8h.html" target="_top" xlink:title=" ">
<polygon fill="white" stroke="black" points="587,-224.5 587,-243.5 638,-243.5 638,-224.5 587,-224.5"/>
<text text-anchor="middle" x="612.5" y="-231.5" font-family="Helvetica,sans-Serif" font-size="10.00">timer.h</text>
</a>
</g>
</g>
<!-- Node31&#45;&gt;Node32 -->
<g id="edge39" class="edge">
<title>Node31&#45;&gt;Node32</title>
<path fill="none" stroke="midnightblue" d="M612.5,-269.8C612.5,-260.91 612.5,-250.78 612.5,-243.75"/>
<polygon fill="midnightblue" stroke="midnightblue" points="609,-270.08 612.5,-280.08 616,-270.08 609,-270.08"/>
</g>
<!-- Node34 -->
<g id="node34" class="node">
<title>Node34</title>
<g id="a_node34"><a xlink:href="event_8h.html" target="_top" xlink:title=" ">
<polygon fill="white" stroke="black" points="836,-448.5 836,-467.5 889,-467.5 889,-448.5 836,-448.5"/>
<text text-anchor="middle" x="862.5" y="-455.5" font-family="Helvetica,sans-Serif" font-size="10.00">event.h</text>
</a>
</g>
</g>
<!-- Node33&#45;&gt;Node34 -->
<g id="edge41" class="edge">
<title>Node33&#45;&gt;Node34</title>
<path fill="none" stroke="midnightblue" d="M862.5,-493.8C862.5,-484.91 862.5,-474.78 862.5,-467.75"/>
<polygon fill="midnightblue" stroke="midnightblue" points="859,-494.08 862.5,-504.08 866,-494.08 859,-494.08"/>
</g>
<!-- Node36 -->
<g id="node36" class="node">
<title>Node36</title>
<g id="a_node36"><a xlink:href="queue_8h.html" target="_top" xlink:title=" ">
<polygon fill="white" stroke="black" points="907.5,-448.5 907.5,-467.5 963.5,-467.5 963.5,-448.5 907.5,-448.5"/>
<text text-anchor="middle" x="935.5" y="-455.5" font-family="Helvetica,sans-Serif" font-size="10.00">queue.h</text>
</a>
</g>
</g>
<!-- Node35&#45;&gt;Node36 -->
<g id="edge44" class="edge">
<title>Node35&#45;&gt;Node36</title>
<path fill="none" stroke="midnightblue" d="M935.5,-493.8C935.5,-484.91 935.5,-474.78 935.5,-467.75"/>
<polygon fill="midnightblue" stroke="midnightblue" points="932,-494.08 935.5,-504.08 939,-494.08 932,-494.08"/>
</g>
<!-- Node38 -->
<g id="node38" class="node">
<title>Node38</title>
<g id="a_node38"><a xlink:href="schedule_8h.html" target="_top" xlink:title=" ">
<polygon fill="white" stroke="black" points="982,-448.5 982,-467.5 1051,-467.5 1051,-448.5 982,-448.5"/>
<text text-anchor="middle" x="1016.5" y="-455.5" font-family="Helvetica,sans-Serif" font-size="10.00">schedule.h</text>
</a>
</g>
</g>
<!-- Node37&#45;&gt;Node38 -->
<g id="edge46" class="edge">
<title>Node37&#45;&gt;Node38</title>
<path fill="none" stroke="midnightblue" d="M1016.5,-493.8C1016.5,-484.91 1016.5,-474.78 1016.5,-467.75"/>
<polygon fill="midnightblue" stroke="midnightblue" points="1013,-494.08 1016.5,-504.08 1020,-494.08 1013,-494.08"/>
</g>
<!-- Node40 -->
<g id="node40" class="node">
<title>Node40</title>
<g id="a_node40"><a xlink:href="timer__types_8h.html" target="_top" xlink:title=" ">
<polygon fill="white" stroke="black" points="624.5,-448.5 624.5,-467.5 708.5,-467.5 708.5,-448.5 624.5,-448.5"/>
<text text-anchor="middle" x="666.5" y="-455.5" font-family="Helvetica,sans-Serif" font-size="10.00">timer_types.h</text>
</a>
</g>
</g>
<!-- Node39&#45;&gt;Node40 -->
<g id="edge49" class="edge">
<title>Node39&#45;&gt;Node40</title>
<path fill="none" stroke="midnightblue" d="M666.5,-493.8C666.5,-484.91 666.5,-474.78 666.5,-467.75"/>
<polygon fill="midnightblue" stroke="midnightblue" points="663,-494.08 666.5,-504.08 670,-494.08 663,-494.08"/>
</g>
<!-- Node40&#45;&gt;Node31 -->
<g id="edge50" class="edge">
<title>Node40&#45;&gt;Node31</title>
<path fill="none" stroke="midnightblue" d="M660.45,-438.39C648.8,-402.59 623.67,-325.34 615.29,-299.57"/>
<polygon fill="midnightblue" stroke="midnightblue" points="657.17,-439.65 663.6,-448.08 663.83,-437.48 657.17,-439.65"/>
</g>
<!-- Node40&#45;&gt;Node41 -->
<g id="edge51" class="edge">
<title>Node40&#45;&gt;Node41</title>
<path fill="none" stroke="midnightblue" d="M684.54,-441.54C695.77,-431.91 709.82,-419.87 719.19,-411.83"/>
<polygon fill="midnightblue" stroke="midnightblue" points="681.94,-439.16 676.62,-448.32 686.49,-444.47 681.94,-439.16"/>
</g>
<!-- Node43 -->
<g id="node43" class="node">
<title>Node43</title>
<g id="a_node43"><a xlink:href="queue__inlines_8h_source.html" target="_top" xlink:title=" ">
<polygon fill="white" stroke="black" points="1083,-448.5 1083,-467.5 1176,-467.5 1176,-448.5 1083,-448.5"/>
<text text-anchor="middle" x="1129.5" y="-455.5" font-family="Helvetica,sans-Serif" font-size="10.00">queue_inlines.h</text>
</a>
</g>
</g>
<!-- Node42&#45;&gt;Node43 -->
<g id="edge54" class="edge">
<title>Node42&#45;&gt;Node43</title>
<path fill="none" stroke="midnightblue" d="M1129.5,-493.8C1129.5,-484.91 1129.5,-474.78 1129.5,-467.75"/>
<polygon fill="midnightblue" stroke="midnightblue" points="1126,-494.08 1129.5,-504.08 1133,-494.08 1126,-494.08"/>
</g>
</g>
</svg>
